<?xml version="1.0" encoding="UTF-8" standalone="no"?><!DOCTYPE svg PUBLIC "-//W3C//DTD SVG 1.1//EN" "http://www.w3.org/Graphics/SVG/1.1/DTD/svg11.dtd"><svg width="100%" height="100%" viewBox="0 0 178 182" version="1.1" xmlns="http://www.w3.org/2000/svg" xmlns:xlink="http://www.w3.org/1999/xlink" xml:space="preserve" style="fill-rule:evenodd;clip-rule:evenodd;stroke-linecap:round;stroke-linejoin:round;stroke-miterlimit:10;"><g><path d="M85.904,9.101c-20.181,0 -48.87,-8.359 -48.87,-8.359c0,0 -1.929,36.752 -25.326,32.696c0,122.869 74.196,147.304 74.196,147.304c0,0 74.196,-24.435 74.196,-147.304c-23.396,4.056 -25.325,-32.696 -25.325,-32.696c0,0 -28.689,8.359 -48.871,8.359" style="fill:#fff;stroke:#8f162c;stroke-width:1.48px;"/><path d="M85.904,28.887c-26.364,0 -37.098,-4.353 -37.098,-4.353c0,0 -4.65,22.358 -26.711,25.573c0,96.406 63.809,110.058 63.809,110.058c0,0 63.809,-13.702 63.809,-110.058c-22.061,-3.215 -26.711,-25.573 -26.711,-25.573c0,0 -10.733,4.353 -37.098,4.353" style="fill:#3d4159;"/><g><g><clipPath id="_clip1"><path d="M85.904,29.431c-26.364,0 -37.098,-4.353 -37.098,-4.353c0,0 -4.65,22.358 -26.711,25.573c0,96.406 63.809,110.058 63.809,110.058c0,0 63.809,-13.702 63.809,-110.058c-22.061,-3.215 -26.711,-25.573 -26.711,-25.573c0,0 -10.733,4.353 -37.098,4.353Z"/></clipPath><g clip-path="url(#_clip1)"><g><path d="M0.925,19.984c-1.682,9.942 8.804,13.355 8.359,0.098" style="fill:none;stroke:#454b6e;stroke-width:1.48px;"/><path d="M9.482,19.984c-1.682,9.942 8.805,13.355 8.36,0.098" style="fill:none;stroke:#454b6e;stroke-width:1.48px;"/><path d="M18.089,19.984c-1.682,9.942 8.804,13.355 8.359,0.098" style="fill:none;stroke:#454b6e;stroke-width:1.48px;"/><path d="M26.646,19.984c-1.682,9.942 8.805,13.355 8.36,0.098" style="fill:none;stroke:#454b6e;stroke-width:1.48px;"/><path d="M35.203,19.984c-1.681,9.942 8.805,13.355 8.36,0.098" style="fill:none;stroke:#454b6e;stroke-width:1.48px;"/><path d="M43.81,19.984c-1.682,9.942 8.805,13.355 8.36,0.098" style="fill:none;stroke:#454b6e;stroke-width:1.48px;"/><path d="M52.367,19.984c-1.681,9.942 8.805,13.355 8.36,0.098" style="fill:none;stroke:#454b6e;stroke-width:1.48px;"/><path d="M60.974,19.984c-1.682,9.942 8.805,13.355 8.36,0.098" style="fill:none;stroke:#454b6e;stroke-width:1.48px;"/><path d="M69.532,19.984c-1.682,9.942 8.804,13.355 8.359,0.098" style="fill:none;stroke:#454b6e;stroke-width:1.48px;"/><path d="M78.138,19.984c-1.681,9.942 8.805,13.355 8.36,0.098" style="fill:none;stroke:#454b6e;stroke-width:1.48px;"/><path d="M0.925,37.543c-1.682,9.943 8.804,13.356 8.359,0.099" style="fill:none;stroke:#454b6e;stroke-width:1.48px;"/><path d="M9.482,37.543c-1.682,9.943 8.805,13.356 8.36,0.099" style="fill:none;stroke:#454b6e;stroke-width:1.48px;"/><path d="M18.089,37.543c-1.682,9.943 8.804,13.356 8.359,0.099" style="fill:none;stroke:#454b6e;stroke-width:1.48px;"/><path d="M26.646,37.543c-1.682,9.943 8.805,13.356 8.36,0.099" style="fill:none;stroke:#454b6e;stroke-width:1.48px;"/><path d="M35.203,37.543c-1.681,9.943 8.805,13.356 8.36,0.099" style="fill:none;stroke:#454b6e;stroke-width:1.48px;"/><path d="M43.81,37.543c-1.682,9.943 8.805,13.356 8.36,0.099" style="fill:none;stroke:#454b6e;stroke-width:1.48px;"/><path d="M52.367,37.543c-1.681,9.943 8.805,13.356 8.36,0.099" style="fill:none;stroke:#454b6e;stroke-width:1.48px;"/><path d="M60.974,37.543c-1.682,9.943 8.805,13.356 8.36,0.099" style="fill:none;stroke:#454b6e;stroke-width:1.48px;"/><path d="M69.532,37.543c-1.682,9.943 8.804,13.356 8.359,0.099" style="fill:none;stroke:#454b6e;stroke-width:1.48px;"/><path d="M78.138,37.543c-1.681,9.943 8.805,13.356 8.36,0.099" style="fill:none;stroke:#454b6e;stroke-width:1.48px;"/><path d="M0.925,55.153c-1.682,9.942 8.804,13.355 8.359,0.098" style="fill:none;stroke:#454b6e;stroke-width:1.48px;"/><path d="M9.482,55.153c-1.682,9.942 8.805,13.355 8.36,0.098" style="fill:none;stroke:#454b6e;stroke-width:1.48px;"/><path d="M18.089,55.153c-1.682,9.942 8.804,13.355 8.359,0.098" style="fill:none;stroke:#454b6e;stroke-width:1.48px;"/><path d="M26.646,55.153c-1.682,9.942 8.805,13.355 8.36,0.098" style="fill:none;stroke:#454b6e;stroke-width:1.48px;"/><path d="M35.203,55.153c-1.681,9.942 8.805,13.355 8.36,0.098" style="fill:none;stroke:#454b6e;stroke-width:1.48px;"/><path d="M43.81,55.153c-1.682,9.942 8.805,13.355 8.36,0.098" style="fill:none;stroke:#454b6e;stroke-width:1.48px;"/><path d="M52.367,55.153c-1.681,9.942 8.805,13.355 8.36,0.098" style="fill:none;stroke:#454b6e;stroke-width:1.48px;"/><path d="M60.974,55.153c-1.682,9.942 8.805,13.355 8.36,0.098" style="fill:none;stroke:#454b6e;stroke-width:1.48px;"/><path d="M69.532,55.153c-1.682,9.942 8.804,13.355 8.359,0.098" style="fill:none;stroke:#454b6e;stroke-width:1.48px;"/><path d="M78.138,55.153c-1.681,9.942 8.805,13.355 8.36,0.098" style="fill:none;stroke:#454b6e;stroke-width:1.48px;"/><path d="M0.925,72.762c-1.682,9.942 8.804,13.355 8.359,0.099" style="fill:none;stroke:#454b6e;stroke-width:1.48px;"/><path d="M9.482,72.762c-1.682,9.942 8.805,13.355 8.36,0.099" style="fill:none;stroke:#454b6e;stroke-width:1.48px;"/><path d="M18.089,72.762c-1.682,9.942 8.804,13.355 8.359,0.099" style="fill:none;stroke:#454b6e;stroke-width:1.48px;"/><path d="M26.646,72.762c-1.682,9.942 8.805,13.355 8.36,0.099" style="fill:none;stroke:#454b6e;stroke-width:1.48px;"/><path d="M35.203,72.762c-1.681,9.942 8.805,13.355 8.36,0.099" style="fill:none;stroke:#454b6e;stroke-width:1.48px;"/><path d="M43.81,72.762c-1.682,9.942 8.805,13.355 8.36,0.099" style="fill:none;stroke:#454b6e;stroke-width:1.48px;"/><path d="M52.367,72.762c-1.681,9.942 8.805,13.355 8.36,0.099" style="fill:none;stroke:#454b6e;stroke-width:1.48px;"/><path d="M60.974,72.762c-1.682,9.942 8.805,13.355 8.36,0.099" style="fill:none;stroke:#454b6e;stroke-width:1.48px;"/><path d="M69.532,72.762c-1.682,9.942 8.804,13.355 8.359,0.099" style="fill:none;stroke:#454b6e;stroke-width:1.48px;"/><path d="M78.138,72.762c-1.681,9.942 8.805,13.355 8.36,0.099" style="fill:none;stroke:#454b6e;stroke-width:1.48px;"/><path d="M0.925,90.322c-1.682,9.942 8.804,13.355 8.359,0.098" style="fill:none;stroke:#454b6e;stroke-width:1.48px;"/><path d="M9.482,90.322c-1.682,9.942 8.805,13.355 8.36,0.098" style="fill:none;stroke:#454b6e;stroke-width:1.48px;"/><path d="M18.089,90.322c-1.682,9.942 8.804,13.355 8.359,0.098" style="fill:none;stroke:#454b6e;stroke-width:1.48px;"/><path d="M26.646,90.322c-1.682,9.942 8.805,13.355 8.36,0.098" style="fill:none;stroke:#454b6e;stroke-width:1.48px;"/><path d="M35.203,90.322c-1.681,9.942 8.805,13.355 8.36,0.098" style="fill:none;stroke:#454b6e;stroke-width:1.48px;"/><path d="M43.81,90.322c-1.682,9.942 8.805,13.355 8.36,0.098" style="fill:none;stroke:#454b6e;stroke-width:1.48px;"/><path d="M52.367,90.322c-1.681,9.942 8.805,13.355 8.36,0.098" style="fill:none;stroke:#454b6e;stroke-width:1.48px;"/><path d="M60.974,90.322c-1.682,9.942 8.805,13.355 8.36,0.098" style="fill:none;stroke:#454b6e;stroke-width:1.48px;"/><path d="M69.532,90.322c-1.682,9.942 8.804,13.355 8.359,0.098" style="fill:none;stroke:#454b6e;stroke-width:1.48px;"/><path d="M78.138,90.322c-1.681,9.942 8.805,13.355 8.36,0.098" style="fill:none;stroke:#454b6e;stroke-width:1.48px;"/><path d="M0.925,107.931c-1.682,9.942 8.804,13.355 8.359,0.099" style="fill:none;stroke:#454b6e;stroke-width:1.48px;"/><path d="M9.482,107.931c-1.682,9.942 8.805,13.355 8.36,0.099" style="fill:none;stroke:#454b6e;stroke-width:1.48px;"/><path d="M18.089,107.931c-1.682,9.942 8.804,13.355 8.359,0.099" style="fill:none;stroke:#454b6e;stroke-width:1.48px;"/><path d="M26.646,107.931c-1.682,9.942 8.805,13.355 8.36,0.099" style="fill:none;stroke:#454b6e;stroke-width:1.48px;"/><path d="M35.203,107.931c-1.681,9.942 8.805,13.355 8.36,0.099" style="fill:none;stroke:#454b6e;stroke-width:1.48px;"/><path d="M43.81,107.931c-1.682,9.942 8.805,13.355 8.36,0.099" style="fill:none;stroke:#454b6e;stroke-width:1.48px;"/><path d="M52.367,107.931c-1.681,9.942 8.805,13.355 8.36,0.099" style="fill:none;stroke:#454b6e;stroke-width:1.48px;"/><path d="M60.974,107.931c-1.682,9.942 8.805,13.355 8.36,0.099" style="fill:none;stroke:#454b6e;stroke-width:1.48px;"/><path d="M69.532,107.931c-1.682,9.942 8.804,13.355 8.359,0.099" style="fill:none;stroke:#454b6e;stroke-width:1.48px;"/><path d="M78.138,107.931c-1.681,9.942 8.805,13.355 8.36,0.099" style="fill:none;stroke:#454b6e;stroke-width:1.48px;"/><path d="M0.925,125.491c-1.682,9.942 8.804,13.355 8.359,0.098" style="fill:none;stroke:#454b6e;stroke-width:1.48px;"/><path d="M9.482,125.491c-1.682,9.942 8.805,13.355 8.36,0.098" style="fill:none;stroke:#454b6e;stroke-width:1.48px;"/><path d="M18.089,125.491c-1.682,9.942 8.804,13.355 8.359,0.098" style="fill:none;stroke:#454b6e;stroke-width:1.48px;"/><path d="M26.646,125.491c-1.682,9.942 8.805,13.355 8.36,0.098" style="fill:none;stroke:#454b6e;stroke-width:1.48px;"/><path d="M35.203,125.491c-1.681,9.942 8.805,13.355 8.36,0.098" style="fill:none;stroke:#454b6e;stroke-width:1.48px;"/><path d="M43.81,125.491c-1.682,9.942 8.805,13.355 8.36,0.098" style="fill:none;stroke:#454b6e;stroke-width:1.48px;"/><path d="M52.367,125.491c-1.681,9.942 8.805,13.355 8.36,0.098" style="fill:none;stroke:#454b6e;stroke-width:1.48px;"/><path d="M60.974,125.491c-1.682,9.942 8.805,13.355 8.36,0.098" style="fill:none;stroke:#454b6e;stroke-width:1.48px;"/><path d="M69.532,125.491c-1.682,9.942 8.804,13.355 8.359,0.098" style="fill:none;stroke:#454b6e;stroke-width:1.48px;"/><path d="M78.138,125.491c-1.681,9.942 8.805,13.355 8.36,0.098" style="fill:none;stroke:#454b6e;stroke-width:1.48px;"/><path d="M0.925,143.1c-1.682,9.942 8.804,13.355 8.359,0.099" style="fill:none;stroke:#454b6e;stroke-width:1.48px;"/><path d="M9.482,143.1c-1.682,9.942 8.805,13.355 8.36,0.099" style="fill:none;stroke:#454b6e;stroke-width:1.48px;"/><path d="M18.089,143.1c-1.682,9.942 8.804,13.355 8.359,0.099" style="fill:none;stroke:#454b6e;stroke-width:1.48px;"/><path d="M26.646,143.1c-1.682,9.942 8.805,13.355 8.36,0.099" style="fill:none;stroke:#454b6e;stroke-width:1.48px;"/><path d="M35.203,143.1c-1.681,9.942 8.805,13.355 8.36,0.099" style="fill:none;stroke:#454b6e;stroke-width:1.48px;"/><path d="M43.81,143.1c-1.682,9.942 8.805,13.355 8.36,0.099" style="fill:none;stroke:#454b6e;stroke-width:1.48px;"/><path d="M52.367,143.1c-1.681,9.942 8.805,13.355 8.36,0.099" style="fill:none;stroke:#454b6e;stroke-width:1.48px;"/><path d="M60.974,143.1c-1.682,9.942 8.805,13.355 8.36,0.099" style="fill:none;stroke:#454b6e;stroke-width:1.48px;"/><path d="M69.532,143.1c-1.682,9.942 8.804,13.355 8.359,0.099" style="fill:none;stroke:#454b6e;stroke-width:1.48px;"/><path d="M78.138,143.1c-1.681,9.942 8.805,13.355 8.36,0.099" style="fill:none;stroke:#454b6e;stroke-width:1.48px;"/><path d="M5.08,28.739c-1.682,9.942 8.804,13.355 8.359,0.099" style="fill:none;stroke:#454b6e;stroke-width:1.48px;"/><path d="M13.687,28.739c-1.682,9.942 8.804,13.355 8.359,0.099" style="fill:none;stroke:#454b6e;stroke-width:1.48px;"/><path d="M22.244,28.739c-1.682,9.942 8.804,13.355 8.359,0.099" style="fill:none;stroke:#454b6e;stroke-width:1.48px;"/><path d="M30.851,28.739c-1.682,9.942 8.804,13.355 8.359,0.099" style="fill:none;stroke:#454b6e;stroke-width:1.48px;"/><path d="M39.408,28.739c-1.682,9.942 8.804,13.355 8.359,0.099" style="fill:none;stroke:#454b6e;stroke-width:1.48px;"/><path d="M47.965,28.739c-1.682,9.942 8.805,13.355 8.36,0.099" style="fill:none;stroke:#454b6e;stroke-width:1.48px;"/><path d="M56.572,28.739c-1.682,9.942 8.805,13.355 8.359,0.099" style="fill:none;stroke:#454b6e;stroke-width:1.48px;"/><path d="M65.129,28.739c-1.682,9.942 8.805,13.355 8.36,0.099" style="fill:none;stroke:#454b6e;stroke-width:1.48px;"/><path d="M73.736,28.739c-1.682,9.942 8.805,13.355 8.359,0.099" style="fill:none;stroke:#454b6e;stroke-width:1.48px;"/><path d="M82.293,28.739c-1.681,9.942 8.805,13.355 8.36,0.099" style="fill:none;stroke:#454b6e;stroke-width:1.48px;"/><path d="M5.08,46.348c-1.682,9.942 8.804,13.355 8.359,0.099" style="fill:none;stroke:#454b6e;stroke-width:1.48px;"/><path d="M13.687,46.348c-1.682,9.942 8.804,13.355 8.359,0.099" style="fill:none;stroke:#454b6e;stroke-width:1.48px;"/><path d="M22.244,46.348c-1.682,9.942 8.804,13.355 8.359,0.099" style="fill:none;stroke:#454b6e;stroke-width:1.48px;"/><path d="M30.851,46.348c-1.682,9.942 8.804,13.355 8.359,0.099" style="fill:none;stroke:#454b6e;stroke-width:1.48px;"/><path d="M39.408,46.348c-1.682,9.942 8.804,13.355 8.359,0.099" style="fill:none;stroke:#454b6e;stroke-width:1.48px;"/><path d="M47.965,46.348c-1.682,9.942 8.805,13.355 8.36,0.099" style="fill:none;stroke:#454b6e;stroke-width:1.48px;"/><path d="M56.572,46.348c-1.682,9.942 8.805,13.355 8.359,0.099" style="fill:none;stroke:#454b6e;stroke-width:1.48px;"/><path d="M65.129,46.348c-1.682,9.942 8.805,13.355 8.36,0.099" style="fill:none;stroke:#454b6e;stroke-width:1.48px;"/><path d="M73.736,46.348c-1.682,9.942 8.805,13.355 8.359,0.099" style="fill:none;stroke:#454b6e;stroke-width:1.48px;"/><path d="M82.293,46.348c-1.681,9.942 8.805,13.355 8.36,0.099" style="fill:none;stroke:#454b6e;stroke-width:1.48px;"/><path d="M5.08,63.957c-1.682,9.942 8.804,13.355 8.359,0.099" style="fill:none;stroke:#454b6e;stroke-width:1.48px;"/><path d="M13.687,63.957c-1.682,9.942 8.804,13.355 8.359,0.099" style="fill:none;stroke:#454b6e;stroke-width:1.48px;"/><path d="M22.244,63.957c-1.682,9.942 8.804,13.355 8.359,0.099" style="fill:none;stroke:#454b6e;stroke-width:1.48px;"/><path d="M30.851,63.957c-1.682,9.942 8.804,13.355 8.359,0.099" style="fill:none;stroke:#454b6e;stroke-width:1.48px;"/><path d="M39.408,63.957c-1.682,9.942 8.804,13.355 8.359,0.099" style="fill:none;stroke:#454b6e;stroke-width:1.48px;"/><path d="M47.965,63.957c-1.682,9.942 8.805,13.355 8.36,0.099" style="fill:none;stroke:#454b6e;stroke-width:1.48px;"/><path d="M56.572,63.957c-1.682,9.942 8.805,13.355 8.359,0.099" style="fill:none;stroke:#454b6e;stroke-width:1.48px;"/><path d="M65.129,63.957c-1.682,9.942 8.805,13.355 8.36,0.099" style="fill:none;stroke:#454b6e;stroke-width:1.48px;"/><path d="M73.736,63.957c-1.682,9.942 8.805,13.355 8.359,0.099" style="fill:none;stroke:#454b6e;stroke-width:1.48px;"/><path d="M82.293,63.957c-1.681,9.942 8.805,13.355 8.36,0.099" style="fill:none;stroke:#454b6e;stroke-width:1.48px;"/><path d="M5.08,81.517c-1.682,9.942 8.804,13.355 8.359,0.099" style="fill:none;stroke:#454b6e;stroke-width:1.48px;"/><path d="M13.687,81.517c-1.682,9.942 8.804,13.355 8.359,0.099" style="fill:none;stroke:#454b6e;stroke-width:1.48px;"/><path d="M22.244,81.517c-1.682,9.942 8.804,13.355 8.359,0.099" style="fill:none;stroke:#454b6e;stroke-width:1.48px;"/><path d="M30.851,81.517c-1.682,9.942 8.804,13.355 8.359,0.099" style="fill:none;stroke:#454b6e;stroke-width:1.48px;"/><path d="M39.408,81.517c-1.682,9.942 8.804,13.355 8.359,0.099" style="fill:none;stroke:#454b6e;stroke-width:1.48px;"/><path d="M47.965,81.517c-1.682,9.942 8.805,13.355 8.36,0.099" style="fill:none;stroke:#454b6e;stroke-width:1.48px;"/><path d="M56.572,81.517c-1.682,9.942 8.805,13.355 8.359,0.099" style="fill:none;stroke:#454b6e;stroke-width:1.48px;"/><path d="M65.129,81.517c-1.682,9.942 8.805,13.355 8.36,0.099" style="fill:none;stroke:#454b6e;stroke-width:1.48px;"/><path d="M73.736,81.517c-1.682,9.942 8.805,13.355 8.359,0.099" style="fill:none;stroke:#454b6e;stroke-width:1.48px;"/><path d="M82.293,81.517c-1.681,9.942 8.805,13.355 8.36,0.099" style="fill:none;stroke:#454b6e;stroke-width:1.48px;"/><path d="M5.08,99.126c-1.682,9.942 8.804,13.355 8.359,0.099" style="fill:none;stroke:#454b6e;stroke-width:1.48px;"/><path d="M13.687,99.126c-1.682,9.942 8.804,13.355 8.359,0.099" style="fill:none;stroke:#454b6e;stroke-width:1.48px;"/><path d="M22.244,99.126c-1.682,9.942 8.804,13.355 8.359,0.099" style="fill:none;stroke:#454b6e;stroke-width:1.48px;"/><path d="M30.851,99.126c-1.682,9.942 8.804,13.355 8.359,0.099" style="fill:none;stroke:#454b6e;stroke-width:1.48px;"/><path d="M39.408,99.126c-1.682,9.942 8.804,13.355 8.359,0.099" style="fill:none;stroke:#454b6e;stroke-width:1.48px;"/><path d="M47.965,99.126c-1.682,9.942 8.805,13.355 8.36,0.099" style="fill:none;stroke:#454b6e;stroke-width:1.48px;"/><path d="M56.572,99.126c-1.682,9.942 8.805,13.355 8.359,0.099" style="fill:none;stroke:#454b6e;stroke-width:1.48px;"/><path d="M65.129,99.126c-1.682,9.942 8.805,13.355 8.36,0.099" style="fill:none;stroke:#454b6e;stroke-width:1.48px;"/><path d="M73.736,99.126c-1.682,9.942 8.805,13.355 8.359,0.099" style="fill:none;stroke:#454b6e;stroke-width:1.48px;"/><path d="M82.293,99.126c-1.681,9.942 8.805,13.355 8.36,0.099" style="fill:none;stroke:#454b6e;stroke-width:1.48px;"/><path d="M5.08,116.735c-1.682,9.943 8.804,13.356 8.359,0.099" style="fill:none;stroke:#454b6e;stroke-width:1.48px;"/><path d="M13.687,116.735c-1.682,9.943 8.804,13.356 8.359,0.099" style="fill:none;stroke:#454b6e;stroke-width:1.48px;"/><path d="M22.244,116.735c-1.682,9.943 8.804,13.356 8.359,0.099" style="fill:none;stroke:#454b6e;stroke-width:1.48px;"/><path d="M30.851,116.735c-1.682,9.943 8.804,13.356 8.359,0.099" style="fill:none;stroke:#454b6e;stroke-width:1.48px;"/><path d="M39.408,116.735c-1.682,9.943 8.804,13.356 8.359,0.099" style="fill:none;stroke:#454b6e;stroke-width:1.48px;"/><path d="M47.965,116.735c-1.682,9.943 8.805,13.356 8.36,0.099" style="fill:none;stroke:#454b6e;stroke-width:1.48px;"/><path d="M56.572,116.735c-1.682,9.943 8.805,13.356 8.359,0.099" style="fill:none;stroke:#454b6e;stroke-width:1.48px;"/><path d="M65.129,116.735c-1.682,9.943 8.805,13.356 8.36,0.099" style="fill:none;stroke:#454b6e;stroke-width:1.48px;"/><path d="M73.736,116.735c-1.682,9.943 8.805,13.356 8.359,0.099" style="fill:none;stroke:#454b6e;stroke-width:1.48px;"/><path d="M82.293,116.735c-1.681,9.943 8.805,13.356 8.36,0.099" style="fill:none;stroke:#454b6e;stroke-width:1.48px;"/><path d="M5.08,134.295c-1.682,9.942 8.804,13.355 8.359,0.099" style="fill:none;stroke:#454b6e;stroke-width:1.48px;"/><path d="M13.687,134.295c-1.682,9.942 8.804,13.355 8.359,0.099" style="fill:none;stroke:#454b6e;stroke-width:1.48px;"/><path d="M22.244,134.295c-1.682,9.942 8.804,13.355 8.359,0.099" style="fill:none;stroke:#454b6e;stroke-width:1.48px;"/><path d="M30.851,134.295c-1.682,9.942 8.804,13.355 8.359,0.099" style="fill:none;stroke:#454b6e;stroke-width:1.48px;"/><path d="M39.408,134.295c-1.682,9.942 8.804,13.355 8.359,0.099" style="fill:none;stroke:#454b6e;stroke-width:1.48px;"/><path d="M47.965,134.295c-1.682,9.942 8.805,13.355 8.36,0.099" style="fill:none;stroke:#454b6e;stroke-width:1.48px;"/><path d="M56.572,134.295c-1.682,9.942 8.805,13.355 8.359,0.099" style="fill:none;stroke:#454b6e;stroke-width:1.48px;"/><path d="M65.129,134.295c-1.682,9.942 8.805,13.355 8.36,0.099" style="fill:none;stroke:#454b6e;stroke-width:1.48px;"/><path d="M73.736,134.295c-1.682,9.942 8.805,13.355 8.359,0.099" style="fill:none;stroke:#454b6e;stroke-width:1.48px;"/><path d="M82.293,134.295c-1.681,9.942 8.805,13.355 8.36,0.099" style="fill:none;stroke:#454b6e;stroke-width:1.48px;"/><path d="M5.08,151.904c-1.682,9.943 8.804,13.356 8.359,0.099" style="fill:none;stroke:#454b6e;stroke-width:1.48px;"/><path d="M13.687,151.904c-1.682,9.943 8.804,13.356 8.359,0.099" style="fill:none;stroke:#454b6e;stroke-width:1.48px;"/><path d="M22.244,151.904c-1.682,9.943 8.804,13.356 8.359,0.099" style="fill:none;stroke:#454b6e;stroke-width:1.48px;"/><path d="M30.851,151.904c-1.682,9.943 8.804,13.356 8.359,0.099" style="fill:none;stroke:#454b6e;stroke-width:1.48px;"/><path d="M39.408,151.904c-1.682,9.943 8.804,13.356 8.359,0.099" style="fill:none;stroke:#454b6e;stroke-width:1.48px;"/><path d="M47.965,151.904c-1.682,9.943 8.805,13.356 8.36,0.099" style="fill:none;stroke:#454b6e;stroke-width:1.48px;"/><path d="M56.572,151.904c-1.682,9.943 8.805,13.356 8.359,0.099" style="fill:none;stroke:#454b6e;stroke-width:1.48px;"/><path d="M65.129,151.904c-1.682,9.943 8.805,13.356 8.36,0.099" style="fill:none;stroke:#454b6e;stroke-width:1.48px;"/><path d="M73.736,151.904c-1.682,9.943 8.805,13.356 8.359,0.099" style="fill:none;stroke:#454b6e;stroke-width:1.48px;"/><path d="M82.293,151.904c-1.681,9.943 8.805,13.356 8.36,0.099" style="fill:none;stroke:#454b6e;stroke-width:1.48px;"/></g><g><path d="M86.696,19.984c-1.682,9.942 8.804,13.355 8.359,0.098" style="fill:none;stroke:#454b6e;stroke-width:1.48px;"/><path d="M95.302,19.984c-1.681,9.942 8.805,13.355 8.36,0.098" style="fill:none;stroke:#454b6e;stroke-width:1.48px;"/><path d="M103.86,19.984c-1.682,9.942 8.804,13.355 8.359,0.098" style="fill:none;stroke:#454b6e;stroke-width:1.48px;"/><path d="M112.417,19.984c-1.682,9.942 8.805,13.355 8.359,0.098" style="fill:none;stroke:#454b6e;stroke-width:1.48px;"/><path d="M121.024,19.984c-1.682,9.942 8.804,13.355 8.359,0.098" style="fill:none;stroke:#454b6e;stroke-width:1.48px;"/><path d="M129.581,19.984c-1.682,9.942 8.805,13.355 8.359,0.098" style="fill:none;stroke:#454b6e;stroke-width:1.48px;"/><path d="M138.188,19.984c-1.682,9.942 8.804,13.355 8.359,0.098" style="fill:none;stroke:#454b6e;stroke-width:1.48px;"/><path d="M146.745,19.984c-1.682,9.942 8.805,13.355 8.36,0.098" style="fill:none;stroke:#454b6e;stroke-width:1.48px;"/><path d="M155.352,19.984c-1.682,9.942 8.804,13.355 8.359,0.098" style="fill:none;stroke:#454b6e;stroke-width:1.48px;"/><path d="M163.909,19.984c-1.682,9.942 8.805,13.355 8.36,0.098" style="fill:none;stroke:#454b6e;stroke-width:1.48px;"/><path d="M86.696,37.543c-1.682,9.943 8.804,13.356 8.359,0.099" style="fill:none;stroke:#454b6e;stroke-width:1.48px;"/><path d="M95.302,37.543c-1.681,9.943 8.805,13.356 8.36,0.099" style="fill:none;stroke:#454b6e;stroke-width:1.48px;"/><path d="M103.86,37.543c-1.682,9.943 8.804,13.356 8.359,0.099" style="fill:none;stroke:#454b6e;stroke-width:1.48px;"/><path d="M112.417,37.543c-1.682,9.943 8.805,13.356 8.359,0.099" style="fill:none;stroke:#454b6e;stroke-width:1.48px;"/><path d="M121.024,37.543c-1.682,9.943 8.804,13.356 8.359,0.099" style="fill:none;stroke:#454b6e;stroke-width:1.48px;"/><path d="M129.581,37.543c-1.682,9.943 8.805,13.356 8.359,0.099" style="fill:none;stroke:#454b6e;stroke-width:1.48px;"/><path d="M138.188,37.543c-1.682,9.943 8.804,13.356 8.359,0.099" style="fill:none;stroke:#454b6e;stroke-width:1.48px;"/><path d="M146.745,37.543c-1.682,9.943 8.805,13.356 8.36,0.099" style="fill:none;stroke:#454b6e;stroke-width:1.48px;"/><path d="M155.352,37.543c-1.682,9.943 8.804,13.356 8.359,0.099" style="fill:none;stroke:#454b6e;stroke-width:1.48px;"/><path d="M163.909,37.543c-1.682,9.943 8.805,13.356 8.36,0.099" style="fill:none;stroke:#454b6e;stroke-width:1.48px;"/><path d="M86.696,55.153c-1.682,9.942 8.804,13.355 8.359,0.098" style="fill:none;stroke:#454b6e;stroke-width:1.48px;"/><path d="M95.302,55.153c-1.681,9.942 8.805,13.355 8.36,0.098" style="fill:none;stroke:#454b6e;stroke-width:1.48px;"/><path d="M103.86,55.153c-1.682,9.942 8.804,13.355 8.359,0.098" style="fill:none;stroke:#454b6e;stroke-width:1.48px;"/><path d="M112.417,55.153c-1.682,9.942 8.805,13.355 8.359,0.098" style="fill:none;stroke:#454b6e;stroke-width:1.48px;"/><path d="M121.024,55.153c-1.682,9.942 8.804,13.355 8.359,0.098" style="fill:none;stroke:#454b6e;stroke-width:1.48px;"/><path d="M129.581,55.153c-1.682,9.942 8.805,13.355 8.359,0.098" style="fill:none;stroke:#454b6e;stroke-width:1.48px;"/><path d="M138.188,55.153c-1.682,9.942 8.804,13.355 8.359,0.098" style="fill:none;stroke:#454b6e;stroke-width:1.48px;"/><path d="M146.745,55.153c-1.682,9.942 8.805,13.355 8.36,0.098" style="fill:none;stroke:#454b6e;stroke-width:1.48px;"/><path d="M155.352,55.153c-1.682,9.942 8.804,13.355 8.359,0.098" style="fill:none;stroke:#454b6e;stroke-width:1.48px;"/><path d="M163.909,55.153c-1.682,9.942 8.805,13.355 8.36,0.098" style="fill:none;stroke:#454b6e;stroke-width:1.48px;"/><path d="M86.696,72.762c-1.682,9.942 8.804,13.355 8.359,0.099" style="fill:none;stroke:#454b6e;stroke-width:1.48px;"/><path d="M95.302,72.762c-1.681,9.942 8.805,13.355 8.36,0.099" style="fill:none;stroke:#454b6e;stroke-width:1.48px;"/><path d="M103.86,72.762c-1.682,9.942 8.804,13.355 8.359,0.099" style="fill:none;stroke:#454b6e;stroke-width:1.48px;"/><path d="M112.417,72.762c-1.682,9.942 8.805,13.355 8.359,0.099" style="fill:none;stroke:#454b6e;stroke-width:1.48px;"/><path d="M121.024,72.762c-1.682,9.942 8.804,13.355 8.359,0.099" style="fill:none;stroke:#454b6e;stroke-width:1.48px;"/><path d="M129.581,72.762c-1.682,9.942 8.805,13.355 8.359,0.099" style="fill:none;stroke:#454b6e;stroke-width:1.48px;"/><path d="M138.188,72.762c-1.682,9.942 8.804,13.355 8.359,0.099" style="fill:none;stroke:#454b6e;stroke-width:1.48px;"/><path d="M146.745,72.762c-1.682,9.942 8.805,13.355 8.36,0.099" style="fill:none;stroke:#454b6e;stroke-width:1.48px;"/><path d="M155.352,72.762c-1.682,9.942 8.804,13.355 8.359,0.099" style="fill:none;stroke:#454b6e;stroke-width:1.48px;"/><path d="M163.909,72.762c-1.682,9.942 8.805,13.355 8.36,0.099" style="fill:none;stroke:#454b6e;stroke-width:1.48px;"/><path d="M86.696,90.322c-1.682,9.942 8.804,13.355 8.359,0.098" style="fill:none;stroke:#454b6e;stroke-width:1.48px;"/><path d="M95.302,90.322c-1.681,9.942 8.805,13.355 8.36,0.098" style="fill:none;stroke:#454b6e;stroke-width:1.48px;"/><path d="M103.86,90.322c-1.682,9.942 8.804,13.355 8.359,0.098" style="fill:none;stroke:#454b6e;stroke-width:1.48px;"/><path d="M112.417,90.322c-1.682,9.942 8.805,13.355 8.359,0.098" style="fill:none;stroke:#454b6e;stroke-width:1.48px;"/><path d="M121.024,90.322c-1.682,9.942 8.804,13.355 8.359,0.098" style="fill:none;stroke:#454b6e;stroke-width:1.48px;"/><path d="M129.581,90.322c-1.682,9.942 8.805,13.355 8.359,0.098" style="fill:none;stroke:#454b6e;stroke-width:1.48px;"/><path d="M138.188,90.322c-1.682,9.942 8.804,13.355 8.359,0.098" style="fill:none;stroke:#454b6e;stroke-width:1.48px;"/><path d="M146.745,90.322c-1.682,9.942 8.805,13.355 8.36,0.098" style="fill:none;stroke:#454b6e;stroke-width:1.48px;"/><path d="M155.352,90.322c-1.682,9.942 8.804,13.355 8.359,0.098" style="fill:none;stroke:#454b6e;stroke-width:1.48px;"/><path d="M163.909,90.322c-1.682,9.942 8.805,13.355 8.36,0.098" style="fill:none;stroke:#454b6e;stroke-width:1.48px;"/><path d="M86.696,107.931c-1.682,9.942 8.804,13.355 8.359,0.099" style="fill:none;stroke:#454b6e;stroke-width:1.48px;"/><path d="M95.302,107.931c-1.681,9.942 8.805,13.355 8.36,0.099" style="fill:none;stroke:#454b6e;stroke-width:1.48px;"/><path d="M103.86,107.931c-1.682,9.942 8.804,13.355 8.359,0.099" style="fill:none;stroke:#454b6e;stroke-width:1.48px;"/><path d="M112.417,107.931c-1.682,9.942 8.805,13.355 8.359,0.099" style="fill:none;stroke:#454b6e;stroke-width:1.48px;"/><path d="M121.024,107.931c-1.682,9.942 8.804,13.355 8.359,0.099" style="fill:none;stroke:#454b6e;stroke-width:1.48px;"/><path d="M129.581,107.931c-1.682,9.942 8.805,13.355 8.359,0.099" style="fill:none;stroke:#454b6e;stroke-width:1.48px;"/><path d="M138.188,107.931c-1.682,9.942 8.804,13.355 8.359,0.099" style="fill:none;stroke:#454b6e;stroke-width:1.48px;"/><path d="M146.745,107.931c-1.682,9.942 8.805,13.355 8.36,0.099" style="fill:none;stroke:#454b6e;stroke-width:1.48px;"/><path d="M155.352,107.931c-1.682,9.942 8.804,13.355 8.359,0.099" style="fill:none;stroke:#454b6e;stroke-width:1.48px;"/><path d="M163.909,107.931c-1.682,9.942 8.805,13.355 8.36,0.099" style="fill:none;stroke:#454b6e;stroke-width:1.48px;"/><path d="M86.696,125.491c-1.682,9.942 8.804,13.355 8.359,0.098" style="fill:none;stroke:#454b6e;stroke-width:1.48px;"/><path d="M95.302,125.491c-1.681,9.942 8.805,13.355 8.36,0.098" style="fill:none;stroke:#454b6e;stroke-width:1.48px;"/><path d="M103.86,125.491c-1.682,9.942 8.804,13.355 8.359,0.098" style="fill:none;stroke:#454b6e;stroke-width:1.48px;"/><path d="M112.417,125.491c-1.682,9.942 8.805,13.355 8.359,0.098" style="fill:none;stroke:#454b6e;stroke-width:1.48px;"/><path d="M121.024,125.491c-1.682,9.942 8.804,13.355 8.359,0.098" style="fill:none;stroke:#454b6e;stroke-width:1.48px;"/><path d="M129.581,125.491c-1.682,9.942 8.805,13.355 8.359,0.098" style="fill:none;stroke:#454b6e;stroke-width:1.48px;"/><path d="M138.188,125.491c-1.682,9.942 8.804,13.355 8.359,0.098" style="fill:none;stroke:#454b6e;stroke-width:1.48px;"/><path d="M146.745,125.491c-1.682,9.942 8.805,13.355 8.36,0.098" style="fill:none;stroke:#454b6e;stroke-width:1.48px;"/><path d="M155.352,125.491c-1.682,9.942 8.804,13.355 8.359,0.098" style="fill:none;stroke:#454b6e;stroke-width:1.48px;"/><path d="M163.909,125.491c-1.682,9.942 8.805,13.355 8.36,0.098" style="fill:none;stroke:#454b6e;stroke-width:1.48px;"/><path d="M86.696,143.1c-1.682,9.942 8.804,13.355 8.359,0.099" style="fill:none;stroke:#454b6e;stroke-width:1.48px;"/><path d="M95.302,143.1c-1.681,9.942 8.805,13.355 8.36,0.099" style="fill:none;stroke:#454b6e;stroke-width:1.48px;"/><path d="M103.86,143.1c-1.682,9.942 8.804,13.355 8.359,0.099" style="fill:none;stroke:#454b6e;stroke-width:1.48px;"/><path d="M112.417,143.1c-1.682,9.942 8.805,13.355 8.359,0.099" style="fill:none;stroke:#454b6e;stroke-width:1.48px;"/><path d="M121.024,143.1c-1.682,9.942 8.804,13.355 8.359,0.099" style="fill:none;stroke:#454b6e;stroke-width:1.48px;"/><path d="M129.581,143.1c-1.682,9.942 8.805,13.355 8.359,0.099" style="fill:none;stroke:#454b6e;stroke-width:1.48px;"/><path d="M138.188,143.1c-1.682,9.942 8.804,13.355 8.359,0.099" style="fill:none;stroke:#454b6e;stroke-width:1.48px;"/><path d="M146.745,143.1c-1.682,9.942 8.805,13.355 8.36,0.099" style="fill:none;stroke:#454b6e;stroke-width:1.48px;"/><path d="M155.352,143.1c-1.682,9.942 8.804,13.355 8.359,0.099" style="fill:none;stroke:#454b6e;stroke-width:1.48px;"/><path d="M163.909,143.1c-1.682,9.942 8.805,13.355 8.36,0.099" style="fill:none;stroke:#454b6e;stroke-width:1.48px;"/><path d="M90.9,28.739c-1.682,9.942 8.805,13.355 8.359,0.099" style="fill:none;stroke:#454b6e;stroke-width:1.48px;"/><path d="M99.457,28.739c-1.681,9.942 8.805,13.355 8.36,0.099" style="fill:none;stroke:#454b6e;stroke-width:1.48px;"/><path d="M108.064,28.739c-1.682,9.942 8.805,13.355 8.36,0.099" style="fill:none;stroke:#454b6e;stroke-width:1.48px;"/><path d="M116.621,28.739c-1.681,9.942 8.805,13.355 8.36,0.099" style="fill:none;stroke:#454b6e;stroke-width:1.48px;"/><path d="M125.179,28.739c-1.682,9.942 8.804,13.355 8.359,0.099" style="fill:none;stroke:#454b6e;stroke-width:1.48px;"/><path d="M133.785,28.739c-1.681,9.942 8.805,13.355 8.36,0.099" style="fill:none;stroke:#454b6e;stroke-width:1.48px;"/><path d="M142.343,28.739c-1.682,9.942 8.804,13.355 8.359,0.099" style="fill:none;stroke:#454b6e;stroke-width:1.48px;"/><path d="M150.95,28.739c-1.682,9.942 8.804,13.355 8.359,0.099" style="fill:none;stroke:#454b6e;stroke-width:1.48px;"/><path d="M159.507,28.739c-1.682,9.942 8.804,13.355 8.359,0.099" style="fill:none;stroke:#454b6e;stroke-width:1.48px;"/><path d="M168.114,28.739c-1.682,9.942 8.804,13.355 8.359,0.099" style="fill:none;stroke:#454b6e;stroke-width:1.48px;"/><path d="M90.9,46.348c-1.682,9.942 8.805,13.355 8.359,0.099" style="fill:none;stroke:#454b6e;stroke-width:1.48px;"/><path d="M99.457,46.348c-1.681,9.942 8.805,13.355 8.36,0.099" style="fill:none;stroke:#454b6e;stroke-width:1.48px;"/><path d="M108.064,46.348c-1.682,9.942 8.805,13.355 8.36,0.099" style="fill:none;stroke:#454b6e;stroke-width:1.48px;"/><path d="M116.621,46.348c-1.681,9.942 8.805,13.355 8.36,0.099" style="fill:none;stroke:#454b6e;stroke-width:1.48px;"/><path d="M125.179,46.348c-1.682,9.942 8.804,13.355 8.359,0.099" style="fill:none;stroke:#454b6e;stroke-width:1.48px;"/><path d="M133.785,46.348c-1.681,9.942 8.805,13.355 8.36,0.099" style="fill:none;stroke:#454b6e;stroke-width:1.48px;"/><path d="M142.343,46.348c-1.682,9.942 8.804,13.355 8.359,0.099" style="fill:none;stroke:#454b6e;stroke-width:1.48px;"/><path d="M150.95,46.348c-1.682,9.942 8.804,13.355 8.359,0.099" style="fill:none;stroke:#454b6e;stroke-width:1.48px;"/><path d="M159.507,46.348c-1.682,9.942 8.804,13.355 8.359,0.099" style="fill:none;stroke:#454b6e;stroke-width:1.48px;"/><path d="M168.114,46.348c-1.682,9.942 8.804,13.355 8.359,0.099" style="fill:none;stroke:#454b6e;stroke-width:1.48px;"/><path d="M90.9,63.957c-1.682,9.942 8.805,13.355 8.359,0.099" style="fill:none;stroke:#454b6e;stroke-width:1.48px;"/><path d="M99.457,63.957c-1.681,9.942 8.805,13.355 8.36,0.099" style="fill:none;stroke:#454b6e;stroke-width:1.48px;"/><path d="M108.064,63.957c-1.682,9.942 8.805,13.355 8.36,0.099" style="fill:none;stroke:#454b6e;stroke-width:1.48px;"/><path d="M116.621,63.957c-1.681,9.942 8.805,13.355 8.36,0.099" style="fill:none;stroke:#454b6e;stroke-width:1.48px;"/><path d="M125.179,63.957c-1.682,9.942 8.804,13.355 8.359,0.099" style="fill:none;stroke:#454b6e;stroke-width:1.48px;"/><path d="M133.785,63.957c-1.681,9.942 8.805,13.355 8.36,0.099" style="fill:none;stroke:#454b6e;stroke-width:1.48px;"/><path d="M142.343,63.957c-1.682,9.942 8.804,13.355 8.359,0.099" style="fill:none;stroke:#454b6e;stroke-width:1.48px;"/><path d="M150.95,63.957c-1.682,9.942 8.804,13.355 8.359,0.099" style="fill:none;stroke:#454b6e;stroke-width:1.48px;"/><path d="M159.507,63.957c-1.682,9.942 8.804,13.355 8.359,0.099" style="fill:none;stroke:#454b6e;stroke-width:1.48px;"/><path d="M168.114,63.957c-1.682,9.942 8.804,13.355 8.359,0.099" style="fill:none;stroke:#454b6e;stroke-width:1.48px;"/><path d="M90.9,81.517c-1.682,9.942 8.805,13.355 8.359,0.099" style="fill:none;stroke:#454b6e;stroke-width:1.48px;"/><path d="M99.457,81.517c-1.681,9.942 8.805,13.355 8.36,0.099" style="fill:none;stroke:#454b6e;stroke-width:1.48px;"/><path d="M108.064,81.517c-1.682,9.942 8.805,13.355 8.36,0.099" style="fill:none;stroke:#454b6e;stroke-width:1.48px;"/><path d="M116.621,81.517c-1.681,9.942 8.805,13.355 8.36,0.099" style="fill:none;stroke:#454b6e;stroke-width:1.48px;"/><path d="M125.179,81.517c-1.682,9.942 8.804,13.355 8.359,0.099" style="fill:none;stroke:#454b6e;stroke-width:1.48px;"/><path d="M133.785,81.517c-1.681,9.942 8.805,13.355 8.36,0.099" style="fill:none;stroke:#454b6e;stroke-width:1.48px;"/><path d="M142.343,81.517c-1.682,9.942 8.804,13.355 8.359,0.099" style="fill:none;stroke:#454b6e;stroke-width:1.48px;"/><path d="M150.95,81.517c-1.682,9.942 8.804,13.355 8.359,0.099" style="fill:none;stroke:#454b6e;stroke-width:1.48px;"/><path d="M159.507,81.517c-1.682,9.942 8.804,13.355 8.359,0.099" style="fill:none;stroke:#454b6e;stroke-width:1.48px;"/><path d="M168.114,81.517c-1.682,9.942 8.804,13.355 8.359,0.099" style="fill:none;stroke:#454b6e;stroke-width:1.48px;"/><path d="M90.9,99.126c-1.682,9.942 8.805,13.355 8.359,0.099" style="fill:none;stroke:#454b6e;stroke-width:1.48px;"/><path d="M99.457,99.126c-1.681,9.942 8.805,13.355 8.36,0.099" style="fill:none;stroke:#454b6e;stroke-width:1.48px;"/><path d="M108.064,99.126c-1.682,9.942 8.805,13.355 8.36,0.099" style="fill:none;stroke:#454b6e;stroke-width:1.48px;"/><path d="M116.621,99.126c-1.681,9.942 8.805,13.355 8.36,0.099" style="fill:none;stroke:#454b6e;stroke-width:1.48px;"/><path d="M125.179,99.126c-1.682,9.942 8.804,13.355 8.359,0.099" style="fill:none;stroke:#454b6e;stroke-width:1.48px;"/><path d="M133.785,99.126c-1.681,9.942 8.805,13.355 8.36,0.099" style="fill:none;stroke:#454b6e;stroke-width:1.48px;"/><path d="M142.343,99.126c-1.682,9.942 8.804,13.355 8.359,0.099" style="fill:none;stroke:#454b6e;stroke-width:1.48px;"/><path d="M150.95,99.126c-1.682,9.942 8.804,13.355 8.359,0.099" style="fill:none;stroke:#454b6e;stroke-width:1.48px;"/><path d="M159.507,99.126c-1.682,9.942 8.804,13.355 8.359,0.099" style="fill:none;stroke:#454b6e;stroke-width:1.48px;"/><path d="M168.114,99.126c-1.682,9.942 8.804,13.355 8.359,0.099" style="fill:none;stroke:#454b6e;stroke-width:1.48px;"/><path d="M90.9,116.735c-1.682,9.943 8.805,13.356 8.359,0.099" style="fill:none;stroke:#454b6e;stroke-width:1.48px;"/><path d="M99.457,116.735c-1.681,9.943 8.805,13.356 8.36,0.099" style="fill:none;stroke:#454b6e;stroke-width:1.48px;"/><path d="M108.064,116.735c-1.682,9.943 8.805,13.356 8.36,0.099" style="fill:none;stroke:#454b6e;stroke-width:1.48px;"/><path d="M116.621,116.735c-1.681,9.943 8.805,13.356 8.36,0.099" style="fill:none;stroke:#454b6e;stroke-width:1.48px;"/><path d="M125.179,116.735c-1.682,9.943 8.804,13.356 8.359,0.099" style="fill:none;stroke:#454b6e;stroke-width:1.48px;"/><path d="M133.785,116.735c-1.681,9.943 8.805,13.356 8.36,0.099" style="fill:none;stroke:#454b6e;stroke-width:1.48px;"/><path d="M142.343,116.735c-1.682,9.943 8.804,13.356 8.359,0.099" style="fill:none;stroke:#454b6e;stroke-width:1.48px;"/><path d="M150.95,116.735c-1.682,9.943 8.804,13.356 8.359,0.099" style="fill:none;stroke:#454b6e;stroke-width:1.48px;"/><path d="M159.507,116.735c-1.682,9.943 8.804,13.356 8.359,0.099" style="fill:none;stroke:#454b6e;stroke-width:1.48px;"/><path d="M168.114,116.735c-1.682,9.943 8.804,13.356 8.359,0.099" style="fill:none;stroke:#454b6e;stroke-width:1.48px;"/><path d="M90.9,134.295c-1.682,9.942 8.805,13.355 8.359,0.099" style="fill:none;stroke:#454b6e;stroke-width:1.48px;"/><path d="M99.457,134.295c-1.681,9.942 8.805,13.355 8.36,0.099" style="fill:none;stroke:#454b6e;stroke-width:1.48px;"/><path d="M108.064,134.295c-1.682,9.942 8.805,13.355 8.36,0.099" style="fill:none;stroke:#454b6e;stroke-width:1.48px;"/><path d="M116.621,134.295c-1.681,9.942 8.805,13.355 8.36,0.099" style="fill:none;stroke:#454b6e;stroke-width:1.48px;"/><path d="M125.179,134.295c-1.682,9.942 8.804,13.355 8.359,0.099" style="fill:none;stroke:#454b6e;stroke-width:1.48px;"/><path d="M133.785,134.295c-1.681,9.942 8.805,13.355 8.36,0.099" style="fill:none;stroke:#454b6e;stroke-width:1.48px;"/><path d="M142.343,134.295c-1.682,9.942 8.804,13.355 8.359,0.099" style="fill:none;stroke:#454b6e;stroke-width:1.48px;"/><path d="M150.95,134.295c-1.682,9.942 8.804,13.355 8.359,0.099" style="fill:none;stroke:#454b6e;stroke-width:1.48px;"/><path d="M159.507,134.295c-1.682,9.942 8.804,13.355 8.359,0.099" style="fill:none;stroke:#454b6e;stroke-width:1.48px;"/><path d="M168.114,134.295c-1.682,9.942 8.804,13.355 8.359,0.099" style="fill:none;stroke:#454b6e;stroke-width:1.48px;"/><path d="M90.9,151.904c-1.682,9.943 8.805,13.356 8.359,0.099" style="fill:none;stroke:#454b6e;stroke-width:1.48px;"/><path d="M99.457,151.904c-1.681,9.943 8.805,13.356 8.36,0.099" style="fill:none;stroke:#454b6e;stroke-width:1.48px;"/><path d="M108.064,151.904c-1.682,9.943 8.805,13.356 8.36,0.099" style="fill:none;stroke:#454b6e;stroke-width:1.48px;"/><path d="M116.621,151.904c-1.681,9.943 8.805,13.356 8.36,0.099" style="fill:none;stroke:#454b6e;stroke-width:1.48px;"/><path d="M125.179,151.904c-1.682,9.943 8.804,13.356 8.359,0.099" style="fill:none;stroke:#454b6e;stroke-width:1.48px;"/><path d="M133.785,151.904c-1.681,9.943 8.805,13.356 8.36,0.099" style="fill:none;stroke:#454b6e;stroke-width:1.48px;"/><path d="M142.343,151.904c-1.682,9.943 8.804,13.356 8.359,0.099" style="fill:none;stroke:#454b6e;stroke-width:1.48px;"/><path d="M150.95,151.904c-1.682,9.943 8.804,13.356 8.359,0.099" style="fill:none;stroke:#454b6e;stroke-width:1.48px;"/><path d="M159.507,151.904c-1.682,9.943 8.804,13.356 8.359,0.099" style="fill:none;stroke:#454b6e;stroke-width:1.48px;"/><path d="M168.114,151.904c-1.682,9.943 8.804,13.356 8.359,0.099" style="fill:none;stroke:#454b6e;stroke-width:1.48px;"/></g></g></g><path id="SVGID_1_" d="M85.904,29.431c-26.364,0 -37.098,-4.353 -37.098,-4.353c0,0 -4.65,22.358 -26.711,25.573c0,96.406 63.809,110.058 63.809,110.058c0,0 63.809,-13.702 63.809,-110.058c-22.061,-3.215 -26.711,-25.573 -26.711,-25.573c0,0 -10.733,4.353 -37.098,4.353Z" style="fill:none;stroke:#8f162c;stroke-width:1.48px;"/></g><g><path d="M16.951,37.494c1.88,-0.891 4.304,0.198 5.392,2.473c1.088,2.275 0.395,4.798 -1.484,5.738c-1.88,0.89 -4.304,-0.198 -5.392,-2.473c-1.088,-2.276 -0.395,-4.848 1.484,-5.738Z" style="fill:#fff;stroke:#8f162c;stroke-width:1.48px;"/><path d="M18.237,40.214c0.643,-0.296 1.435,0.05 1.781,0.792c0.346,0.742 0.148,1.583 -0.495,1.879c-0.643,0.297 -1.434,-0.049 -1.78,-0.791c-0.347,-0.742 -0.099,-1.583 0.494,-1.88Z" style="fill:#fff;stroke:#8f162c;stroke-width:1.48px;"/><path d="M154.808,37.494c-1.88,-0.891 -4.304,0.198 -5.392,2.473c-1.088,2.275 -0.396,4.798 1.484,5.738c1.88,0.89 4.303,-0.198 5.392,-2.473c1.088,-2.276 0.395,-4.848 -1.484,-5.738Z" style="fill:#fff;stroke:#8f162c;stroke-width:1.48px;"/><path d="M153.571,40.115c-0.643,-0.296 -1.484,0.05 -1.88,0.841c-0.395,0.792 -0.148,1.682 0.495,1.979c0.643,0.297 1.484,-0.05 1.88,-0.841c0.395,-0.742 0.148,-1.632 -0.495,-1.979Z" style="fill:#fff;stroke:#8f162c;stroke-width:1.48px;"/><path d="M44.799,7.024c3.216,0 5.837,2.622 5.837,5.837c0,3.215 -2.621,5.836 -5.837,5.836c-3.215,0 -5.836,-2.621 -5.836,-5.836c0,-3.215 2.621,-5.837 5.836,-5.837Z" style="fill:#fff;stroke:#8f162c;stroke-width:1.48px;"/><path d="M44.799,10.833c1.089,0 2.029,0.89 2.029,2.028c0,1.088 -0.891,2.028 -2.029,2.028c-1.088,0 -2.028,-0.891 -2.028,-2.028c0.05,-1.138 0.94,-2.028 2.028,-2.028Z" style="fill:#fff;stroke:#8f162c;stroke-width:1.48px;"/><path d="M126.959,7.024c-3.215,0 -5.836,2.622 -5.836,5.837c0,3.215 2.621,5.836 5.836,5.836c3.216,0 5.837,-2.621 5.837,-5.836c0,-3.215 -2.621,-5.837 -5.837,-5.837Z" style="fill:#fff;stroke:#8f162c;stroke-width:1.48px;"/><path d="M126.959,10.833c-1.088,0 -2.028,0.89 -2.028,2.028c0,1.088 0.891,2.028 2.028,2.028c1.089,0 2.028,-0.891 2.028,-2.028c-0.049,-1.138 -0.939,-2.028 -2.028,-2.028Z" style="fill:#fff;stroke:#8f162c;stroke-width:1.48px;"/><path d="M85.904,12.91c-3.215,0 -5.837,2.622 -5.837,5.837c0,3.215 2.622,5.837 5.837,5.837c3.215,0 5.837,-2.622 5.837,-5.837c-0.05,-3.265 -2.671,-5.837 -5.837,-5.837Z" style="fill:#fff;stroke:#8f162c;stroke-width:1.48px;"/><path d="M85.904,16.917c-0.989,0 -1.781,0.791 -1.781,1.78c0,0.99 0.792,1.781 1.781,1.781c0.989,0 1.781,-0.791 1.781,-1.781c0,-0.989 -0.792,-1.78 -1.781,-1.78Z" style="fill:#fff;stroke:#8f162c;stroke-width:1.48px;"/><path d="M85.904,164.122c-3.215,0 -5.837,2.622 -5.837,5.837c0,3.215 2.622,5.837 5.837,5.837c3.215,0 5.837,-2.622 5.837,-5.837c-0.05,-3.215 -2.671,-5.837 -5.837,-5.837Z" style="fill:#fff;stroke:#8f162c;stroke-width:1.48px;"/><path d="M85.904,167.782c-1.187,0 -2.127,0.94 -2.127,2.127c0,1.187 0.94,2.127 2.127,2.127c1.187,0 2.127,-0.94 2.127,-2.127c0,-1.137 -0.989,-2.127 -2.127,-2.127Z" style="fill:#fff;stroke:#8f162c;stroke-width:1.48px;"/></g><g><path d="M82.392,114.114l0.297,1.434l3.759,0.346l13.257,-6.677l10.634,-8.656l7.766,-9.102l5.441,-7.815l1.732,-2.078l0.494,-2.374l-1.632,-2.77l-2.127,-11.624l-3.908,-6.084l-4.946,-6.282l-4.551,-3.66l-2.819,-1.732l-3.71,-0.89l-0.396,2.374l4.947,5.441l4.105,4.749l1.731,6.727l1.781,8.211l-0.692,4.155l-2.622,1.237l-0.594,2.572l1.089,2.374l-2.82,8.755l-6.529,7.173l-4.106,4.501l-5.638,4.155l-6.48,3.017l-3.018,1.286l-0.445,1.237Z" style="fill:#fff;fill-rule:nonzero;"/><path d="M73.142,114.262l2.028,-0.791l-0.346,-3.067l-6.974,-5.243l-1.781,-3.265l-3.116,-11.97l0.89,-7.568l2.523,-0.544l0.643,-2.721l-0.742,-1.583l-1.237,-1.286l7.173,-12.712l6.776,-6.43l5.144,-4.056l10.388,-5.392l0.445,-0.841l-0.346,-1.583l-5.095,0.94l-10.041,4.204l-7.618,4.897l-6.133,5.441l-7.469,10.536l-3.908,4.699l-2.275,3.364l-0.347,2.424l1.484,5.095l3.265,8.359l3.611,8.854l4.551,5.392l4.55,3.017l3.957,1.83Z" style="fill:#fff;fill-rule:nonzero;"/><g><g><path d="M66.366,81.814c0,0 -3.265,20.181 9.151,27.502l-1.187,2.77c0,0 -14.741,-8.162 -13.059,-30.173l5.095,-0.099Z" style="fill:#d03c43;fill-rule:nonzero;"/><path d="M73.637,113.619c0,0 -19.736,-9.942 -16.125,-31.904l-5.788,0c0,0 -3.512,24.633 20.874,34.229l1.039,-2.325Z" style="fill:#d03c43;fill-rule:nonzero;"/><path d="M67.009,79.093c0,0 3.363,-21.22 28.293,-30.668l-0.346,-1.632c0,0 -27.106,7.914 -33.141,32.251l5.194,0l0,0.049Z" style="fill:#d03c43;fill-rule:nonzero;"/><path d="M58.006,79.093c0,0 4.452,-23.495 36.604,-33.883l-0.198,-1.533c0,0 -33.685,4.551 -42.143,35.416l5.737,0Z" style="fill:#d03c43;fill-rule:nonzero;"/><path d="M76.209,107.486l-4.452,10.387l7.272,-2.622l-2.82,-7.765Z" style="fill:#d03c43;fill-rule:nonzero;"/></g><g><path d="M111.081,78.945c0,0 3.265,-20.182 -9.15,-27.502l1.236,-2.77c0,0 14.74,8.161 13.059,30.173l-5.145,0.099Z" style="fill:#d03c43;fill-rule:nonzero;"/><path d="M103.81,47.189c0,0 19.736,9.992 16.126,31.904l5.787,0c0,0 3.512,-24.633 -20.874,-34.229l-1.039,2.325Z" style="fill:#d03c43;fill-rule:nonzero;"/><path d="M110.438,81.715c0,0 -3.363,21.22 -28.293,30.668l0.346,1.632c0,0 27.106,-7.914 33.141,-32.3l-5.194,0Z" style="fill:#d03c43;fill-rule:nonzero;"/><path d="M119.441,81.715c0,0 -4.452,23.495 -36.604,33.883l0.198,1.533c0,0 33.685,-4.551 42.144,-35.416l-5.738,0Z" style="fill:#d03c43;fill-rule:nonzero;"/><path d="M101.238,53.322l4.452,-10.387l-7.271,2.572l2.819,7.815Z" style="fill:#d03c43;fill-rule:nonzero;"/></g><g><path d="M79.87,75.136l3.314,0c1.484,0 3.66,0.396 1.929,5.441c-0.94,2.82 -2.919,5.738 -5.738,5.738l-3.364,0l3.859,-11.179Zm-8.261,14.147l7.172,0c5.491,0 8.706,-5.293 9.943,-8.953c1.088,-3.265 1.632,-8.162 -3.958,-8.162l-7.32,0l-5.837,17.115Z" style="fill:#fff;fill-rule:nonzero;"/><path d="M91.741,89.283l-3.463,0l5.887,-17.115l11.822,0l-1.039,3.017l-8.36,0l-1.335,3.859l7.321,0l-1.039,3.017l-7.321,0l-2.473,7.222Z" style="fill:#fff;fill-rule:nonzero;"/></g></g></g></g></svg>