<?xml version="1.0" encoding="UTF-8" standalone="no"?><!DOCTYPE svg PUBLIC "-//W3C//DTD SVG 1.1//EN" "http://www.w3.org/Graphics/SVG/1.1/DTD/svg11.dtd"><svg width="100%" height="100%" viewBox="0 0 205 210" version="1.1" xmlns="http://www.w3.org/2000/svg" xmlns:xlink="http://www.w3.org/1999/xlink" xml:space="preserve" style="fill-rule:evenodd;clip-rule:evenodd;stroke-linecap:round;stroke-linejoin:round;stroke-miterlimit:10;"><g><path d="M99.172,10.507c-23.299,0 -56.419,-9.65 -56.419,-9.65c0,0 -2.227,42.428 -29.237,37.745c0,141.845 85.656,170.055 85.656,170.055c0,0 85.655,-28.21 85.655,-170.055c-27.01,4.683 -29.237,-37.745 -29.237,-37.745c0,0 -33.12,9.65 -56.418,9.65" style="fill:#b1004d;stroke:#540d1a;stroke-width:1.71px;"/><path d="M99.172,33.349c-30.437,0 -42.828,-5.026 -42.828,-5.026c0,0 -5.368,25.811 -30.836,29.523c0,111.295 73.664,127.055 73.664,127.055c0,0 73.663,-15.817 73.663,-127.055c-25.468,-3.712 -30.836,-29.523 -30.836,-29.523c0,0 -12.391,5.026 -42.827,5.026" style="fill:#7c0c3d;"/><g><g><clipPath id="_clip1"><path d="M99.172,33.977c-30.437,0 -42.828,-5.025 -42.828,-5.025c0,0 -5.368,25.81 -30.836,29.522c0,111.295 73.664,127.056 73.664,127.056c0,0 73.663,-15.818 73.663,-127.056c-25.468,-3.712 -30.836,-29.522 -30.836,-29.522c0,0 -12.391,5.025 -42.827,5.025Z"/></clipPath><g clip-path="url(#_clip1)"><g><path d="M1.068,23.07c-1.942,11.478 10.164,15.418 9.65,0.114" style="fill:none;stroke:#631142;stroke-width:1.71px;"/><path d="M10.947,23.07c-1.942,11.478 10.164,15.418 9.65,0.114" style="fill:none;stroke:#631142;stroke-width:1.71px;"/><path d="M20.883,23.07c-1.942,11.478 10.164,15.418 9.65,0.114" style="fill:none;stroke:#631142;stroke-width:1.71px;"/><path d="M30.761,23.07c-1.941,11.478 10.165,15.418 9.651,0.114" style="fill:none;stroke:#631142;stroke-width:1.71px;"/><path d="M40.64,23.07c-1.941,11.478 10.165,15.418 9.651,0.114" style="fill:none;stroke:#631142;stroke-width:1.71px;"/><path d="M50.576,23.07c-1.941,11.478 10.165,15.418 9.651,0.114" style="fill:none;stroke:#631142;stroke-width:1.71px;"/><path d="M60.455,23.07c-1.941,11.478 10.165,15.418 9.651,0.114" style="fill:none;stroke:#631142;stroke-width:1.71px;"/><path d="M70.391,23.07c-1.941,11.478 10.165,15.418 9.651,0.114" style="fill:none;stroke:#631142;stroke-width:1.71px;"/><path d="M80.27,23.07c-1.941,11.478 10.165,15.418 9.651,0.114" style="fill:none;stroke:#631142;stroke-width:1.71px;"/><path d="M90.206,23.07c-1.941,11.478 10.165,15.418 9.651,0.114" style="fill:none;stroke:#631142;stroke-width:1.71px;"/><path d="M1.068,43.342c-1.942,11.477 10.164,15.418 9.65,0.114" style="fill:none;stroke:#631142;stroke-width:1.71px;"/><path d="M10.947,43.342c-1.942,11.477 10.164,15.418 9.65,0.114" style="fill:none;stroke:#631142;stroke-width:1.71px;"/><path d="M20.883,43.342c-1.942,11.477 10.164,15.418 9.65,0.114" style="fill:none;stroke:#631142;stroke-width:1.71px;"/><path d="M30.761,43.342c-1.941,11.477 10.165,15.418 9.651,0.114" style="fill:none;stroke:#631142;stroke-width:1.71px;"/><path d="M40.64,43.342c-1.941,11.477 10.165,15.418 9.651,0.114" style="fill:none;stroke:#631142;stroke-width:1.71px;"/><path d="M50.576,43.342c-1.941,11.477 10.165,15.418 9.651,0.114" style="fill:none;stroke:#631142;stroke-width:1.71px;"/><path d="M60.455,43.342c-1.941,11.477 10.165,15.418 9.651,0.114" style="fill:none;stroke:#631142;stroke-width:1.71px;"/><path d="M70.391,43.342c-1.941,11.477 10.165,15.418 9.651,0.114" style="fill:none;stroke:#631142;stroke-width:1.71px;"/><path d="M80.27,43.342c-1.941,11.477 10.165,15.418 9.651,0.114" style="fill:none;stroke:#631142;stroke-width:1.71px;"/><path d="M90.206,43.342c-1.941,11.477 10.165,15.418 9.651,0.114" style="fill:none;stroke:#631142;stroke-width:1.71px;"/><path d="M1.068,63.671c-1.942,11.477 10.164,15.417 9.65,0.114" style="fill:none;stroke:#631142;stroke-width:1.71px;"/><path d="M10.947,63.671c-1.942,11.477 10.164,15.417 9.65,0.114" style="fill:none;stroke:#631142;stroke-width:1.71px;"/><path d="M20.883,63.671c-1.942,11.477 10.164,15.417 9.65,0.114" style="fill:none;stroke:#631142;stroke-width:1.71px;"/><path d="M30.761,63.671c-1.941,11.477 10.165,15.417 9.651,0.114" style="fill:none;stroke:#631142;stroke-width:1.71px;"/><path d="M40.64,63.671c-1.941,11.477 10.165,15.417 9.651,0.114" style="fill:none;stroke:#631142;stroke-width:1.71px;"/><path d="M50.576,63.671c-1.941,11.477 10.165,15.417 9.651,0.114" style="fill:none;stroke:#631142;stroke-width:1.71px;"/><path d="M60.455,63.671c-1.941,11.477 10.165,15.417 9.651,0.114" style="fill:none;stroke:#631142;stroke-width:1.71px;"/><path d="M70.391,63.671c-1.941,11.477 10.165,15.417 9.651,0.114" style="fill:none;stroke:#631142;stroke-width:1.71px;"/><path d="M80.27,63.671c-1.941,11.477 10.165,15.417 9.651,0.114" style="fill:none;stroke:#631142;stroke-width:1.71px;"/><path d="M90.206,63.671c-1.941,11.477 10.165,15.417 9.651,0.114" style="fill:none;stroke:#631142;stroke-width:1.71px;"/><path d="M1.068,83.999c-1.942,11.478 10.164,15.418 9.65,0.115" style="fill:none;stroke:#631142;stroke-width:1.71px;"/><path d="M10.947,83.999c-1.942,11.478 10.164,15.418 9.65,0.115" style="fill:none;stroke:#631142;stroke-width:1.71px;"/><path d="M20.883,83.999c-1.942,11.478 10.164,15.418 9.65,0.115" style="fill:none;stroke:#631142;stroke-width:1.71px;"/><path d="M30.761,83.999c-1.941,11.478 10.165,15.418 9.651,0.115" style="fill:none;stroke:#631142;stroke-width:1.71px;"/><path d="M40.64,83.999c-1.941,11.478 10.165,15.418 9.651,0.115" style="fill:none;stroke:#631142;stroke-width:1.71px;"/><path d="M50.576,83.999c-1.941,11.478 10.165,15.418 9.651,0.115" style="fill:none;stroke:#631142;stroke-width:1.71px;"/><path d="M60.455,83.999c-1.941,11.478 10.165,15.418 9.651,0.115" style="fill:none;stroke:#631142;stroke-width:1.71px;"/><path d="M70.391,83.999c-1.941,11.478 10.165,15.418 9.651,0.115" style="fill:none;stroke:#631142;stroke-width:1.71px;"/><path d="M80.27,83.999c-1.941,11.478 10.165,15.418 9.651,0.115" style="fill:none;stroke:#631142;stroke-width:1.71px;"/><path d="M90.206,83.999c-1.941,11.478 10.165,15.418 9.651,0.115" style="fill:none;stroke:#631142;stroke-width:1.71px;"/><path d="M1.068,104.271c-1.942,11.478 10.164,15.418 9.65,0.114" style="fill:none;stroke:#631142;stroke-width:1.71px;"/><path d="M10.947,104.271c-1.942,11.478 10.164,15.418 9.65,0.114" style="fill:none;stroke:#631142;stroke-width:1.71px;"/><path d="M20.883,104.271c-1.942,11.478 10.164,15.418 9.65,0.114" style="fill:none;stroke:#631142;stroke-width:1.71px;"/><path d="M30.761,104.271c-1.941,11.478 10.165,15.418 9.651,0.114" style="fill:none;stroke:#631142;stroke-width:1.71px;"/><path d="M40.64,104.271c-1.941,11.478 10.165,15.418 9.651,0.114" style="fill:none;stroke:#631142;stroke-width:1.71px;"/><path d="M50.576,104.271c-1.941,11.478 10.165,15.418 9.651,0.114" style="fill:none;stroke:#631142;stroke-width:1.71px;"/><path d="M60.455,104.271c-1.941,11.478 10.165,15.418 9.651,0.114" style="fill:none;stroke:#631142;stroke-width:1.71px;"/><path d="M70.391,104.271c-1.941,11.478 10.165,15.418 9.651,0.114" style="fill:none;stroke:#631142;stroke-width:1.71px;"/><path d="M80.27,104.271c-1.941,11.478 10.165,15.418 9.651,0.114" style="fill:none;stroke:#631142;stroke-width:1.71px;"/><path d="M90.206,104.271c-1.941,11.478 10.165,15.418 9.651,0.114" style="fill:none;stroke:#631142;stroke-width:1.71px;"/><path d="M1.068,124.6c-1.942,11.478 10.164,15.418 9.65,0.114" style="fill:none;stroke:#631142;stroke-width:1.71px;"/><path d="M10.947,124.6c-1.942,11.478 10.164,15.418 9.65,0.114" style="fill:none;stroke:#631142;stroke-width:1.71px;"/><path d="M20.883,124.6c-1.942,11.478 10.164,15.418 9.65,0.114" style="fill:none;stroke:#631142;stroke-width:1.71px;"/><path d="M30.761,124.6c-1.941,11.478 10.165,15.418 9.651,0.114" style="fill:none;stroke:#631142;stroke-width:1.71px;"/><path d="M40.64,124.6c-1.941,11.478 10.165,15.418 9.651,0.114" style="fill:none;stroke:#631142;stroke-width:1.71px;"/><path d="M50.576,124.6c-1.941,11.478 10.165,15.418 9.651,0.114" style="fill:none;stroke:#631142;stroke-width:1.71px;"/><path d="M60.455,124.6c-1.941,11.478 10.165,15.418 9.651,0.114" style="fill:none;stroke:#631142;stroke-width:1.71px;"/><path d="M70.391,124.6c-1.941,11.478 10.165,15.418 9.651,0.114" style="fill:none;stroke:#631142;stroke-width:1.71px;"/><path d="M80.27,124.6c-1.941,11.478 10.165,15.418 9.651,0.114" style="fill:none;stroke:#631142;stroke-width:1.71px;"/><path d="M90.206,124.6c-1.941,11.478 10.165,15.418 9.651,0.114" style="fill:none;stroke:#631142;stroke-width:1.71px;"/><path d="M1.068,144.872c-1.942,11.478 10.164,15.418 9.65,0.114" style="fill:none;stroke:#631142;stroke-width:1.71px;"/><path d="M10.947,144.872c-1.942,11.478 10.164,15.418 9.65,0.114" style="fill:none;stroke:#631142;stroke-width:1.71px;"/><path d="M20.883,144.872c-1.942,11.478 10.164,15.418 9.65,0.114" style="fill:none;stroke:#631142;stroke-width:1.71px;"/><path d="M30.761,144.872c-1.941,11.478 10.165,15.418 9.651,0.114" style="fill:none;stroke:#631142;stroke-width:1.71px;"/><path d="M40.64,144.872c-1.941,11.478 10.165,15.418 9.651,0.114" style="fill:none;stroke:#631142;stroke-width:1.71px;"/><path d="M50.576,144.872c-1.941,11.478 10.165,15.418 9.651,0.114" style="fill:none;stroke:#631142;stroke-width:1.71px;"/><path d="M60.455,144.872c-1.941,11.478 10.165,15.418 9.651,0.114" style="fill:none;stroke:#631142;stroke-width:1.71px;"/><path d="M70.391,144.872c-1.941,11.478 10.165,15.418 9.651,0.114" style="fill:none;stroke:#631142;stroke-width:1.71px;"/><path d="M80.27,144.872c-1.941,11.478 10.165,15.418 9.651,0.114" style="fill:none;stroke:#631142;stroke-width:1.71px;"/><path d="M90.206,144.872c-1.941,11.478 10.165,15.418 9.651,0.114" style="fill:none;stroke:#631142;stroke-width:1.71px;"/><path d="M1.068,165.201c-1.942,11.478 10.164,15.418 9.65,0.114" style="fill:none;stroke:#631142;stroke-width:1.71px;"/><path d="M10.947,165.201c-1.942,11.478 10.164,15.418 9.65,0.114" style="fill:none;stroke:#631142;stroke-width:1.71px;"/><path d="M20.883,165.201c-1.942,11.478 10.164,15.418 9.65,0.114" style="fill:none;stroke:#631142;stroke-width:1.71px;"/><path d="M30.761,165.201c-1.941,11.478 10.165,15.418 9.651,0.114" style="fill:none;stroke:#631142;stroke-width:1.71px;"/><path d="M40.64,165.201c-1.941,11.478 10.165,15.418 9.651,0.114" style="fill:none;stroke:#631142;stroke-width:1.71px;"/><path d="M50.576,165.201c-1.941,11.478 10.165,15.418 9.651,0.114" style="fill:none;stroke:#631142;stroke-width:1.71px;"/><path d="M60.455,165.201c-1.941,11.478 10.165,15.418 9.651,0.114" style="fill:none;stroke:#631142;stroke-width:1.71px;"/><path d="M70.391,165.201c-1.941,11.478 10.165,15.418 9.651,0.114" style="fill:none;stroke:#631142;stroke-width:1.71px;"/><path d="M80.27,165.201c-1.941,11.478 10.165,15.418 9.651,0.114" style="fill:none;stroke:#631142;stroke-width:1.71px;"/><path d="M90.206,165.201c-1.941,11.478 10.165,15.418 9.651,0.114" style="fill:none;stroke:#631142;stroke-width:1.71px;"/><path d="M5.864,33.177c-1.941,11.478 10.165,15.418 9.651,0.114" style="fill:none;stroke:#631142;stroke-width:1.71px;"/><path d="M15.8,33.177c-1.941,11.478 10.165,15.418 9.651,0.114" style="fill:none;stroke:#631142;stroke-width:1.71px;"/><path d="M25.679,33.177c-1.941,11.478 10.165,15.418 9.651,0.114" style="fill:none;stroke:#631142;stroke-width:1.71px;"/><path d="M35.615,33.177c-1.941,11.478 10.165,15.418 9.651,0.114" style="fill:none;stroke:#631142;stroke-width:1.71px;"/><path d="M45.494,33.177c-1.941,11.478 10.165,15.418 9.651,0.114" style="fill:none;stroke:#631142;stroke-width:1.71px;"/><path d="M55.373,33.177c-1.941,11.478 10.165,15.418 9.651,0.114" style="fill:none;stroke:#631142;stroke-width:1.71px;"/><path d="M65.309,33.177c-1.941,11.478 10.165,15.418 9.651,0.114" style="fill:none;stroke:#631142;stroke-width:1.71px;"/><path d="M75.188,33.177c-1.941,11.478 10.165,15.418 9.651,0.114" style="fill:none;stroke:#631142;stroke-width:1.71px;"/><path d="M85.124,33.177c-1.941,11.478 10.165,15.418 9.651,0.114" style="fill:none;stroke:#631142;stroke-width:1.71px;"/><path d="M95.003,33.177c-1.941,11.478 10.164,15.418 9.651,0.114" style="fill:none;stroke:#631142;stroke-width:1.71px;"/><path d="M5.864,53.506c-1.941,11.478 10.165,15.418 9.651,0.114" style="fill:none;stroke:#631142;stroke-width:1.71px;"/><path d="M15.8,53.506c-1.941,11.478 10.165,15.418 9.651,0.114" style="fill:none;stroke:#631142;stroke-width:1.71px;"/><path d="M25.679,53.506c-1.941,11.478 10.165,15.418 9.651,0.114" style="fill:none;stroke:#631142;stroke-width:1.71px;"/><path d="M35.615,53.506c-1.941,11.478 10.165,15.418 9.651,0.114" style="fill:none;stroke:#631142;stroke-width:1.71px;"/><path d="M45.494,53.506c-1.941,11.478 10.165,15.418 9.651,0.114" style="fill:none;stroke:#631142;stroke-width:1.71px;"/><path d="M55.373,53.506c-1.941,11.478 10.165,15.418 9.651,0.114" style="fill:none;stroke:#631142;stroke-width:1.71px;"/><path d="M65.309,53.506c-1.941,11.478 10.165,15.418 9.651,0.114" style="fill:none;stroke:#631142;stroke-width:1.71px;"/><path d="M75.188,53.506c-1.941,11.478 10.165,15.418 9.651,0.114" style="fill:none;stroke:#631142;stroke-width:1.71px;"/><path d="M85.124,53.506c-1.941,11.478 10.165,15.418 9.651,0.114" style="fill:none;stroke:#631142;stroke-width:1.71px;"/><path d="M95.003,53.506c-1.941,11.478 10.164,15.418 9.651,0.114" style="fill:none;stroke:#631142;stroke-width:1.71px;"/><path d="M5.864,73.835c-1.941,11.478 10.165,15.418 9.651,0.114" style="fill:none;stroke:#631142;stroke-width:1.71px;"/><path d="M15.8,73.835c-1.941,11.478 10.165,15.418 9.651,0.114" style="fill:none;stroke:#631142;stroke-width:1.71px;"/><path d="M25.679,73.835c-1.941,11.478 10.165,15.418 9.651,0.114" style="fill:none;stroke:#631142;stroke-width:1.71px;"/><path d="M35.615,73.835c-1.941,11.478 10.165,15.418 9.651,0.114" style="fill:none;stroke:#631142;stroke-width:1.71px;"/><path d="M45.494,73.835c-1.941,11.478 10.165,15.418 9.651,0.114" style="fill:none;stroke:#631142;stroke-width:1.71px;"/><path d="M55.373,73.835c-1.941,11.478 10.165,15.418 9.651,0.114" style="fill:none;stroke:#631142;stroke-width:1.71px;"/><path d="M65.309,73.835c-1.941,11.478 10.165,15.418 9.651,0.114" style="fill:none;stroke:#631142;stroke-width:1.71px;"/><path d="M75.188,73.835c-1.941,11.478 10.165,15.418 9.651,0.114" style="fill:none;stroke:#631142;stroke-width:1.71px;"/><path d="M85.124,73.835c-1.941,11.478 10.165,15.418 9.651,0.114" style="fill:none;stroke:#631142;stroke-width:1.71px;"/><path d="M95.003,73.835c-1.941,11.478 10.164,15.418 9.651,0.114" style="fill:none;stroke:#631142;stroke-width:1.71px;"/><path d="M5.864,94.107c-1.941,11.478 10.165,15.418 9.651,0.114" style="fill:none;stroke:#631142;stroke-width:1.71px;"/><path d="M15.8,94.107c-1.941,11.478 10.165,15.418 9.651,0.114" style="fill:none;stroke:#631142;stroke-width:1.71px;"/><path d="M25.679,94.107c-1.941,11.478 10.165,15.418 9.651,0.114" style="fill:none;stroke:#631142;stroke-width:1.71px;"/><path d="M35.615,94.107c-1.941,11.478 10.165,15.418 9.651,0.114" style="fill:none;stroke:#631142;stroke-width:1.71px;"/><path d="M45.494,94.107c-1.941,11.478 10.165,15.418 9.651,0.114" style="fill:none;stroke:#631142;stroke-width:1.71px;"/><path d="M55.373,94.107c-1.941,11.478 10.165,15.418 9.651,0.114" style="fill:none;stroke:#631142;stroke-width:1.71px;"/><path d="M65.309,94.107c-1.941,11.478 10.165,15.418 9.651,0.114" style="fill:none;stroke:#631142;stroke-width:1.71px;"/><path d="M75.188,94.107c-1.941,11.478 10.165,15.418 9.651,0.114" style="fill:none;stroke:#631142;stroke-width:1.71px;"/><path d="M85.124,94.107c-1.941,11.478 10.165,15.418 9.651,0.114" style="fill:none;stroke:#631142;stroke-width:1.71px;"/><path d="M95.003,94.107c-1.941,11.478 10.164,15.418 9.651,0.114" style="fill:none;stroke:#631142;stroke-width:1.71px;"/><path d="M5.864,114.436c-1.941,11.477 10.165,15.418 9.651,0.114" style="fill:none;stroke:#631142;stroke-width:1.71px;"/><path d="M15.8,114.436c-1.941,11.477 10.165,15.418 9.651,0.114" style="fill:none;stroke:#631142;stroke-width:1.71px;"/><path d="M25.679,114.436c-1.941,11.477 10.165,15.418 9.651,0.114" style="fill:none;stroke:#631142;stroke-width:1.71px;"/><path d="M35.615,114.436c-1.941,11.477 10.165,15.418 9.651,0.114" style="fill:none;stroke:#631142;stroke-width:1.71px;"/><path d="M45.494,114.436c-1.941,11.477 10.165,15.418 9.651,0.114" style="fill:none;stroke:#631142;stroke-width:1.71px;"/><path d="M55.373,114.436c-1.941,11.477 10.165,15.418 9.651,0.114" style="fill:none;stroke:#631142;stroke-width:1.71px;"/><path d="M65.309,114.436c-1.941,11.477 10.165,15.418 9.651,0.114" style="fill:none;stroke:#631142;stroke-width:1.71px;"/><path d="M75.188,114.436c-1.941,11.477 10.165,15.418 9.651,0.114" style="fill:none;stroke:#631142;stroke-width:1.71px;"/><path d="M85.124,114.436c-1.941,11.477 10.165,15.418 9.651,0.114" style="fill:none;stroke:#631142;stroke-width:1.71px;"/><path d="M95.003,114.436c-1.941,11.477 10.164,15.418 9.651,0.114" style="fill:none;stroke:#631142;stroke-width:1.71px;"/><path d="M5.864,134.764c-1.941,11.478 10.165,15.418 9.651,0.115" style="fill:none;stroke:#631142;stroke-width:1.71px;"/><path d="M15.8,134.764c-1.941,11.478 10.165,15.418 9.651,0.115" style="fill:none;stroke:#631142;stroke-width:1.71px;"/><path d="M25.679,134.764c-1.941,11.478 10.165,15.418 9.651,0.115" style="fill:none;stroke:#631142;stroke-width:1.71px;"/><path d="M35.615,134.764c-1.941,11.478 10.165,15.418 9.651,0.115" style="fill:none;stroke:#631142;stroke-width:1.71px;"/><path d="M45.494,134.764c-1.941,11.478 10.165,15.418 9.651,0.115" style="fill:none;stroke:#631142;stroke-width:1.71px;"/><path d="M55.373,134.764c-1.941,11.478 10.165,15.418 9.651,0.115" style="fill:none;stroke:#631142;stroke-width:1.71px;"/><path d="M65.309,134.764c-1.941,11.478 10.165,15.418 9.651,0.115" style="fill:none;stroke:#631142;stroke-width:1.71px;"/><path d="M75.188,134.764c-1.941,11.478 10.165,15.418 9.651,0.115" style="fill:none;stroke:#631142;stroke-width:1.71px;"/><path d="M85.124,134.764c-1.941,11.478 10.165,15.418 9.651,0.115" style="fill:none;stroke:#631142;stroke-width:1.71px;"/><path d="M95.003,134.764c-1.941,11.478 10.164,15.418 9.651,0.115" style="fill:none;stroke:#631142;stroke-width:1.71px;"/><path d="M5.864,155.036c-1.941,11.478 10.165,15.418 9.651,0.114" style="fill:none;stroke:#631142;stroke-width:1.71px;"/><path d="M15.8,155.036c-1.941,11.478 10.165,15.418 9.651,0.114" style="fill:none;stroke:#631142;stroke-width:1.71px;"/><path d="M25.679,155.036c-1.941,11.478 10.165,15.418 9.651,0.114" style="fill:none;stroke:#631142;stroke-width:1.71px;"/><path d="M35.615,155.036c-1.941,11.478 10.165,15.418 9.651,0.114" style="fill:none;stroke:#631142;stroke-width:1.71px;"/><path d="M45.494,155.036c-1.941,11.478 10.165,15.418 9.651,0.114" style="fill:none;stroke:#631142;stroke-width:1.71px;"/><path d="M55.373,155.036c-1.941,11.478 10.165,15.418 9.651,0.114" style="fill:none;stroke:#631142;stroke-width:1.71px;"/><path d="M65.309,155.036c-1.941,11.478 10.165,15.418 9.651,0.114" style="fill:none;stroke:#631142;stroke-width:1.71px;"/><path d="M75.188,155.036c-1.941,11.478 10.165,15.418 9.651,0.114" style="fill:none;stroke:#631142;stroke-width:1.71px;"/><path d="M85.124,155.036c-1.941,11.478 10.165,15.418 9.651,0.114" style="fill:none;stroke:#631142;stroke-width:1.71px;"/><path d="M95.003,155.036c-1.941,11.478 10.164,15.418 9.651,0.114" style="fill:none;stroke:#631142;stroke-width:1.71px;"/><path d="M5.864,175.365c-1.941,11.478 10.165,15.418 9.651,0.114" style="fill:none;stroke:#631142;stroke-width:1.71px;"/><path d="M15.8,175.365c-1.941,11.478 10.165,15.418 9.651,0.114" style="fill:none;stroke:#631142;stroke-width:1.71px;"/><path d="M25.679,175.365c-1.941,11.478 10.165,15.418 9.651,0.114" style="fill:none;stroke:#631142;stroke-width:1.71px;"/><path d="M35.615,175.365c-1.941,11.478 10.165,15.418 9.651,0.114" style="fill:none;stroke:#631142;stroke-width:1.71px;"/><path d="M45.494,175.365c-1.941,11.478 10.165,15.418 9.651,0.114" style="fill:none;stroke:#631142;stroke-width:1.71px;"/><path d="M55.373,175.365c-1.941,11.478 10.165,15.418 9.651,0.114" style="fill:none;stroke:#631142;stroke-width:1.71px;"/><path d="M65.309,175.365c-1.941,11.478 10.165,15.418 9.651,0.114" style="fill:none;stroke:#631142;stroke-width:1.71px;"/><path d="M75.188,175.365c-1.941,11.478 10.165,15.418 9.651,0.114" style="fill:none;stroke:#631142;stroke-width:1.71px;"/><path d="M85.124,175.365c-1.941,11.478 10.165,15.418 9.651,0.114" style="fill:none;stroke:#631142;stroke-width:1.71px;"/><path d="M95.003,175.365c-1.941,11.478 10.164,15.418 9.651,0.114" style="fill:none;stroke:#631142;stroke-width:1.71px;"/></g><g><path d="M100.085,23.07c-1.941,11.478 10.165,15.418 9.651,0.114" style="fill:none;stroke:#631142;stroke-width:1.71px;"/><path d="M110.021,23.07c-1.941,11.478 10.165,15.418 9.651,0.114" style="fill:none;stroke:#631142;stroke-width:1.71px;"/><path d="M119.9,23.07c-1.941,11.478 10.165,15.418 9.651,0.114" style="fill:none;stroke:#631142;stroke-width:1.71px;"/><path d="M129.779,23.07c-1.941,11.478 10.165,15.418 9.651,0.114" style="fill:none;stroke:#631142;stroke-width:1.71px;"/><path d="M139.715,23.07c-1.941,11.478 10.165,15.418 9.651,0.114" style="fill:none;stroke:#631142;stroke-width:1.71px;"/><path d="M149.594,23.07c-1.941,11.478 10.165,15.418 9.651,0.114" style="fill:none;stroke:#631142;stroke-width:1.71px;"/><path d="M159.53,23.07c-1.941,11.478 10.165,15.418 9.651,0.114" style="fill:none;stroke:#631142;stroke-width:1.71px;"/><path d="M169.409,23.07c-1.941,11.478 10.164,15.418 9.651,0.114" style="fill:none;stroke:#631142;stroke-width:1.71px;"/><path d="M179.345,23.07c-1.941,11.478 10.164,15.418 9.651,0.114" style="fill:none;stroke:#631142;stroke-width:1.71px;"/><path d="M189.224,23.07c-1.942,11.478 10.164,15.418 9.65,0.114" style="fill:none;stroke:#631142;stroke-width:1.71px;"/><path d="M100.085,43.342c-1.941,11.477 10.165,15.418 9.651,0.114" style="fill:none;stroke:#631142;stroke-width:1.71px;"/><path d="M110.021,43.342c-1.941,11.477 10.165,15.418 9.651,0.114" style="fill:none;stroke:#631142;stroke-width:1.71px;"/><path d="M119.9,43.342c-1.941,11.477 10.165,15.418 9.651,0.114" style="fill:none;stroke:#631142;stroke-width:1.71px;"/><path d="M129.779,43.342c-1.941,11.477 10.165,15.418 9.651,0.114" style="fill:none;stroke:#631142;stroke-width:1.71px;"/><path d="M139.715,43.342c-1.941,11.477 10.165,15.418 9.651,0.114" style="fill:none;stroke:#631142;stroke-width:1.71px;"/><path d="M149.594,43.342c-1.941,11.477 10.165,15.418 9.651,0.114" style="fill:none;stroke:#631142;stroke-width:1.71px;"/><path d="M159.53,43.342c-1.941,11.477 10.165,15.418 9.651,0.114" style="fill:none;stroke:#631142;stroke-width:1.71px;"/><path d="M169.409,43.342c-1.941,11.477 10.164,15.418 9.651,0.114" style="fill:none;stroke:#631142;stroke-width:1.71px;"/><path d="M179.345,43.342c-1.941,11.477 10.164,15.418 9.651,0.114" style="fill:none;stroke:#631142;stroke-width:1.71px;"/><path d="M189.224,43.342c-1.942,11.477 10.164,15.418 9.65,0.114" style="fill:none;stroke:#631142;stroke-width:1.71px;"/><path d="M100.085,63.671c-1.941,11.477 10.165,15.417 9.651,0.114" style="fill:none;stroke:#631142;stroke-width:1.71px;"/><path d="M110.021,63.671c-1.941,11.477 10.165,15.417 9.651,0.114" style="fill:none;stroke:#631142;stroke-width:1.71px;"/><path d="M119.9,63.671c-1.941,11.477 10.165,15.417 9.651,0.114" style="fill:none;stroke:#631142;stroke-width:1.71px;"/><path d="M129.779,63.671c-1.941,11.477 10.165,15.417 9.651,0.114" style="fill:none;stroke:#631142;stroke-width:1.71px;"/><path d="M139.715,63.671c-1.941,11.477 10.165,15.417 9.651,0.114" style="fill:none;stroke:#631142;stroke-width:1.71px;"/><path d="M149.594,63.671c-1.941,11.477 10.165,15.417 9.651,0.114" style="fill:none;stroke:#631142;stroke-width:1.71px;"/><path d="M159.53,63.671c-1.941,11.477 10.165,15.417 9.651,0.114" style="fill:none;stroke:#631142;stroke-width:1.71px;"/><path d="M169.409,63.671c-1.941,11.477 10.164,15.417 9.651,0.114" style="fill:none;stroke:#631142;stroke-width:1.71px;"/><path d="M179.345,63.671c-1.941,11.477 10.164,15.417 9.651,0.114" style="fill:none;stroke:#631142;stroke-width:1.71px;"/><path d="M189.224,63.671c-1.942,11.477 10.164,15.417 9.65,0.114" style="fill:none;stroke:#631142;stroke-width:1.71px;"/><path d="M100.085,83.999c-1.941,11.478 10.165,15.418 9.651,0.115" style="fill:none;stroke:#631142;stroke-width:1.71px;"/><path d="M110.021,83.999c-1.941,11.478 10.165,15.418 9.651,0.115" style="fill:none;stroke:#631142;stroke-width:1.71px;"/><path d="M119.9,83.999c-1.941,11.478 10.165,15.418 9.651,0.115" style="fill:none;stroke:#631142;stroke-width:1.71px;"/><path d="M129.779,83.999c-1.941,11.478 10.165,15.418 9.651,0.115" style="fill:none;stroke:#631142;stroke-width:1.71px;"/><path d="M139.715,83.999c-1.941,11.478 10.165,15.418 9.651,0.115" style="fill:none;stroke:#631142;stroke-width:1.71px;"/><path d="M149.594,83.999c-1.941,11.478 10.165,15.418 9.651,0.115" style="fill:none;stroke:#631142;stroke-width:1.71px;"/><path d="M159.53,83.999c-1.941,11.478 10.165,15.418 9.651,0.115" style="fill:none;stroke:#631142;stroke-width:1.71px;"/><path d="M169.409,83.999c-1.941,11.478 10.164,15.418 9.651,0.115" style="fill:none;stroke:#631142;stroke-width:1.71px;"/><path d="M179.345,83.999c-1.941,11.478 10.164,15.418 9.651,0.115" style="fill:none;stroke:#631142;stroke-width:1.71px;"/><path d="M189.224,83.999c-1.942,11.478 10.164,15.418 9.65,0.115" style="fill:none;stroke:#631142;stroke-width:1.71px;"/><path d="M100.085,104.271c-1.941,11.478 10.165,15.418 9.651,0.114" style="fill:none;stroke:#631142;stroke-width:1.71px;"/><path d="M110.021,104.271c-1.941,11.478 10.165,15.418 9.651,0.114" style="fill:none;stroke:#631142;stroke-width:1.71px;"/><path d="M119.9,104.271c-1.941,11.478 10.165,15.418 9.651,0.114" style="fill:none;stroke:#631142;stroke-width:1.71px;"/><path d="M129.779,104.271c-1.941,11.478 10.165,15.418 9.651,0.114" style="fill:none;stroke:#631142;stroke-width:1.71px;"/><path d="M139.715,104.271c-1.941,11.478 10.165,15.418 9.651,0.114" style="fill:none;stroke:#631142;stroke-width:1.71px;"/><path d="M149.594,104.271c-1.941,11.478 10.165,15.418 9.651,0.114" style="fill:none;stroke:#631142;stroke-width:1.71px;"/><path d="M159.53,104.271c-1.941,11.478 10.165,15.418 9.651,0.114" style="fill:none;stroke:#631142;stroke-width:1.71px;"/><path d="M169.409,104.271c-1.941,11.478 10.164,15.418 9.651,0.114" style="fill:none;stroke:#631142;stroke-width:1.71px;"/><path d="M179.345,104.271c-1.941,11.478 10.164,15.418 9.651,0.114" style="fill:none;stroke:#631142;stroke-width:1.71px;"/><path d="M189.224,104.271c-1.942,11.478 10.164,15.418 9.65,0.114" style="fill:none;stroke:#631142;stroke-width:1.71px;"/><path d="M100.085,124.6c-1.941,11.478 10.165,15.418 9.651,0.114" style="fill:none;stroke:#631142;stroke-width:1.71px;"/><path d="M110.021,124.6c-1.941,11.478 10.165,15.418 9.651,0.114" style="fill:none;stroke:#631142;stroke-width:1.71px;"/><path d="M119.9,124.6c-1.941,11.478 10.165,15.418 9.651,0.114" style="fill:none;stroke:#631142;stroke-width:1.71px;"/><path d="M129.779,124.6c-1.941,11.478 10.165,15.418 9.651,0.114" style="fill:none;stroke:#631142;stroke-width:1.71px;"/><path d="M139.715,124.6c-1.941,11.478 10.165,15.418 9.651,0.114" style="fill:none;stroke:#631142;stroke-width:1.71px;"/><path d="M149.594,124.6c-1.941,11.478 10.165,15.418 9.651,0.114" style="fill:none;stroke:#631142;stroke-width:1.71px;"/><path d="M159.53,124.6c-1.941,11.478 10.165,15.418 9.651,0.114" style="fill:none;stroke:#631142;stroke-width:1.71px;"/><path d="M169.409,124.6c-1.941,11.478 10.164,15.418 9.651,0.114" style="fill:none;stroke:#631142;stroke-width:1.71px;"/><path d="M179.345,124.6c-1.941,11.478 10.164,15.418 9.651,0.114" style="fill:none;stroke:#631142;stroke-width:1.71px;"/><path d="M189.224,124.6c-1.942,11.478 10.164,15.418 9.65,0.114" style="fill:none;stroke:#631142;stroke-width:1.71px;"/><path d="M100.085,144.872c-1.941,11.478 10.165,15.418 9.651,0.114" style="fill:none;stroke:#631142;stroke-width:1.71px;"/><path d="M110.021,144.872c-1.941,11.478 10.165,15.418 9.651,0.114" style="fill:none;stroke:#631142;stroke-width:1.71px;"/><path d="M119.9,144.872c-1.941,11.478 10.165,15.418 9.651,0.114" style="fill:none;stroke:#631142;stroke-width:1.71px;"/><path d="M129.779,144.872c-1.941,11.478 10.165,15.418 9.651,0.114" style="fill:none;stroke:#631142;stroke-width:1.71px;"/><path d="M139.715,144.872c-1.941,11.478 10.165,15.418 9.651,0.114" style="fill:none;stroke:#631142;stroke-width:1.71px;"/><path d="M149.594,144.872c-1.941,11.478 10.165,15.418 9.651,0.114" style="fill:none;stroke:#631142;stroke-width:1.71px;"/><path d="M159.53,144.872c-1.941,11.478 10.165,15.418 9.651,0.114" style="fill:none;stroke:#631142;stroke-width:1.71px;"/><path d="M169.409,144.872c-1.941,11.478 10.164,15.418 9.651,0.114" style="fill:none;stroke:#631142;stroke-width:1.71px;"/><path d="M179.345,144.872c-1.941,11.478 10.164,15.418 9.651,0.114" style="fill:none;stroke:#631142;stroke-width:1.71px;"/><path d="M189.224,144.872c-1.942,11.478 10.164,15.418 9.65,0.114" style="fill:none;stroke:#631142;stroke-width:1.71px;"/><path d="M100.085,165.201c-1.941,11.478 10.165,15.418 9.651,0.114" style="fill:none;stroke:#631142;stroke-width:1.71px;"/><path d="M110.021,165.201c-1.941,11.478 10.165,15.418 9.651,0.114" style="fill:none;stroke:#631142;stroke-width:1.71px;"/><path d="M119.9,165.201c-1.941,11.478 10.165,15.418 9.651,0.114" style="fill:none;stroke:#631142;stroke-width:1.71px;"/><path d="M129.779,165.201c-1.941,11.478 10.165,15.418 9.651,0.114" style="fill:none;stroke:#631142;stroke-width:1.71px;"/><path d="M139.715,165.201c-1.941,11.478 10.165,15.418 9.651,0.114" style="fill:none;stroke:#631142;stroke-width:1.71px;"/><path d="M149.594,165.201c-1.941,11.478 10.165,15.418 9.651,0.114" style="fill:none;stroke:#631142;stroke-width:1.71px;"/><path d="M159.53,165.201c-1.941,11.478 10.165,15.418 9.651,0.114" style="fill:none;stroke:#631142;stroke-width:1.71px;"/><path d="M169.409,165.201c-1.941,11.478 10.164,15.418 9.651,0.114" style="fill:none;stroke:#631142;stroke-width:1.71px;"/><path d="M179.345,165.201c-1.941,11.478 10.164,15.418 9.651,0.114" style="fill:none;stroke:#631142;stroke-width:1.71px;"/><path d="M189.224,165.201c-1.942,11.478 10.164,15.418 9.65,0.114" style="fill:none;stroke:#631142;stroke-width:1.71px;"/><path d="M104.939,33.177c-1.941,11.478 10.164,15.418 9.651,0.114" style="fill:none;stroke:#631142;stroke-width:1.71px;"/><path d="M114.818,33.177c-1.942,11.478 10.164,15.418 9.65,0.114" style="fill:none;stroke:#631142;stroke-width:1.71px;"/><path d="M124.754,33.177c-1.942,11.478 10.164,15.418 9.651,0.114" style="fill:none;stroke:#631142;stroke-width:1.71px;"/><path d="M134.633,33.177c-1.942,11.478 10.164,15.418 9.65,0.114" style="fill:none;stroke:#631142;stroke-width:1.71px;"/><path d="M144.512,33.177c-1.942,11.478 10.164,15.418 9.65,0.114" style="fill:none;stroke:#631142;stroke-width:1.71px;"/><path d="M154.448,33.177c-1.942,11.478 10.164,15.418 9.65,0.114" style="fill:none;stroke:#631142;stroke-width:1.71px;"/><path d="M164.327,33.177c-1.942,11.478 10.164,15.418 9.65,0.114" style="fill:none;stroke:#631142;stroke-width:1.71px;"/><path d="M174.263,33.177c-1.942,11.478 10.164,15.418 9.65,0.114" style="fill:none;stroke:#631142;stroke-width:1.71px;"/><path d="M184.142,33.177c-1.942,11.478 10.164,15.418 9.65,0.114" style="fill:none;stroke:#631142;stroke-width:1.71px;"/><path d="M194.078,33.177c-1.942,11.478 10.164,15.418 9.65,0.114" style="fill:none;stroke:#631142;stroke-width:1.71px;"/><path d="M104.939,53.506c-1.941,11.478 10.164,15.418 9.651,0.114" style="fill:none;stroke:#631142;stroke-width:1.71px;"/><path d="M114.818,53.506c-1.942,11.478 10.164,15.418 9.65,0.114" style="fill:none;stroke:#631142;stroke-width:1.71px;"/><path d="M124.754,53.506c-1.942,11.478 10.164,15.418 9.651,0.114" style="fill:none;stroke:#631142;stroke-width:1.71px;"/><path d="M134.633,53.506c-1.942,11.478 10.164,15.418 9.65,0.114" style="fill:none;stroke:#631142;stroke-width:1.71px;"/><path d="M144.512,53.506c-1.942,11.478 10.164,15.418 9.65,0.114" style="fill:none;stroke:#631142;stroke-width:1.71px;"/><path d="M154.448,53.506c-1.942,11.478 10.164,15.418 9.65,0.114" style="fill:none;stroke:#631142;stroke-width:1.71px;"/><path d="M164.327,53.506c-1.942,11.478 10.164,15.418 9.65,0.114" style="fill:none;stroke:#631142;stroke-width:1.71px;"/><path d="M174.263,53.506c-1.942,11.478 10.164,15.418 9.65,0.114" style="fill:none;stroke:#631142;stroke-width:1.71px;"/><path d="M184.142,53.506c-1.942,11.478 10.164,15.418 9.65,0.114" style="fill:none;stroke:#631142;stroke-width:1.71px;"/><path d="M194.078,53.506c-1.942,11.478 10.164,15.418 9.65,0.114" style="fill:none;stroke:#631142;stroke-width:1.71px;"/><path d="M104.939,73.835c-1.941,11.478 10.164,15.418 9.651,0.114" style="fill:none;stroke:#631142;stroke-width:1.71px;"/><path d="M114.818,73.835c-1.942,11.478 10.164,15.418 9.65,0.114" style="fill:none;stroke:#631142;stroke-width:1.71px;"/><path d="M124.754,73.835c-1.942,11.478 10.164,15.418 9.651,0.114" style="fill:none;stroke:#631142;stroke-width:1.71px;"/><path d="M134.633,73.835c-1.942,11.478 10.164,15.418 9.65,0.114" style="fill:none;stroke:#631142;stroke-width:1.71px;"/><path d="M144.512,73.835c-1.942,11.478 10.164,15.418 9.65,0.114" style="fill:none;stroke:#631142;stroke-width:1.71px;"/><path d="M154.448,73.835c-1.942,11.478 10.164,15.418 9.65,0.114" style="fill:none;stroke:#631142;stroke-width:1.71px;"/><path d="M164.327,73.835c-1.942,11.478 10.164,15.418 9.65,0.114" style="fill:none;stroke:#631142;stroke-width:1.71px;"/><path d="M174.263,73.835c-1.942,11.478 10.164,15.418 9.65,0.114" style="fill:none;stroke:#631142;stroke-width:1.71px;"/><path d="M184.142,73.835c-1.942,11.478 10.164,15.418 9.65,0.114" style="fill:none;stroke:#631142;stroke-width:1.71px;"/><path d="M194.078,73.835c-1.942,11.478 10.164,15.418 9.65,0.114" style="fill:none;stroke:#631142;stroke-width:1.71px;"/><path d="M104.939,94.107c-1.941,11.478 10.164,15.418 9.651,0.114" style="fill:none;stroke:#631142;stroke-width:1.71px;"/><path d="M114.818,94.107c-1.942,11.478 10.164,15.418 9.65,0.114" style="fill:none;stroke:#631142;stroke-width:1.71px;"/><path d="M124.754,94.107c-1.942,11.478 10.164,15.418 9.651,0.114" style="fill:none;stroke:#631142;stroke-width:1.71px;"/><path d="M134.633,94.107c-1.942,11.478 10.164,15.418 9.65,0.114" style="fill:none;stroke:#631142;stroke-width:1.71px;"/><path d="M144.512,94.107c-1.942,11.478 10.164,15.418 9.65,0.114" style="fill:none;stroke:#631142;stroke-width:1.71px;"/><path d="M154.448,94.107c-1.942,11.478 10.164,15.418 9.65,0.114" style="fill:none;stroke:#631142;stroke-width:1.71px;"/><path d="M164.327,94.107c-1.942,11.478 10.164,15.418 9.65,0.114" style="fill:none;stroke:#631142;stroke-width:1.71px;"/><path d="M174.263,94.107c-1.942,11.478 10.164,15.418 9.65,0.114" style="fill:none;stroke:#631142;stroke-width:1.71px;"/><path d="M184.142,94.107c-1.942,11.478 10.164,15.418 9.65,0.114" style="fill:none;stroke:#631142;stroke-width:1.71px;"/><path d="M194.078,94.107c-1.942,11.478 10.164,15.418 9.65,0.114" style="fill:none;stroke:#631142;stroke-width:1.71px;"/><path d="M104.939,114.436c-1.941,11.477 10.164,15.418 9.651,0.114" style="fill:none;stroke:#631142;stroke-width:1.71px;"/><path d="M114.818,114.436c-1.942,11.477 10.164,15.418 9.65,0.114" style="fill:none;stroke:#631142;stroke-width:1.71px;"/><path d="M124.754,114.436c-1.942,11.477 10.164,15.418 9.651,0.114" style="fill:none;stroke:#631142;stroke-width:1.71px;"/><path d="M134.633,114.436c-1.942,11.477 10.164,15.418 9.65,0.114" style="fill:none;stroke:#631142;stroke-width:1.71px;"/><path d="M144.512,114.436c-1.942,11.477 10.164,15.418 9.65,0.114" style="fill:none;stroke:#631142;stroke-width:1.71px;"/><path d="M154.448,114.436c-1.942,11.477 10.164,15.418 9.65,0.114" style="fill:none;stroke:#631142;stroke-width:1.71px;"/><path d="M164.327,114.436c-1.942,11.477 10.164,15.418 9.65,0.114" style="fill:none;stroke:#631142;stroke-width:1.71px;"/><path d="M174.263,114.436c-1.942,11.477 10.164,15.418 9.65,0.114" style="fill:none;stroke:#631142;stroke-width:1.71px;"/><path d="M184.142,114.436c-1.942,11.477 10.164,15.418 9.65,0.114" style="fill:none;stroke:#631142;stroke-width:1.71px;"/><path d="M194.078,114.436c-1.942,11.477 10.164,15.418 9.65,0.114" style="fill:none;stroke:#631142;stroke-width:1.71px;"/><path d="M104.939,134.764c-1.941,11.478 10.164,15.418 9.651,0.115" style="fill:none;stroke:#631142;stroke-width:1.71px;"/><path d="M114.818,134.764c-1.942,11.478 10.164,15.418 9.65,0.115" style="fill:none;stroke:#631142;stroke-width:1.71px;"/><path d="M124.754,134.764c-1.942,11.478 10.164,15.418 9.651,0.115" style="fill:none;stroke:#631142;stroke-width:1.71px;"/><path d="M134.633,134.764c-1.942,11.478 10.164,15.418 9.65,0.115" style="fill:none;stroke:#631142;stroke-width:1.71px;"/><path d="M144.512,134.764c-1.942,11.478 10.164,15.418 9.65,0.115" style="fill:none;stroke:#631142;stroke-width:1.71px;"/><path d="M154.448,134.764c-1.942,11.478 10.164,15.418 9.65,0.115" style="fill:none;stroke:#631142;stroke-width:1.71px;"/><path d="M164.327,134.764c-1.942,11.478 10.164,15.418 9.65,0.115" style="fill:none;stroke:#631142;stroke-width:1.71px;"/><path d="M174.263,134.764c-1.942,11.478 10.164,15.418 9.65,0.115" style="fill:none;stroke:#631142;stroke-width:1.71px;"/><path d="M184.142,134.764c-1.942,11.478 10.164,15.418 9.65,0.115" style="fill:none;stroke:#631142;stroke-width:1.71px;"/><path d="M194.078,134.764c-1.942,11.478 10.164,15.418 9.65,0.115" style="fill:none;stroke:#631142;stroke-width:1.71px;"/><path d="M104.939,155.036c-1.941,11.478 10.164,15.418 9.651,0.114" style="fill:none;stroke:#631142;stroke-width:1.71px;"/><path d="M114.818,155.036c-1.942,11.478 10.164,15.418 9.65,0.114" style="fill:none;stroke:#631142;stroke-width:1.71px;"/><path d="M124.754,155.036c-1.942,11.478 10.164,15.418 9.651,0.114" style="fill:none;stroke:#631142;stroke-width:1.71px;"/><path d="M134.633,155.036c-1.942,11.478 10.164,15.418 9.65,0.114" style="fill:none;stroke:#631142;stroke-width:1.71px;"/><path d="M144.512,155.036c-1.942,11.478 10.164,15.418 9.65,0.114" style="fill:none;stroke:#631142;stroke-width:1.71px;"/><path d="M154.448,155.036c-1.942,11.478 10.164,15.418 9.65,0.114" style="fill:none;stroke:#631142;stroke-width:1.71px;"/><path d="M164.327,155.036c-1.942,11.478 10.164,15.418 9.65,0.114" style="fill:none;stroke:#631142;stroke-width:1.71px;"/><path d="M174.263,155.036c-1.942,11.478 10.164,15.418 9.65,0.114" style="fill:none;stroke:#631142;stroke-width:1.71px;"/><path d="M184.142,155.036c-1.942,11.478 10.164,15.418 9.65,0.114" style="fill:none;stroke:#631142;stroke-width:1.71px;"/><path d="M194.078,155.036c-1.942,11.478 10.164,15.418 9.65,0.114" style="fill:none;stroke:#631142;stroke-width:1.71px;"/><path d="M104.939,175.365c-1.941,11.478 10.164,15.418 9.651,0.114" style="fill:none;stroke:#631142;stroke-width:1.71px;"/><path d="M114.818,175.365c-1.942,11.478 10.164,15.418 9.65,0.114" style="fill:none;stroke:#631142;stroke-width:1.71px;"/><path d="M124.754,175.365c-1.942,11.478 10.164,15.418 9.651,0.114" style="fill:none;stroke:#631142;stroke-width:1.71px;"/><path d="M134.633,175.365c-1.942,11.478 10.164,15.418 9.65,0.114" style="fill:none;stroke:#631142;stroke-width:1.71px;"/><path d="M144.512,175.365c-1.942,11.478 10.164,15.418 9.65,0.114" style="fill:none;stroke:#631142;stroke-width:1.71px;"/><path d="M154.448,175.365c-1.942,11.478 10.164,15.418 9.65,0.114" style="fill:none;stroke:#631142;stroke-width:1.71px;"/><path d="M164.327,175.365c-1.942,11.478 10.164,15.418 9.65,0.114" style="fill:none;stroke:#631142;stroke-width:1.71px;"/><path d="M174.263,175.365c-1.942,11.478 10.164,15.418 9.65,0.114" style="fill:none;stroke:#631142;stroke-width:1.71px;"/><path d="M184.142,175.365c-1.942,11.478 10.164,15.418 9.65,0.114" style="fill:none;stroke:#631142;stroke-width:1.71px;"/><path d="M194.078,175.365c-1.942,11.478 10.164,15.418 9.65,0.114" style="fill:none;stroke:#631142;stroke-width:1.71px;"/></g></g></g><path id="SVGID_1_" d="M99.172,33.977c-30.437,0 -42.828,-5.025 -42.828,-5.025c0,0 -5.368,25.81 -30.836,29.522c0,111.295 73.664,127.056 73.664,127.056c0,0 73.663,-15.818 73.663,-127.056c-25.468,-3.712 -30.836,-29.522 -30.836,-29.522c0,0 -12.391,5.025 -42.827,5.025Z" style="fill:none;stroke:#631142;stroke-width:1.71px;"/></g><g><path d="M19.569,43.285c2.17,-1.028 4.968,0.228 6.224,2.855c1.257,2.626 0.457,5.539 -1.713,6.624c-2.17,1.028 -4.968,-0.229 -6.224,-2.855c-1.256,-2.627 -0.457,-5.597 1.713,-6.624Z" style="fill:#b1004d;stroke:#6b1021;stroke-width:1.71px;"/><path d="M21.054,46.425c0.742,-0.342 1.656,0.057 2.056,0.914c0.399,0.856 0.171,1.827 -0.571,2.17c-0.743,0.342 -1.656,-0.057 -2.056,-0.914c-0.4,-0.856 -0.114,-1.827 0.571,-2.17Z" style="fill:#b1004d;stroke:#6b1021;stroke-width:1.71px;"/><path d="M178.717,43.285c-2.17,-1.028 -4.968,0.228 -6.224,2.855c-1.257,2.626 -0.457,5.539 1.713,6.624c2.17,1.028 4.968,-0.229 6.224,-2.855c1.256,-2.627 0.457,-5.597 -1.713,-6.624Z" style="fill:#b1004d;stroke:#6b1021;stroke-width:1.71px;"/><path d="M177.289,46.311c-0.742,-0.343 -1.713,0.057 -2.17,0.971c-0.456,0.913 -0.171,1.941 0.571,2.284c0.743,0.343 1.714,-0.057 2.17,-0.971c0.457,-0.856 0.172,-1.884 -0.571,-2.284Z" style="fill:#b1004d;stroke:#6b1021;stroke-width:1.71px;"/><path d="M51.719,8.109c3.711,0 6.738,3.026 6.738,6.738c0,3.712 -3.027,6.738 -6.738,6.738c-3.712,0 -6.739,-3.026 -6.739,-6.738c0,-3.712 3.027,-6.738 6.739,-6.738Z" style="fill:#b1004d;stroke:#6b1021;stroke-width:1.71px;"/><path d="M51.719,12.506c1.256,0 2.341,1.028 2.341,2.341c0,1.256 -1.028,2.341 -2.341,2.341c-1.257,0 -2.342,-1.028 -2.342,-2.341c0.057,-1.313 1.085,-2.341 2.342,-2.341Z" style="fill:#b1004d;stroke:#6b1021;stroke-width:1.71px;"/><path d="M146.568,8.109c-3.712,0 -6.739,3.026 -6.739,6.738c0,3.712 3.027,6.738 6.739,6.738c3.711,0 6.738,-3.026 6.738,-6.738c0,-3.712 -3.027,-6.738 -6.738,-6.738Z" style="fill:#b1004d;stroke:#6b1021;stroke-width:1.71px;"/><path d="M146.568,12.506c-1.257,0 -2.342,1.028 -2.342,2.341c0,1.256 1.028,2.341 2.342,2.341c1.256,0 2.341,-1.028 2.341,-2.341c-0.057,-1.313 -1.085,-2.341 -2.341,-2.341Z" style="fill:#b1004d;stroke:#6b1021;stroke-width:1.71px;"/><path d="M99.172,14.904c-3.712,0 -6.739,3.027 -6.739,6.738c0,3.712 3.027,6.738 6.739,6.738c3.711,0 6.738,-3.026 6.738,-6.738c-0.057,-3.769 -3.084,-6.738 -6.738,-6.738Z" style="fill:#b1004d;stroke:#6b1021;stroke-width:1.71px;"/><path d="M99.172,19.529c-1.142,0 -2.056,0.914 -2.056,2.056c0,1.142 0.914,2.056 2.056,2.056c1.142,0 2.055,-0.914 2.055,-2.056c0,-1.142 -0.913,-2.056 -2.055,-2.056Z" style="fill:#b1004d;stroke:#6b1021;stroke-width:1.71px;"/><path d="M99.172,189.47c-3.712,0 -6.739,3.026 -6.739,6.738c0,3.712 3.027,6.738 6.739,6.738c3.711,0 6.738,-3.026 6.738,-6.738c-0.057,-3.712 -3.084,-6.738 -6.738,-6.738Z" style="fill:#b1004d;stroke:#6b1021;stroke-width:1.71px;"/><path d="M99.172,193.695c-1.371,0 -2.456,1.085 -2.456,2.456c0,1.37 1.085,2.455 2.456,2.455c1.37,0 2.455,-1.085 2.455,-2.455c0,-1.314 -1.142,-2.456 -2.455,-2.456Z" style="fill:#b1004d;stroke:#6b1021;stroke-width:1.71px;"/></g><g><rect x="61.255" y="54.363" width="75.091" height="75.091" style="fill:#b1004d;"/><path d="M123.555,91.48c0,13.534 -11.078,25.24 -24.84,25.24c-5.368,0 -10.393,-1.77 -14.447,-4.797l-3.541,3.598l-4.911,-4.797l3.484,-3.655c-3.37,-4.34 -5.368,-9.822 -5.368,-15.646c0,-13.534 11.078,-25.24 24.84,-25.24c5.539,0 10.621,1.942 14.79,5.025l3.826,-3.94l5.025,5.139l-3.826,3.941c3.083,4.339 4.968,9.593 4.968,15.132Zm-37.346,8.451l20.614,-21.585c-2.341,-1.599 -5.139,-2.57 -8.108,-2.57c-8.28,0 -15.018,7.538 -15.018,15.704c0,3.026 0.913,5.939 2.512,8.451Zm27.524,-8.451c0,-2.741 -0.742,-5.482 -2.17,-7.88l-20.557,21.299c2.284,1.428 4.854,2.284 7.652,2.284c8.394,0 15.075,-7.48 15.075,-15.703Z" style="fill:#fff;fill-rule:nonzero;"/></g></g></svg>