<?xml version="1.0" encoding="UTF-8" standalone="no"?><!DOCTYPE svg PUBLIC "-//W3C//DTD SVG 1.1//EN" "http://www.w3.org/Graphics/SVG/1.1/DTD/svg11.dtd"><svg width="100%" height="100%" viewBox="0 0 178 182" version="1.1" xmlns="http://www.w3.org/2000/svg" xmlns:xlink="http://www.w3.org/1999/xlink" xml:space="preserve" style="fill-rule:evenodd;clip-rule:evenodd;stroke-linecap:round;stroke-linejoin:round;stroke-miterlimit:10;"><g><path d="M85.904,9.101c-20.181,0 -48.87,-8.359 -48.87,-8.359c0,0 -1.929,36.752 -25.326,32.696c0,122.869 74.196,147.304 74.196,147.304c0,0 74.196,-24.435 74.196,-147.304c-23.396,4.056 -25.325,-32.696 -25.325,-32.696c0,0 -28.689,8.359 -48.871,8.359" style="fill:#004423;stroke:#001f10;stroke-width:1.48px;"/><path d="M85.904,28.887c-26.364,0 -37.098,-4.353 -37.098,-4.353c0,0 -4.65,22.358 -26.711,25.573c0,96.406 63.809,110.058 63.809,110.058c0,0 63.809,-13.702 63.809,-110.058c-22.061,-3.215 -26.711,-25.573 -26.711,-25.573c0,0 -10.733,4.353 -37.098,4.353Z" style="fill:#006533;stroke:#003119;stroke-width:1.48px;"/><g><path d="M16.951,37.494c1.88,-0.891 4.304,0.198 5.392,2.473c1.088,2.275 0.395,4.798 -1.484,5.738c-1.88,0.89 -4.304,-0.198 -5.392,-2.473c-1.088,-2.276 -0.395,-4.848 1.484,-5.738Z" style="fill:#005329;stroke:#002f18;stroke-width:1.48px;"/><path d="M18.237,40.214c0.643,-0.296 1.435,0.05 1.781,0.792c0.346,0.742 0.148,1.583 -0.495,1.879c-0.643,0.297 -1.434,-0.049 -1.78,-0.791c-0.347,-0.742 -0.099,-1.583 0.494,-1.88Z" style="fill:#005329;stroke:#002f18;stroke-width:1.48px;"/><path d="M154.808,37.494c-1.88,-0.891 -4.304,0.198 -5.392,2.473c-1.088,2.275 -0.396,4.798 1.484,5.738c1.88,0.89 4.303,-0.198 5.392,-2.473c1.088,-2.276 0.395,-4.848 -1.484,-5.738Z" style="fill:#005329;stroke:#002f18;stroke-width:1.48px;"/><path d="M153.571,40.115c-0.643,-0.296 -1.484,0.05 -1.88,0.841c-0.395,0.792 -0.148,1.682 0.495,1.979c0.643,0.297 1.484,-0.05 1.88,-0.841c0.395,-0.742 0.148,-1.632 -0.495,-1.979Z" style="fill:#005329;stroke:#002f18;stroke-width:1.48px;"/><path d="M44.799,7.024c3.216,0 5.837,2.622 5.837,5.837c0,3.215 -2.621,5.836 -5.837,5.836c-3.215,0 -5.836,-2.621 -5.836,-5.836c0,-3.215 2.621,-5.837 5.836,-5.837Z" style="fill:#005329;stroke:#002f18;stroke-width:1.48px;"/><path d="M44.799,10.833c1.089,0 2.029,0.89 2.029,2.028c0,1.088 -0.891,2.028 -2.029,2.028c-1.088,0 -2.028,-0.891 -2.028,-2.028c0.05,-1.138 0.94,-2.028 2.028,-2.028Z" style="fill:#005329;stroke:#002f18;stroke-width:1.48px;"/><path d="M126.959,7.024c-3.215,0 -5.836,2.622 -5.836,5.837c0,3.215 2.621,5.836 5.836,5.836c3.216,0 5.837,-2.621 5.837,-5.836c0,-3.215 -2.621,-5.837 -5.837,-5.837Z" style="fill:#005329;stroke:#002f18;stroke-width:1.48px;"/><path d="M126.959,10.833c-1.088,0 -2.028,0.89 -2.028,2.028c0,1.088 0.891,2.028 2.028,2.028c1.089,0 2.028,-0.891 2.028,-2.028c-0.049,-1.138 -0.939,-2.028 -2.028,-2.028Z" style="fill:#005329;stroke:#002f18;stroke-width:1.48px;"/><path d="M85.904,12.91c-3.215,0 -5.837,2.622 -5.837,5.837c0,3.215 2.622,5.837 5.837,5.837c3.215,0 5.837,-2.622 5.837,-5.837c-0.05,-3.265 -2.671,-5.837 -5.837,-5.837Z" style="fill:#005329;stroke:#002f18;stroke-width:1.48px;"/><path d="M85.904,16.917c-0.989,0 -1.781,0.791 -1.781,1.78c0,0.99 0.792,1.781 1.781,1.781c0.989,0 1.781,-0.791 1.781,-1.781c0,-0.989 -0.792,-1.78 -1.781,-1.78Z" style="fill:#005329;stroke:#002f18;stroke-width:1.48px;"/><path d="M85.904,164.122c-3.215,0 -5.837,2.622 -5.837,5.837c0,3.215 2.622,5.837 5.837,5.837c3.215,0 5.837,-2.622 5.837,-5.837c-0.05,-3.215 -2.671,-5.837 -5.837,-5.837Z" style="fill:#005329;stroke:#002f18;stroke-width:1.48px;"/><path d="M85.904,167.782c-1.187,0 -2.127,0.94 -2.127,2.127c0,1.187 0.94,2.127 2.127,2.127c1.187,0 2.127,-0.94 2.127,-2.127c0,-1.137 -0.989,-2.127 -2.127,-2.127Z" style="fill:#005329;stroke:#002f18;stroke-width:1.48px;"/></g><g><g><clipPath id="_clip1"><path d="M85.904,28.887c-26.364,0 -37.098,-4.353 -37.098,-4.353c0,0 -4.65,22.358 -26.711,25.573c0,96.406 63.809,110.058 63.809,110.058c0,0 63.809,-13.702 63.809,-110.058c-22.061,-3.215 -26.711,-25.573 -26.711,-25.573c0,0 -10.733,4.353 -37.098,4.353Z"/></clipPath><g clip-path="url(#_clip1)"><g><path d="M0.925,19.439c-1.682,9.943 8.804,13.356 8.359,0.099" style="fill:none;stroke:#003318;stroke-width:1.48px;"/><path d="M9.482,19.439c-1.682,9.943 8.805,13.356 8.36,0.099" style="fill:none;stroke:#003318;stroke-width:1.48px;"/><path d="M18.089,19.439c-1.682,9.943 8.804,13.356 8.359,0.099" style="fill:none;stroke:#003318;stroke-width:1.48px;"/><path d="M26.646,19.439c-1.682,9.943 8.805,13.356 8.36,0.099" style="fill:none;stroke:#003318;stroke-width:1.48px;"/><path d="M35.203,19.439c-1.681,9.943 8.805,13.356 8.36,0.099" style="fill:none;stroke:#003318;stroke-width:1.48px;"/><path d="M43.81,19.439c-1.682,9.943 8.805,13.356 8.36,0.099" style="fill:none;stroke:#003318;stroke-width:1.48px;"/><path d="M52.367,19.439c-1.681,9.943 8.805,13.356 8.36,0.099" style="fill:none;stroke:#003318;stroke-width:1.48px;"/><path d="M60.974,19.439c-1.682,9.943 8.805,13.356 8.36,0.099" style="fill:none;stroke:#003318;stroke-width:1.48px;"/><path d="M69.532,19.439c-1.682,9.943 8.804,13.356 8.359,0.099" style="fill:none;stroke:#003318;stroke-width:1.48px;"/><path d="M78.138,19.439c-1.681,9.943 8.805,13.356 8.36,0.099" style="fill:none;stroke:#003318;stroke-width:1.48px;"/><path d="M0.925,37.049c-1.682,9.942 8.804,13.355 8.359,0.099" style="fill:none;stroke:#003318;stroke-width:1.48px;"/><path d="M9.482,37.049c-1.682,9.942 8.805,13.355 8.36,0.099" style="fill:none;stroke:#003318;stroke-width:1.48px;"/><path d="M18.089,37.049c-1.682,9.942 8.804,13.355 8.359,0.099" style="fill:none;stroke:#003318;stroke-width:1.48px;"/><path d="M26.646,37.049c-1.682,9.942 8.805,13.355 8.36,0.099" style="fill:none;stroke:#003318;stroke-width:1.48px;"/><path d="M35.203,37.049c-1.681,9.942 8.805,13.355 8.36,0.099" style="fill:none;stroke:#003318;stroke-width:1.48px;"/><path d="M43.81,37.049c-1.682,9.942 8.805,13.355 8.36,0.099" style="fill:none;stroke:#003318;stroke-width:1.48px;"/><path d="M52.367,37.049c-1.681,9.942 8.805,13.355 8.36,0.099" style="fill:none;stroke:#003318;stroke-width:1.48px;"/><path d="M60.974,37.049c-1.682,9.942 8.805,13.355 8.36,0.099" style="fill:none;stroke:#003318;stroke-width:1.48px;"/><path d="M69.532,37.049c-1.682,9.942 8.804,13.355 8.359,0.099" style="fill:none;stroke:#003318;stroke-width:1.48px;"/><path d="M78.138,37.049c-1.681,9.942 8.805,13.355 8.36,0.099" style="fill:none;stroke:#003318;stroke-width:1.48px;"/><path d="M0.925,54.608c-1.682,9.943 8.804,13.356 8.359,0.099" style="fill:none;stroke:#003318;stroke-width:1.48px;"/><path d="M9.482,54.608c-1.682,9.943 8.805,13.356 8.36,0.099" style="fill:none;stroke:#003318;stroke-width:1.48px;"/><path d="M18.089,54.608c-1.682,9.943 8.804,13.356 8.359,0.099" style="fill:none;stroke:#003318;stroke-width:1.48px;"/><path d="M26.646,54.608c-1.682,9.943 8.805,13.356 8.36,0.099" style="fill:none;stroke:#003318;stroke-width:1.48px;"/><path d="M35.203,54.608c-1.681,9.943 8.805,13.356 8.36,0.099" style="fill:none;stroke:#003318;stroke-width:1.48px;"/><path d="M43.81,54.608c-1.682,9.943 8.805,13.356 8.36,0.099" style="fill:none;stroke:#003318;stroke-width:1.48px;"/><path d="M52.367,54.608c-1.681,9.943 8.805,13.356 8.36,0.099" style="fill:none;stroke:#003318;stroke-width:1.48px;"/><path d="M60.974,54.608c-1.682,9.943 8.805,13.356 8.36,0.099" style="fill:none;stroke:#003318;stroke-width:1.48px;"/><path d="M69.532,54.608c-1.682,9.943 8.804,13.356 8.359,0.099" style="fill:none;stroke:#003318;stroke-width:1.48px;"/><path d="M78.138,54.608c-1.681,9.943 8.805,13.356 8.36,0.099" style="fill:none;stroke:#003318;stroke-width:1.48px;"/><path d="M0.925,72.218c-1.682,9.942 8.804,13.355 8.359,0.099" style="fill:none;stroke:#003318;stroke-width:1.48px;"/><path d="M9.482,72.218c-1.682,9.942 8.805,13.355 8.36,0.099" style="fill:none;stroke:#003318;stroke-width:1.48px;"/><path d="M18.089,72.218c-1.682,9.942 8.804,13.355 8.359,0.099" style="fill:none;stroke:#003318;stroke-width:1.48px;"/><path d="M26.646,72.218c-1.682,9.942 8.805,13.355 8.36,0.099" style="fill:none;stroke:#003318;stroke-width:1.48px;"/><path d="M35.203,72.218c-1.681,9.942 8.805,13.355 8.36,0.099" style="fill:none;stroke:#003318;stroke-width:1.48px;"/><path d="M43.81,72.218c-1.682,9.942 8.805,13.355 8.36,0.099" style="fill:none;stroke:#003318;stroke-width:1.48px;"/><path d="M52.367,72.218c-1.681,9.942 8.805,13.355 8.36,0.099" style="fill:none;stroke:#003318;stroke-width:1.48px;"/><path d="M60.974,72.218c-1.682,9.942 8.805,13.355 8.36,0.099" style="fill:none;stroke:#003318;stroke-width:1.48px;"/><path d="M69.532,72.218c-1.682,9.942 8.804,13.355 8.359,0.099" style="fill:none;stroke:#003318;stroke-width:1.48px;"/><path d="M78.138,72.218c-1.681,9.942 8.805,13.355 8.36,0.099" style="fill:none;stroke:#003318;stroke-width:1.48px;"/><path d="M0.925,89.827c-1.682,9.942 8.804,13.355 8.359,0.099" style="fill:none;stroke:#003318;stroke-width:1.48px;"/><path d="M9.482,89.827c-1.682,9.942 8.805,13.355 8.36,0.099" style="fill:none;stroke:#003318;stroke-width:1.48px;"/><path d="M18.089,89.827c-1.682,9.942 8.804,13.355 8.359,0.099" style="fill:none;stroke:#003318;stroke-width:1.48px;"/><path d="M26.646,89.827c-1.682,9.942 8.805,13.355 8.36,0.099" style="fill:none;stroke:#003318;stroke-width:1.48px;"/><path d="M35.203,89.827c-1.681,9.942 8.805,13.355 8.36,0.099" style="fill:none;stroke:#003318;stroke-width:1.48px;"/><path d="M43.81,89.827c-1.682,9.942 8.805,13.355 8.36,0.099" style="fill:none;stroke:#003318;stroke-width:1.48px;"/><path d="M52.367,89.827c-1.681,9.942 8.805,13.355 8.36,0.099" style="fill:none;stroke:#003318;stroke-width:1.48px;"/><path d="M60.974,89.827c-1.682,9.942 8.805,13.355 8.36,0.099" style="fill:none;stroke:#003318;stroke-width:1.48px;"/><path d="M69.532,89.827c-1.682,9.942 8.804,13.355 8.359,0.099" style="fill:none;stroke:#003318;stroke-width:1.48px;"/><path d="M78.138,89.827c-1.681,9.942 8.805,13.355 8.36,0.099" style="fill:none;stroke:#003318;stroke-width:1.48px;"/><path d="M0.925,107.387c-1.682,9.942 8.804,13.355 8.359,0.099" style="fill:none;stroke:#003318;stroke-width:1.48px;"/><path d="M9.482,107.387c-1.682,9.942 8.805,13.355 8.36,0.099" style="fill:none;stroke:#003318;stroke-width:1.48px;"/><path d="M18.089,107.387c-1.682,9.942 8.804,13.355 8.359,0.099" style="fill:none;stroke:#003318;stroke-width:1.48px;"/><path d="M26.646,107.387c-1.682,9.942 8.805,13.355 8.36,0.099" style="fill:none;stroke:#003318;stroke-width:1.48px;"/><path d="M35.203,107.387c-1.681,9.942 8.805,13.355 8.36,0.099" style="fill:none;stroke:#003318;stroke-width:1.48px;"/><path d="M43.81,107.387c-1.682,9.942 8.805,13.355 8.36,0.099" style="fill:none;stroke:#003318;stroke-width:1.48px;"/><path d="M52.367,107.387c-1.681,9.942 8.805,13.355 8.36,0.099" style="fill:none;stroke:#003318;stroke-width:1.48px;"/><path d="M60.974,107.387c-1.682,9.942 8.805,13.355 8.36,0.099" style="fill:none;stroke:#003318;stroke-width:1.48px;"/><path d="M69.532,107.387c-1.682,9.942 8.804,13.355 8.359,0.099" style="fill:none;stroke:#003318;stroke-width:1.48px;"/><path d="M78.138,107.387c-1.681,9.942 8.805,13.355 8.36,0.099" style="fill:none;stroke:#003318;stroke-width:1.48px;"/><path d="M0.925,124.996c-1.682,9.942 8.804,13.355 8.359,0.099" style="fill:none;stroke:#003318;stroke-width:1.48px;"/><path d="M9.482,124.996c-1.682,9.942 8.805,13.355 8.36,0.099" style="fill:none;stroke:#003318;stroke-width:1.48px;"/><path d="M18.089,124.996c-1.682,9.942 8.804,13.355 8.359,0.099" style="fill:none;stroke:#003318;stroke-width:1.48px;"/><path d="M26.646,124.996c-1.682,9.942 8.805,13.355 8.36,0.099" style="fill:none;stroke:#003318;stroke-width:1.48px;"/><path d="M35.203,124.996c-1.681,9.942 8.805,13.355 8.36,0.099" style="fill:none;stroke:#003318;stroke-width:1.48px;"/><path d="M43.81,124.996c-1.682,9.942 8.805,13.355 8.36,0.099" style="fill:none;stroke:#003318;stroke-width:1.48px;"/><path d="M52.367,124.996c-1.681,9.942 8.805,13.355 8.36,0.099" style="fill:none;stroke:#003318;stroke-width:1.48px;"/><path d="M60.974,124.996c-1.682,9.942 8.805,13.355 8.36,0.099" style="fill:none;stroke:#003318;stroke-width:1.48px;"/><path d="M69.532,124.996c-1.682,9.942 8.804,13.355 8.359,0.099" style="fill:none;stroke:#003318;stroke-width:1.48px;"/><path d="M78.138,124.996c-1.681,9.942 8.805,13.355 8.36,0.099" style="fill:none;stroke:#003318;stroke-width:1.48px;"/><path d="M0.925,142.556c-1.682,9.942 8.804,13.355 8.359,0.099" style="fill:none;stroke:#003318;stroke-width:1.48px;"/><path d="M9.482,142.556c-1.682,9.942 8.805,13.355 8.36,0.099" style="fill:none;stroke:#003318;stroke-width:1.48px;"/><path d="M18.089,142.556c-1.682,9.942 8.804,13.355 8.359,0.099" style="fill:none;stroke:#003318;stroke-width:1.48px;"/><path d="M26.646,142.556c-1.682,9.942 8.805,13.355 8.36,0.099" style="fill:none;stroke:#003318;stroke-width:1.48px;"/><path d="M35.203,142.556c-1.681,9.942 8.805,13.355 8.36,0.099" style="fill:none;stroke:#003318;stroke-width:1.48px;"/><path d="M43.81,142.556c-1.682,9.942 8.805,13.355 8.36,0.099" style="fill:none;stroke:#003318;stroke-width:1.48px;"/><path d="M52.367,142.556c-1.681,9.942 8.805,13.355 8.36,0.099" style="fill:none;stroke:#003318;stroke-width:1.48px;"/><path d="M60.974,142.556c-1.682,9.942 8.805,13.355 8.36,0.099" style="fill:none;stroke:#003318;stroke-width:1.48px;"/><path d="M69.532,142.556c-1.682,9.942 8.804,13.355 8.359,0.099" style="fill:none;stroke:#003318;stroke-width:1.48px;"/><path d="M78.138,142.556c-1.681,9.942 8.805,13.355 8.36,0.099" style="fill:none;stroke:#003318;stroke-width:1.48px;"/><path d="M5.08,28.244c-1.682,9.942 8.804,13.355 8.359,0.099" style="fill:none;stroke:#003318;stroke-width:1.48px;"/><path d="M13.687,28.244c-1.682,9.942 8.804,13.355 8.359,0.099" style="fill:none;stroke:#003318;stroke-width:1.48px;"/><path d="M22.244,28.244c-1.682,9.942 8.804,13.355 8.359,0.099" style="fill:none;stroke:#003318;stroke-width:1.48px;"/><path d="M30.851,28.244c-1.682,9.942 8.804,13.355 8.359,0.099" style="fill:none;stroke:#003318;stroke-width:1.48px;"/><path d="M39.408,28.244c-1.682,9.942 8.804,13.355 8.359,0.099" style="fill:none;stroke:#003318;stroke-width:1.48px;"/><path d="M47.965,28.244c-1.682,9.942 8.805,13.355 8.36,0.099" style="fill:none;stroke:#003318;stroke-width:1.48px;"/><path d="M56.572,28.244c-1.682,9.942 8.805,13.355 8.359,0.099" style="fill:none;stroke:#003318;stroke-width:1.48px;"/><path d="M65.129,28.244c-1.682,9.942 8.805,13.355 8.36,0.099" style="fill:none;stroke:#003318;stroke-width:1.48px;"/><path d="M73.736,28.244c-1.682,9.942 8.805,13.355 8.359,0.099" style="fill:none;stroke:#003318;stroke-width:1.48px;"/><path d="M82.293,28.244c-1.681,9.942 8.805,13.355 8.36,0.099" style="fill:none;stroke:#003318;stroke-width:1.48px;"/><path d="M5.08,45.804c-1.682,9.942 8.804,13.355 8.359,0.099" style="fill:none;stroke:#003318;stroke-width:1.48px;"/><path d="M13.687,45.804c-1.682,9.942 8.804,13.355 8.359,0.099" style="fill:none;stroke:#003318;stroke-width:1.48px;"/><path d="M22.244,45.804c-1.682,9.942 8.804,13.355 8.359,0.099" style="fill:none;stroke:#003318;stroke-width:1.48px;"/><path d="M30.851,45.804c-1.682,9.942 8.804,13.355 8.359,0.099" style="fill:none;stroke:#003318;stroke-width:1.48px;"/><path d="M39.408,45.804c-1.682,9.942 8.804,13.355 8.359,0.099" style="fill:none;stroke:#003318;stroke-width:1.48px;"/><path d="M47.965,45.804c-1.682,9.942 8.805,13.355 8.36,0.099" style="fill:none;stroke:#003318;stroke-width:1.48px;"/><path d="M56.572,45.804c-1.682,9.942 8.805,13.355 8.359,0.099" style="fill:none;stroke:#003318;stroke-width:1.48px;"/><path d="M65.129,45.804c-1.682,9.942 8.805,13.355 8.36,0.099" style="fill:none;stroke:#003318;stroke-width:1.48px;"/><path d="M73.736,45.804c-1.682,9.942 8.805,13.355 8.359,0.099" style="fill:none;stroke:#003318;stroke-width:1.48px;"/><path d="M82.293,45.804c-1.681,9.942 8.805,13.355 8.36,0.099" style="fill:none;stroke:#003318;stroke-width:1.48px;"/><path d="M5.08,63.413c-1.682,9.942 8.804,13.355 8.359,0.099" style="fill:none;stroke:#003318;stroke-width:1.48px;"/><path d="M13.687,63.413c-1.682,9.942 8.804,13.355 8.359,0.099" style="fill:none;stroke:#003318;stroke-width:1.48px;"/><path d="M22.244,63.413c-1.682,9.942 8.804,13.355 8.359,0.099" style="fill:none;stroke:#003318;stroke-width:1.48px;"/><path d="M30.851,63.413c-1.682,9.942 8.804,13.355 8.359,0.099" style="fill:none;stroke:#003318;stroke-width:1.48px;"/><path d="M39.408,63.413c-1.682,9.942 8.804,13.355 8.359,0.099" style="fill:none;stroke:#003318;stroke-width:1.48px;"/><path d="M47.965,63.413c-1.682,9.942 8.805,13.355 8.36,0.099" style="fill:none;stroke:#003318;stroke-width:1.48px;"/><path d="M56.572,63.413c-1.682,9.942 8.805,13.355 8.359,0.099" style="fill:none;stroke:#003318;stroke-width:1.48px;"/><path d="M65.129,63.413c-1.682,9.942 8.805,13.355 8.36,0.099" style="fill:none;stroke:#003318;stroke-width:1.48px;"/><path d="M73.736,63.413c-1.682,9.942 8.805,13.355 8.359,0.099" style="fill:none;stroke:#003318;stroke-width:1.48px;"/><path d="M82.293,63.413c-1.681,9.942 8.805,13.355 8.36,0.099" style="fill:none;stroke:#003318;stroke-width:1.48px;"/><path d="M5.08,81.022c-1.682,9.943 8.804,13.356 8.359,0.099" style="fill:none;stroke:#003318;stroke-width:1.48px;"/><path d="M13.687,81.022c-1.682,9.943 8.804,13.356 8.359,0.099" style="fill:none;stroke:#003318;stroke-width:1.48px;"/><path d="M22.244,81.022c-1.682,9.943 8.804,13.356 8.359,0.099" style="fill:none;stroke:#003318;stroke-width:1.48px;"/><path d="M30.851,81.022c-1.682,9.943 8.804,13.356 8.359,0.099" style="fill:none;stroke:#003318;stroke-width:1.48px;"/><path d="M39.408,81.022c-1.682,9.943 8.804,13.356 8.359,0.099" style="fill:none;stroke:#003318;stroke-width:1.48px;"/><path d="M47.965,81.022c-1.682,9.943 8.805,13.356 8.36,0.099" style="fill:none;stroke:#003318;stroke-width:1.48px;"/><path d="M56.572,81.022c-1.682,9.943 8.805,13.356 8.359,0.099" style="fill:none;stroke:#003318;stroke-width:1.48px;"/><path d="M65.129,81.022c-1.682,9.943 8.805,13.356 8.36,0.099" style="fill:none;stroke:#003318;stroke-width:1.48px;"/><path d="M73.736,81.022c-1.682,9.943 8.805,13.356 8.359,0.099" style="fill:none;stroke:#003318;stroke-width:1.48px;"/><path d="M82.293,81.022c-1.681,9.943 8.805,13.356 8.36,0.099" style="fill:none;stroke:#003318;stroke-width:1.48px;"/><path d="M5.08,98.582c-1.682,9.942 8.804,13.355 8.359,0.099" style="fill:none;stroke:#003318;stroke-width:1.48px;"/><path d="M13.687,98.582c-1.682,9.942 8.804,13.355 8.359,0.099" style="fill:none;stroke:#003318;stroke-width:1.48px;"/><path d="M22.244,98.582c-1.682,9.942 8.804,13.355 8.359,0.099" style="fill:none;stroke:#003318;stroke-width:1.48px;"/><path d="M30.851,98.582c-1.682,9.942 8.804,13.355 8.359,0.099" style="fill:none;stroke:#003318;stroke-width:1.48px;"/><path d="M39.408,98.582c-1.682,9.942 8.804,13.355 8.359,0.099" style="fill:none;stroke:#003318;stroke-width:1.48px;"/><path d="M47.965,98.582c-1.682,9.942 8.805,13.355 8.36,0.099" style="fill:none;stroke:#003318;stroke-width:1.48px;"/><path d="M56.572,98.582c-1.682,9.942 8.805,13.355 8.359,0.099" style="fill:none;stroke:#003318;stroke-width:1.48px;"/><path d="M65.129,98.582c-1.682,9.942 8.805,13.355 8.36,0.099" style="fill:none;stroke:#003318;stroke-width:1.48px;"/><path d="M73.736,98.582c-1.682,9.942 8.805,13.355 8.359,0.099" style="fill:none;stroke:#003318;stroke-width:1.48px;"/><path d="M82.293,98.582c-1.681,9.942 8.805,13.355 8.36,0.099" style="fill:none;stroke:#003318;stroke-width:1.48px;"/><path d="M5.08,116.191c-1.682,9.943 8.804,13.356 8.359,0.099" style="fill:none;stroke:#003318;stroke-width:1.48px;"/><path d="M13.687,116.191c-1.682,9.943 8.804,13.356 8.359,0.099" style="fill:none;stroke:#003318;stroke-width:1.48px;"/><path d="M22.244,116.191c-1.682,9.943 8.804,13.356 8.359,0.099" style="fill:none;stroke:#003318;stroke-width:1.48px;"/><path d="M30.851,116.191c-1.682,9.943 8.804,13.356 8.359,0.099" style="fill:none;stroke:#003318;stroke-width:1.48px;"/><path d="M39.408,116.191c-1.682,9.943 8.804,13.356 8.359,0.099" style="fill:none;stroke:#003318;stroke-width:1.48px;"/><path d="M47.965,116.191c-1.682,9.943 8.805,13.356 8.36,0.099" style="fill:none;stroke:#003318;stroke-width:1.48px;"/><path d="M56.572,116.191c-1.682,9.943 8.805,13.356 8.359,0.099" style="fill:none;stroke:#003318;stroke-width:1.48px;"/><path d="M65.129,116.191c-1.682,9.943 8.805,13.356 8.36,0.099" style="fill:none;stroke:#003318;stroke-width:1.48px;"/><path d="M73.736,116.191c-1.682,9.943 8.805,13.356 8.359,0.099" style="fill:none;stroke:#003318;stroke-width:1.48px;"/><path d="M82.293,116.191c-1.681,9.943 8.805,13.356 8.36,0.099" style="fill:none;stroke:#003318;stroke-width:1.48px;"/><path d="M5.08,133.8c-1.682,9.943 8.804,13.356 8.359,0.099" style="fill:none;stroke:#003318;stroke-width:1.48px;"/><path d="M13.687,133.8c-1.682,9.943 8.804,13.356 8.359,0.099" style="fill:none;stroke:#003318;stroke-width:1.48px;"/><path d="M22.244,133.8c-1.682,9.943 8.804,13.356 8.359,0.099" style="fill:none;stroke:#003318;stroke-width:1.48px;"/><path d="M30.851,133.8c-1.682,9.943 8.804,13.356 8.359,0.099" style="fill:none;stroke:#003318;stroke-width:1.48px;"/><path d="M39.408,133.8c-1.682,9.943 8.804,13.356 8.359,0.099" style="fill:none;stroke:#003318;stroke-width:1.48px;"/><path d="M47.965,133.8c-1.682,9.943 8.805,13.356 8.36,0.099" style="fill:none;stroke:#003318;stroke-width:1.48px;"/><path d="M56.572,133.8c-1.682,9.943 8.805,13.356 8.359,0.099" style="fill:none;stroke:#003318;stroke-width:1.48px;"/><path d="M65.129,133.8c-1.682,9.943 8.805,13.356 8.36,0.099" style="fill:none;stroke:#003318;stroke-width:1.48px;"/><path d="M73.736,133.8c-1.682,9.943 8.805,13.356 8.359,0.099" style="fill:none;stroke:#003318;stroke-width:1.48px;"/><path d="M82.293,133.8c-1.681,9.943 8.805,13.356 8.36,0.099" style="fill:none;stroke:#003318;stroke-width:1.48px;"/><path d="M5.08,151.36c-1.682,9.943 8.804,13.356 8.359,0.099" style="fill:none;stroke:#003318;stroke-width:1.48px;"/><path d="M13.687,151.36c-1.682,9.943 8.804,13.356 8.359,0.099" style="fill:none;stroke:#003318;stroke-width:1.48px;"/><path d="M22.244,151.36c-1.682,9.943 8.804,13.356 8.359,0.099" style="fill:none;stroke:#003318;stroke-width:1.48px;"/><path d="M30.851,151.36c-1.682,9.943 8.804,13.356 8.359,0.099" style="fill:none;stroke:#003318;stroke-width:1.48px;"/><path d="M39.408,151.36c-1.682,9.943 8.804,13.356 8.359,0.099" style="fill:none;stroke:#003318;stroke-width:1.48px;"/><path d="M47.965,151.36c-1.682,9.943 8.805,13.356 8.36,0.099" style="fill:none;stroke:#003318;stroke-width:1.48px;"/><path d="M56.572,151.36c-1.682,9.943 8.805,13.356 8.359,0.099" style="fill:none;stroke:#003318;stroke-width:1.48px;"/><path d="M65.129,151.36c-1.682,9.943 8.805,13.356 8.36,0.099" style="fill:none;stroke:#003318;stroke-width:1.48px;"/><path d="M73.736,151.36c-1.682,9.943 8.805,13.356 8.359,0.099" style="fill:none;stroke:#003318;stroke-width:1.48px;"/><path d="M82.293,151.36c-1.681,9.943 8.805,13.356 8.36,0.099" style="fill:none;stroke:#003318;stroke-width:1.48px;"/></g><g><path d="M86.696,19.439c-1.682,9.943 8.804,13.356 8.359,0.099" style="fill:none;stroke:#003318;stroke-width:1.48px;"/><path d="M95.302,19.439c-1.681,9.943 8.805,13.356 8.36,0.099" style="fill:none;stroke:#003318;stroke-width:1.48px;"/><path d="M103.86,19.439c-1.682,9.943 8.804,13.356 8.359,0.099" style="fill:none;stroke:#003318;stroke-width:1.48px;"/><path d="M112.417,19.439c-1.682,9.943 8.805,13.356 8.359,0.099" style="fill:none;stroke:#003318;stroke-width:1.48px;"/><path d="M121.024,19.439c-1.682,9.943 8.804,13.356 8.359,0.099" style="fill:none;stroke:#003318;stroke-width:1.48px;"/><path d="M129.581,19.439c-1.682,9.943 8.805,13.356 8.359,0.099" style="fill:none;stroke:#003318;stroke-width:1.48px;"/><path d="M138.188,19.439c-1.682,9.943 8.804,13.356 8.359,0.099" style="fill:none;stroke:#003318;stroke-width:1.48px;"/><path d="M146.745,19.439c-1.682,9.943 8.805,13.356 8.36,0.099" style="fill:none;stroke:#003318;stroke-width:1.48px;"/><path d="M155.352,19.439c-1.682,9.943 8.804,13.356 8.359,0.099" style="fill:none;stroke:#003318;stroke-width:1.48px;"/><path d="M163.909,19.439c-1.682,9.943 8.805,13.356 8.36,0.099" style="fill:none;stroke:#003318;stroke-width:1.48px;"/><path d="M86.696,37.049c-1.682,9.942 8.804,13.355 8.359,0.099" style="fill:none;stroke:#003318;stroke-width:1.48px;"/><path d="M95.302,37.049c-1.681,9.942 8.805,13.355 8.36,0.099" style="fill:none;stroke:#003318;stroke-width:1.48px;"/><path d="M103.86,37.049c-1.682,9.942 8.804,13.355 8.359,0.099" style="fill:none;stroke:#003318;stroke-width:1.48px;"/><path d="M112.417,37.049c-1.682,9.942 8.805,13.355 8.359,0.099" style="fill:none;stroke:#003318;stroke-width:1.48px;"/><path d="M121.024,37.049c-1.682,9.942 8.804,13.355 8.359,0.099" style="fill:none;stroke:#003318;stroke-width:1.48px;"/><path d="M129.581,37.049c-1.682,9.942 8.805,13.355 8.359,0.099" style="fill:none;stroke:#003318;stroke-width:1.48px;"/><path d="M138.188,37.049c-1.682,9.942 8.804,13.355 8.359,0.099" style="fill:none;stroke:#003318;stroke-width:1.48px;"/><path d="M146.745,37.049c-1.682,9.942 8.805,13.355 8.36,0.099" style="fill:none;stroke:#003318;stroke-width:1.48px;"/><path d="M155.352,37.049c-1.682,9.942 8.804,13.355 8.359,0.099" style="fill:none;stroke:#003318;stroke-width:1.48px;"/><path d="M163.909,37.049c-1.682,9.942 8.805,13.355 8.36,0.099" style="fill:none;stroke:#003318;stroke-width:1.48px;"/><path d="M86.696,54.608c-1.682,9.943 8.804,13.356 8.359,0.099" style="fill:none;stroke:#003318;stroke-width:1.48px;"/><path d="M95.302,54.608c-1.681,9.943 8.805,13.356 8.36,0.099" style="fill:none;stroke:#003318;stroke-width:1.48px;"/><path d="M103.86,54.608c-1.682,9.943 8.804,13.356 8.359,0.099" style="fill:none;stroke:#003318;stroke-width:1.48px;"/><path d="M112.417,54.608c-1.682,9.943 8.805,13.356 8.359,0.099" style="fill:none;stroke:#003318;stroke-width:1.48px;"/><path d="M121.024,54.608c-1.682,9.943 8.804,13.356 8.359,0.099" style="fill:none;stroke:#003318;stroke-width:1.48px;"/><path d="M129.581,54.608c-1.682,9.943 8.805,13.356 8.359,0.099" style="fill:none;stroke:#003318;stroke-width:1.48px;"/><path d="M138.188,54.608c-1.682,9.943 8.804,13.356 8.359,0.099" style="fill:none;stroke:#003318;stroke-width:1.48px;"/><path d="M146.745,54.608c-1.682,9.943 8.805,13.356 8.36,0.099" style="fill:none;stroke:#003318;stroke-width:1.48px;"/><path d="M155.352,54.608c-1.682,9.943 8.804,13.356 8.359,0.099" style="fill:none;stroke:#003318;stroke-width:1.48px;"/><path d="M163.909,54.608c-1.682,9.943 8.805,13.356 8.36,0.099" style="fill:none;stroke:#003318;stroke-width:1.48px;"/><path d="M86.696,72.218c-1.682,9.942 8.804,13.355 8.359,0.099" style="fill:none;stroke:#003318;stroke-width:1.48px;"/><path d="M95.302,72.218c-1.681,9.942 8.805,13.355 8.36,0.099" style="fill:none;stroke:#003318;stroke-width:1.48px;"/><path d="M103.86,72.218c-1.682,9.942 8.804,13.355 8.359,0.099" style="fill:none;stroke:#003318;stroke-width:1.48px;"/><path d="M112.417,72.218c-1.682,9.942 8.805,13.355 8.359,0.099" style="fill:none;stroke:#003318;stroke-width:1.48px;"/><path d="M121.024,72.218c-1.682,9.942 8.804,13.355 8.359,0.099" style="fill:none;stroke:#003318;stroke-width:1.48px;"/><path d="M129.581,72.218c-1.682,9.942 8.805,13.355 8.359,0.099" style="fill:none;stroke:#003318;stroke-width:1.48px;"/><path d="M138.188,72.218c-1.682,9.942 8.804,13.355 8.359,0.099" style="fill:none;stroke:#003318;stroke-width:1.48px;"/><path d="M146.745,72.218c-1.682,9.942 8.805,13.355 8.36,0.099" style="fill:none;stroke:#003318;stroke-width:1.48px;"/><path d="M155.352,72.218c-1.682,9.942 8.804,13.355 8.359,0.099" style="fill:none;stroke:#003318;stroke-width:1.48px;"/><path d="M163.909,72.218c-1.682,9.942 8.805,13.355 8.36,0.099" style="fill:none;stroke:#003318;stroke-width:1.48px;"/><path d="M86.696,89.827c-1.682,9.942 8.804,13.355 8.359,0.099" style="fill:none;stroke:#003318;stroke-width:1.48px;"/><path d="M95.302,89.827c-1.681,9.942 8.805,13.355 8.36,0.099" style="fill:none;stroke:#003318;stroke-width:1.48px;"/><path d="M103.86,89.827c-1.682,9.942 8.804,13.355 8.359,0.099" style="fill:none;stroke:#003318;stroke-width:1.48px;"/><path d="M112.417,89.827c-1.682,9.942 8.805,13.355 8.359,0.099" style="fill:none;stroke:#003318;stroke-width:1.48px;"/><path d="M121.024,89.827c-1.682,9.942 8.804,13.355 8.359,0.099" style="fill:none;stroke:#003318;stroke-width:1.48px;"/><path d="M129.581,89.827c-1.682,9.942 8.805,13.355 8.359,0.099" style="fill:none;stroke:#003318;stroke-width:1.48px;"/><path d="M138.188,89.827c-1.682,9.942 8.804,13.355 8.359,0.099" style="fill:none;stroke:#003318;stroke-width:1.48px;"/><path d="M146.745,89.827c-1.682,9.942 8.805,13.355 8.36,0.099" style="fill:none;stroke:#003318;stroke-width:1.48px;"/><path d="M155.352,89.827c-1.682,9.942 8.804,13.355 8.359,0.099" style="fill:none;stroke:#003318;stroke-width:1.48px;"/><path d="M163.909,89.827c-1.682,9.942 8.805,13.355 8.36,0.099" style="fill:none;stroke:#003318;stroke-width:1.48px;"/><path d="M86.696,107.387c-1.682,9.942 8.804,13.355 8.359,0.099" style="fill:none;stroke:#003318;stroke-width:1.48px;"/><path d="M95.302,107.387c-1.681,9.942 8.805,13.355 8.36,0.099" style="fill:none;stroke:#003318;stroke-width:1.48px;"/><path d="M103.86,107.387c-1.682,9.942 8.804,13.355 8.359,0.099" style="fill:none;stroke:#003318;stroke-width:1.48px;"/><path d="M112.417,107.387c-1.682,9.942 8.805,13.355 8.359,0.099" style="fill:none;stroke:#003318;stroke-width:1.48px;"/><path d="M121.024,107.387c-1.682,9.942 8.804,13.355 8.359,0.099" style="fill:none;stroke:#003318;stroke-width:1.48px;"/><path d="M129.581,107.387c-1.682,9.942 8.805,13.355 8.359,0.099" style="fill:none;stroke:#003318;stroke-width:1.48px;"/><path d="M138.188,107.387c-1.682,9.942 8.804,13.355 8.359,0.099" style="fill:none;stroke:#003318;stroke-width:1.48px;"/><path d="M146.745,107.387c-1.682,9.942 8.805,13.355 8.36,0.099" style="fill:none;stroke:#003318;stroke-width:1.48px;"/><path d="M155.352,107.387c-1.682,9.942 8.804,13.355 8.359,0.099" style="fill:none;stroke:#003318;stroke-width:1.48px;"/><path d="M163.909,107.387c-1.682,9.942 8.805,13.355 8.36,0.099" style="fill:none;stroke:#003318;stroke-width:1.48px;"/><path d="M86.696,124.996c-1.682,9.942 8.804,13.355 8.359,0.099" style="fill:none;stroke:#003318;stroke-width:1.48px;"/><path d="M95.302,124.996c-1.681,9.942 8.805,13.355 8.36,0.099" style="fill:none;stroke:#003318;stroke-width:1.48px;"/><path d="M103.86,124.996c-1.682,9.942 8.804,13.355 8.359,0.099" style="fill:none;stroke:#003318;stroke-width:1.48px;"/><path d="M112.417,124.996c-1.682,9.942 8.805,13.355 8.359,0.099" style="fill:none;stroke:#003318;stroke-width:1.48px;"/><path d="M121.024,124.996c-1.682,9.942 8.804,13.355 8.359,0.099" style="fill:none;stroke:#003318;stroke-width:1.48px;"/><path d="M129.581,124.996c-1.682,9.942 8.805,13.355 8.359,0.099" style="fill:none;stroke:#003318;stroke-width:1.48px;"/><path d="M138.188,124.996c-1.682,9.942 8.804,13.355 8.359,0.099" style="fill:none;stroke:#003318;stroke-width:1.48px;"/><path d="M146.745,124.996c-1.682,9.942 8.805,13.355 8.36,0.099" style="fill:none;stroke:#003318;stroke-width:1.48px;"/><path d="M155.352,124.996c-1.682,9.942 8.804,13.355 8.359,0.099" style="fill:none;stroke:#003318;stroke-width:1.48px;"/><path d="M163.909,124.996c-1.682,9.942 8.805,13.355 8.36,0.099" style="fill:none;stroke:#003318;stroke-width:1.48px;"/><path d="M86.696,142.556c-1.682,9.942 8.804,13.355 8.359,0.099" style="fill:none;stroke:#003318;stroke-width:1.48px;"/><path d="M95.302,142.556c-1.681,9.942 8.805,13.355 8.36,0.099" style="fill:none;stroke:#003318;stroke-width:1.48px;"/><path d="M103.86,142.556c-1.682,9.942 8.804,13.355 8.359,0.099" style="fill:none;stroke:#003318;stroke-width:1.48px;"/><path d="M112.417,142.556c-1.682,9.942 8.805,13.355 8.359,0.099" style="fill:none;stroke:#003318;stroke-width:1.48px;"/><path d="M121.024,142.556c-1.682,9.942 8.804,13.355 8.359,0.099" style="fill:none;stroke:#003318;stroke-width:1.48px;"/><path d="M129.581,142.556c-1.682,9.942 8.805,13.355 8.359,0.099" style="fill:none;stroke:#003318;stroke-width:1.48px;"/><path d="M138.188,142.556c-1.682,9.942 8.804,13.355 8.359,0.099" style="fill:none;stroke:#003318;stroke-width:1.48px;"/><path d="M146.745,142.556c-1.682,9.942 8.805,13.355 8.36,0.099" style="fill:none;stroke:#003318;stroke-width:1.48px;"/><path d="M155.352,142.556c-1.682,9.942 8.804,13.355 8.359,0.099" style="fill:none;stroke:#003318;stroke-width:1.48px;"/><path d="M163.909,142.556c-1.682,9.942 8.805,13.355 8.36,0.099" style="fill:none;stroke:#003318;stroke-width:1.48px;"/><path d="M90.9,28.244c-1.682,9.942 8.805,13.355 8.359,0.099" style="fill:none;stroke:#003318;stroke-width:1.48px;"/><path d="M99.457,28.244c-1.681,9.942 8.805,13.355 8.36,0.099" style="fill:none;stroke:#003318;stroke-width:1.48px;"/><path d="M108.064,28.244c-1.682,9.942 8.805,13.355 8.36,0.099" style="fill:none;stroke:#003318;stroke-width:1.48px;"/><path d="M116.621,28.244c-1.681,9.942 8.805,13.355 8.36,0.099" style="fill:none;stroke:#003318;stroke-width:1.48px;"/><path d="M125.179,28.244c-1.682,9.942 8.804,13.355 8.359,0.099" style="fill:none;stroke:#003318;stroke-width:1.48px;"/><path d="M133.785,28.244c-1.681,9.942 8.805,13.355 8.36,0.099" style="fill:none;stroke:#003318;stroke-width:1.48px;"/><path d="M142.343,28.244c-1.682,9.942 8.804,13.355 8.359,0.099" style="fill:none;stroke:#003318;stroke-width:1.48px;"/><path d="M150.95,28.244c-1.682,9.942 8.804,13.355 8.359,0.099" style="fill:none;stroke:#003318;stroke-width:1.48px;"/><path d="M159.507,28.244c-1.682,9.942 8.804,13.355 8.359,0.099" style="fill:none;stroke:#003318;stroke-width:1.48px;"/><path d="M168.114,28.244c-1.682,9.942 8.804,13.355 8.359,0.099" style="fill:none;stroke:#003318;stroke-width:1.48px;"/><path d="M90.9,45.804c-1.682,9.942 8.805,13.355 8.359,0.099" style="fill:none;stroke:#003318;stroke-width:1.48px;"/><path d="M99.457,45.804c-1.681,9.942 8.805,13.355 8.36,0.099" style="fill:none;stroke:#003318;stroke-width:1.48px;"/><path d="M108.064,45.804c-1.682,9.942 8.805,13.355 8.36,0.099" style="fill:none;stroke:#003318;stroke-width:1.48px;"/><path d="M116.621,45.804c-1.681,9.942 8.805,13.355 8.36,0.099" style="fill:none;stroke:#003318;stroke-width:1.48px;"/><path d="M125.179,45.804c-1.682,9.942 8.804,13.355 8.359,0.099" style="fill:none;stroke:#003318;stroke-width:1.48px;"/><path d="M133.785,45.804c-1.681,9.942 8.805,13.355 8.36,0.099" style="fill:none;stroke:#003318;stroke-width:1.48px;"/><path d="M142.343,45.804c-1.682,9.942 8.804,13.355 8.359,0.099" style="fill:none;stroke:#003318;stroke-width:1.48px;"/><path d="M150.95,45.804c-1.682,9.942 8.804,13.355 8.359,0.099" style="fill:none;stroke:#003318;stroke-width:1.48px;"/><path d="M159.507,45.804c-1.682,9.942 8.804,13.355 8.359,0.099" style="fill:none;stroke:#003318;stroke-width:1.48px;"/><path d="M168.114,45.804c-1.682,9.942 8.804,13.355 8.359,0.099" style="fill:none;stroke:#003318;stroke-width:1.48px;"/><path d="M90.9,63.413c-1.682,9.942 8.805,13.355 8.359,0.099" style="fill:none;stroke:#003318;stroke-width:1.48px;"/><path d="M99.457,63.413c-1.681,9.942 8.805,13.355 8.36,0.099" style="fill:none;stroke:#003318;stroke-width:1.48px;"/><path d="M108.064,63.413c-1.682,9.942 8.805,13.355 8.36,0.099" style="fill:none;stroke:#003318;stroke-width:1.48px;"/><path d="M116.621,63.413c-1.681,9.942 8.805,13.355 8.36,0.099" style="fill:none;stroke:#003318;stroke-width:1.48px;"/><path d="M125.179,63.413c-1.682,9.942 8.804,13.355 8.359,0.099" style="fill:none;stroke:#003318;stroke-width:1.48px;"/><path d="M133.785,63.413c-1.681,9.942 8.805,13.355 8.36,0.099" style="fill:none;stroke:#003318;stroke-width:1.48px;"/><path d="M142.343,63.413c-1.682,9.942 8.804,13.355 8.359,0.099" style="fill:none;stroke:#003318;stroke-width:1.48px;"/><path d="M150.95,63.413c-1.682,9.942 8.804,13.355 8.359,0.099" style="fill:none;stroke:#003318;stroke-width:1.48px;"/><path d="M159.507,63.413c-1.682,9.942 8.804,13.355 8.359,0.099" style="fill:none;stroke:#003318;stroke-width:1.48px;"/><path d="M168.114,63.413c-1.682,9.942 8.804,13.355 8.359,0.099" style="fill:none;stroke:#003318;stroke-width:1.48px;"/><path d="M90.9,81.022c-1.682,9.943 8.805,13.356 8.359,0.099" style="fill:none;stroke:#003318;stroke-width:1.48px;"/><path d="M99.457,81.022c-1.681,9.943 8.805,13.356 8.36,0.099" style="fill:none;stroke:#003318;stroke-width:1.48px;"/><path d="M108.064,81.022c-1.682,9.943 8.805,13.356 8.36,0.099" style="fill:none;stroke:#003318;stroke-width:1.48px;"/><path d="M116.621,81.022c-1.681,9.943 8.805,13.356 8.36,0.099" style="fill:none;stroke:#003318;stroke-width:1.48px;"/><path d="M125.179,81.022c-1.682,9.943 8.804,13.356 8.359,0.099" style="fill:none;stroke:#003318;stroke-width:1.48px;"/><path d="M133.785,81.022c-1.681,9.943 8.805,13.356 8.36,0.099" style="fill:none;stroke:#003318;stroke-width:1.48px;"/><path d="M142.343,81.022c-1.682,9.943 8.804,13.356 8.359,0.099" style="fill:none;stroke:#003318;stroke-width:1.48px;"/><path d="M150.95,81.022c-1.682,9.943 8.804,13.356 8.359,0.099" style="fill:none;stroke:#003318;stroke-width:1.48px;"/><path d="M159.507,81.022c-1.682,9.943 8.804,13.356 8.359,0.099" style="fill:none;stroke:#003318;stroke-width:1.48px;"/><path d="M168.114,81.022c-1.682,9.943 8.804,13.356 8.359,0.099" style="fill:none;stroke:#003318;stroke-width:1.48px;"/><path d="M90.9,98.582c-1.682,9.942 8.805,13.355 8.359,0.099" style="fill:none;stroke:#003318;stroke-width:1.48px;"/><path d="M99.457,98.582c-1.681,9.942 8.805,13.355 8.36,0.099" style="fill:none;stroke:#003318;stroke-width:1.48px;"/><path d="M108.064,98.582c-1.682,9.942 8.805,13.355 8.36,0.099" style="fill:none;stroke:#003318;stroke-width:1.48px;"/><path d="M116.621,98.582c-1.681,9.942 8.805,13.355 8.36,0.099" style="fill:none;stroke:#003318;stroke-width:1.48px;"/><path d="M125.179,98.582c-1.682,9.942 8.804,13.355 8.359,0.099" style="fill:none;stroke:#003318;stroke-width:1.48px;"/><path d="M133.785,98.582c-1.681,9.942 8.805,13.355 8.36,0.099" style="fill:none;stroke:#003318;stroke-width:1.48px;"/><path d="M142.343,98.582c-1.682,9.942 8.804,13.355 8.359,0.099" style="fill:none;stroke:#003318;stroke-width:1.48px;"/><path d="M150.95,98.582c-1.682,9.942 8.804,13.355 8.359,0.099" style="fill:none;stroke:#003318;stroke-width:1.48px;"/><path d="M159.507,98.582c-1.682,9.942 8.804,13.355 8.359,0.099" style="fill:none;stroke:#003318;stroke-width:1.48px;"/><path d="M168.114,98.582c-1.682,9.942 8.804,13.355 8.359,0.099" style="fill:none;stroke:#003318;stroke-width:1.48px;"/><path d="M90.9,116.191c-1.682,9.943 8.805,13.356 8.359,0.099" style="fill:none;stroke:#003318;stroke-width:1.48px;"/><path d="M99.457,116.191c-1.681,9.943 8.805,13.356 8.36,0.099" style="fill:none;stroke:#003318;stroke-width:1.48px;"/><path d="M108.064,116.191c-1.682,9.943 8.805,13.356 8.36,0.099" style="fill:none;stroke:#003318;stroke-width:1.48px;"/><path d="M116.621,116.191c-1.681,9.943 8.805,13.356 8.36,0.099" style="fill:none;stroke:#003318;stroke-width:1.48px;"/><path d="M125.179,116.191c-1.682,9.943 8.804,13.356 8.359,0.099" style="fill:none;stroke:#003318;stroke-width:1.48px;"/><path d="M133.785,116.191c-1.681,9.943 8.805,13.356 8.36,0.099" style="fill:none;stroke:#003318;stroke-width:1.48px;"/><path d="M142.343,116.191c-1.682,9.943 8.804,13.356 8.359,0.099" style="fill:none;stroke:#003318;stroke-width:1.48px;"/><path d="M150.95,116.191c-1.682,9.943 8.804,13.356 8.359,0.099" style="fill:none;stroke:#003318;stroke-width:1.48px;"/><path d="M159.507,116.191c-1.682,9.943 8.804,13.356 8.359,0.099" style="fill:none;stroke:#003318;stroke-width:1.48px;"/><path d="M168.114,116.191c-1.682,9.943 8.804,13.356 8.359,0.099" style="fill:none;stroke:#003318;stroke-width:1.48px;"/><path d="M90.9,133.8c-1.682,9.943 8.805,13.356 8.359,0.099" style="fill:none;stroke:#003318;stroke-width:1.48px;"/><path d="M99.457,133.8c-1.681,9.943 8.805,13.356 8.36,0.099" style="fill:none;stroke:#003318;stroke-width:1.48px;"/><path d="M108.064,133.8c-1.682,9.943 8.805,13.356 8.36,0.099" style="fill:none;stroke:#003318;stroke-width:1.48px;"/><path d="M116.621,133.8c-1.681,9.943 8.805,13.356 8.36,0.099" style="fill:none;stroke:#003318;stroke-width:1.48px;"/><path d="M125.179,133.8c-1.682,9.943 8.804,13.356 8.359,0.099" style="fill:none;stroke:#003318;stroke-width:1.48px;"/><path d="M133.785,133.8c-1.681,9.943 8.805,13.356 8.36,0.099" style="fill:none;stroke:#003318;stroke-width:1.48px;"/><path d="M142.343,133.8c-1.682,9.943 8.804,13.356 8.359,0.099" style="fill:none;stroke:#003318;stroke-width:1.48px;"/><path d="M150.95,133.8c-1.682,9.943 8.804,13.356 8.359,0.099" style="fill:none;stroke:#003318;stroke-width:1.48px;"/><path d="M159.507,133.8c-1.682,9.943 8.804,13.356 8.359,0.099" style="fill:none;stroke:#003318;stroke-width:1.48px;"/><path d="M168.114,133.8c-1.682,9.943 8.804,13.356 8.359,0.099" style="fill:none;stroke:#003318;stroke-width:1.48px;"/><path d="M90.9,151.36c-1.682,9.943 8.805,13.356 8.359,0.099" style="fill:none;stroke:#003318;stroke-width:1.48px;"/><path d="M99.457,151.36c-1.681,9.943 8.805,13.356 8.36,0.099" style="fill:none;stroke:#003318;stroke-width:1.48px;"/><path d="M108.064,151.36c-1.682,9.943 8.805,13.356 8.36,0.099" style="fill:none;stroke:#003318;stroke-width:1.48px;"/><path d="M116.621,151.36c-1.681,9.943 8.805,13.356 8.36,0.099" style="fill:none;stroke:#003318;stroke-width:1.48px;"/><path d="M125.179,151.36c-1.682,9.943 8.804,13.356 8.359,0.099" style="fill:none;stroke:#003318;stroke-width:1.48px;"/><path d="M133.785,151.36c-1.681,9.943 8.805,13.356 8.36,0.099" style="fill:none;stroke:#003318;stroke-width:1.48px;"/><path d="M142.343,151.36c-1.682,9.943 8.804,13.356 8.359,0.099" style="fill:none;stroke:#003318;stroke-width:1.48px;"/><path d="M150.95,151.36c-1.682,9.943 8.804,13.356 8.359,0.099" style="fill:none;stroke:#003318;stroke-width:1.48px;"/><path d="M159.507,151.36c-1.682,9.943 8.804,13.356 8.359,0.099" style="fill:none;stroke:#003318;stroke-width:1.48px;"/><path d="M168.114,151.36c-1.682,9.943 8.804,13.356 8.359,0.099" style="fill:none;stroke:#003318;stroke-width:1.48px;"/></g></g></g><path id="SVGID_1_" d="M85.904,28.887c-26.364,0 -37.098,-4.353 -37.098,-4.353c0,0 -4.65,22.358 -26.711,25.573c0,96.406 63.809,110.058 63.809,110.058c0,0 63.809,-13.702 63.809,-110.058c-22.061,-3.215 -26.711,-25.573 -26.711,-25.573c0,0 -10.733,4.353 -37.098,4.353Z" style="fill:none;stroke:#003318;stroke-width:1.48px;"/></g><path d="M85.904,28.887c-26.364,0 -37.098,-4.353 -37.098,-4.353c0,0 -4.65,22.358 -26.711,25.573c0,96.406 63.809,110.058 63.809,110.058c0,0 63.809,-13.702 63.809,-110.058c-22.061,-3.215 -26.711,-25.573 -26.711,-25.573c0,0 -10.733,4.353 -37.098,4.353" style="fill:none;stroke:#002f18;stroke-width:1.48px;"/><g><rect x="64.14" y="55.153" width="41.401" height="41.401" style="fill:#fff;"/><path d="M114.89,63.759c-0.742,-4.946 -2.226,-9.546 -4.946,-12.267c-2.869,-2.869 -7.816,-4.353 -13.009,-5.045c-4.007,-0.544 -8.162,-0.643 -11.723,-0.643l-0.149,0c-2.226,0 -6.875,0 -11.673,0.643c-6.134,0.89 -10.586,2.572 -13.059,5.095c-2.522,2.522 -4.204,6.925 -5.095,13.108c-0.643,4.798 -0.643,9.447 -0.643,11.673l0,0.099c0,2.226 0,6.876 0.643,11.674c0.891,6.133 2.573,10.585 5.046,13.058c2.522,2.523 6.875,4.205 13.058,5.046c4.798,0.643 9.448,0.643 11.674,0.643l0.198,0c3.561,0 7.766,-0.099 11.723,-0.643c5.144,-0.742 10.09,-2.177 12.959,-5.046c2.869,-2.869 4.353,-7.815 5.046,-13.009c0.544,-4.007 0.643,-8.161 0.643,-11.723l0,-0.247c0.099,-3.76 -0.05,-8.211 -0.693,-12.416m-26.216,23.347c3.314,0 7.074,-0.89 8.112,-1.137c0.149,-0.05 0.248,-0.05 0.396,-0.05c0.445,0 0.742,0.248 0.791,0.594l0.841,4.353c0,0.099 0.05,0.247 0.05,0.346c0,0.396 -0.198,0.742 -0.94,0.989c-1.533,0.445 -4.996,1.534 -11.179,1.534c-12.218,0 -16.966,-4.7 -16.966,-17.758c0,-13.059 4.699,-17.758 16.917,-17.758c6.133,0 9.695,1.187 11.228,1.633c0.742,0.247 0.94,0.593 0.94,0.989c0,0.099 -0.05,0.247 -0.05,0.346l-0.841,4.353c-0.049,0.396 -0.346,0.594 -0.791,0.594c-0.099,0 -0.247,-0.05 -0.396,-0.05c-1.038,-0.247 -4.798,-1.335 -8.112,-1.335c-7.518,0 -9.151,3.363 -9.151,11.178c0,7.865 1.633,11.179 9.151,11.179" style="fill:#004423;fill-rule:nonzero;"/></g></g></svg>