<?xml version="1.0" encoding="UTF-8" standalone="no"?><!DOCTYPE svg PUBLIC "-//W3C//DTD SVG 1.1//EN" "http://www.w3.org/Graphics/SVG/1.1/DTD/svg11.dtd"><svg width="100%" height="100%" viewBox="0 0 928 478" version="1.1" xmlns="http://www.w3.org/2000/svg" xmlns:xlink="http://www.w3.org/1999/xlink" xml:space="preserve" style="fill-rule:evenodd;clip-rule:evenodd;stroke-linecap:round;stroke-linejoin:round;stroke-miterlimit:1.5;"><g><g><g><path d="M25.651,327.28l7.109,-7.905l-0.626,-12.342l6.151,-8.758l-8.044,-23.144l0.75,-58.878l15.005,-22.959l-12.262,-16.463l67.711,-46.667l8.97,0l9.976,-8.078l1.321,-9.864l17.922,-0.942l1.981,17.703l36.666,1.006l24.731,-10.422l7.05,8.593l18.286,-5.933l5.833,4.884l3.375,-3.369l14.834,-1.504l2.417,-7.646l39.153,-10.634l19.263,2.081l-6.622,37.724l22.356,2.62l5.516,-17.636l28.206,-3.612l17.883,-16.866l11.684,29.331l13.17,-20.672l28.25,6.269l8.186,-11.097l28.133,0.06l7.356,-7.699l10.43,1.272l10.391,-14.395l9.583,2.067l25.695,-21.514l14.253,-4.092l5.58,6.268l7.673,-3.89l3.599,14.729l53.928,-4.145l19.934,-14.23l9.886,5.332l22.283,-35.078l55.89,11.835l16.154,-23.101l15.136,0l0,-12.094l14.401,5.352l10.067,-4.28l8.174,7.017l15.4,1.022l6.314,8.356l13.875,-4.365l26.701,30.64l16.733,71.439l32.713,61.849l-2.936,12.686l-6.903,19.126l-0.913,44.082l-8.587,4.642l-1.868,6.823l-7.176,-3.873l-12.763,5.445l0.985,9.656l-17.511,17.092l-52.81,10.463l-3.096,10.142l-10.883,5.317l-20.963,14.828l-20.331,1.327l-4.294,4.57l-6.554,-5.356l-6.632,0.194l-4.072,-5.61l-23.145,3.25l-21.786,-15.803l-34.345,2.688l-39.713,35.5l-8.506,0.609l-9.717,7.28l0,14.35l-14.217,23.759l-8.949,-2.172l-8.137,11.055l-0.339,8.519l-10.117,-4.35l-18.738,2.25l-5.23,4.684l-7.722,-7.894l-3.273,5.565l-8.667,-0.296l-23.744,23.278l-9.241,-1.642l-7.698,10.211l-35.445,-3.205l-9.053,4.208l-4.094,-7.378l-48.133,-0.666l-3.209,-22.179l9.481,-24.322l-10.577,-16.87l3.886,-6.694l18.432,3.908l2.523,-11.669l-4.719,-7.5l11.31,-13.795l-15.689,-8.38l-8.605,-11.744l-19.749,2.499l-15.118,-12.213l-15.485,9.774l-9.539,-4.433l-8.522,9.276l-0.386,10.53l-10.165,3.592l-0.172,12.81l-11.67,20.162l-21.772,-14.603l0.122,-13.777l-15.225,-6.381l-20.329,-6.392l-11.389,10.528l-44.312,-32.689l-17.216,1.862l-37.251,10.28l-7.51,9.303l-12.573,0.107l-3.92,-3.921l-11.469,-0.172l-15.267,10.536l-19.975,-6.236l-1.002,-8.559l4.322,-4.5l-6.428,-6.667Z" style="fill:#deb478;"/><path d="M11.219,330.199l7.344,-8.165l-0.648,-12.749l6.355,-9.046l-8.309,-23.906l0.775,-60.817l15.498,-23.715l-12.666,-17.005l69.941,-48.204l9.266,0l10.305,-8.344l1.363,-10.189l18.513,-0.973l2.046,18.286l37.873,1.039l25.546,-10.765l7.282,8.875l18.888,-6.128l6.025,5.045l3.486,-3.479l15.323,-1.555l2.497,-7.897l40.442,-10.984l19.897,2.15l-6.84,38.965l23.093,2.707l5.697,-18.217l29.135,-3.731l18.472,-17.421l12.069,30.297l13.604,-21.353l29.18,6.475l8.456,-11.462l29.059,0.061l7.598,-7.952l10.774,1.314l10.732,-14.869l9.899,2.135l26.541,-22.222l14.723,-4.227l5.763,6.475l7.926,-4.019l3.717,15.215l55.704,-4.282l20.591,-14.698l10.212,5.507l23.016,-36.234l57.731,12.226l16.685,-23.862l15.635,0l0,-12.492l14.876,5.527l10.398,-4.42l8.443,7.248l15.907,1.056l6.522,8.631l14.332,-4.509l27.581,31.649l17.284,73.792l33.789,63.885l-3.032,13.104l-7.131,19.756l-0.942,45.533l-8.871,4.795l-1.928,7.048l-7.413,-4.001l-13.183,5.625l1.017,9.974l-18.088,17.655l-54.548,10.807l-3.199,10.476l-11.241,5.493l-21.653,15.316l-21.001,1.37l-4.435,4.721l-6.77,-5.532l-6.85,0.2l-4.206,-5.794l-23.908,3.357l-22.503,-16.324l-35.476,2.776l-41.021,36.669l-8.786,0.63l-10.037,7.519l0,14.823l-14.685,24.541l-9.244,-2.243l-8.405,11.419l-0.35,8.799l-10.451,-4.493l-19.354,2.324l-5.402,4.838l-7.976,-8.153l-3.381,5.747l-8.953,-0.305l-24.526,24.045l-9.545,-1.697l-7.952,10.548l-36.612,-3.311l-9.351,4.347l-4.229,-7.621l-49.718,-0.688l-3.315,-22.91l9.794,-25.123l-10.925,-17.426l4.014,-6.914l19.038,4.037l2.606,-12.053l-4.874,-7.747l11.682,-14.25l-16.206,-8.656l-8.888,-12.13l-20.399,2.581l-15.616,-12.615l-15.994,10.095l-9.854,-4.579l-8.802,9.583l-0.399,10.876l-10.5,3.71l-0.178,13.232l-12.054,20.826l-22.489,-15.084l0.126,-14.23l-15.727,-6.592l-20.997,-6.602l-11.764,10.875l-45.772,-33.766l-17.783,1.924l-38.478,10.618l-7.757,9.61l-12.987,0.109l-4.05,-4.049l-11.846,-0.178l-15.77,10.883l-20.633,-6.441l-1.034,-8.841l4.464,-4.648l-6.64,-6.887Z" style="fill:none;stroke:#a14f00;stroke-width:1px;"/><path d="M0.5,332.367l7.517,-8.358l-0.662,-13.051l6.504,-9.26l-8.505,-24.472l0.793,-62.257l15.866,-24.278l-12.966,-17.407l71.597,-49.345l9.485,0l10.549,-8.542l1.396,-10.43l18.95,-0.996l2.095,18.719l38.77,1.064l26.151,-11.02l7.454,9.085l19.336,-6.273l6.167,5.164l3.569,-3.562l15.686,-1.591l2.556,-8.084l41.4,-11.244l20.368,2.2l-7.002,39.889l23.639,2.77l5.832,-18.648l29.825,-3.82l18.909,-17.833l12.355,31.014l13.927,-21.858l29.871,6.629l8.656,-11.734l29.747,0.063l7.778,-8.14l11.029,1.344l10.987,-15.221l10.132,2.186l27.17,-22.749l15.071,-4.327l5.9,6.628l8.114,-4.113l3.805,15.575l57.023,-4.384l21.079,-15.046l10.453,5.637l23.562,-37.091l59.098,12.515l17.08,-24.427l16.004,0l0,-12.788l15.229,5.659l10.644,-4.526l8.643,7.42l16.284,1.081l6.676,8.836l14.672,-4.617l28.234,32.4l17.693,75.539l34.59,65.397l-3.105,13.414l-7.299,20.225l-0.965,46.611l-9.08,4.908l-1.975,7.215l-7.588,-4.095l-13.495,5.758l1.041,10.21l-18.516,18.073l-55.84,11.063l-3.275,10.724l-11.507,5.623l-22.166,15.679l-21.498,1.402l-4.54,4.833l-6.931,-5.664l-7.012,0.205l-4.305,-5.931l-24.474,3.436l-23.036,-16.71l-36.317,2.842l-41.991,37.538l-8.995,0.644l-10.274,7.697l0,15.174l-15.034,25.123l-9.462,-2.297l-8.604,11.689l-0.359,9.008l-10.697,-4.6l-19.813,2.38l-5.53,4.953l-8.165,-8.347l-3.461,5.883l-9.165,-0.312l-25.106,24.614l-9.771,-1.736l-8.141,10.797l-37.479,-3.389l-9.573,4.449l-4.329,-7.801l-50.895,-0.704l-3.393,-23.453l10.025,-25.717l-11.184,-17.839l4.109,-7.078l19.489,4.132l2.669,-12.338l-4.99,-7.93l11.959,-14.588l-16.59,-8.86l-9.098,-12.418l-20.882,2.642l-15.987,-12.913l-16.373,10.334l-10.086,-4.687l-9.011,9.809l-0.408,11.134l-10.749,3.798l-0.182,13.545l-12.34,21.319l-23.021,-15.441l0.128,-14.567l-16.098,-6.748l-21.495,-6.759l-12.043,11.133l-46.855,-34.566l-18.204,1.97l-39.389,10.869l-7.941,9.838l-13.295,0.112l-4.145,-4.145l-12.127,-0.182l-16.143,11.14l-21.122,-6.593l-1.059,-9.051l4.57,-4.758l-6.797,-7.05Z" style="fill:none;stroke:#a14f00;stroke-width:1px;"/></g><g><clipPath id="_clip1"><path d="M25.651,327.28l7.109,-7.905l-0.626,-12.342l6.151,-8.758l-8.044,-23.144l0.75,-58.878l15.005,-22.959l-12.262,-16.463l67.711,-46.667l8.97,0l9.976,-8.078l1.321,-9.864l17.922,-0.942l1.981,17.703l36.666,1.006l24.731,-10.422l7.05,8.593l18.286,-5.933l5.833,4.884l3.375,-3.369l14.834,-1.504l2.417,-7.646l39.153,-10.634l19.263,2.081l-6.622,37.724l22.356,2.62l5.516,-17.636l28.206,-3.612l17.883,-16.866l11.684,29.331l13.17,-20.672l28.25,6.269l8.186,-11.097l28.133,0.06l7.356,-7.699l10.43,1.272l10.391,-14.395l9.583,2.067l25.695,-21.514l14.253,-4.092l5.58,6.268l7.673,-3.89l3.599,14.729l53.928,-4.145l19.934,-14.23l9.886,5.332l22.283,-35.078l55.89,11.835l16.154,-23.101l15.136,0l0,-12.094l14.401,5.352l10.067,-4.28l8.174,7.017l15.4,1.022l6.314,8.356l13.875,-4.365l26.701,30.64l16.733,71.439l32.713,61.849l-2.936,12.686l-6.903,19.126l-0.913,44.082l-8.587,4.642l-1.868,6.823l-7.176,-3.873l-12.763,5.445l0.985,9.656l-17.511,17.092l-52.81,10.463l-3.096,10.142l-10.883,5.317l-20.963,14.828l-20.331,1.327l-4.294,4.57l-6.554,-5.356l-6.632,0.194l-4.072,-5.61l-23.145,3.25l-21.786,-15.803l-34.345,2.688l-39.713,35.5l-8.506,0.609l-9.717,7.28l0,14.35l-14.217,23.759l-8.949,-2.172l-8.137,11.055l-0.339,8.519l-10.117,-4.35l-18.738,2.25l-5.23,4.684l-7.722,-7.894l-3.273,5.565l-8.667,-0.296l-23.744,23.278l-9.241,-1.642l-7.698,10.211l-35.445,-3.205l-9.053,4.208l-4.094,-7.378l-48.133,-0.666l-3.209,-22.179l9.481,-24.322l-10.577,-16.87l3.886,-6.694l18.432,3.908l2.523,-11.669l-4.719,-7.5l11.31,-13.795l-15.689,-8.38l-8.605,-11.744l-19.749,2.499l-15.118,-12.213l-15.485,9.774l-9.539,-4.433l-8.522,9.276l-0.386,10.53l-10.165,3.592l-0.172,12.81l-11.67,20.162l-21.772,-14.603l0.122,-13.777l-15.225,-6.381l-20.329,-6.392l-11.389,10.528l-44.312,-32.689l-17.216,1.862l-37.251,10.28l-7.51,9.303l-12.573,0.107l-3.92,-3.921l-11.469,-0.172l-15.267,10.536l-19.975,-6.236l-1.002,-8.559l4.322,-4.5l-6.428,-6.667Z"/></clipPath><g clip-path="url(#_clip1)"><path d="M422.991,471.714c0,-8.4 6.5,-16.4 20.6,-23c9.3,-4 13.1,-10.6 12.2,-20.4c-1,-10.3 -11.8,-10.1 -20.6,-14.6c-25.5,-12 -38,-21.4 -66.1,-24.3c-28.6,-2.9 -45.3,3.3 -71,-9.8c-14,-6.9 -22.5,-12.4 -29.4,-29.1c-8.4,-23 -14.2,-57.5 -28.5,-54.3c-3.9,0.7 -4.9,4.1 -8.6,4.2c-2.6,0.1 -4.5,0.9 -6.3,2.8c-2.6,2.4 -5.3,6.2 -8.7,4.2c-2,-1.2 -2.5,-3.2 -4.7,-3.2c-2.9,0.1 -4.4,1.8 -7.1,0.6c-0.9,-0.4 -0.8,-2.1 0.1,-2.6c2.8,-1.3 4.7,-2.9 7.5,-2.1c2.7,0.9 5.8,2.9 8.2,0.4c2.2,-3.3 3.5,-6.8 7.1,-6c1.8,0.3 2.9,-0.7 3.9,-1.8m-3.8,1.8c1.8,0.3 2.9,-0.7 3.9,-1.8c2.6,-3 4.2,-5 7.8,-5.1c1.3,-0.1 3,-0.7 2.6,-1.9c-0.6,-1.7 -1.6,-2.1 -2.5,-3.2c-0.5,-0.9 -0.4,-2.8 0.5,-2.5c2,0.9 2.8,1.9 5.3,2.7c1.3,0.2 1.4,-1.5 2.6,-1.7c7.1,-2.1 11.4,-1.8 17,-6.7c14.4,-13.2 15.9,-24.7 28.2,-39.8c9.2,-11.3 22.7,-15.2 39.6,-16.2c14.8,-1.1 30.1,-2 33,-16.6c2.3,-12 -12.1,-23.2 -5.7,-29.6c8.5,-8 15.7,-6.4 19.9,-17.7c4.4,-11.2 -1.6,-18.5 -5.4,-29.7m82.8,347c-5.9,-3.3 -3.5,-13.1 2.1,-16.9c8.7,-6.8 14.4,-10.1 19.5,-20c6.3,-12.2 24.5,-31.9 12.1,-37.4c-28.7,-12.5 -57,-2.4 -84.1,-13.9c-15.8,-6.8 -23.6,-9.5 -40.2,-14.4c-11.4,-3.9 -10.9,-15.7 -20.6,-22.9c-4.2,-3.2 -13.6,-7.9 -19.2,-2.4m19.1,2.3c-4.2,-3.2 -13.6,-7.9 -19.2,-2.4c-3.6,3.2 -6.5,4.2 -11.2,3.9c-1.8,-0.5 -2.9,-1.3 -4.7,-0.8c-1,0.3 -1.2,-1.3 -0.7,-2.3c1.3,-2.7 3.6,-3 6.2,-2.9c2,0 4,0.1 4.4,-1.7c0.7,-4.2 2.8,-6.6 6.6,-8.8c2.7,-2.3 4.4,-12.9 4,-22.1c-0.6,-7.6 -9,-14.4 -15.9,-10.7c-5.8,2.8 -8.7,5.5 -11.9,10.7c-0.7,1.1 -2.6,0.1 -3,-1.1c-0.9,-2 -2.7,-3 -5,-3c-2.3,0.2 -5.5,0.7 -5.3,-1.2c0.3,-3.2 3.5,-3.5 6.3,-4.3c2.3,-0.9 3.4,-3.3 2.8,-5.7c-0.3,-1.6 -2.1,-0.9 -3.5,-0.7c-8.2,1 -12.2,-1.9 -15.9,0.1c-3.1,1.8 -5.8,3.3 -8.4,1.6c-1.1,-0.8 0.1,-2.7 1.3,-2.7c1.6,-0.1 2.2,-1.5 3.2,-3.3c0.5,-1.5 0.8,-3.2 -0.9,-3.7m1,3.9c0.5,-1.5 0.8,-3.2 -0.9,-3.7c-2.3,-0.6 -7.7,0 -12.4,0.5c-5.6,0.8 -7.6,2.5 -12.7,1.7c-1.6,-0.3 -1.6,-3.6 0,-3.9c3.1,-0.8 4.9,-1.4 7.8,-1.2c3,0.1 4.7,-1.4 6.7,-3.2c2.3,-2.3 4.9,-0.9 8.2,-1.8c1.7,-0.5 1.5,-3.3 4.1,-3.5c6,-0.8 13.4,-4.1 14.1,-7.7c0.4,-2 4.1,-2.1 5.2,0.2c0.5,1.3 -0.8,3.3 1,4.1c1.8,1 2.6,2.6 4.9,3.5c2.9,1 5.4,1.3 7.6,-1c8.7,-9.7 11.4,-19.2 8,-31.3c-1.8,-3.3 -2.6,-5.3 -5.4,-6.7c-1.6,-0.7 -1.3,-3.6 0.3,-4.2c1.7,-0.6 2.6,-1.5 2.8,-3.4c0.1,-1.2 2.1,-1.4 3,-0.6c2.1,1.6 0.7,5.5 3.1,6.4c2.3,1.1 4,-0.1 6.7,-0.5c5.4,-1 8.7,-0.1 13.9,2.1m-13.8,-2.1c5.4,-1 8.7,-0.1 13.9,2.1c11.2,4.6 15.4,10.5 22,20.6c3.4,5.1 7,5.9 12,10c1.3,1 9.5,7.6 15.7,9.4c11.8,4.3 19.1,6.2 31.8,3.8c9.9,-2 31.5,-4.5 8.9,-52.8c-10.7,-19.7 -15.4,-31.9 -33.4,-44.7c-3.1,-2.2 -5.8,-0.5 -8.8,0.2c-4.2,0.6 -7.7,3 -11.2,-0.1c-2.2,-1.6 2.2,-3.1 4.6,-4c2.5,-1.4 3.7,-0.8 5.8,-2.4c1.3,-1.1 3.4,-2.3 2.4,-3.9c-0.9,-1 0.1,-2.3 1,-3.2c1.4,-2.1 4.3,0 5.5,-1.8c2,-4.4 2.1,-7.1 1.1,-11.7c-1.1,-4.2 -1.3,-6.7 -0.3,-11.3c1.9,-9.2 -0.3,-16 -6.9,-22.3m13.9,-1.6c2.1,1.7 4.2,2.7 6,5c2.9,3.7 4.2,6.9 4.8,11.7c1.3,7.2 5.9,9.4 8.5,10.3c2.5,0.8 6.5,1.2 13.6,-0.6c13.4,-3.5 16.2,-13.7 20.4,-16.8c5.7,-4.5 15,-7.9 11.2,-14.1" style="fill:none;stroke:#a14f00;stroke-width:1.39px;stroke-linecap:butt;stroke-miterlimit:10;"/><path d="M524.991,77.214c-2.4,3.9 -4,6 -5.5,10.4c-1.1,3.6 -2,5.6 -3,9.1c-1.3,3.2 -1.5,12.4 4.4,20.3c4.5,4.8 6.9,7.3 8.3,13.4c0.6,2.4 0.3,4.4 -0.8,6.1c-4,5.6 -16.3,2.2 -20.5,0.4c-10,-4.7 -12.2,-1.1 -12.2,-0.3c-0.1,2.8 -3.6,2.2 -3.2,5.4c0.6,3.6 -1.4,7.1 -1.8,10.6c-0.5,8.5 4.6,13.1 10.3,19.4c5.7,6.3 -2.5,32 15.8,32.7c19.7,0.7 17.5,-29 28,-50.6c5,-10.3 -8.7,-47.5 -0.3,-55.1c10.8,-9.9 23.3,-5.3 24.1,-19.9c0.9,-16.1 55.3,9.2 69,-6.9" style="fill:none;stroke:#bc6609;stroke-width:1.39px;stroke-linecap:butt;stroke-miterlimit:10;"/><path d="M592.291,365.514c-0.8,-0.8 -2.2,-2 -1.2,-3.6c0.5,-0.7 1.6,-0.3 2.5,0m-515.4,-138.5c-6.6,2.7 -21.4,5.8 -33.9,7.1m361.3,231.1c12.9,-11.1 20.2,-10 20.1,-28c-0.1,-5.1 -15.3,-17 -34.7,-18.4c-70.1,-5.3 -84.1,-2.7 -97.6,-2.7c-9.1,0 -13.3,0.7 -20.5,0.5c-10.1,-0.4 -15.2,3 -24,7.8c-5.6,3 -13.6,-2.5 -13.1,-8.7c0.9,-14.6 7.4,-30.6 0,-39.8c-3.5,-11.8 -17,-13 -18.8,-38c-0.7,-3.8 -3.7,-20 -10.3,-26.5c-1.9,-1.7 -4.4,1.2 -5.6,-0.4c-0.9,-1.4 -2.1,-2.3 -3.3,-1.7c-3,1.5 -5.4,3.5 -7.8,1.7c-2,-1.4 1.5,-4.1 3.5,-5.4c2.9,-1.7 4.2,-2.8 6.8,-0.9c1.7,1.1 2.9,-1.1 4.6,-2.4c17.7,-12.4 26,-19.9 37.7,-38.1c4.5,-6.6 23,-19.6 30.7,-24.8c18.7,-13 31.7,-15.3 47.2,-31.9c9.6,-10.4 2.5,-23.1 12.6,-33c14.3,-14.8 14.4,-22.9 7.7,-36.7c-5.6,-11.3 -25.5,-28.5 -42.9,-26.4c-27.4,2.5 -39.3,7.6 -64.8,-1.7c-22.7,-8 -37.1,-1.3 -56.6,13.3c-21.4,15.6 -38.7,25.3 -60.9,27.5c-19.5,1.4 -35.7,22.3 -27.2,41.3c2.9,5.8 5,8.8 6.8,15.3c2.7,9.8 -7.9,14.1 -17.1,19.7c-6.6,2.7 -21.4,5.8 -33.9,7.1" style="fill:none;stroke:#a14f00;stroke-width:1.39px;stroke-linecap:butt;stroke-miterlimit:10;"/><path d="M208.291,357.914c-6.7,-8.8 -7.3,-14.9 -11.6,-25c-2.6,-5.5 -7.9,-5.2 -13.6,-5.4c-8,-0.2 -16.2,-2.8 -17.2,-11.1c-1.6,-12.6 6.5,-19.3 17,-26.4c16.4,-11.3 29.1,-11.3 40.9,-26.1c11.9,-15.2 20.6,-20.4 35.7,-32.4c21.4,-17.3 37.5,-25.6 45.1,-52.1c4.7,-16.7 7.2,-36.1 -8.7,-42.4c-18.2,-7.6 -21.4,2.8 -35.7,4.5c-17.8,1.9 -28.4,-6.3 -46.1,1.7c-29.9,16.1 -47.5,18.5 -80.2,27.5c-12.7,3.4 -26.7,7.7 -25.2,20.8c1.1,9.9 9.5,16.1 4.4,24.7c-17.7,28.8 -42.2,33.6 -77.5,38.5" style="fill:none;stroke:#a14f00;stroke-width:2.48px;stroke-linecap:butt;stroke-miterlimit:10;"/><path d="M569.591,392.214c-8.3,-10.1 -10.9,-4.2 -15.9,-1.6c-6.5,3 -9.8,5.7 -13.1,11.7c-2,3.9 -2.9,6.2 -6.7,7.7c-2.2,1 -5.3,-2.1 -4,-4.3c2.9,-7.1 3.6,-11.1 6.1,-18.2c1.4,-3.5 2.7,-5.7 2.6,-9.4c-0.1,-6.3 2,-7.3 5.1,-10.7c2,-3.7 -1.3,-10.4 -4.7,-10.7c-2.1,-0.2 -3.3,0.9 -4.9,-0.1m4.8,0.2c-2.1,-0.2 -3.3,0.9 -4.9,-0.1c-1.7,-1.1 -1.4,-3.7 -3.1,-4.7c-1.1,-0.9 -4.1,0.6 -5.7,-1.2c-1.7,-1.2 -0.4,-4.2 -4.4,-4.8c-3.2,-0.6 -5.5,1.1 -6.1,-3.6c-0.1,-0.9 -0.7,-1.3 -2.3,-2.6c-2.5,-1.7 -7.8,-2 -11.6,-1.3c-6.3,1.8 -13,4.7 -14.9,3.4c-1.7,-1 -1.6,-2.2 -0.5,-3.9c1.2,-2.3 4,-4.6 8.3,-9.6c1.3,-1.3 2.5,-3.3 2.3,-5.1c-0.4,-2.2 -1.4,-3.8 -2.6,-5.5c-2.1,-2 -4.9,-1.5 -8.3,-2.2c-8.5,-1 -12.5,1.8 -20.8,4.9c-6.3,3.7 -11.2,2.2 -18.3,0c-3.2,0.6 -4.2,1.2 -6.5,2.8c-1.4,0.6 -3.8,0.4 -4.4,-1.3c-0.6,-2.1 2.3,-3.7 0.9,-5.5c-3,-3.9 -6.3,-3.6 -10.9,-3.6c-4,0 -5.6,1.8 -9.1,3.5c-1.1,0.3 -1.5,-1 -2,-1.9m2.3,2.1c-1.1,0.3 -1.5,-1 -2,-1.9c-2.1,-3.5 -4.3,-5.6 -8.1,-5.3c-8.1,-0.2 -12.6,-2.6 -19.9,-1c-2.4,0.4 -4.2,-0.8 -6.5,-1.3c-4.8,-0.9 -10.7,-2.8 -10.6,-5c-0.2,-2.5 2.5,-2.6 4.9,-2.5c4.1,0.2 15,1.7 19.1,1.6c1.6,-0.2 1.7,-2.5 3.2,-2.3c2,0.2 2.8,2.5 4.7,1.8c2.3,-0.9 3.7,-1.6 6,-0.6c2.6,1.7 3.9,2.3 6.9,3.5c2.9,0.7 4.1,2 7.3,1.9c6.2,-1 9.9,-1.2 15.6,1.4c4.6,2.1 10.6,-1.2 14.4,-3c4.8,-2.9 25.9,-12.4 30.7,-15.3c5.5,-3 -0.6,-9.3 0.2,-15.6c2.5,-7.7 3.3,-12.4 -0.7,-18.6c-2,-4 -1.2,-7.1 0,-11.3c0.8,-2.7 0.6,-4.7 -0.7,-6.8c-2.9,-4.6 -2.9,-7.5 -2.7,-12.5c-0.2,-3.5 -1.9,-4.9 -3.6,-7.5m3.3,7.7c-0.2,-3.5 -1.9,-4.9 -3.6,-7.5c-0.8,-1.5 0,-2.3 0.4,-4c0.4,-2.2 1.4,-3.5 0.7,-5.6c-0.7,-1.6 -2.4,-1.9 -2,-3.4c0.9,-2.7 0.9,-4.5 -0.7,-8.6c-2.1,-2.4 -3.2,-7.4 -5.4,-9.4c-1.6,-1.5 -2.7,-1.8 -4.6,-1.9c-5.9,0.1 -8.8,-0.5 -14.3,-2.9c-3.9,-1.9 -7.2,-1.4 -9.2,-5.3c-0.7,-1.3 1.8,-1.4 3.3,-1.3c5.6,0.2 8.5,2.5 14.1,1.3c3.5,-0.7 8.3,2.6 12,0.8c2.2,-0.9 3.4,-2 2.3,-4.9c0.6,-3.6 1,-6.1 2,-15.2c0.1,-2 3.9,-3.2 4.1,-1.2c0.4,7.8 1.9,10.7 0.9,18.6c-1,6.1 -3.1,8.5 0.7,16.7c0.7,2.7 1.7,3.9 2.8,6.1c0.8,2 1.1,2.9 2.8,5.8c1.3,2.1 1.6,3.8 2.3,6.7c1.2,3.8 2.8,5.8 4.4,9.5m-4.4,-9.6c1.2,3.8 2.8,5.8 4.4,9.5c3.9,7.4 4.6,11.8 9.5,19.2c2.5,3.4 0,6.2 0.4,10c0.3,6.9 6.9,11.9 6.4,15.3c0.3,6.4 6.4,8.1 7.9,12.7c3.9,7.3 0.6,12.8 3.8,20.9c2.4,6.7 5.8,9.6 11.6,16c0.9,0.6 1.2,0.9 2.2,2.2c1.4,2 -1.3,5.4 1,6c3.1,0.9 4.3,-2.7 7.6,-2.8c1.8,0.1 0.4,5.1 7.2,6.7c13.1,2.1 18.7,-3.2 31.9,-6.1c22.2,-5.5 35.4,3.6 58.8,10.8c33.8,12.3 60.4,-7.7 92.5,-29.6c24.6,-17.3 49,-37.3 84.2,-49.9c13.6,-4.4 28,-19.8 47.3,-33.4c22.3,-15.7 39.6,-18.7 53.6,-42.9c7.6,-13.1 1.2,-28.5 -11.4,-36.7c-12.5,-8.3 -32.1,-17.6 -36.5,-26.5c-6.7,-13.9 -14.2,-21 -28.7,-25.2c-6.2,-1.6 -7.3,-6.5 -12.4,-10m12.6,10.1c-6.2,-1.6 -7.3,-6.5 -12.4,-10c-2.3,-1.9 -4.7,-1.2 -6.8,0.2c-1.4,0.5 -0.5,2.6 -1.6,3.4c-2,1.3 -3.6,1.2 -5.4,2.7c-1.9,1.5 -4.3,0.4 -3.9,-1.5c0.1,-1.6 2.2,-2.2 2.9,-4.6c1.8,-6.3 1.8,-8.7 -1.6,-8.1c-6.6,1.1 -10.8,-0.2 -16.8,3.3c-2.2,0.9 0.2,3.7 -1.4,5.4c-1.3,0.9 -2.8,0.3 -4.3,-0.2c-2.5,-0.9 -4.9,-3.5 -2.8,-5c2.1,-2.1 3.5,-5.1 1.5,-7.5c-8.8,-5 -13.1,-6.8 -21.1,-10.7c-5.2,-2.1 -7.8,-2.9 -12,-5.9c-4.1,-3.1 -6.2,-5 -11.1,-6c-1.4,-0.5 -2.9,-3.3 -1.5,-3.1c6,0.8 9.1,0.8 14.2,3.5c11.4,6 18.7,4.8 31.1,8c5.5,0.9 8,3.5 13.5,3.3c9.6,-0.2 14.6,-0.7 23.9,-3.5c3.3,-1.1 1.9,-6.5 -1.2,-8.7m1.2,8.7c3.3,-1.1 1.9,-6.5 -1.2,-8.7c-7.2,-5.7 -12,-6.7 -18.1,-13.1c-1.9,-2.5 -3.1,-3.2 -5.8,-3.6c-1.2,-0.1 -0.7,-1.9 0.1,-2.6c1.2,-1 -1.2,-2.3 -1.7,-3.9c-0.4,-1.3 2.3,-0.3 3.5,0.6c3.9,2.3 5.9,3.1 9.6,5.2c5.3,3.8 8.7,4.8 15.2,6.5c2,0.4 4.3,1.6 5.7,-0.8c0.9,-1.7 4.7,0.9 4,2.8c-1.1,3.5 0,6 1.1,8.6c1.3,2.3 1.3,4.1 1.4,6.7c-0.1,1.2 1.2,1.6 2.3,1.4c2.8,-0.5 5.4,-0.6 6.8,2c1.7,3.1 5.5,3.2 8.9,2" style="fill:none;stroke:#a14f00;stroke-width:2.48px;stroke-linecap:butt;stroke-miterlimit:10;"/><path d="M588.191,395.114c-5.6,-8 -9.2,-10.6 -15.4,-17.9c-5.6,-5.2 -11.6,0.3 -17.9,4.5m18,-4.5c-5.6,-5.2 -11.6,0.3 -17.9,4.5c-3.2,2.2 -4.8,2.9 -8.3,3.3c-6.4,0.8 0.6,-11.3 4.1,-17.4c4.1,-7.1 -1.7,-13.7 -7.8,-18.9c-1.2,-1.4 -2.3,0 -3.9,0.4c-1,0.3 -2.4,-0.9 -2.3,-1.9c-0.2,-2.2 -1,-2.9 -2.7,-3.8c-1.2,-0.6 -2.9,0.2 -4.1,0.5c-2.2,0.2 -1.6,-0.4 -2.6,-2.3c-0.7,-1.5 -2.6,-1.3 -4,-1c-4.1,0.9 -2.5,-3.7 -7,-5.1c-2.5,-1 -6,-2.6 -8.4,-2.2c-1.7,0 -6.1,1.7 -7.6,0.9c-2.1,-0.5 -2.1,-1.2 -1.6,-2.8c0.4,-1.4 3.3,-3.6 4.7,-6.7c1,-2.7 -2.2,-4 -4,-5.8c-1.3,-1.6 -1.9,-3.1 -3.3,-5.1c0.1,-2.2 -2.1,-3.6 -4.7,-3.5c-9.6,-0.8 -14.6,-1.1 -24,2c-3.7,1.3 -5.9,1.8 -9.4,4.1c-3.2,2 -5.9,0.3 -9.3,-0.9m9.3,1.1c-3.2,2 -5.9,0.3 -9.3,-0.9c-2.9,-0.8 -6.6,1.3 -7.2,-0.3c-1.3,-2.3 1.4,-3.7 3.7,-4c4.3,-1.5 6.5,-0.7 10.6,-2.7c4.3,-2.4 11.4,-5.4 15.2,-8c4.2,-3.1 6.6,-4.4 11.8,-4.8c8.4,-1.5 8.6,-4.9 8.5,-9c-0.2,-2.3 -0.6,-5.2 -1.3,-8.8c-1.3,-3.6 -0.7,-9.5 0.1,-11.4c0.9,-2.6 0.8,-4.6 0,-6.9c-1.2,-2.8 -0.5,-4.7 -0.5,-7.7c-0.1,-4 -1.4,-5.9 -1.4,-9.3c-0.1,-2.4 -0.9,-4.9 1.4,-5.8c1.9,-1.1 2.8,2.3 3.7,4.5c1.4,4.7 -0.1,8.1 2.2,12.6c3.3,6.6 6.2,9.3 6.9,17c0.2,2.9 2,3.9 4.3,6.2c3.6,6.8 4.4,10.4 4.1,18.5c-0.5,5.7 4.8,6.9 7.2,10.3c3.1,5 3.7,8.1 9.6,12c0.9,1.5 0.9,3.2 0.9,4.8m-1,-5c0.9,1.5 0.9,3.2 0.9,4.8c0,1.3 1.1,2.5 2.3,2.7c3.8,0.6 3.9,-1.5 7.6,-0.6c2.3,0.5 2.2,4.1 4.1,5.2c1,0.6 1.9,0.4 3,0.1c2.4,-1.7 4.9,-0.4 6.5,1.9c1.3,1.7 4,1.8 5.7,0.6c2.7,-1.5 3.7,0.7 5.4,3.4c1.7,2.5 4.7,0.9 7.1,2.8c0.8,1 2.7,1.1 3.4,1.2c1.8,0.5 2.3,-1.4 2.9,-3c0.7,-2.9 3,-7.1 6.6,-5.1c3.1,2.2 3.8,-1 6.5,-2.5c1.9,-1.5 5.2,-1.5 6.8,0.6c0.8,1.7 0.1,3.3 1.6,4.8c3.6,3 6.1,3.3 10.6,4.6c12.1,2.4 17.1,5.1 29.2,8.3c18.4,5.7 30,-5.3 47.3,3.3c16.6,8 25.7,13.5 43.8,11.9c25.6,-2.1 39.8,-5.1 61.2,-19c29.2,-18.9 45.1,-46.3 68.4,-70.7m-68.3,70.6c29.2,-18.9 45.1,-46.3 68.4,-70.7c17,-18.6 27.9,-25.8 49.5,-38.4m-41.6,-167c-4,-0.3 -5.7,2.7 -7.6,5.8c-0.8,1.3 -2.3,1.8 -3.2,0.9c-2.2,-1.8 0.2,-5.5 -2.3,-6.5c-4.1,-2.2 -6.7,-4.1 -10.6,-2.3m10.7,2.1c-4.1,-2.2 -6.7,-4.1 -10.6,-2.3c-3.2,1.6 -2.3,5.4 -5.3,7.1c-1.6,0.6 -2.4,-1.6 -2.2,-3.3c-0.1,-3.7 2.4,-7.8 -3.2,-8.7c-2.9,-0.3 -5.1,-0.3 -7,1.9c-3.9,2.9 -2.6,6.5 -5.6,9.9c-0.9,0.6 -2.6,2.2 -2.8,0.8c0.2,-0.6 -0.5,-0.9 -0.1,-1.4c1.4,-4.3 0.3,-7.2 -2.9,-8.2c-2.6,-0.8 -4.2,0.5 -6.8,0.8c-4.8,0 -7.5,-1.2 -11.3,1.9c-0.8,0.4 -3,1.1 -3.1,0.1c-0.1,-3.2 0.2,-6.1 -2.6,-7.4c-4.7,-2.6 -6.6,-3.9 -10.7,-6.6c-1.3,-0.7 -1.3,-1.1 0.1,-1.4c3.1,-0.8 10.7,3.2 17.4,4.6c10.6,2 16.4,-0.7 27.3,-2.3c4,-0.4 8.4,-2.9 7.1,-6.5c-2.9,-7.4 -6.5,-10.5 -12.8,-15.7c-1.4,-1.4 1,-1.1 4.6,0.1c3.3,0.9 5.3,3.8 7.7,2.4m-7.7,-2.3c3.3,0.9 5.3,3.8 7.7,2.4c2,-1.6 1.7,1.8 2,3.9c1.1,4.1 2.8,5.8 2.9,9.9c0.1,2.6 1.9,4.7 4.5,4.7c2.4,-0.2 3.5,0.6 5.5,2.1c3.9,2.1 6.6,3 11.2,2.5c4.2,-0.3 6.7,0 10.6,-2.3m-280.6,322c-5.7,-6.4 -8.8,-11.8 -17.3,-11.2c-0.9,-0.3 -3.8,1.5 -5.2,3.5c-1.8,1.6 -3.3,2.6 -5.8,2.4c-3.2,-1.8 -1.8,-5.8 -0.9,-9.6c0.1,-3 -0.2,-7.4 -3.3,-7.9c-2.8,-0.7 -3.3,-2.5 -5.6,-4.2c-2.3,-2.5 -3.1,-4.2 -5.5,-5c-4.3,-1.4 -6.9,-2.8 -10.9,-3.8c-6.9,-3.7 -10.5,-6.1 -15.3,-9.1m15.6,9.1c-6.9,-3.7 -10.5,-6.1 -15.3,-9.1c-1.9,-1.3 -3.9,-3.5 -6.6,-2.6c-2,0.5 -4.7,0.3 -4.2,-1.4c0.8,-1.8 0.3,-0.2 2.2,-3.8c0.9,-1.7 -1.2,-4.1 -2.5,-5.1c-4.8,-2.4 -5.3,-4.3 -6.7,-9.5c-0.7,-1.7 -1.8,-3.3 -3.7,-3.1c-6.7,0.7 -10.5,0 -17,-1.5c-1.1,-0.5 -1.1,-2.5 -0.1,-2.9c2.8,-1.6 6.1,-2.2 9.4,-2.5c5.5,-0.5 8.3,-4.3 8,-7c-0.6,-5.4 -1.6,-8.3 -1.6,-13.4c-0.1,-2.3 1.2,-6 3.2,-4.8c2.9,1.2 4.7,9.6 6.9,16.2c1.1,3.5 -1.8,6.7 -0.9,10.5c1,3.8 3.7,4.5 5.9,7.6c3.4,4.7 4.5,8.1 8.7,12.8c3.8,3.9 5.3,6.5 10.2,9.1c6.7,3.7 10.7,5.4 16.9,4.7c5,-0.8 8,3.3 12.2,6c5.6,2.9 8.4,2.8 14.6,4.3m-14.4,-4.1c5.6,2.9 8.4,2.8 14.6,4.3c2.8,0.6 5.3,3.7 6.3,0.9c1.3,-4.5 1,-4.9 1.9,-8.1c0.6,-3.1 2.3,-0.9 4.1,0.4c1.4,0.8 1.3,1.2 2.8,0.2c2,-1 3.1,-0.7 2.9,0.1c-0.2,2.6 -2.9,4.7 -1.3,6.4c1.3,1.4 4.5,1.8 4.9,4c0.3,1.8 1.4,0.6 3.1,0.8c2,0.2 1.3,3.8 3,5.2c1.6,1.6 1.7,4.1 3.4,2.9c3.2,-2.9 6.7,-2.3 7,1.2c-0.1,1.5 1.3,3 2.9,3.5c6.8,1.9 9.4,6.5 16.7,7.3c3.6,0.8 5.8,1.2 10.5,0.8c32.7,3.7 215.8,-59.6 250.1,-92.1c8.6,-8.1 15.4,-10.9 25.4,-16.9m-45.9,-197.6c-1.5,-1.2 -2.7,-1.4 -4.8,-0.6c-1.9,0.7 -2.8,1.6 -4.6,1.2c-3.1,-0.8 -4.7,-1.7 -6.3,-2.7c-1.1,-0.7 -1.8,-1.9 -0.4,-2.3c0.6,-0.3 4,0.3 7.4,0.3c3.4,-0.1 4.3,-2 7.7,-1.6" style="fill:none;stroke:#a14f00;stroke-width:1.39px;stroke-linecap:butt;stroke-miterlimit:10;"/><path d="M14.391,307.114c2.2,-11.8 6.6,-19 16.9,-24.4c26.2,-15.7 43.8,-15.4 69.6,-31.6c15.8,-9.9 25,-15.4 33.6,-32.1c9.2,-20.3 23.1,-26.5 43.7,-32.9c31.5,-10.1 46.6,-17.1 78.6,-25.8c22.5,-6.1 28.3,4.9 26.3,19.2c-2.1,11.8 -40,39.5 -60.9,58.8c-8.6,7.8 -22.2,18.2 -31.1,25.3c-28.6,22.3 -66.2,52.3 -51.4,75.2m-34.6,-2.8c12.7,-28.1 31.7,-34.9 44,-63.2c4.9,-11.5 -3.3,-30.2 -25.3,-18.7c-19.7,12.7 -25.2,23.4 -45,34c-22.6,12.5 -40.1,7.1 -52.8,39.1" style="fill:none;stroke:#a14f00;stroke-width:1.39px;stroke-linecap:butt;stroke-miterlimit:10;"/><path d="M723.191,106.614c-28.4,1 -40.4,3.7 -62.1,22.4c-25.5,22 -49.5,13.4 -66.9,42.2c-2.1,3.5 -11.2,36.1 -7,52.6c15.5,61.3 97.2,-12.5 126.2,-18.5c35.9,-7.5 65.9,-20.6 75,-56c4.5,-17.4 -13.9,-24.2 -21.9,-29.9c-13.7,-9.6 -28.8,-13.3 -43.3,-12.8Z" style="fill:none;stroke:#a14f00;stroke-width:1.42px;stroke-linecap:butt;stroke-miterlimit:10;"/><path d="M642.291,173.314c-2,-11.7 24.1,-32.3 42.8,-35.7c18.6,-3.4 35.7,3.5 37.7,15.4c0.2,10.6 -16.5,17.9 -31.9,25.4c-22.2,10.8 -46.6,6.5 -48.6,-5.1Z" style="fill:none;stroke:#a14f00;stroke-width:1.39px;stroke-linecap:butt;stroke-miterlimit:10;"/></g></g></g><g><g><path d="M745.845,333.002l19.848,-7.861l-16.553,-7.835l-3.295,15.696Z" style="fill:#f2e1ca;"/><path d="M750.439,329.368l10.659,-4.221l-8.889,-4.208l-1.77,8.429Z" style="fill:none;stroke:#e0b87f;stroke-width:1px;stroke-linejoin:miter;"/></g><g><path d="M142.976,326.073l13.912,-8.767l11.766,11.525l8.804,4.916l15.298,5.782l8.531,4.267l14.73,-4.267l15.84,4.54l26.108,1.979l20.697,-1.031l8.355,-5.488l-1.008,13.523l-6.984,3.021l0,14.07l-9.42,12.573l-21.369,-12.573l-4.426,-12.193l-31.793,-11.338l-13.654,8.356l-20.905,-7.688l-13.339,-7.751l-10.26,-10.874l-10.883,-2.582Z" style="fill:#f2e1ca;"/><path d="M146.504,327.246l13.231,-8.338l11.189,10.961l8.373,4.675l14.548,5.499l8.113,4.057l14.009,-4.057l15.064,4.317l24.829,1.882l19.683,-0.981l7.946,-5.218l-0.958,12.86l-6.642,2.873l0,13.381l-8.959,11.957l-20.322,-11.957l-4.209,-11.596l-30.236,-10.782l-12.985,7.946l-19.881,-7.311l-12.686,-7.371l-9.757,-10.342l-10.35,-2.455Z" style="fill:none;stroke:#deb478;stroke-width:1px;stroke-linejoin:miter;"/><path d="M152.159,329.125l12.138,-7.649l10.266,10.055l7.681,4.29l13.347,5.045l7.444,3.722l12.852,-3.722l13.82,3.961l22.779,1.726l18.058,-0.9l7.291,-4.787l-0.88,11.798l-6.094,2.636l0,12.277l-8.218,10.969l-18.645,-10.969l-3.862,-10.639l-27.739,-9.892l-11.913,7.29l-18.24,-6.708l-11.638,-6.762l-8.952,-9.488l-9.495,-2.253Z" style="fill:none;stroke:#deb478;stroke-width:1px;stroke-linejoin:miter;"/></g><g><path d="M99.052,315.417l13.368,1.889l6.896,-8.391l-10.853,-4.111l-9.411,10.613Z" style="fill:#f2e1ca;"/><path d="M103.519,313.494l7.474,1.056l3.857,-4.692l-6.069,-2.299l-5.262,5.935Z" style="fill:none;stroke:#deb478;stroke-width:1px;stroke-linejoin:miter;"/></g><g><path d="M30.14,273.393l29.771,-0.502l19.5,5.186l16.872,1.824l13.264,-6.002l9.656,-3.736l11.581,0.764l28.803,-0.833l9.232,-4.784l3.793,-17.836l4.846,-20.36l-8.868,-13.798l-6.348,-16.453l-13.834,-12.144l-15.064,-7.967l-13.366,-14.206l-2.834,-22.098l-5.154,-4.349l-6.39,0.099l-0.108,6.031l-3.609,2.515l-4.538,-5.595l-4.436,-3.859l-59.409,39.117l11.717,18.384l-15.141,23.363l0.064,57.239Z" style="fill:#f2e1ca;"/><path d="M34.098,269.856l28.17,-0.475l18.452,4.907l15.965,1.726l12.551,-5.679l9.137,-3.535l10.959,0.723l27.255,-0.788l8.735,-4.528l3.589,-16.877l4.585,-19.265l-8.39,-13.056l-6.007,-15.569l-13.091,-11.491l-14.254,-7.539l-12.648,-13.442l-2.682,-20.911l-4.876,-4.114l-6.047,0.093l-0.102,5.707l-3.415,2.38l-4.294,-5.294l-4.197,-3.652l-56.216,37.014l11.087,17.396l-14.326,22.107l0.06,54.162Z" style="fill:none;stroke:#deb478;stroke-width:1px;"/><path d="M38.557,265.872l26.367,-0.445l17.271,4.593l14.943,1.615l11.748,-5.315l8.552,-3.309l10.258,0.677l25.511,-0.738l8.176,-4.237l3.36,-15.798l4.291,-18.032l-7.853,-12.221l-5.623,-14.572l-12.253,-10.756l-13.342,-7.056l-11.838,-12.583l-2.51,-19.572l-4.565,-3.851l-5.66,0.087l-0.095,5.342l-3.197,2.228l-4.019,-4.956l-3.929,-3.418l-52.618,34.646l10.378,16.282l-13.41,20.692l0.057,50.697Z" style="fill:none;stroke:#deb478;stroke-width:1px;"/></g><g><path d="M378.957,361.548l4.482,8.595l11.137,-2.992l7.623,-6.963l0.767,-8.646l4.34,-6.242l-3.949,-19.914l-9.808,-10.047l-9.727,-6.424l-4.299,5.572l2.561,6.033l-6.446,7.221l-14.695,0l-9.553,-1.961l-6.326,-6.058l-2.24,-9.36l-15.248,10.008l-15.576,0.795l-6.285,10.975l14.041,-4.834l15.933,4.277l4.147,5.771l15.511,-1.082l9.276,12.172l18.519,3.727l-4.185,9.377Z" style="fill:#f2e1ca;"/><path d="M377.386,360.007l4.169,7.995l10.358,-2.783l7.09,-6.476l0.713,-8.041l4.037,-5.806l-3.673,-18.521l-9.123,-9.344l-9.046,-5.974l-3.998,5.182l2.382,5.611l-5.995,6.716l-13.667,0l-8.884,-1.824l-5.884,-5.635l-2.084,-8.704l-14.181,9.307l-14.486,0.74l-5.846,10.207l13.059,-4.496l14.819,3.978l3.856,5.368l14.427,-1.007l8.626,11.321l17.224,3.465l-3.893,8.721Z" style="fill:none;stroke:#deb478;stroke-width:1px;"/><path d="M376.013,358.66l3.894,7.468l9.676,-2.6l6.623,-6.049l0.667,-7.513l3.771,-5.423l-3.431,-17.302l-8.522,-8.729l-8.451,-5.582l-3.735,4.842l2.225,5.242l-5.6,6.273l-12.768,0l-8.3,-1.704l-5.497,-5.263l-1.946,-8.132l-13.248,8.695l-13.533,0.691l-5.461,9.535l12.199,-4.2l13.844,3.716l3.603,5.015l13.477,-0.94l8.059,10.575l16.09,3.238l-3.636,8.147Z" style="fill:none;stroke:#deb478;stroke-width:1px;"/></g></g></g></svg>