<?xml version="1.0" encoding="UTF-8" standalone="no"?><!DOCTYPE svg PUBLIC "-//W3C//DTD SVG 1.1//EN" "http://www.w3.org/Graphics/SVG/1.1/DTD/svg11.dtd"><svg width="100%" height="100%" viewBox="0 0 191 195" version="1.1" xmlns="http://www.w3.org/2000/svg" xmlns:xlink="http://www.w3.org/1999/xlink" xml:space="preserve" style="fill-rule:evenodd;clip-rule:evenodd;stroke-miterlimit:10;"><g><path d="M92.644,15.771c-20.236,0 -48.933,-8.312 -48.933,-8.312c0,0 -1.93,36.712 -25.333,32.655c0,122.903 74.217,147.345 74.217,147.345c0,0 74.216,-24.442 74.216,-147.345c-23.353,4.057 -25.283,-32.655 -25.283,-32.655c0,0 -28.697,8.312 -48.884,8.312" style="fill:#60171b;stroke:#a22324;stroke-width:1.48px;"/><path d="M92.644,35.612c-26.371,0 -37.108,-4.355 -37.108,-4.355c0,0 -4.651,22.364 -26.718,25.58c0,96.433 63.826,110.088 63.826,110.088c0,0 63.827,-13.705 63.827,-110.088c-22.067,-3.216 -26.718,-25.58 -26.718,-25.58c0,0 -10.737,4.355 -37.109,4.355" style="fill:#771a1b;stroke:#a22324;stroke-width:1.48px;"/><g><g><clipPath id="_clip1"><path d="M92.644,35.661c-26.371,0 -37.108,-4.354 -37.108,-4.354c0,0 -4.651,22.364 -26.718,25.58c0,96.432 63.826,110.088 63.826,110.088c0,0 63.827,-13.705 63.827,-110.088c-22.067,-3.216 -26.718,-25.58 -26.718,-25.58c0,0 -10.737,4.354 -37.109,4.354Z"/></clipPath><g clip-path="url(#_clip1)"><g><path d="M7.642,26.161c-1.683,9.945 8.807,13.359 8.361,0.099" style="fill:none;stroke:#3c0d0d;stroke-width:1.48px;"/><path d="M16.201,26.161c-1.682,9.945 8.807,13.359 8.362,0.099" style="fill:none;stroke:#3c0d0d;stroke-width:1.48px;"/><path d="M24.81,26.161c-1.682,9.945 8.807,13.359 8.362,0.099" style="fill:none;stroke:#3c0d0d;stroke-width:1.48px;"/><path d="M33.37,26.161c-1.682,9.945 8.807,13.359 8.362,0.099" style="fill:none;stroke:#3c0d0d;stroke-width:1.48px;"/><path d="M41.93,26.161c-1.683,9.945 8.807,13.359 8.361,0.099" style="fill:none;stroke:#3c0d0d;stroke-width:1.48px;"/><path d="M50.539,26.161c-1.682,9.945 8.807,13.359 8.361,0.099" style="fill:none;stroke:#3c0d0d;stroke-width:1.48px;"/><path d="M59.098,26.161c-1.682,9.945 8.807,13.359 8.362,0.099" style="fill:none;stroke:#3c0d0d;stroke-width:1.48px;"/><path d="M67.708,26.161c-1.683,9.945 8.807,13.359 8.361,0.099" style="fill:none;stroke:#3c0d0d;stroke-width:1.48px;"/><path d="M76.267,26.161c-1.682,9.945 8.807,13.359 8.362,0.099" style="fill:none;stroke:#3c0d0d;stroke-width:1.48px;"/><path d="M84.876,26.161c-1.682,9.945 8.807,13.359 8.362,0.099" style="fill:none;stroke:#3c0d0d;stroke-width:1.48px;"/><path d="M7.642,43.775c-1.683,9.945 8.807,13.359 8.361,0.099" style="fill:none;stroke:#3c0d0d;stroke-width:1.48px;"/><path d="M16.201,43.775c-1.682,9.945 8.807,13.359 8.362,0.099" style="fill:none;stroke:#3c0d0d;stroke-width:1.48px;"/><path d="M24.81,43.775c-1.682,9.945 8.807,13.359 8.362,0.099" style="fill:none;stroke:#3c0d0d;stroke-width:1.48px;"/><path d="M33.37,43.775c-1.682,9.945 8.807,13.359 8.362,0.099" style="fill:none;stroke:#3c0d0d;stroke-width:1.48px;"/><path d="M41.93,43.775c-1.683,9.945 8.807,13.359 8.361,0.099" style="fill:none;stroke:#3c0d0d;stroke-width:1.48px;"/><path d="M50.539,43.775c-1.682,9.945 8.807,13.359 8.361,0.099" style="fill:none;stroke:#3c0d0d;stroke-width:1.48px;"/><path d="M59.098,43.775c-1.682,9.945 8.807,13.359 8.362,0.099" style="fill:none;stroke:#3c0d0d;stroke-width:1.48px;"/><path d="M67.708,43.775c-1.683,9.945 8.807,13.359 8.361,0.099" style="fill:none;stroke:#3c0d0d;stroke-width:1.48px;"/><path d="M76.267,43.775c-1.682,9.945 8.807,13.359 8.362,0.099" style="fill:none;stroke:#3c0d0d;stroke-width:1.48px;"/><path d="M84.876,43.775c-1.682,9.945 8.807,13.359 8.362,0.099" style="fill:none;stroke:#3c0d0d;stroke-width:1.48px;"/><path d="M7.642,61.389c-1.683,9.945 8.807,13.359 8.361,0.099" style="fill:none;stroke:#3c0d0d;stroke-width:1.48px;"/><path d="M16.201,61.389c-1.682,9.945 8.807,13.359 8.362,0.099" style="fill:none;stroke:#3c0d0d;stroke-width:1.48px;"/><path d="M24.81,61.389c-1.682,9.945 8.807,13.359 8.362,0.099" style="fill:none;stroke:#3c0d0d;stroke-width:1.48px;"/><path d="M33.37,61.389c-1.682,9.945 8.807,13.359 8.362,0.099" style="fill:none;stroke:#3c0d0d;stroke-width:1.48px;"/><path d="M41.93,61.389c-1.683,9.945 8.807,13.359 8.361,0.099" style="fill:none;stroke:#3c0d0d;stroke-width:1.48px;"/><path d="M50.539,61.389c-1.682,9.945 8.807,13.359 8.361,0.099" style="fill:none;stroke:#3c0d0d;stroke-width:1.48px;"/><path d="M59.098,61.389c-1.682,9.945 8.807,13.359 8.362,0.099" style="fill:none;stroke:#3c0d0d;stroke-width:1.48px;"/><path d="M67.708,61.389c-1.683,9.945 8.807,13.359 8.361,0.099" style="fill:none;stroke:#3c0d0d;stroke-width:1.48px;"/><path d="M76.267,61.389c-1.682,9.945 8.807,13.359 8.362,0.099" style="fill:none;stroke:#3c0d0d;stroke-width:1.48px;"/><path d="M84.876,61.389c-1.682,9.945 8.807,13.359 8.362,0.099" style="fill:none;stroke:#3c0d0d;stroke-width:1.48px;"/><path d="M7.642,78.954c-1.683,9.945 8.807,13.359 8.361,0.099" style="fill:none;stroke:#3c0d0d;stroke-width:1.48px;"/><path d="M16.201,78.954c-1.682,9.945 8.807,13.359 8.362,0.099" style="fill:none;stroke:#3c0d0d;stroke-width:1.48px;"/><path d="M24.81,78.954c-1.682,9.945 8.807,13.359 8.362,0.099" style="fill:none;stroke:#3c0d0d;stroke-width:1.48px;"/><path d="M33.37,78.954c-1.682,9.945 8.807,13.359 8.362,0.099" style="fill:none;stroke:#3c0d0d;stroke-width:1.48px;"/><path d="M41.93,78.954c-1.683,9.945 8.807,13.359 8.361,0.099" style="fill:none;stroke:#3c0d0d;stroke-width:1.48px;"/><path d="M50.539,78.954c-1.682,9.945 8.807,13.359 8.361,0.099" style="fill:none;stroke:#3c0d0d;stroke-width:1.48px;"/><path d="M59.098,78.954c-1.682,9.945 8.807,13.359 8.362,0.099" style="fill:none;stroke:#3c0d0d;stroke-width:1.48px;"/><path d="M67.708,78.954c-1.683,9.945 8.807,13.359 8.361,0.099" style="fill:none;stroke:#3c0d0d;stroke-width:1.48px;"/><path d="M76.267,78.954c-1.682,9.945 8.807,13.359 8.362,0.099" style="fill:none;stroke:#3c0d0d;stroke-width:1.48px;"/><path d="M84.876,78.954c-1.682,9.945 8.807,13.359 8.362,0.099" style="fill:none;stroke:#3c0d0d;stroke-width:1.48px;"/><path d="M7.642,96.568c-1.683,9.945 8.807,13.359 8.361,0.099" style="fill:none;stroke:#3c0d0d;stroke-width:1.48px;"/><path d="M16.201,96.568c-1.682,9.945 8.807,13.359 8.362,0.099" style="fill:none;stroke:#3c0d0d;stroke-width:1.48px;"/><path d="M24.81,96.568c-1.682,9.945 8.807,13.359 8.362,0.099" style="fill:none;stroke:#3c0d0d;stroke-width:1.48px;"/><path d="M33.37,96.568c-1.682,9.945 8.807,13.359 8.362,0.099" style="fill:none;stroke:#3c0d0d;stroke-width:1.48px;"/><path d="M41.93,96.568c-1.683,9.945 8.807,13.359 8.361,0.099" style="fill:none;stroke:#3c0d0d;stroke-width:1.48px;"/><path d="M50.539,96.568c-1.682,9.945 8.807,13.359 8.361,0.099" style="fill:none;stroke:#3c0d0d;stroke-width:1.48px;"/><path d="M59.098,96.568c-1.682,9.945 8.807,13.359 8.362,0.099" style="fill:none;stroke:#3c0d0d;stroke-width:1.48px;"/><path d="M67.708,96.568c-1.683,9.945 8.807,13.359 8.361,0.099" style="fill:none;stroke:#3c0d0d;stroke-width:1.48px;"/><path d="M76.267,96.568c-1.682,9.945 8.807,13.359 8.362,0.099" style="fill:none;stroke:#3c0d0d;stroke-width:1.48px;"/><path d="M84.876,96.568c-1.682,9.945 8.807,13.359 8.362,0.099" style="fill:none;stroke:#3c0d0d;stroke-width:1.48px;"/><path d="M7.642,114.182c-1.683,9.945 8.807,13.359 8.361,0.099" style="fill:none;stroke:#3c0d0d;stroke-width:1.48px;"/><path d="M16.201,114.182c-1.682,9.945 8.807,13.359 8.362,0.099" style="fill:none;stroke:#3c0d0d;stroke-width:1.48px;"/><path d="M24.81,114.182c-1.682,9.945 8.807,13.359 8.362,0.099" style="fill:none;stroke:#3c0d0d;stroke-width:1.48px;"/><path d="M33.37,114.182c-1.682,9.945 8.807,13.359 8.362,0.099" style="fill:none;stroke:#3c0d0d;stroke-width:1.48px;"/><path d="M41.93,114.182c-1.683,9.945 8.807,13.359 8.361,0.099" style="fill:none;stroke:#3c0d0d;stroke-width:1.48px;"/><path d="M50.539,114.182c-1.682,9.945 8.807,13.359 8.361,0.099" style="fill:none;stroke:#3c0d0d;stroke-width:1.48px;"/><path d="M59.098,114.182c-1.682,9.945 8.807,13.359 8.362,0.099" style="fill:none;stroke:#3c0d0d;stroke-width:1.48px;"/><path d="M67.708,114.182c-1.683,9.945 8.807,13.359 8.361,0.099" style="fill:none;stroke:#3c0d0d;stroke-width:1.48px;"/><path d="M76.267,114.182c-1.682,9.945 8.807,13.359 8.362,0.099" style="fill:none;stroke:#3c0d0d;stroke-width:1.48px;"/><path d="M84.876,114.182c-1.682,9.945 8.807,13.359 8.362,0.099" style="fill:none;stroke:#3c0d0d;stroke-width:1.48px;"/><path d="M7.642,131.747c-1.683,9.945 8.807,13.359 8.361,0.099" style="fill:none;stroke:#3c0d0d;stroke-width:1.48px;"/><path d="M16.201,131.747c-1.682,9.945 8.807,13.359 8.362,0.099" style="fill:none;stroke:#3c0d0d;stroke-width:1.48px;"/><path d="M24.81,131.747c-1.682,9.945 8.807,13.359 8.362,0.099" style="fill:none;stroke:#3c0d0d;stroke-width:1.48px;"/><path d="M33.37,131.747c-1.682,9.945 8.807,13.359 8.362,0.099" style="fill:none;stroke:#3c0d0d;stroke-width:1.48px;"/><path d="M41.93,131.747c-1.683,9.945 8.807,13.359 8.361,0.099" style="fill:none;stroke:#3c0d0d;stroke-width:1.48px;"/><path d="M50.539,131.747c-1.682,9.945 8.807,13.359 8.361,0.099" style="fill:none;stroke:#3c0d0d;stroke-width:1.48px;"/><path d="M59.098,131.747c-1.682,9.945 8.807,13.359 8.362,0.099" style="fill:none;stroke:#3c0d0d;stroke-width:1.48px;"/><path d="M67.708,131.747c-1.683,9.945 8.807,13.359 8.361,0.099" style="fill:none;stroke:#3c0d0d;stroke-width:1.48px;"/><path d="M76.267,131.747c-1.682,9.945 8.807,13.359 8.362,0.099" style="fill:none;stroke:#3c0d0d;stroke-width:1.48px;"/><path d="M84.876,131.747c-1.682,9.945 8.807,13.359 8.362,0.099" style="fill:none;stroke:#3c0d0d;stroke-width:1.48px;"/><path d="M7.642,149.361c-1.683,9.945 8.807,13.359 8.361,0.099" style="fill:none;stroke:#3c0d0d;stroke-width:1.48px;"/><path d="M16.201,149.361c-1.682,9.945 8.807,13.359 8.362,0.099" style="fill:none;stroke:#3c0d0d;stroke-width:1.48px;"/><path d="M24.81,149.361c-1.682,9.945 8.807,13.359 8.362,0.099" style="fill:none;stroke:#3c0d0d;stroke-width:1.48px;"/><path d="M33.37,149.361c-1.682,9.945 8.807,13.359 8.362,0.099" style="fill:none;stroke:#3c0d0d;stroke-width:1.48px;"/><path d="M41.93,149.361c-1.683,9.945 8.807,13.359 8.361,0.099" style="fill:none;stroke:#3c0d0d;stroke-width:1.48px;"/><path d="M50.539,149.361c-1.682,9.945 8.807,13.359 8.361,0.099" style="fill:none;stroke:#3c0d0d;stroke-width:1.48px;"/><path d="M59.098,149.361c-1.682,9.945 8.807,13.359 8.362,0.099" style="fill:none;stroke:#3c0d0d;stroke-width:1.48px;"/><path d="M67.708,149.361c-1.683,9.945 8.807,13.359 8.361,0.099" style="fill:none;stroke:#3c0d0d;stroke-width:1.48px;"/><path d="M76.267,149.361c-1.682,9.945 8.807,13.359 8.362,0.099" style="fill:none;stroke:#3c0d0d;stroke-width:1.48px;"/><path d="M84.876,149.361c-1.682,9.945 8.807,13.359 8.362,0.099" style="fill:none;stroke:#3c0d0d;stroke-width:1.48px;"/><path d="M11.798,34.968c-1.683,9.945 8.807,13.359 8.361,0.099" style="fill:none;stroke:#3c0d0d;stroke-width:1.48px;"/><path d="M20.407,34.968c-1.682,9.945 8.807,13.359 8.362,0.099" style="fill:none;stroke:#3c0d0d;stroke-width:1.48px;"/><path d="M28.966,34.968c-1.682,9.945 8.807,13.359 8.362,0.099" style="fill:none;stroke:#3c0d0d;stroke-width:1.48px;"/><path d="M37.576,34.968c-1.683,9.945 8.807,13.359 8.361,0.099" style="fill:none;stroke:#3c0d0d;stroke-width:1.48px;"/><path d="M46.135,34.968c-1.682,9.945 8.807,13.359 8.362,0.099" style="fill:none;stroke:#3c0d0d;stroke-width:1.48px;"/><path d="M54.695,34.968c-1.682,9.945 8.807,13.359 8.362,0.099" style="fill:none;stroke:#3c0d0d;stroke-width:1.48px;"/><path d="M63.304,34.968c-1.682,9.945 8.807,13.359 8.362,0.099" style="fill:none;stroke:#3c0d0d;stroke-width:1.48px;"/><path d="M71.864,34.968c-1.683,9.945 8.807,13.359 8.361,0.099" style="fill:none;stroke:#3c0d0d;stroke-width:1.48px;"/><path d="M80.473,34.968c-1.682,9.945 8.807,13.359 8.362,0.099" style="fill:none;stroke:#3c0d0d;stroke-width:1.48px;"/><path d="M89.032,34.968c-1.682,9.945 8.807,13.359 8.362,0.099" style="fill:none;stroke:#3c0d0d;stroke-width:1.48px;"/><path d="M11.798,52.582c-1.683,9.945 8.807,13.359 8.361,0.099" style="fill:none;stroke:#3c0d0d;stroke-width:1.48px;"/><path d="M20.407,52.582c-1.682,9.945 8.807,13.359 8.362,0.099" style="fill:none;stroke:#3c0d0d;stroke-width:1.48px;"/><path d="M28.966,52.582c-1.682,9.945 8.807,13.359 8.362,0.099" style="fill:none;stroke:#3c0d0d;stroke-width:1.48px;"/><path d="M37.576,52.582c-1.683,9.945 8.807,13.359 8.361,0.099" style="fill:none;stroke:#3c0d0d;stroke-width:1.48px;"/><path d="M46.135,52.582c-1.682,9.945 8.807,13.359 8.362,0.099" style="fill:none;stroke:#3c0d0d;stroke-width:1.48px;"/><path d="M54.695,52.582c-1.682,9.945 8.807,13.359 8.362,0.099" style="fill:none;stroke:#3c0d0d;stroke-width:1.48px;"/><path d="M63.304,52.582c-1.682,9.945 8.807,13.359 8.362,0.099" style="fill:none;stroke:#3c0d0d;stroke-width:1.48px;"/><path d="M71.864,52.582c-1.683,9.945 8.807,13.359 8.361,0.099" style="fill:none;stroke:#3c0d0d;stroke-width:1.48px;"/><path d="M80.473,52.582c-1.682,9.945 8.807,13.359 8.362,0.099" style="fill:none;stroke:#3c0d0d;stroke-width:1.48px;"/><path d="M89.032,52.582c-1.682,9.945 8.807,13.359 8.362,0.099" style="fill:none;stroke:#3c0d0d;stroke-width:1.48px;"/><path d="M11.798,70.147c-1.683,9.945 8.807,13.359 8.361,0.099" style="fill:none;stroke:#3c0d0d;stroke-width:1.48px;"/><path d="M20.407,70.147c-1.682,9.945 8.807,13.359 8.362,0.099" style="fill:none;stroke:#3c0d0d;stroke-width:1.48px;"/><path d="M28.966,70.147c-1.682,9.945 8.807,13.359 8.362,0.099" style="fill:none;stroke:#3c0d0d;stroke-width:1.48px;"/><path d="M37.576,70.147c-1.683,9.945 8.807,13.359 8.361,0.099" style="fill:none;stroke:#3c0d0d;stroke-width:1.48px;"/><path d="M46.135,70.147c-1.682,9.945 8.807,13.359 8.362,0.099" style="fill:none;stroke:#3c0d0d;stroke-width:1.48px;"/><path d="M54.695,70.147c-1.682,9.945 8.807,13.359 8.362,0.099" style="fill:none;stroke:#3c0d0d;stroke-width:1.48px;"/><path d="M63.304,70.147c-1.682,9.945 8.807,13.359 8.362,0.099" style="fill:none;stroke:#3c0d0d;stroke-width:1.48px;"/><path d="M71.864,70.147c-1.683,9.945 8.807,13.359 8.361,0.099" style="fill:none;stroke:#3c0d0d;stroke-width:1.48px;"/><path d="M80.473,70.147c-1.682,9.945 8.807,13.359 8.362,0.099" style="fill:none;stroke:#3c0d0d;stroke-width:1.48px;"/><path d="M89.032,70.147c-1.682,9.945 8.807,13.359 8.362,0.099" style="fill:none;stroke:#3c0d0d;stroke-width:1.48px;"/><path d="M11.798,87.761c-1.683,9.945 8.807,13.359 8.361,0.099" style="fill:none;stroke:#3c0d0d;stroke-width:1.48px;"/><path d="M20.407,87.761c-1.682,9.945 8.807,13.359 8.362,0.099" style="fill:none;stroke:#3c0d0d;stroke-width:1.48px;"/><path d="M28.966,87.761c-1.682,9.945 8.807,13.359 8.362,0.099" style="fill:none;stroke:#3c0d0d;stroke-width:1.48px;"/><path d="M37.576,87.761c-1.683,9.945 8.807,13.359 8.361,0.099" style="fill:none;stroke:#3c0d0d;stroke-width:1.48px;"/><path d="M46.135,87.761c-1.682,9.945 8.807,13.359 8.362,0.099" style="fill:none;stroke:#3c0d0d;stroke-width:1.48px;"/><path d="M54.695,87.761c-1.682,9.945 8.807,13.359 8.362,0.099" style="fill:none;stroke:#3c0d0d;stroke-width:1.48px;"/><path d="M63.304,87.761c-1.682,9.945 8.807,13.359 8.362,0.099" style="fill:none;stroke:#3c0d0d;stroke-width:1.48px;"/><path d="M71.864,87.761c-1.683,9.945 8.807,13.359 8.361,0.099" style="fill:none;stroke:#3c0d0d;stroke-width:1.48px;"/><path d="M80.473,87.761c-1.682,9.945 8.807,13.359 8.362,0.099" style="fill:none;stroke:#3c0d0d;stroke-width:1.48px;"/><path d="M89.032,87.761c-1.682,9.945 8.807,13.359 8.362,0.099" style="fill:none;stroke:#3c0d0d;stroke-width:1.48px;"/><path d="M11.798,105.375c-1.683,9.945 8.807,13.359 8.361,0.099" style="fill:none;stroke:#3c0d0d;stroke-width:1.48px;"/><path d="M20.407,105.375c-1.682,9.945 8.807,13.359 8.362,0.099" style="fill:none;stroke:#3c0d0d;stroke-width:1.48px;"/><path d="M28.966,105.375c-1.682,9.945 8.807,13.359 8.362,0.099" style="fill:none;stroke:#3c0d0d;stroke-width:1.48px;"/><path d="M37.576,105.375c-1.683,9.945 8.807,13.359 8.361,0.099" style="fill:none;stroke:#3c0d0d;stroke-width:1.48px;"/><path d="M46.135,105.375c-1.682,9.945 8.807,13.359 8.362,0.099" style="fill:none;stroke:#3c0d0d;stroke-width:1.48px;"/><path d="M54.695,105.375c-1.682,9.945 8.807,13.359 8.362,0.099" style="fill:none;stroke:#3c0d0d;stroke-width:1.48px;"/><path d="M63.304,105.375c-1.682,9.945 8.807,13.359 8.362,0.099" style="fill:none;stroke:#3c0d0d;stroke-width:1.48px;"/><path d="M71.864,105.375c-1.683,9.945 8.807,13.359 8.361,0.099" style="fill:none;stroke:#3c0d0d;stroke-width:1.48px;"/><path d="M80.473,105.375c-1.682,9.945 8.807,13.359 8.362,0.099" style="fill:none;stroke:#3c0d0d;stroke-width:1.48px;"/><path d="M89.032,105.375c-1.682,9.945 8.807,13.359 8.362,0.099" style="fill:none;stroke:#3c0d0d;stroke-width:1.48px;"/><path d="M11.798,122.94c-1.683,9.945 8.807,13.359 8.361,0.099" style="fill:none;stroke:#3c0d0d;stroke-width:1.48px;"/><path d="M20.407,122.94c-1.682,9.945 8.807,13.359 8.362,0.099" style="fill:none;stroke:#3c0d0d;stroke-width:1.48px;"/><path d="M28.966,122.94c-1.682,9.945 8.807,13.359 8.362,0.099" style="fill:none;stroke:#3c0d0d;stroke-width:1.48px;"/><path d="M37.576,122.94c-1.683,9.945 8.807,13.359 8.361,0.099" style="fill:none;stroke:#3c0d0d;stroke-width:1.48px;"/><path d="M46.135,122.94c-1.682,9.945 8.807,13.359 8.362,0.099" style="fill:none;stroke:#3c0d0d;stroke-width:1.48px;"/><path d="M54.695,122.94c-1.682,9.945 8.807,13.359 8.362,0.099" style="fill:none;stroke:#3c0d0d;stroke-width:1.48px;"/><path d="M63.304,122.94c-1.682,9.945 8.807,13.359 8.362,0.099" style="fill:none;stroke:#3c0d0d;stroke-width:1.48px;"/><path d="M71.864,122.94c-1.683,9.945 8.807,13.359 8.361,0.099" style="fill:none;stroke:#3c0d0d;stroke-width:1.48px;"/><path d="M80.473,122.94c-1.682,9.945 8.807,13.359 8.362,0.099" style="fill:none;stroke:#3c0d0d;stroke-width:1.48px;"/><path d="M89.032,122.94c-1.682,9.945 8.807,13.359 8.362,0.099" style="fill:none;stroke:#3c0d0d;stroke-width:1.48px;"/><path d="M11.798,140.554c-1.683,9.945 8.807,13.359 8.361,0.099" style="fill:none;stroke:#3c0d0d;stroke-width:1.48px;"/><path d="M20.407,140.554c-1.682,9.945 8.807,13.359 8.362,0.099" style="fill:none;stroke:#3c0d0d;stroke-width:1.48px;"/><path d="M28.966,140.554c-1.682,9.945 8.807,13.359 8.362,0.099" style="fill:none;stroke:#3c0d0d;stroke-width:1.48px;"/><path d="M37.576,140.554c-1.683,9.945 8.807,13.359 8.361,0.099" style="fill:none;stroke:#3c0d0d;stroke-width:1.48px;"/><path d="M46.135,140.554c-1.682,9.945 8.807,13.359 8.362,0.099" style="fill:none;stroke:#3c0d0d;stroke-width:1.48px;"/><path d="M54.695,140.554c-1.682,9.945 8.807,13.359 8.362,0.099" style="fill:none;stroke:#3c0d0d;stroke-width:1.48px;"/><path d="M63.304,140.554c-1.682,9.945 8.807,13.359 8.362,0.099" style="fill:none;stroke:#3c0d0d;stroke-width:1.48px;"/><path d="M71.864,140.554c-1.683,9.945 8.807,13.359 8.361,0.099" style="fill:none;stroke:#3c0d0d;stroke-width:1.48px;"/><path d="M80.473,140.554c-1.682,9.945 8.807,13.359 8.362,0.099" style="fill:none;stroke:#3c0d0d;stroke-width:1.48px;"/><path d="M89.032,140.554c-1.682,9.945 8.807,13.359 8.362,0.099" style="fill:none;stroke:#3c0d0d;stroke-width:1.48px;"/><path d="M11.798,158.168c-1.683,9.945 8.807,13.359 8.361,0.099" style="fill:none;stroke:#3c0d0d;stroke-width:1.48px;"/><path d="M20.407,158.168c-1.682,9.945 8.807,13.359 8.362,0.099" style="fill:none;stroke:#3c0d0d;stroke-width:1.48px;"/><path d="M28.966,158.168c-1.682,9.945 8.807,13.359 8.362,0.099" style="fill:none;stroke:#3c0d0d;stroke-width:1.48px;"/><path d="M37.576,158.168c-1.683,9.945 8.807,13.359 8.361,0.099" style="fill:none;stroke:#3c0d0d;stroke-width:1.48px;"/><path d="M46.135,158.168c-1.682,9.945 8.807,13.359 8.362,0.099" style="fill:none;stroke:#3c0d0d;stroke-width:1.48px;"/><path d="M54.695,158.168c-1.682,9.945 8.807,13.359 8.362,0.099" style="fill:none;stroke:#3c0d0d;stroke-width:1.48px;"/><path d="M63.304,158.168c-1.682,9.945 8.807,13.359 8.362,0.099" style="fill:none;stroke:#3c0d0d;stroke-width:1.48px;"/><path d="M71.864,158.168c-1.683,9.945 8.807,13.359 8.361,0.099" style="fill:none;stroke:#3c0d0d;stroke-width:1.48px;"/><path d="M80.473,158.168c-1.682,9.945 8.807,13.359 8.362,0.099" style="fill:none;stroke:#3c0d0d;stroke-width:1.48px;"/><path d="M89.032,158.168c-1.682,9.945 8.807,13.359 8.362,0.099" style="fill:none;stroke:#3c0d0d;stroke-width:1.48px;"/></g><g><path d="M93.436,26.161c-1.682,9.945 8.807,13.359 8.362,0.099" style="fill:none;stroke:#3c0d0d;stroke-width:1.48px;"/><path d="M102.045,26.161c-1.682,9.945 8.807,13.359 8.362,0.099" style="fill:none;stroke:#3c0d0d;stroke-width:1.48px;"/><path d="M110.605,26.161c-1.683,9.945 8.807,13.359 8.361,0.099" style="fill:none;stroke:#3c0d0d;stroke-width:1.48px;"/><path d="M119.164,26.161c-1.682,9.945 8.807,13.359 8.362,0.099" style="fill:none;stroke:#3c0d0d;stroke-width:1.48px;"/><path d="M127.773,26.161c-1.682,9.945 8.808,13.359 8.362,0.099" style="fill:none;stroke:#3c0d0d;stroke-width:1.48px;"/><path d="M136.333,26.161c-1.682,9.945 8.807,13.359 8.362,0.099" style="fill:none;stroke:#3c0d0d;stroke-width:1.48px;"/><path d="M144.942,26.161c-1.682,9.945 8.807,13.359 8.362,0.099" style="fill:none;stroke:#3c0d0d;stroke-width:1.48px;"/><path d="M153.502,26.161c-1.682,9.945 8.807,13.359 8.362,0.099" style="fill:none;stroke:#3c0d0d;stroke-width:1.48px;"/><path d="M162.111,26.161c-1.682,9.945 8.807,13.359 8.362,0.099" style="fill:none;stroke:#3c0d0d;stroke-width:1.48px;"/><path d="M170.671,26.161c-1.683,9.945 8.807,13.359 8.361,0.099" style="fill:none;stroke:#3c0d0d;stroke-width:1.48px;"/><path d="M93.436,43.775c-1.682,9.945 8.807,13.359 8.362,0.099" style="fill:none;stroke:#3c0d0d;stroke-width:1.48px;"/><path d="M102.045,43.775c-1.682,9.945 8.807,13.359 8.362,0.099" style="fill:none;stroke:#3c0d0d;stroke-width:1.48px;"/><path d="M110.605,43.775c-1.683,9.945 8.807,13.359 8.361,0.099" style="fill:none;stroke:#3c0d0d;stroke-width:1.48px;"/><path d="M119.164,43.775c-1.682,9.945 8.807,13.359 8.362,0.099" style="fill:none;stroke:#3c0d0d;stroke-width:1.48px;"/><path d="M127.773,43.775c-1.682,9.945 8.808,13.359 8.362,0.099" style="fill:none;stroke:#3c0d0d;stroke-width:1.48px;"/><path d="M136.333,43.775c-1.682,9.945 8.807,13.359 8.362,0.099" style="fill:none;stroke:#3c0d0d;stroke-width:1.48px;"/><path d="M144.942,43.775c-1.682,9.945 8.807,13.359 8.362,0.099" style="fill:none;stroke:#3c0d0d;stroke-width:1.48px;"/><path d="M153.502,43.775c-1.682,9.945 8.807,13.359 8.362,0.099" style="fill:none;stroke:#3c0d0d;stroke-width:1.48px;"/><path d="M162.111,43.775c-1.682,9.945 8.807,13.359 8.362,0.099" style="fill:none;stroke:#3c0d0d;stroke-width:1.48px;"/><path d="M170.671,43.775c-1.683,9.945 8.807,13.359 8.361,0.099" style="fill:none;stroke:#3c0d0d;stroke-width:1.48px;"/><path d="M93.436,61.389c-1.682,9.945 8.807,13.359 8.362,0.099" style="fill:none;stroke:#3c0d0d;stroke-width:1.48px;"/><path d="M102.045,61.389c-1.682,9.945 8.807,13.359 8.362,0.099" style="fill:none;stroke:#3c0d0d;stroke-width:1.48px;"/><path d="M110.605,61.389c-1.683,9.945 8.807,13.359 8.361,0.099" style="fill:none;stroke:#3c0d0d;stroke-width:1.48px;"/><path d="M119.164,61.389c-1.682,9.945 8.807,13.359 8.362,0.099" style="fill:none;stroke:#3c0d0d;stroke-width:1.48px;"/><path d="M127.773,61.389c-1.682,9.945 8.808,13.359 8.362,0.099" style="fill:none;stroke:#3c0d0d;stroke-width:1.48px;"/><path d="M136.333,61.389c-1.682,9.945 8.807,13.359 8.362,0.099" style="fill:none;stroke:#3c0d0d;stroke-width:1.48px;"/><path d="M144.942,61.389c-1.682,9.945 8.807,13.359 8.362,0.099" style="fill:none;stroke:#3c0d0d;stroke-width:1.48px;"/><path d="M153.502,61.389c-1.682,9.945 8.807,13.359 8.362,0.099" style="fill:none;stroke:#3c0d0d;stroke-width:1.48px;"/><path d="M162.111,61.389c-1.682,9.945 8.807,13.359 8.362,0.099" style="fill:none;stroke:#3c0d0d;stroke-width:1.48px;"/><path d="M170.671,61.389c-1.683,9.945 8.807,13.359 8.361,0.099" style="fill:none;stroke:#3c0d0d;stroke-width:1.48px;"/><path d="M93.436,78.954c-1.682,9.945 8.807,13.359 8.362,0.099" style="fill:none;stroke:#3c0d0d;stroke-width:1.48px;"/><path d="M102.045,78.954c-1.682,9.945 8.807,13.359 8.362,0.099" style="fill:none;stroke:#3c0d0d;stroke-width:1.48px;"/><path d="M110.605,78.954c-1.683,9.945 8.807,13.359 8.361,0.099" style="fill:none;stroke:#3c0d0d;stroke-width:1.48px;"/><path d="M119.164,78.954c-1.682,9.945 8.807,13.359 8.362,0.099" style="fill:none;stroke:#3c0d0d;stroke-width:1.48px;"/><path d="M127.773,78.954c-1.682,9.945 8.808,13.359 8.362,0.099" style="fill:none;stroke:#3c0d0d;stroke-width:1.48px;"/><path d="M136.333,78.954c-1.682,9.945 8.807,13.359 8.362,0.099" style="fill:none;stroke:#3c0d0d;stroke-width:1.48px;"/><path d="M144.942,78.954c-1.682,9.945 8.807,13.359 8.362,0.099" style="fill:none;stroke:#3c0d0d;stroke-width:1.48px;"/><path d="M153.502,78.954c-1.682,9.945 8.807,13.359 8.362,0.099" style="fill:none;stroke:#3c0d0d;stroke-width:1.48px;"/><path d="M162.111,78.954c-1.682,9.945 8.807,13.359 8.362,0.099" style="fill:none;stroke:#3c0d0d;stroke-width:1.48px;"/><path d="M170.671,78.954c-1.683,9.945 8.807,13.359 8.361,0.099" style="fill:none;stroke:#3c0d0d;stroke-width:1.48px;"/><path d="M93.436,96.568c-1.682,9.945 8.807,13.359 8.362,0.099" style="fill:none;stroke:#3c0d0d;stroke-width:1.48px;"/><path d="M102.045,96.568c-1.682,9.945 8.807,13.359 8.362,0.099" style="fill:none;stroke:#3c0d0d;stroke-width:1.48px;"/><path d="M110.605,96.568c-1.683,9.945 8.807,13.359 8.361,0.099" style="fill:none;stroke:#3c0d0d;stroke-width:1.48px;"/><path d="M119.164,96.568c-1.682,9.945 8.807,13.359 8.362,0.099" style="fill:none;stroke:#3c0d0d;stroke-width:1.48px;"/><path d="M127.773,96.568c-1.682,9.945 8.808,13.359 8.362,0.099" style="fill:none;stroke:#3c0d0d;stroke-width:1.48px;"/><path d="M136.333,96.568c-1.682,9.945 8.807,13.359 8.362,0.099" style="fill:none;stroke:#3c0d0d;stroke-width:1.48px;"/><path d="M144.942,96.568c-1.682,9.945 8.807,13.359 8.362,0.099" style="fill:none;stroke:#3c0d0d;stroke-width:1.48px;"/><path d="M153.502,96.568c-1.682,9.945 8.807,13.359 8.362,0.099" style="fill:none;stroke:#3c0d0d;stroke-width:1.48px;"/><path d="M162.111,96.568c-1.682,9.945 8.807,13.359 8.362,0.099" style="fill:none;stroke:#3c0d0d;stroke-width:1.48px;"/><path d="M170.671,96.568c-1.683,9.945 8.807,13.359 8.361,0.099" style="fill:none;stroke:#3c0d0d;stroke-width:1.48px;"/><path d="M93.436,114.182c-1.682,9.945 8.807,13.359 8.362,0.099" style="fill:none;stroke:#3c0d0d;stroke-width:1.48px;"/><path d="M102.045,114.182c-1.682,9.945 8.807,13.359 8.362,0.099" style="fill:none;stroke:#3c0d0d;stroke-width:1.48px;"/><path d="M110.605,114.182c-1.683,9.945 8.807,13.359 8.361,0.099" style="fill:none;stroke:#3c0d0d;stroke-width:1.48px;"/><path d="M119.164,114.182c-1.682,9.945 8.807,13.359 8.362,0.099" style="fill:none;stroke:#3c0d0d;stroke-width:1.48px;"/><path d="M127.773,114.182c-1.682,9.945 8.808,13.359 8.362,0.099" style="fill:none;stroke:#3c0d0d;stroke-width:1.48px;"/><path d="M136.333,114.182c-1.682,9.945 8.807,13.359 8.362,0.099" style="fill:none;stroke:#3c0d0d;stroke-width:1.48px;"/><path d="M144.942,114.182c-1.682,9.945 8.807,13.359 8.362,0.099" style="fill:none;stroke:#3c0d0d;stroke-width:1.48px;"/><path d="M153.502,114.182c-1.682,9.945 8.807,13.359 8.362,0.099" style="fill:none;stroke:#3c0d0d;stroke-width:1.48px;"/><path d="M162.111,114.182c-1.682,9.945 8.807,13.359 8.362,0.099" style="fill:none;stroke:#3c0d0d;stroke-width:1.48px;"/><path d="M170.671,114.182c-1.683,9.945 8.807,13.359 8.361,0.099" style="fill:none;stroke:#3c0d0d;stroke-width:1.48px;"/><path d="M93.436,131.747c-1.682,9.945 8.807,13.359 8.362,0.099" style="fill:none;stroke:#3c0d0d;stroke-width:1.48px;"/><path d="M102.045,131.747c-1.682,9.945 8.807,13.359 8.362,0.099" style="fill:none;stroke:#3c0d0d;stroke-width:1.48px;"/><path d="M110.605,131.747c-1.683,9.945 8.807,13.359 8.361,0.099" style="fill:none;stroke:#3c0d0d;stroke-width:1.48px;"/><path d="M119.164,131.747c-1.682,9.945 8.807,13.359 8.362,0.099" style="fill:none;stroke:#3c0d0d;stroke-width:1.48px;"/><path d="M127.773,131.747c-1.682,9.945 8.808,13.359 8.362,0.099" style="fill:none;stroke:#3c0d0d;stroke-width:1.48px;"/><path d="M136.333,131.747c-1.682,9.945 8.807,13.359 8.362,0.099" style="fill:none;stroke:#3c0d0d;stroke-width:1.48px;"/><path d="M144.942,131.747c-1.682,9.945 8.807,13.359 8.362,0.099" style="fill:none;stroke:#3c0d0d;stroke-width:1.48px;"/><path d="M153.502,131.747c-1.682,9.945 8.807,13.359 8.362,0.099" style="fill:none;stroke:#3c0d0d;stroke-width:1.48px;"/><path d="M162.111,131.747c-1.682,9.945 8.807,13.359 8.362,0.099" style="fill:none;stroke:#3c0d0d;stroke-width:1.48px;"/><path d="M170.671,131.747c-1.683,9.945 8.807,13.359 8.361,0.099" style="fill:none;stroke:#3c0d0d;stroke-width:1.48px;"/><path d="M93.436,149.361c-1.682,9.945 8.807,13.359 8.362,0.099" style="fill:none;stroke:#3c0d0d;stroke-width:1.48px;"/><path d="M102.045,149.361c-1.682,9.945 8.807,13.359 8.362,0.099" style="fill:none;stroke:#3c0d0d;stroke-width:1.48px;"/><path d="M110.605,149.361c-1.683,9.945 8.807,13.359 8.361,0.099" style="fill:none;stroke:#3c0d0d;stroke-width:1.48px;"/><path d="M119.164,149.361c-1.682,9.945 8.807,13.359 8.362,0.099" style="fill:none;stroke:#3c0d0d;stroke-width:1.48px;"/><path d="M127.773,149.361c-1.682,9.945 8.808,13.359 8.362,0.099" style="fill:none;stroke:#3c0d0d;stroke-width:1.48px;"/><path d="M136.333,149.361c-1.682,9.945 8.807,13.359 8.362,0.099" style="fill:none;stroke:#3c0d0d;stroke-width:1.48px;"/><path d="M144.942,149.361c-1.682,9.945 8.807,13.359 8.362,0.099" style="fill:none;stroke:#3c0d0d;stroke-width:1.48px;"/><path d="M153.502,149.361c-1.682,9.945 8.807,13.359 8.362,0.099" style="fill:none;stroke:#3c0d0d;stroke-width:1.48px;"/><path d="M162.111,149.361c-1.682,9.945 8.807,13.359 8.362,0.099" style="fill:none;stroke:#3c0d0d;stroke-width:1.48px;"/><path d="M170.671,149.361c-1.683,9.945 8.807,13.359 8.361,0.099" style="fill:none;stroke:#3c0d0d;stroke-width:1.48px;"/><path d="M97.642,34.968c-1.683,9.945 8.807,13.359 8.361,0.099" style="fill:none;stroke:#3c0d0d;stroke-width:1.48px;"/><path d="M106.201,34.968c-1.682,9.945 8.807,13.359 8.362,0.099" style="fill:none;stroke:#3c0d0d;stroke-width:1.48px;"/><path d="M114.81,34.968c-1.682,9.945 8.807,13.359 8.362,0.099" style="fill:none;stroke:#3c0d0d;stroke-width:1.48px;"/><path d="M123.37,34.968c-1.682,9.945 8.807,13.359 8.362,0.099" style="fill:none;stroke:#3c0d0d;stroke-width:1.48px;"/><path d="M131.93,34.968c-1.683,9.945 8.807,13.359 8.361,0.099" style="fill:none;stroke:#3c0d0d;stroke-width:1.48px;"/><path d="M140.539,34.968c-1.682,9.945 8.807,13.359 8.361,0.099" style="fill:none;stroke:#3c0d0d;stroke-width:1.48px;"/><path d="M149.098,34.968c-1.682,9.945 8.807,13.359 8.362,0.099" style="fill:none;stroke:#3c0d0d;stroke-width:1.48px;"/><path d="M157.708,34.968c-1.683,9.945 8.807,13.359 8.361,0.099" style="fill:none;stroke:#3c0d0d;stroke-width:1.48px;"/><path d="M166.267,34.968c-1.682,9.945 8.807,13.359 8.362,0.099" style="fill:none;stroke:#3c0d0d;stroke-width:1.48px;"/><path d="M174.876,34.968c-1.682,9.945 8.807,13.359 8.362,0.099" style="fill:none;stroke:#3c0d0d;stroke-width:1.48px;"/><path d="M97.642,52.582c-1.683,9.945 8.807,13.359 8.361,0.099" style="fill:none;stroke:#3c0d0d;stroke-width:1.48px;"/><path d="M106.201,52.582c-1.682,9.945 8.807,13.359 8.362,0.099" style="fill:none;stroke:#3c0d0d;stroke-width:1.48px;"/><path d="M114.81,52.582c-1.682,9.945 8.807,13.359 8.362,0.099" style="fill:none;stroke:#3c0d0d;stroke-width:1.48px;"/><path d="M123.37,52.582c-1.682,9.945 8.807,13.359 8.362,0.099" style="fill:none;stroke:#3c0d0d;stroke-width:1.48px;"/><path d="M131.93,52.582c-1.683,9.945 8.807,13.359 8.361,0.099" style="fill:none;stroke:#3c0d0d;stroke-width:1.48px;"/><path d="M140.539,52.582c-1.682,9.945 8.807,13.359 8.361,0.099" style="fill:none;stroke:#3c0d0d;stroke-width:1.48px;"/><path d="M149.098,52.582c-1.682,9.945 8.807,13.359 8.362,0.099" style="fill:none;stroke:#3c0d0d;stroke-width:1.48px;"/><path d="M157.708,52.582c-1.683,9.945 8.807,13.359 8.361,0.099" style="fill:none;stroke:#3c0d0d;stroke-width:1.48px;"/><path d="M166.267,52.582c-1.682,9.945 8.807,13.359 8.362,0.099" style="fill:none;stroke:#3c0d0d;stroke-width:1.48px;"/><path d="M174.876,52.582c-1.682,9.945 8.807,13.359 8.362,0.099" style="fill:none;stroke:#3c0d0d;stroke-width:1.48px;"/><path d="M97.642,70.147c-1.683,9.945 8.807,13.359 8.361,0.099" style="fill:none;stroke:#3c0d0d;stroke-width:1.48px;"/><path d="M106.201,70.147c-1.682,9.945 8.807,13.359 8.362,0.099" style="fill:none;stroke:#3c0d0d;stroke-width:1.48px;"/><path d="M114.81,70.147c-1.682,9.945 8.807,13.359 8.362,0.099" style="fill:none;stroke:#3c0d0d;stroke-width:1.48px;"/><path d="M123.37,70.147c-1.682,9.945 8.807,13.359 8.362,0.099" style="fill:none;stroke:#3c0d0d;stroke-width:1.48px;"/><path d="M131.93,70.147c-1.683,9.945 8.807,13.359 8.361,0.099" style="fill:none;stroke:#3c0d0d;stroke-width:1.48px;"/><path d="M140.539,70.147c-1.682,9.945 8.807,13.359 8.361,0.099" style="fill:none;stroke:#3c0d0d;stroke-width:1.48px;"/><path d="M149.098,70.147c-1.682,9.945 8.807,13.359 8.362,0.099" style="fill:none;stroke:#3c0d0d;stroke-width:1.48px;"/><path d="M157.708,70.147c-1.683,9.945 8.807,13.359 8.361,0.099" style="fill:none;stroke:#3c0d0d;stroke-width:1.48px;"/><path d="M166.267,70.147c-1.682,9.945 8.807,13.359 8.362,0.099" style="fill:none;stroke:#3c0d0d;stroke-width:1.48px;"/><path d="M174.876,70.147c-1.682,9.945 8.807,13.359 8.362,0.099" style="fill:none;stroke:#3c0d0d;stroke-width:1.48px;"/><path d="M97.642,87.761c-1.683,9.945 8.807,13.359 8.361,0.099" style="fill:none;stroke:#3c0d0d;stroke-width:1.48px;"/><path d="M106.201,87.761c-1.682,9.945 8.807,13.359 8.362,0.099" style="fill:none;stroke:#3c0d0d;stroke-width:1.48px;"/><path d="M114.81,87.761c-1.682,9.945 8.807,13.359 8.362,0.099" style="fill:none;stroke:#3c0d0d;stroke-width:1.48px;"/><path d="M123.37,87.761c-1.682,9.945 8.807,13.359 8.362,0.099" style="fill:none;stroke:#3c0d0d;stroke-width:1.48px;"/><path d="M131.93,87.761c-1.683,9.945 8.807,13.359 8.361,0.099" style="fill:none;stroke:#3c0d0d;stroke-width:1.48px;"/><path d="M140.539,87.761c-1.682,9.945 8.807,13.359 8.361,0.099" style="fill:none;stroke:#3c0d0d;stroke-width:1.48px;"/><path d="M149.098,87.761c-1.682,9.945 8.807,13.359 8.362,0.099" style="fill:none;stroke:#3c0d0d;stroke-width:1.48px;"/><path d="M157.708,87.761c-1.683,9.945 8.807,13.359 8.361,0.099" style="fill:none;stroke:#3c0d0d;stroke-width:1.48px;"/><path d="M166.267,87.761c-1.682,9.945 8.807,13.359 8.362,0.099" style="fill:none;stroke:#3c0d0d;stroke-width:1.48px;"/><path d="M174.876,87.761c-1.682,9.945 8.807,13.359 8.362,0.099" style="fill:none;stroke:#3c0d0d;stroke-width:1.48px;"/><path d="M97.642,105.375c-1.683,9.945 8.807,13.359 8.361,0.099" style="fill:none;stroke:#3c0d0d;stroke-width:1.48px;"/><path d="M106.201,105.375c-1.682,9.945 8.807,13.359 8.362,0.099" style="fill:none;stroke:#3c0d0d;stroke-width:1.48px;"/><path d="M114.81,105.375c-1.682,9.945 8.807,13.359 8.362,0.099" style="fill:none;stroke:#3c0d0d;stroke-width:1.48px;"/><path d="M123.37,105.375c-1.682,9.945 8.807,13.359 8.362,0.099" style="fill:none;stroke:#3c0d0d;stroke-width:1.48px;"/><path d="M131.93,105.375c-1.683,9.945 8.807,13.359 8.361,0.099" style="fill:none;stroke:#3c0d0d;stroke-width:1.48px;"/><path d="M140.539,105.375c-1.682,9.945 8.807,13.359 8.361,0.099" style="fill:none;stroke:#3c0d0d;stroke-width:1.48px;"/><path d="M149.098,105.375c-1.682,9.945 8.807,13.359 8.362,0.099" style="fill:none;stroke:#3c0d0d;stroke-width:1.48px;"/><path d="M157.708,105.375c-1.683,9.945 8.807,13.359 8.361,0.099" style="fill:none;stroke:#3c0d0d;stroke-width:1.48px;"/><path d="M166.267,105.375c-1.682,9.945 8.807,13.359 8.362,0.099" style="fill:none;stroke:#3c0d0d;stroke-width:1.48px;"/><path d="M174.876,105.375c-1.682,9.945 8.807,13.359 8.362,0.099" style="fill:none;stroke:#3c0d0d;stroke-width:1.48px;"/><path d="M97.642,122.94c-1.683,9.945 8.807,13.359 8.361,0.099" style="fill:none;stroke:#3c0d0d;stroke-width:1.48px;"/><path d="M106.201,122.94c-1.682,9.945 8.807,13.359 8.362,0.099" style="fill:none;stroke:#3c0d0d;stroke-width:1.48px;"/><path d="M114.81,122.94c-1.682,9.945 8.807,13.359 8.362,0.099" style="fill:none;stroke:#3c0d0d;stroke-width:1.48px;"/><path d="M123.37,122.94c-1.682,9.945 8.807,13.359 8.362,0.099" style="fill:none;stroke:#3c0d0d;stroke-width:1.48px;"/><path d="M131.93,122.94c-1.683,9.945 8.807,13.359 8.361,0.099" style="fill:none;stroke:#3c0d0d;stroke-width:1.48px;"/><path d="M140.539,122.94c-1.682,9.945 8.807,13.359 8.361,0.099" style="fill:none;stroke:#3c0d0d;stroke-width:1.48px;"/><path d="M149.098,122.94c-1.682,9.945 8.807,13.359 8.362,0.099" style="fill:none;stroke:#3c0d0d;stroke-width:1.48px;"/><path d="M157.708,122.94c-1.683,9.945 8.807,13.359 8.361,0.099" style="fill:none;stroke:#3c0d0d;stroke-width:1.48px;"/><path d="M166.267,122.94c-1.682,9.945 8.807,13.359 8.362,0.099" style="fill:none;stroke:#3c0d0d;stroke-width:1.48px;"/><path d="M174.876,122.94c-1.682,9.945 8.807,13.359 8.362,0.099" style="fill:none;stroke:#3c0d0d;stroke-width:1.48px;"/><path d="M97.642,140.554c-1.683,9.945 8.807,13.359 8.361,0.099" style="fill:none;stroke:#3c0d0d;stroke-width:1.48px;"/><path d="M106.201,140.554c-1.682,9.945 8.807,13.359 8.362,0.099" style="fill:none;stroke:#3c0d0d;stroke-width:1.48px;"/><path d="M114.81,140.554c-1.682,9.945 8.807,13.359 8.362,0.099" style="fill:none;stroke:#3c0d0d;stroke-width:1.48px;"/><path d="M123.37,140.554c-1.682,9.945 8.807,13.359 8.362,0.099" style="fill:none;stroke:#3c0d0d;stroke-width:1.48px;"/><path d="M131.93,140.554c-1.683,9.945 8.807,13.359 8.361,0.099" style="fill:none;stroke:#3c0d0d;stroke-width:1.48px;"/><path d="M140.539,140.554c-1.682,9.945 8.807,13.359 8.361,0.099" style="fill:none;stroke:#3c0d0d;stroke-width:1.48px;"/><path d="M149.098,140.554c-1.682,9.945 8.807,13.359 8.362,0.099" style="fill:none;stroke:#3c0d0d;stroke-width:1.48px;"/><path d="M157.708,140.554c-1.683,9.945 8.807,13.359 8.361,0.099" style="fill:none;stroke:#3c0d0d;stroke-width:1.48px;"/><path d="M166.267,140.554c-1.682,9.945 8.807,13.359 8.362,0.099" style="fill:none;stroke:#3c0d0d;stroke-width:1.48px;"/><path d="M174.876,140.554c-1.682,9.945 8.807,13.359 8.362,0.099" style="fill:none;stroke:#3c0d0d;stroke-width:1.48px;"/><path d="M97.642,158.168c-1.683,9.945 8.807,13.359 8.361,0.099" style="fill:none;stroke:#3c0d0d;stroke-width:1.48px;"/><path d="M106.201,158.168c-1.682,9.945 8.807,13.359 8.362,0.099" style="fill:none;stroke:#3c0d0d;stroke-width:1.48px;"/><path d="M114.81,158.168c-1.682,9.945 8.807,13.359 8.362,0.099" style="fill:none;stroke:#3c0d0d;stroke-width:1.48px;"/><path d="M123.37,158.168c-1.682,9.945 8.807,13.359 8.362,0.099" style="fill:none;stroke:#3c0d0d;stroke-width:1.48px;"/><path d="M131.93,158.168c-1.683,9.945 8.807,13.359 8.361,0.099" style="fill:none;stroke:#3c0d0d;stroke-width:1.48px;"/><path d="M140.539,158.168c-1.682,9.945 8.807,13.359 8.361,0.099" style="fill:none;stroke:#3c0d0d;stroke-width:1.48px;"/><path d="M149.098,158.168c-1.682,9.945 8.807,13.359 8.362,0.099" style="fill:none;stroke:#3c0d0d;stroke-width:1.48px;"/><path d="M157.708,158.168c-1.683,9.945 8.807,13.359 8.361,0.099" style="fill:none;stroke:#3c0d0d;stroke-width:1.48px;"/><path d="M166.267,158.168c-1.682,9.945 8.807,13.359 8.362,0.099" style="fill:none;stroke:#3c0d0d;stroke-width:1.48px;"/><path d="M174.876,158.168c-1.682,9.945 8.807,13.359 8.362,0.099" style="fill:none;stroke:#3c0d0d;stroke-width:1.48px;"/></g></g></g><path id="SVGID_1_" d="M92.644,35.661c-26.371,0 -37.108,-4.354 -37.108,-4.354c0,0 -4.651,22.364 -26.718,25.58c0,96.432 63.826,110.088 63.826,110.088c0,0 63.827,-13.705 63.827,-110.088c-22.067,-3.216 -26.718,-25.58 -26.718,-25.58c0,0 -10.737,4.354 -37.109,4.354Z" style="fill:none;stroke:#3c0d0d;stroke-width:1.48px;"/></g><g><path d="M23.672,44.171c1.88,-0.89 4.305,0.198 5.393,2.474c1.089,2.276 0.396,4.799 -1.484,5.739c-1.88,0.891 -4.304,-0.197 -5.393,-2.473c-1.089,-2.276 -0.396,-4.849 1.484,-5.74Z" style="fill:#6f1819;stroke:#8c1f20;stroke-width:1.48px;"/><path d="M24.959,46.892c0.643,-0.296 1.435,0.05 1.781,0.792c0.346,0.742 0.148,1.583 -0.495,1.88c-0.643,0.297 -1.435,-0.049 -1.781,-0.791c-0.346,-0.693 -0.099,-1.584 0.495,-1.881Z" style="fill:#6f1819;stroke:#8c1f20;stroke-width:1.48px;"/><path d="M161.567,44.171c-1.88,-0.89 -4.305,0.198 -5.393,2.474c-1.089,2.276 -0.396,4.799 1.484,5.739c1.88,0.891 4.305,-0.197 5.393,-2.473c1.089,-2.276 0.396,-4.849 -1.484,-5.74Z" style="fill:#6f1819;stroke:#8c1f20;stroke-width:1.48px;"/><path d="M160.33,46.843c-0.643,-0.297 -1.484,0.049 -1.88,0.841c-0.396,0.792 -0.149,1.682 0.494,1.979c0.644,0.297 1.485,-0.049 1.881,-0.841c0.395,-0.792 0.148,-1.682 -0.495,-1.979Z" style="fill:#6f1819;stroke:#8c1f20;stroke-width:1.48px;"/><path d="M51.528,13.742c3.216,0 5.839,2.623 5.839,5.839c0,3.216 -2.623,5.838 -5.839,5.838c-3.216,0 -5.838,-2.622 -5.838,-5.838c0,-3.266 2.622,-5.839 5.838,-5.839Z" style="fill:#6f1819;stroke:#8c1f20;stroke-width:1.48px;"/><path d="M51.528,17.552c1.089,0 2.029,0.891 2.029,2.029c0,1.088 -0.891,2.028 -2.029,2.028c-1.088,0 -2.028,-0.89 -2.028,-2.028c0.049,-1.138 0.94,-2.029 2.028,-2.029Z" style="fill:#6f1819;stroke:#8c1f20;stroke-width:1.48px;"/><path d="M133.711,13.742c-3.216,0 -5.839,2.623 -5.839,5.839c0,3.216 2.623,5.838 5.839,5.838c3.216,0 5.838,-2.622 5.838,-5.838c0,-3.266 -2.622,-5.839 -5.838,-5.839Z" style="fill:#6f1819;stroke:#8c1f20;stroke-width:1.48px;"/><path d="M133.711,17.552c-1.089,0 -2.029,0.891 -2.029,2.029c0,1.088 0.891,2.028 2.029,2.028c1.088,0 2.028,-0.89 2.028,-2.028c-0.049,-1.138 -0.94,-2.029 -2.028,-2.029Z" style="fill:#6f1819;stroke:#8c1f20;stroke-width:1.48px;"/><path d="M92.644,19.581c-3.216,0 -5.838,2.622 -5.838,5.838c0,3.216 2.622,5.838 5.838,5.838c3.216,0 5.839,-2.622 5.839,-5.838c-0.05,-3.216 -2.672,-5.838 -5.839,-5.838Z" style="fill:#6f1819;stroke:#8c1f20;stroke-width:1.48px;"/><path d="M92.644,23.638c-0.989,0 -1.781,0.792 -1.781,1.781c0,0.99 0.792,1.781 1.781,1.781c0.99,0 1.781,-0.791 1.781,-1.781c0,-0.989 -0.791,-1.781 -1.781,-1.781Z" style="fill:#6f1819;stroke:#8c1f20;stroke-width:1.48px;"/><path d="M92.644,170.884c-3.216,0 -5.838,2.622 -5.838,5.838c0,3.216 2.622,5.838 5.838,5.838c3.216,0 5.839,-2.622 5.839,-5.838c-0.05,-3.216 -2.672,-5.838 -5.839,-5.838Z" style="fill:#6f1819;stroke:#8c1f20;stroke-width:1.48px;"/><path d="M92.644,174.545c-1.187,0 -2.127,0.94 -2.127,2.128c0,1.187 0.94,2.127 2.127,2.127c1.188,0 2.128,-0.94 2.128,-2.127c0,-1.138 -0.99,-2.128 -2.128,-2.128Z" style="fill:#6f1819;stroke:#8c1f20;stroke-width:1.48px;"/></g><g><path d="M82.699,121.159c-16.377,-7.125 -38.048,-25.234 -16.426,-45.52c21.671,-20.286 43.441,-21.226 43.441,-21.226c0,0 38.197,-2.969 16.427,45.52c-13.953,34.139 -30.33,26.915 -43.442,21.226Z" style="fill:#a22324;fill-rule:nonzero;"/><g><g><path d="M98.681,73.759l-8.461,0c-0.05,0 -0.099,0 -0.149,0l-0.692,0c-0.05,0 -0.05,0 -0.099,0l-0.396,0c-6.135,0.198 -10.539,4.75 -10.539,10.934c0,4.453 3.662,6.334 7.917,8.56c1.979,1.039 2.375,1.732 2.375,2.523c0,1.485 -1.386,2.87 -2.87,2.92c-0.05,0 -9.995,0 -9.995,0c-0.791,0 -1.533,0.445 -1.632,1.237l0,-0.05l-0.693,3.859l-0.05,0.347c0,0.742 0.743,1.237 1.534,1.237l9.896,0c6.382,0 11.033,-4.602 11.033,-10.935c0,-3.612 -1.929,-6.135 -6.333,-8.213l-0.791,-0.396c-2.326,-1.138 -3.167,-1.534 -3.167,-2.523c0,-1.435 1.484,-2.821 2.969,-2.821l9.351,0c0.792,0 1.732,-0.494 1.88,-1.286l0,0.049l0.643,-3.76l0.05,-0.396c-0.05,-0.791 -0.99,-1.286 -1.781,-1.286Z" style="fill:#fff;fill-rule:nonzero;"/><path d="M89.527,86.128" style="fill:#fff;fill-rule:nonzero;"/></g><path d="M104.222,73.759c-0.693,0 -1.435,0.445 -1.633,1.138l-0.049,0.247l-4.849,28.499l-0.049,0.347c-0.099,0.89 0.544,1.237 1.286,1.237l4.354,0c0.792,0 1.385,-0.495 1.484,-1.287l0,0.05c0,0 1.831,-10.737 1.93,-11.331c0.594,0 8.362,0 8.362,0c0.791,0 1.583,-0.494 1.682,-1.286l0,0.049l0.693,-4.057l0,-0.198c0,-0.742 -0.743,-1.237 -1.534,-1.237c0,0 -7.026,0 -8.065,0c0.148,-0.94 0.841,-4.848 0.94,-5.343c0.594,0 10.341,0 10.341,0c0.792,0 1.534,-0.495 1.633,-1.287l0,0.05l0.643,-3.909l0.049,-0.396c0,-0.742 -0.742,-1.237 -1.533,-1.237l-15.685,0l0,-0.049Z" style="fill:#fff;fill-rule:nonzero;"/></g></g></g></svg>