<svg id="Lag_1" data-name="Lag 1" xmlns="http://www.w3.org/2000/svg" xmlns:xlink="http://www.w3.org/1999/xlink" viewBox="0 0 358.33 366.84"><defs><style>.cls-1,.cls-5,.cls-6,.cls-8{fill:none;}.cls-1,.cls-5,.cls-6{stroke:#540d1a;}.cls-1,.cls-2,.cls-5,.cls-6,.cls-7,.cls-8{stroke-linecap:round;stroke-linejoin:round;stroke-width:3px;}.cls-1{clip-rule:evenodd;}.cls-2{fill:#a71933;}.cls-2,.cls-8{stroke:#570d1b;}.cls-2,.cls-3,.cls-6,.cls-7{fill-rule:evenodd;}.cls-3{fill:#701122;}.cls-4{clip-path:url(#clip-path);}.cls-7{fill:#8f162c;stroke:#701122;}.cls-9{fill:#b01a34;}</style><clipPath id="clip-path" transform="translate(-758.3 -54.81)"><path class="cls-1" d="M932,114.3c-53.32,0-75-8.82-75-8.82s-9.38,45.19-54,51.65c0,194.9,129,222.55,129,222.55S1061,352,1061,157.13c-44.6-6.47-54-51.65-54-51.65S985.27,114.3,932,114.3Z"/></clipPath></defs><title>coat of arms s</title><path class="cls-2" d="M932,73.18c-40.81,0-98.84-16.87-98.84-16.87s-3.95,74.26-51.21,66.05c0,248.38,150,297.79,150,297.79s150-49.4,150-297.79c-47.26,8.21-51.21-66.05-51.21-66.05s-58,16.87-98.84,16.87" transform="translate(-758.3 -54.81)"/><path class="cls-3" d="M932,113.23c-53.32,0-75-8.82-75-8.82s-9.38,45.19-54,51.65c0,194.9,129,222.55,129,222.55S1061,351,1061,156.07c-44.6-6.47-54-51.65-54-51.65s-21.71,8.82-75,8.82" transform="translate(-758.3 -54.81)"/><g class="cls-4"><path class="cls-5" d="M760.17,95.17c-3.4,20.07,17.84,27,16.95.17" transform="translate(-758.3 -54.81)"/><path class="cls-5" d="M777.51,95.17c-3.4,20.07,17.84,27,16.95.17" transform="translate(-758.3 -54.81)"/><path class="cls-5" d="M794.86,95.17c-3.4,20.07,17.84,27,16.95.17" transform="translate(-758.3 -54.81)"/><path class="cls-5" d="M812.2,95.17c-3.4,20.07,17.84,27,16.95.17" transform="translate(-758.3 -54.81)"/><path class="cls-5" d="M829.55,95.17c-3.4,20.07,17.84,27,16.95.17" transform="translate(-758.3 -54.81)"/><path class="cls-5" d="M846.89,95.17c-3.4,20.07,17.84,27,16.95.17" transform="translate(-758.3 -54.81)"/><path class="cls-5" d="M864.23,95.17c-3.4,20.07,17.84,27,16.95.17" transform="translate(-758.3 -54.81)"/><path class="cls-5" d="M881.58,95.17c-3.4,20.07,17.84,27,16.95.17" transform="translate(-758.3 -54.81)"/><path class="cls-5" d="M898.92,95.17c-3.4,20.07,17.84,27,16.95.17" transform="translate(-758.3 -54.81)"/><path class="cls-5" d="M916.26,95.17c-3.4,20.07,17.84,27,16.95.17" transform="translate(-758.3 -54.81)"/><path class="cls-5" d="M760.17,130.74c-3.4,20.07,17.84,27,16.95.17" transform="translate(-758.3 -54.81)"/><path class="cls-5" d="M777.51,130.74c-3.4,20.07,17.84,27,16.95.17" transform="translate(-758.3 -54.81)"/><path class="cls-5" d="M794.86,130.74c-3.4,20.07,17.84,27,16.95.17" transform="translate(-758.3 -54.81)"/><path class="cls-5" d="M812.2,130.74c-3.4,20.07,17.84,27,16.95.17" transform="translate(-758.3 -54.81)"/><path class="cls-5" d="M829.55,130.74c-3.4,20.07,17.84,27,16.95.17" transform="translate(-758.3 -54.81)"/><path class="cls-5" d="M846.89,130.74c-3.4,20.07,17.84,27,16.95.17" transform="translate(-758.3 -54.81)"/><path class="cls-5" d="M864.23,130.74c-3.4,20.07,17.84,27,16.95.17" transform="translate(-758.3 -54.81)"/><path class="cls-5" d="M881.58,130.74c-3.4,20.07,17.84,27,16.95.17" transform="translate(-758.3 -54.81)"/><path class="cls-5" d="M898.92,130.74c-3.4,20.07,17.84,27,16.95.17" transform="translate(-758.3 -54.81)"/><path class="cls-5" d="M916.26,130.74c-3.4,20.07,17.84,27,16.95.17" transform="translate(-758.3 -54.81)"/><path class="cls-5" d="M760.17,166.3c-3.4,20.07,17.84,27,16.95.17" transform="translate(-758.3 -54.81)"/><path class="cls-5" d="M777.51,166.3c-3.4,20.07,17.84,27,16.95.17" transform="translate(-758.3 -54.81)"/><path class="cls-5" d="M794.86,166.3c-3.4,20.07,17.84,27,16.95.17" transform="translate(-758.3 -54.81)"/><path class="cls-5" d="M812.2,166.3c-3.4,20.07,17.84,27,16.95.17" transform="translate(-758.3 -54.81)"/><path class="cls-5" d="M829.55,166.3c-3.4,20.07,17.84,27,16.95.17" transform="translate(-758.3 -54.81)"/><path class="cls-5" d="M846.89,166.3c-3.4,20.07,17.84,27,16.95.17" transform="translate(-758.3 -54.81)"/><path class="cls-5" d="M864.23,166.3c-3.4,20.07,17.84,27,16.95.17" transform="translate(-758.3 -54.81)"/><path class="cls-5" d="M881.58,166.3c-3.4,20.07,17.84,27,16.95.17" transform="translate(-758.3 -54.81)"/><path class="cls-5" d="M898.92,166.3c-3.4,20.07,17.84,27,16.95.17" transform="translate(-758.3 -54.81)"/><path class="cls-5" d="M916.26,166.3c-3.4,20.07,17.84,27,16.95.17" transform="translate(-758.3 -54.81)"/><path class="cls-5" d="M760.17,201.86c-3.4,20.07,17.84,27,16.95.17" transform="translate(-758.3 -54.81)"/><path class="cls-5" d="M777.51,201.86c-3.4,20.07,17.84,27,16.95.17" transform="translate(-758.3 -54.81)"/><path class="cls-5" d="M794.86,201.86c-3.4,20.07,17.84,27,16.95.17" transform="translate(-758.3 -54.81)"/><path class="cls-5" d="M812.2,201.86c-3.4,20.07,17.84,27,16.95.17" transform="translate(-758.3 -54.81)"/><path class="cls-5" d="M829.55,201.86c-3.4,20.07,17.84,27,16.95.17" transform="translate(-758.3 -54.81)"/><path class="cls-5" d="M846.89,201.86c-3.4,20.07,17.84,27,16.95.17" transform="translate(-758.3 -54.81)"/><path class="cls-5" d="M864.23,201.86c-3.4,20.07,17.84,27,16.95.17" transform="translate(-758.3 -54.81)"/><path class="cls-5" d="M881.58,201.86c-3.4,20.07,17.84,27,16.95.17" transform="translate(-758.3 -54.81)"/><path class="cls-5" d="M898.92,201.86c-3.4,20.07,17.84,27,16.95.17" transform="translate(-758.3 -54.81)"/><path class="cls-5" d="M916.26,201.86c-3.4,20.07,17.84,27,16.95.17" transform="translate(-758.3 -54.81)"/><path class="cls-5" d="M760.17,237.43c-3.4,20.07,17.84,27,16.95.17" transform="translate(-758.3 -54.81)"/><path class="cls-5" d="M777.51,237.43c-3.4,20.07,17.84,27,16.95.17" transform="translate(-758.3 -54.81)"/><path class="cls-5" d="M794.86,237.43c-3.4,20.07,17.84,27,16.95.17" transform="translate(-758.3 -54.81)"/><path class="cls-5" d="M812.2,237.43c-3.4,20.07,17.84,27,16.95.17" transform="translate(-758.3 -54.81)"/><path class="cls-5" d="M829.55,237.43c-3.4,20.07,17.84,27,16.95.17" transform="translate(-758.3 -54.81)"/><path class="cls-5" d="M846.89,237.43c-3.4,20.07,17.84,27,16.95.17" transform="translate(-758.3 -54.81)"/><path class="cls-5" d="M864.23,237.43c-3.4,20.07,17.84,27,16.95.17" transform="translate(-758.3 -54.81)"/><path class="cls-5" d="M881.58,237.43c-3.4,20.07,17.84,27,16.95.17" transform="translate(-758.3 -54.81)"/><path class="cls-5" d="M898.92,237.43c-3.4,20.07,17.84,27,16.95.17" transform="translate(-758.3 -54.81)"/><path class="cls-5" d="M916.26,237.43c-3.4,20.07,17.84,27,16.95.17" transform="translate(-758.3 -54.81)"/><path class="cls-5" d="M760.17,273c-3.4,20.07,17.84,27,16.95.17" transform="translate(-758.3 -54.81)"/><path class="cls-5" d="M777.51,273c-3.4,20.07,17.84,27,16.95.17" transform="translate(-758.3 -54.81)"/><path class="cls-5" d="M794.86,273c-3.4,20.07,17.84,27,16.95.17" transform="translate(-758.3 -54.81)"/><path class="cls-5" d="M812.2,273c-3.4,20.07,17.84,27,16.95.17" transform="translate(-758.3 -54.81)"/><path class="cls-5" d="M829.55,273c-3.4,20.07,17.84,27,16.95.17" transform="translate(-758.3 -54.81)"/><path class="cls-5" d="M846.89,273c-3.4,20.07,17.84,27,16.95.17" transform="translate(-758.3 -54.81)"/><path class="cls-5" d="M864.23,273c-3.4,20.07,17.84,27,16.95.17" transform="translate(-758.3 -54.81)"/><path class="cls-5" d="M881.58,273c-3.4,20.07,17.84,27,16.95.17" transform="translate(-758.3 -54.81)"/><path class="cls-5" d="M898.92,273c-3.4,20.07,17.84,27,16.95.17" transform="translate(-758.3 -54.81)"/><path class="cls-5" d="M916.26,273c-3.4,20.07,17.84,27,16.95.17" transform="translate(-758.3 -54.81)"/><path class="cls-5" d="M760.17,308.55c-3.4,20.07,17.84,27,16.95.17" transform="translate(-758.3 -54.81)"/><path class="cls-5" d="M777.51,308.55c-3.4,20.07,17.84,27,16.95.17" transform="translate(-758.3 -54.81)"/><path class="cls-5" d="M794.86,308.55c-3.4,20.07,17.84,27,16.95.17" transform="translate(-758.3 -54.81)"/><path class="cls-5" d="M812.2,308.55c-3.4,20.07,17.84,27,16.95.17" transform="translate(-758.3 -54.81)"/><path class="cls-5" d="M829.55,308.55c-3.4,20.07,17.84,27,16.95.17" transform="translate(-758.3 -54.81)"/><path class="cls-5" d="M846.89,308.55c-3.4,20.07,17.84,27,16.95.17" transform="translate(-758.3 -54.81)"/><path class="cls-5" d="M864.23,308.55c-3.4,20.07,17.84,27,16.95.17" transform="translate(-758.3 -54.81)"/><path class="cls-5" d="M881.58,308.55c-3.4,20.07,17.84,27,16.95.17" transform="translate(-758.3 -54.81)"/><path class="cls-5" d="M898.92,308.55c-3.4,20.07,17.84,27,16.95.17" transform="translate(-758.3 -54.81)"/><path class="cls-5" d="M916.26,308.55c-3.4,20.07,17.84,27,16.95.17" transform="translate(-758.3 -54.81)"/><path class="cls-5" d="M760.17,344.12c-3.4,20.07,17.84,27,16.95.17" transform="translate(-758.3 -54.81)"/><path class="cls-5" d="M777.51,344.12c-3.4,20.07,17.84,27,16.95.17" transform="translate(-758.3 -54.81)"/><path class="cls-5" d="M794.86,344.12c-3.4,20.07,17.84,27,16.95.17" transform="translate(-758.3 -54.81)"/><path class="cls-5" d="M812.2,344.12c-3.4,20.07,17.84,27,16.95.17" transform="translate(-758.3 -54.81)"/><path class="cls-5" d="M829.55,344.12c-3.4,20.07,17.84,27,16.95.17" transform="translate(-758.3 -54.81)"/><path class="cls-5" d="M846.89,344.12c-3.4,20.07,17.84,27,16.95.17" transform="translate(-758.3 -54.81)"/><path class="cls-5" d="M864.23,344.12c-3.4,20.07,17.84,27,16.95.17" transform="translate(-758.3 -54.81)"/><path class="cls-5" d="M881.58,344.12c-3.4,20.07,17.84,27,16.95.17" transform="translate(-758.3 -54.81)"/><path class="cls-5" d="M898.92,344.12c-3.4,20.07,17.84,27,16.95.17" transform="translate(-758.3 -54.81)"/><path class="cls-5" d="M916.26,344.12c-3.4,20.07,17.84,27,16.95.17" transform="translate(-758.3 -54.81)"/><path class="cls-5" d="M768.63,113c-3.4,20.07,17.84,27,16.95.17" transform="translate(-758.3 -54.81)"/><path class="cls-5" d="M786,113c-3.4,20.07,17.84,27,16.95.17" transform="translate(-758.3 -54.81)"/><path class="cls-5" d="M803.31,113c-3.4,20.07,17.84,27,16.95.17" transform="translate(-758.3 -54.81)"/><path class="cls-5" d="M820.66,113c-3.4,20.07,17.84,27,16.95.17" transform="translate(-758.3 -54.81)"/><path class="cls-5" d="M838,113c-3.4,20.07,17.84,27,16.95.17" transform="translate(-758.3 -54.81)"/><path class="cls-5" d="M855.35,113c-3.4,20.07,17.84,27,16.95.17" transform="translate(-758.3 -54.81)"/><path class="cls-5" d="M872.69,113c-3.4,20.07,17.84,27,16.95.17" transform="translate(-758.3 -54.81)"/><path class="cls-5" d="M890,113c-3.4,20.07,17.84,27,16.95.17" transform="translate(-758.3 -54.81)"/><path class="cls-5" d="M907.38,113c-3.4,20.07,17.84,27,16.95.17" transform="translate(-758.3 -54.81)"/><path class="cls-5" d="M924.72,113c-3.4,20.07,17.84,27,16.95.17" transform="translate(-758.3 -54.81)"/><path class="cls-5" d="M768.63,148.52c-3.4,20.07,17.84,27,16.95.17" transform="translate(-758.3 -54.81)"/><path class="cls-5" d="M786,148.52c-3.4,20.07,17.84,27,16.95.17" transform="translate(-758.3 -54.81)"/><path class="cls-5" d="M803.31,148.52c-3.4,20.07,17.84,27,16.95.17" transform="translate(-758.3 -54.81)"/><path class="cls-5" d="M820.66,148.52c-3.4,20.07,17.84,27,16.95.17" transform="translate(-758.3 -54.81)"/><path class="cls-5" d="M838,148.52c-3.4,20.07,17.84,27,16.95.17" transform="translate(-758.3 -54.81)"/><path class="cls-5" d="M855.35,148.52c-3.4,20.07,17.84,27,16.95.17" transform="translate(-758.3 -54.81)"/><path class="cls-5" d="M872.69,148.52c-3.4,20.07,17.84,27,16.95.17" transform="translate(-758.3 -54.81)"/><path class="cls-5" d="M890,148.52c-3.4,20.07,17.84,27,16.95.17" transform="translate(-758.3 -54.81)"/><path class="cls-5" d="M907.38,148.52c-3.4,20.07,17.84,27,16.95.17" transform="translate(-758.3 -54.81)"/><path class="cls-5" d="M924.72,148.52c-3.4,20.07,17.84,27,16.95.17" transform="translate(-758.3 -54.81)"/><path class="cls-5" d="M768.63,184.08c-3.4,20.07,17.84,27,16.95.17" transform="translate(-758.3 -54.81)"/><path class="cls-5" d="M786,184.08c-3.4,20.07,17.84,27,16.95.17" transform="translate(-758.3 -54.81)"/><path class="cls-5" d="M803.31,184.08c-3.4,20.07,17.84,27,16.95.17" transform="translate(-758.3 -54.81)"/><path class="cls-5" d="M820.66,184.08c-3.4,20.07,17.84,27,16.95.17" transform="translate(-758.3 -54.81)"/><path class="cls-5" d="M838,184.08c-3.4,20.07,17.84,27,16.95.17" transform="translate(-758.3 -54.81)"/><path class="cls-5" d="M855.35,184.08c-3.4,20.07,17.84,27,16.95.17" transform="translate(-758.3 -54.81)"/><path class="cls-5" d="M872.69,184.08c-3.4,20.07,17.84,27,16.95.17" transform="translate(-758.3 -54.81)"/><path class="cls-5" d="M890,184.08c-3.4,20.07,17.84,27,16.95.17" transform="translate(-758.3 -54.81)"/><path class="cls-5" d="M907.38,184.08c-3.4,20.07,17.84,27,16.95.17" transform="translate(-758.3 -54.81)"/><path class="cls-5" d="M924.72,184.08c-3.4,20.07,17.84,27,16.95.17" transform="translate(-758.3 -54.81)"/><path class="cls-5" d="M768.63,219.64c-3.4,20.07,17.84,27,16.95.17" transform="translate(-758.3 -54.81)"/><path class="cls-5" d="M786,219.64c-3.4,20.07,17.84,27,16.95.17" transform="translate(-758.3 -54.81)"/><path class="cls-5" d="M803.31,219.64c-3.4,20.07,17.84,27,16.95.17" transform="translate(-758.3 -54.81)"/><path class="cls-5" d="M820.66,219.64c-3.4,20.07,17.84,27,16.95.17" transform="translate(-758.3 -54.81)"/><path class="cls-5" d="M838,219.64c-3.4,20.07,17.84,27,16.95.17" transform="translate(-758.3 -54.81)"/><path class="cls-5" d="M855.35,219.64c-3.4,20.07,17.84,27,16.95.17" transform="translate(-758.3 -54.81)"/><path class="cls-5" d="M872.69,219.64c-3.4,20.07,17.84,27,16.95.17" transform="translate(-758.3 -54.81)"/><path class="cls-5" d="M890,219.64c-3.4,20.07,17.84,27,16.95.17" transform="translate(-758.3 -54.81)"/><path class="cls-5" d="M907.38,219.64c-3.4,20.07,17.84,27,16.95.17" transform="translate(-758.3 -54.81)"/><path class="cls-5" d="M924.72,219.64c-3.4,20.07,17.84,27,16.95.17" transform="translate(-758.3 -54.81)"/><path class="cls-5" d="M768.63,255.21c-3.4,20.07,17.84,27,16.95.17" transform="translate(-758.3 -54.81)"/><path class="cls-5" d="M786,255.21c-3.4,20.07,17.84,27,16.95.17" transform="translate(-758.3 -54.81)"/><path class="cls-5" d="M803.31,255.21c-3.4,20.07,17.84,27,16.95.17" transform="translate(-758.3 -54.81)"/><path class="cls-5" d="M820.66,255.21c-3.4,20.07,17.84,27,16.95.17" transform="translate(-758.3 -54.81)"/><path class="cls-5" d="M838,255.21c-3.4,20.07,17.84,27,16.95.17" transform="translate(-758.3 -54.81)"/><path class="cls-5" d="M855.35,255.21c-3.4,20.07,17.84,27,16.95.17" transform="translate(-758.3 -54.81)"/><path class="cls-5" d="M872.69,255.21c-3.4,20.07,17.84,27,16.95.17" transform="translate(-758.3 -54.81)"/><path class="cls-5" d="M890,255.21c-3.4,20.07,17.84,27,16.95.17" transform="translate(-758.3 -54.81)"/><path class="cls-5" d="M907.38,255.21c-3.4,20.07,17.84,27,16.95.17" transform="translate(-758.3 -54.81)"/><path class="cls-5" d="M924.72,255.21c-3.4,20.07,17.84,27,16.95.17" transform="translate(-758.3 -54.81)"/><path class="cls-5" d="M768.63,290.77c-3.4,20.07,17.84,27,16.95.17" transform="translate(-758.3 -54.81)"/><path class="cls-5" d="M786,290.77c-3.4,20.07,17.84,27,16.95.17" transform="translate(-758.3 -54.81)"/><path class="cls-5" d="M803.31,290.77c-3.4,20.07,17.84,27,16.95.17" transform="translate(-758.3 -54.81)"/><path class="cls-5" d="M820.66,290.77c-3.4,20.07,17.84,27,16.95.17" transform="translate(-758.3 -54.81)"/><path class="cls-5" d="M838,290.77c-3.4,20.07,17.84,27,16.95.17" transform="translate(-758.3 -54.81)"/><path class="cls-5" d="M855.35,290.77c-3.4,20.07,17.84,27,16.95.17" transform="translate(-758.3 -54.81)"/><path class="cls-5" d="M872.69,290.77c-3.4,20.07,17.84,27,16.95.17" transform="translate(-758.3 -54.81)"/><path class="cls-5" d="M890,290.77c-3.4,20.07,17.84,27,16.95.17" transform="translate(-758.3 -54.81)"/><path class="cls-5" d="M907.38,290.77c-3.4,20.07,17.84,27,16.95.17" transform="translate(-758.3 -54.81)"/><path class="cls-5" d="M924.72,290.77c-3.4,20.07,17.84,27,16.95.17" transform="translate(-758.3 -54.81)"/><path class="cls-5" d="M768.63,326.33c-3.4,20.07,17.84,27,16.95.17" transform="translate(-758.3 -54.81)"/><path class="cls-5" d="M786,326.33c-3.4,20.07,17.84,27,16.95.17" transform="translate(-758.3 -54.81)"/><path class="cls-5" d="M803.31,326.33c-3.4,20.07,17.84,27,16.95.17" transform="translate(-758.3 -54.81)"/><path class="cls-5" d="M820.66,326.33c-3.4,20.07,17.84,27,16.95.17" transform="translate(-758.3 -54.81)"/><path class="cls-5" d="M838,326.33c-3.4,20.07,17.84,27,16.95.17" transform="translate(-758.3 -54.81)"/><path class="cls-5" d="M855.35,326.33c-3.4,20.07,17.84,27,16.95.17" transform="translate(-758.3 -54.81)"/><path class="cls-5" d="M872.69,326.33c-3.4,20.07,17.84,27,16.95.17" transform="translate(-758.3 -54.81)"/><path class="cls-5" d="M890,326.33c-3.4,20.07,17.84,27,16.95.17" transform="translate(-758.3 -54.81)"/><path class="cls-5" d="M907.38,326.33c-3.4,20.07,17.84,27,16.95.17" transform="translate(-758.3 -54.81)"/><path class="cls-5" d="M924.72,326.33c-3.4,20.07,17.84,27,16.95.17" transform="translate(-758.3 -54.81)"/><path class="cls-5" d="M768.63,361.9c-3.4,20.07,17.84,27,16.95.17" transform="translate(-758.3 -54.81)"/><path class="cls-5" d="M786,361.9c-3.4,20.07,17.84,27,16.95.17" transform="translate(-758.3 -54.81)"/><path class="cls-5" d="M803.31,361.9c-3.4,20.07,17.84,27,16.95.17" transform="translate(-758.3 -54.81)"/><path class="cls-5" d="M820.66,361.9c-3.4,20.07,17.84,27,16.95.17" transform="translate(-758.3 -54.81)"/><path class="cls-5" d="M838,361.9c-3.4,20.07,17.84,27,16.95.17" transform="translate(-758.3 -54.81)"/><path class="cls-5" d="M855.35,361.9c-3.4,20.07,17.84,27,16.95.17" transform="translate(-758.3 -54.81)"/><path class="cls-5" d="M872.69,361.9c-3.4,20.07,17.84,27,16.95.17" transform="translate(-758.3 -54.81)"/><path class="cls-5" d="M890,361.9c-3.4,20.07,17.84,27,16.95.17" transform="translate(-758.3 -54.81)"/><path class="cls-5" d="M907.38,361.9c-3.4,20.07,17.84,27,16.95.17" transform="translate(-758.3 -54.81)"/><path class="cls-5" d="M924.72,361.9c-3.4,20.07,17.84,27,16.95.17" transform="translate(-758.3 -54.81)"/><path class="cls-5" d="M933.61,95.17c-3.4,20.07,17.84,27,16.95.17" transform="translate(-758.3 -54.81)"/><path class="cls-5" d="M951,95.17c-3.4,20.07,17.84,27,16.95.17" transform="translate(-758.3 -54.81)"/><path class="cls-5" d="M968.3,95.17c-3.4,20.07,17.84,27,16.95.17" transform="translate(-758.3 -54.81)"/><path class="cls-5" d="M985.64,95.17c-3.4,20.07,17.84,27,16.95.17" transform="translate(-758.3 -54.81)"/><path class="cls-5" d="M1003,95.17c-3.4,20.07,17.84,27,16.95.17" transform="translate(-758.3 -54.81)"/><path class="cls-5" d="M1020.33,95.17c-3.4,20.07,17.84,27,16.95.17" transform="translate(-758.3 -54.81)"/><path class="cls-5" d="M1037.67,95.17c-3.4,20.07,17.84,27,16.95.17" transform="translate(-758.3 -54.81)"/><path class="cls-5" d="M1055,95.17c-3.4,20.07,17.84,27,16.95.17" transform="translate(-758.3 -54.81)"/><path class="cls-5" d="M1072.36,95.17c-3.4,20.07,17.84,27,16.95.17" transform="translate(-758.3 -54.81)"/><path class="cls-5" d="M1089.7,95.17c-3.4,20.07,17.84,27,16.95.17" transform="translate(-758.3 -54.81)"/><path class="cls-5" d="M933.61,130.74c-3.4,20.07,17.84,27,16.95.17" transform="translate(-758.3 -54.81)"/><path class="cls-5" d="M951,130.74c-3.4,20.07,17.84,27,16.95.17" transform="translate(-758.3 -54.81)"/><path class="cls-5" d="M968.3,130.74c-3.4,20.07,17.84,27,16.95.17" transform="translate(-758.3 -54.81)"/><path class="cls-5" d="M985.64,130.74c-3.4,20.07,17.84,27,16.95.17" transform="translate(-758.3 -54.81)"/><path class="cls-5" d="M1003,130.74c-3.4,20.07,17.84,27,16.95.17" transform="translate(-758.3 -54.81)"/><path class="cls-5" d="M1020.33,130.74c-3.4,20.07,17.84,27,16.95.17" transform="translate(-758.3 -54.81)"/><path class="cls-5" d="M1037.67,130.74c-3.4,20.07,17.84,27,16.95.17" transform="translate(-758.3 -54.81)"/><path class="cls-5" d="M1055,130.74c-3.4,20.07,17.84,27,16.95.17" transform="translate(-758.3 -54.81)"/><path class="cls-5" d="M1072.36,130.74c-3.4,20.07,17.84,27,16.95.17" transform="translate(-758.3 -54.81)"/><path class="cls-5" d="M1089.7,130.74c-3.4,20.07,17.84,27,16.95.17" transform="translate(-758.3 -54.81)"/><path class="cls-5" d="M933.61,166.3c-3.4,20.07,17.84,27,16.95.17" transform="translate(-758.3 -54.81)"/><path class="cls-5" d="M951,166.3c-3.4,20.07,17.84,27,16.95.17" transform="translate(-758.3 -54.81)"/><path class="cls-5" d="M968.3,166.3c-3.4,20.07,17.84,27,16.95.17" transform="translate(-758.3 -54.81)"/><path class="cls-5" d="M985.64,166.3c-3.4,20.07,17.84,27,16.95.17" transform="translate(-758.3 -54.81)"/><path class="cls-5" d="M1003,166.3c-3.4,20.07,17.84,27,16.95.17" transform="translate(-758.3 -54.81)"/><path class="cls-5" d="M1020.33,166.3c-3.4,20.07,17.84,27,16.95.17" transform="translate(-758.3 -54.81)"/><path class="cls-5" d="M1037.67,166.3c-3.4,20.07,17.84,27,16.95.17" transform="translate(-758.3 -54.81)"/><path class="cls-5" d="M1055,166.3c-3.4,20.07,17.84,27,16.95.17" transform="translate(-758.3 -54.81)"/><path class="cls-5" d="M1072.36,166.3c-3.4,20.07,17.84,27,16.95.17" transform="translate(-758.3 -54.81)"/><path class="cls-5" d="M1089.7,166.3c-3.4,20.07,17.84,27,16.95.17" transform="translate(-758.3 -54.81)"/><path class="cls-5" d="M933.61,201.86c-3.4,20.07,17.84,27,16.95.17" transform="translate(-758.3 -54.81)"/><path class="cls-5" d="M951,201.86c-3.4,20.07,17.84,27,16.95.17" transform="translate(-758.3 -54.81)"/><path class="cls-5" d="M968.3,201.86c-3.4,20.07,17.84,27,16.95.17" transform="translate(-758.3 -54.81)"/><path class="cls-5" d="M985.64,201.86c-3.4,20.07,17.84,27,16.95.17" transform="translate(-758.3 -54.81)"/><path class="cls-5" d="M1003,201.86c-3.4,20.07,17.84,27,16.95.17" transform="translate(-758.3 -54.81)"/><path class="cls-5" d="M1020.33,201.86c-3.4,20.07,17.84,27,16.95.17" transform="translate(-758.3 -54.81)"/><path class="cls-5" d="M1037.67,201.86c-3.4,20.07,17.84,27,16.95.17" transform="translate(-758.3 -54.81)"/><path class="cls-5" d="M1055,201.86c-3.4,20.07,17.84,27,16.95.17" transform="translate(-758.3 -54.81)"/><path class="cls-5" d="M1072.36,201.86c-3.4,20.07,17.84,27,16.95.17" transform="translate(-758.3 -54.81)"/><path class="cls-5" d="M1089.7,201.86c-3.4,20.07,17.84,27,16.95.17" transform="translate(-758.3 -54.81)"/><path class="cls-5" d="M933.61,237.43c-3.4,20.07,17.84,27,16.95.17" transform="translate(-758.3 -54.81)"/><path class="cls-5" d="M951,237.43c-3.4,20.07,17.84,27,16.95.17" transform="translate(-758.3 -54.81)"/><path class="cls-5" d="M968.3,237.43c-3.4,20.07,17.84,27,16.95.17" transform="translate(-758.3 -54.81)"/><path class="cls-5" d="M985.64,237.43c-3.4,20.07,17.84,27,16.95.17" transform="translate(-758.3 -54.81)"/><path class="cls-5" d="M1003,237.43c-3.4,20.07,17.84,27,16.95.17" transform="translate(-758.3 -54.81)"/><path class="cls-5" d="M1020.33,237.43c-3.4,20.07,17.84,27,16.95.17" transform="translate(-758.3 -54.81)"/><path class="cls-5" d="M1037.67,237.43c-3.4,20.07,17.84,27,16.95.17" transform="translate(-758.3 -54.81)"/><path class="cls-5" d="M1055,237.43c-3.4,20.07,17.84,27,16.95.17" transform="translate(-758.3 -54.81)"/><path class="cls-5" d="M1072.36,237.43c-3.4,20.07,17.84,27,16.95.17" transform="translate(-758.3 -54.81)"/><path class="cls-5" d="M1089.7,237.43c-3.4,20.07,17.84,27,16.95.17" transform="translate(-758.3 -54.81)"/><path class="cls-5" d="M933.61,273c-3.4,20.07,17.84,27,16.95.17" transform="translate(-758.3 -54.81)"/><path class="cls-5" d="M951,273c-3.4,20.07,17.84,27,16.95.17" transform="translate(-758.3 -54.81)"/><path class="cls-5" d="M968.3,273c-3.4,20.07,17.84,27,16.95.17" transform="translate(-758.3 -54.81)"/><path class="cls-5" d="M985.64,273c-3.4,20.07,17.84,27,16.95.17" transform="translate(-758.3 -54.81)"/><path class="cls-5" d="M1003,273c-3.4,20.07,17.84,27,16.95.17" transform="translate(-758.3 -54.81)"/><path class="cls-5" d="M1020.33,273c-3.4,20.07,17.84,27,16.95.17" transform="translate(-758.3 -54.81)"/><path class="cls-5" d="M1037.67,273c-3.4,20.07,17.84,27,16.95.17" transform="translate(-758.3 -54.81)"/><path class="cls-5" d="M1055,273c-3.4,20.07,17.84,27,16.95.17" transform="translate(-758.3 -54.81)"/><path class="cls-5" d="M1072.36,273c-3.4,20.07,17.84,27,16.95.17" transform="translate(-758.3 -54.81)"/><path class="cls-5" d="M1089.7,273c-3.4,20.07,17.84,27,16.95.17" transform="translate(-758.3 -54.81)"/><path class="cls-5" d="M933.61,308.55c-3.4,20.07,17.84,27,16.95.17" transform="translate(-758.3 -54.81)"/><path class="cls-5" d="M951,308.55c-3.4,20.07,17.84,27,16.95.17" transform="translate(-758.3 -54.81)"/><path class="cls-5" d="M968.3,308.55c-3.4,20.07,17.84,27,16.95.17" transform="translate(-758.3 -54.81)"/><path class="cls-5" d="M985.64,308.55c-3.4,20.07,17.84,27,16.95.17" transform="translate(-758.3 -54.81)"/><path class="cls-5" d="M1003,308.55c-3.4,20.07,17.84,27,16.95.17" transform="translate(-758.3 -54.81)"/><path class="cls-5" d="M1020.33,308.55c-3.4,20.07,17.84,27,16.95.17" transform="translate(-758.3 -54.81)"/><path class="cls-5" d="M1037.67,308.55c-3.4,20.07,17.84,27,16.95.17" transform="translate(-758.3 -54.81)"/><path class="cls-5" d="M1055,308.55c-3.4,20.07,17.84,27,16.95.17" transform="translate(-758.3 -54.81)"/><path class="cls-5" d="M1072.36,308.55c-3.4,20.07,17.84,27,16.95.17" transform="translate(-758.3 -54.81)"/><path class="cls-5" d="M1089.7,308.55c-3.4,20.07,17.84,27,16.95.17" transform="translate(-758.3 -54.81)"/><path class="cls-5" d="M933.61,344.12c-3.4,20.07,17.84,27,16.95.17" transform="translate(-758.3 -54.81)"/><path class="cls-5" d="M951,344.12c-3.4,20.07,17.84,27,16.95.17" transform="translate(-758.3 -54.81)"/><path class="cls-5" d="M968.3,344.12c-3.4,20.07,17.84,27,16.95.17" transform="translate(-758.3 -54.81)"/><path class="cls-5" d="M985.64,344.12c-3.4,20.07,17.84,27,16.95.17" transform="translate(-758.3 -54.81)"/><path class="cls-5" d="M1003,344.12c-3.4,20.07,17.84,27,16.95.17" transform="translate(-758.3 -54.81)"/><path class="cls-5" d="M1020.33,344.12c-3.4,20.07,17.84,27,16.95.17" transform="translate(-758.3 -54.81)"/><path class="cls-5" d="M1037.67,344.12c-3.4,20.07,17.84,27,16.95.17" transform="translate(-758.3 -54.81)"/><path class="cls-5" d="M1055,344.12c-3.4,20.07,17.84,27,16.95.17" transform="translate(-758.3 -54.81)"/><path class="cls-5" d="M1072.36,344.12c-3.4,20.07,17.84,27,16.95.17" transform="translate(-758.3 -54.81)"/><path class="cls-5" d="M1089.7,344.12c-3.4,20.07,17.84,27,16.95.17" transform="translate(-758.3 -54.81)"/><path class="cls-5" d="M942.06,113c-3.4,20.07,17.84,27,16.95.17" transform="translate(-758.3 -54.81)"/><path class="cls-5" d="M959.41,113c-3.4,20.07,17.84,27,16.95.17" transform="translate(-758.3 -54.81)"/><path class="cls-5" d="M976.75,113c-3.4,20.07,17.84,27,16.95.17" transform="translate(-758.3 -54.81)"/><path class="cls-5" d="M994.1,113c-3.4,20.07,17.84,27,16.95.17" transform="translate(-758.3 -54.81)"/><path class="cls-5" d="M1011.44,113c-3.4,20.07,17.84,27,16.95.17" transform="translate(-758.3 -54.81)"/><path class="cls-5" d="M1028.78,113c-3.4,20.07,17.84,27,16.95.17" transform="translate(-758.3 -54.81)"/><path class="cls-5" d="M1046.13,113c-3.4,20.07,17.84,27,16.95.17" transform="translate(-758.3 -54.81)"/><path class="cls-5" d="M1063.47,113c-3.4,20.07,17.84,27,16.95.17" transform="translate(-758.3 -54.81)"/><path class="cls-5" d="M1080.82,113c-3.4,20.07,17.84,27,16.95.17" transform="translate(-758.3 -54.81)"/><path class="cls-5" d="M1098.16,113c-3.4,20.07,17.84,27,16.95.17" transform="translate(-758.3 -54.81)"/><path class="cls-5" d="M942.06,148.52c-3.4,20.07,17.84,27,16.95.17" transform="translate(-758.3 -54.81)"/><path class="cls-5" d="M959.41,148.52c-3.4,20.07,17.84,27,16.95.17" transform="translate(-758.3 -54.81)"/><path class="cls-5" d="M976.75,148.52c-3.4,20.07,17.84,27,16.95.17" transform="translate(-758.3 -54.81)"/><path class="cls-5" d="M994.1,148.52c-3.4,20.07,17.84,27,16.95.17" transform="translate(-758.3 -54.81)"/><path class="cls-5" d="M1011.44,148.52c-3.4,20.07,17.84,27,16.95.17" transform="translate(-758.3 -54.81)"/><path class="cls-5" d="M1028.78,148.52c-3.4,20.07,17.84,27,16.95.17" transform="translate(-758.3 -54.81)"/><path class="cls-5" d="M1046.13,148.52c-3.4,20.07,17.84,27,16.95.17" transform="translate(-758.3 -54.81)"/><path class="cls-5" d="M1063.47,148.52c-3.4,20.07,17.84,27,16.95.17" transform="translate(-758.3 -54.81)"/><path class="cls-5" d="M1080.82,148.52c-3.4,20.07,17.84,27,16.95.17" transform="translate(-758.3 -54.81)"/><path class="cls-5" d="M1098.16,148.52c-3.4,20.07,17.84,27,16.95.17" transform="translate(-758.3 -54.81)"/><path class="cls-5" d="M942.06,184.08c-3.4,20.07,17.84,27,16.95.17" transform="translate(-758.3 -54.81)"/><path class="cls-5" d="M959.41,184.08c-3.4,20.07,17.84,27,16.95.17" transform="translate(-758.3 -54.81)"/><path class="cls-5" d="M976.75,184.08c-3.4,20.07,17.84,27,16.95.17" transform="translate(-758.3 -54.81)"/><path class="cls-5" d="M994.1,184.08c-3.4,20.07,17.84,27,16.95.17" transform="translate(-758.3 -54.81)"/><path class="cls-5" d="M1011.44,184.08c-3.4,20.07,17.84,27,16.95.17" transform="translate(-758.3 -54.81)"/><path class="cls-5" d="M1028.78,184.08c-3.4,20.07,17.84,27,16.95.17" transform="translate(-758.3 -54.81)"/><path class="cls-5" d="M1046.13,184.08c-3.4,20.07,17.84,27,16.95.17" transform="translate(-758.3 -54.81)"/><path class="cls-5" d="M1063.47,184.08c-3.4,20.07,17.84,27,16.95.17" transform="translate(-758.3 -54.81)"/><path class="cls-5" d="M1080.82,184.08c-3.4,20.07,17.84,27,16.95.17" transform="translate(-758.3 -54.81)"/><path class="cls-5" d="M1098.16,184.08c-3.4,20.07,17.84,27,16.95.17" transform="translate(-758.3 -54.81)"/><path class="cls-5" d="M942.06,219.65c-3.4,20.07,17.84,27,16.95.17" transform="translate(-758.3 -54.81)"/><path class="cls-5" d="M959.41,219.65c-3.4,20.07,17.84,27,16.95.17" transform="translate(-758.3 -54.81)"/><path class="cls-5" d="M976.75,219.65c-3.4,20.07,17.84,27,16.95.17" transform="translate(-758.3 -54.81)"/><path class="cls-5" d="M994.1,219.65c-3.4,20.07,17.84,27,16.95.17" transform="translate(-758.3 -54.81)"/><path class="cls-5" d="M1011.44,219.65c-3.4,20.07,17.84,27,16.95.17" transform="translate(-758.3 -54.81)"/><path class="cls-5" d="M1028.78,219.65c-3.4,20.07,17.84,27,16.95.17" transform="translate(-758.3 -54.81)"/><path class="cls-5" d="M1046.13,219.65c-3.4,20.07,17.84,27,16.95.17" transform="translate(-758.3 -54.81)"/><path class="cls-5" d="M1063.47,219.65c-3.4,20.07,17.84,27,16.95.17" transform="translate(-758.3 -54.81)"/><path class="cls-5" d="M1080.82,219.65c-3.4,20.07,17.84,27,16.95.17" transform="translate(-758.3 -54.81)"/><path class="cls-5" d="M1098.16,219.65c-3.4,20.07,17.84,27,16.95.17" transform="translate(-758.3 -54.81)"/><path class="cls-5" d="M942.06,255.21c-3.4,20.07,17.84,27,16.95.17" transform="translate(-758.3 -54.81)"/><path class="cls-5" d="M959.41,255.21c-3.4,20.07,17.84,27,16.95.17" transform="translate(-758.3 -54.81)"/><path class="cls-5" d="M976.75,255.21c-3.4,20.07,17.84,27,16.95.17" transform="translate(-758.3 -54.81)"/><path class="cls-5" d="M994.1,255.21c-3.4,20.07,17.84,27,16.95.17" transform="translate(-758.3 -54.81)"/><path class="cls-5" d="M1011.44,255.21c-3.4,20.07,17.84,27,16.95.17" transform="translate(-758.3 -54.81)"/><path class="cls-5" d="M1028.78,255.21c-3.4,20.07,17.84,27,16.95.17" transform="translate(-758.3 -54.81)"/><path class="cls-5" d="M1046.13,255.21c-3.4,20.07,17.84,27,16.95.17" transform="translate(-758.3 -54.81)"/><path class="cls-5" d="M1063.47,255.21c-3.4,20.07,17.84,27,16.95.17" transform="translate(-758.3 -54.81)"/><path class="cls-5" d="M1080.82,255.21c-3.4,20.07,17.84,27,16.95.17" transform="translate(-758.3 -54.81)"/><path class="cls-5" d="M1098.16,255.21c-3.4,20.07,17.84,27,16.95.17" transform="translate(-758.3 -54.81)"/><path class="cls-5" d="M942.06,290.77c-3.4,20.07,17.84,27,16.95.17" transform="translate(-758.3 -54.81)"/><path class="cls-5" d="M959.41,290.77c-3.4,20.07,17.84,27,16.95.17" transform="translate(-758.3 -54.81)"/><path class="cls-5" d="M976.75,290.77c-3.4,20.07,17.84,27,16.95.17" transform="translate(-758.3 -54.81)"/><path class="cls-5" d="M994.1,290.77c-3.4,20.07,17.84,27,16.95.17" transform="translate(-758.3 -54.81)"/><path class="cls-5" d="M1011.44,290.77c-3.4,20.07,17.84,27,16.95.17" transform="translate(-758.3 -54.81)"/><path class="cls-5" d="M1028.78,290.77c-3.4,20.07,17.84,27,16.95.17" transform="translate(-758.3 -54.81)"/><path class="cls-5" d="M1046.13,290.77c-3.4,20.07,17.84,27,16.95.17" transform="translate(-758.3 -54.81)"/><path class="cls-5" d="M1063.47,290.77c-3.4,20.07,17.84,27,16.95.17" transform="translate(-758.3 -54.81)"/><path class="cls-5" d="M1080.82,290.77c-3.4,20.07,17.84,27,16.95.17" transform="translate(-758.3 -54.81)"/><path class="cls-5" d="M1098.16,290.77c-3.4,20.07,17.84,27,16.95.17" transform="translate(-758.3 -54.81)"/><path class="cls-5" d="M942.06,326.33c-3.4,20.07,17.84,27,16.95.17" transform="translate(-758.3 -54.81)"/><path class="cls-5" d="M959.41,326.33c-3.4,20.07,17.84,27,16.95.17" transform="translate(-758.3 -54.81)"/><path class="cls-5" d="M976.75,326.33c-3.4,20.07,17.84,27,16.95.17" transform="translate(-758.3 -54.81)"/><path class="cls-5" d="M994.1,326.33c-3.4,20.07,17.84,27,16.95.17" transform="translate(-758.3 -54.81)"/><path class="cls-5" d="M1011.44,326.33c-3.4,20.07,17.84,27,16.95.17" transform="translate(-758.3 -54.81)"/><path class="cls-5" d="M1028.78,326.33c-3.4,20.07,17.84,27,16.95.17" transform="translate(-758.3 -54.81)"/><path class="cls-5" d="M1046.13,326.33c-3.4,20.07,17.84,27,16.95.17" transform="translate(-758.3 -54.81)"/><path class="cls-5" d="M1063.47,326.33c-3.4,20.07,17.84,27,16.95.17" transform="translate(-758.3 -54.81)"/><path class="cls-5" d="M1080.82,326.33c-3.4,20.07,17.84,27,16.95.17" transform="translate(-758.3 -54.81)"/><path class="cls-5" d="M1098.16,326.33c-3.4,20.07,17.84,27,16.95.17" transform="translate(-758.3 -54.81)"/><path class="cls-5" d="M942.06,361.9c-3.4,20.07,17.84,27,16.95.17" transform="translate(-758.3 -54.81)"/><path class="cls-5" d="M959.41,361.9c-3.4,20.07,17.84,27,16.95.17" transform="translate(-758.3 -54.81)"/><path class="cls-5" d="M976.75,361.9c-3.4,20.07,17.84,27,16.95.17" transform="translate(-758.3 -54.81)"/><path class="cls-5" d="M994.1,361.9c-3.4,20.07,17.84,27,16.95.17" transform="translate(-758.3 -54.81)"/><path class="cls-5" d="M1011.44,361.9c-3.4,20.07,17.84,27,16.95.17" transform="translate(-758.3 -54.81)"/><path class="cls-5" d="M1028.78,361.9c-3.4,20.07,17.84,27,16.95.17" transform="translate(-758.3 -54.81)"/><path class="cls-5" d="M1046.13,361.9c-3.4,20.07,17.84,27,16.95.17" transform="translate(-758.3 -54.81)"/><path class="cls-5" d="M1063.47,361.9c-3.4,20.07,17.84,27,16.95.17" transform="translate(-758.3 -54.81)"/><path class="cls-5" d="M1080.82,361.9c-3.4,20.07,17.84,27,16.95.17" transform="translate(-758.3 -54.81)"/><path class="cls-5" d="M1098.16,361.9c-3.4,20.07,17.84,27,16.95.17" transform="translate(-758.3 -54.81)"/></g><path class="cls-6" d="M932,114.3c-53.32,0-75-8.82-75-8.82s-9.38,45.19-54,51.65c0,194.9,129,222.55,129,222.55S1061,352,1061,157.13c-44.6-6.47-54-51.65-54-51.65S985.27,114.3,932,114.3Z" transform="translate(-758.3 -54.81)"/><path class="cls-7" d="M792.59,130.56c3.82-1.82,8.69.4,10.87,5s.83,9.74-3,11.56-8.69-.4-10.87-5-.83-9.74,3-11.56Z" transform="translate(-758.3 -54.81)"/><path class="cls-7" d="M795.22,136.09a3.07,3.07,0,1,1-1,3.82,2.81,2.81,0,0,1,1-3.82Z" transform="translate(-758.3 -54.81)"/><path class="cls-7" d="M1071.32,130.56c-3.82-1.82-8.69.4-10.87,5s-.83,9.74,3,11.56,8.69-.4,10.87-5,.83-9.74-3-11.56Z" transform="translate(-758.3 -54.81)"/><path class="cls-7" d="M1068.76,135.92a3.25,3.25,0,1,0,1,4,3,3,0,0,0-1-4Z" transform="translate(-758.3 -54.81)"/><path class="cls-7" d="M848.92,69a11.77,11.77,0,1,1-11.77,11.77A11.78,11.78,0,0,1,848.92,69Z" transform="translate(-758.3 -54.81)"/><path class="cls-7" d="M848.92,76.72a4.06,4.06,0,1,1-4.06,4.06,4.06,4.06,0,0,1,4.06-4.06Z" transform="translate(-758.3 -54.81)"/><path class="cls-7" d="M1015,69a11.77,11.77,0,1,0,11.77,11.77A11.78,11.78,0,0,0,1015,69Z" transform="translate(-758.3 -54.81)"/><path class="cls-7" d="M1015,76.72a4.06,4.06,0,1,0,4.06,4.06,4.06,4.06,0,0,0-4.06-4.06Z" transform="translate(-758.3 -54.81)"/><path class="cls-7" d="M932,80.86a11.77,11.77,0,1,0,11.77,11.77A11.78,11.78,0,0,0,932,80.86Z" transform="translate(-758.3 -54.81)"/><path class="cls-7" d="M932,89a3.63,3.63,0,1,0,3.63,3.63A3.63,3.63,0,0,0,932,89Z" transform="translate(-758.3 -54.81)"/><path class="cls-7" d="M932,386.62a11.77,11.77,0,1,0,11.77,11.77A11.78,11.78,0,0,0,932,386.62Z" transform="translate(-758.3 -54.81)"/><path class="cls-7" d="M932,394.05a4.34,4.34,0,1,0,4.34,4.34,4.34,4.34,0,0,0-4.34-4.34Z" transform="translate(-758.3 -54.81)"/><path class="cls-8" d="M932,113.23c-53.32,0-75-8.82-75-8.82s-9.38,45.19-54,51.65c0,194.9,129,222.55,129,222.55S1061,351,1061,156.07c-44.6-6.47-54-51.65-54-51.65s-21.71,8.82-75,8.82" transform="translate(-758.3 -54.81)"/><path class="cls-9" d="M857,224.89a4.13,4.13,0,0,1-2.85-4.38v-17.7a8.68,8.68,0,0,1,2.47-5.52l12-10.28a11.34,11.34,0,0,1,6.09-2.28H889.9a6.34,6.34,0,0,0,6.28-6.28v-7.8a3.48,3.48,0,0,1,2.47-3.24l26.07-6.28a16.51,16.51,0,0,1,6.85.38l17.89,6.66a1.47,1.47,0,0,0,.57.19,17.87,17.87,0,0,1,3.43,2.66l9.71,10.85c2.28,2.47,4.95,3,8,1.52l2.47-1.14c1.14-.57,2.28,0,3.43,1.33l22.46,25.31a3.42,3.42,0,0,1,.19,4l-24,32.16a6.88,6.88,0,0,1-5.14,2.66h-5.71l6.09-8.56a18.34,18.34,0,0,0,2.85-8.75V210.62a13,13,0,0,0-3.62-8.56l-15.6-15.79c-3.24-3.43-4.38-4.76-10.85-4.76H924.53a10.63,10.63,0,0,0-8.18,4.57l-1.14,1.9H905.12c-4.19-.19-6.47,1-8.56,4.19v.19l-8.75,15.22-.19.19a4.84,4.84,0,0,0-.38,1.33l-3,27.78a26,26,0,0,0-.38,3.62" transform="translate(-758.3 -54.81)"/><path class="cls-9" d="M955.55,207.38c-3-3.43-7-7.61-6.85-7.42-2.28-2.28-4.38-3.62-7.23-3.62H930.24a5.35,5.35,0,0,0-4.95,2.66s-5.52,9.13-5.52,9.32c-1.52,2.85-1.33,5.9,2.47,7.8,2.28,1,7.61,3.43,10.47,4.38,4,1.52,6.85,2.09,9.13-1.14l3-4.19c2.47-3.24,1.33-4.76-.38-6.47a33.11,33.11,0,0,0-2.85-2.85c-.57-.57-.76-.57-2.09-.57H938c-.76,0-1.14.57-.19,1.52,0,0,2.09,2.47,3,3.43,1,1.14,1,1.71,0,3l-2.28,3.43c-1.14,1.52-1.71,1.71-4,.57l-10.28-4.38c-1.33-.76-1.33-1.52-.57-3.24.19-.19,4.76-8,4.95-8.18.38-.76.76-1,1.9-1h11c1.71,0,3,.76,4.57,2.28,0,0,5.9,6.47,6.28,6.85,1.52,1.52,1.9,2.66,1.9,9.13v9.13c-2.28-.57-4.76-1.33-4.95-1.33a15.86,15.86,0,0,0-8.94-.19l-11.42,3.81-22.46-10.66.76-4.76a15.93,15.93,0,0,1,2.66-7l11.61-18.46a7.09,7.09,0,0,1,5.14-2.85h19.41a5.45,5.45,0,0,1,4,1.52l15.6,15.6a9.85,9.85,0,0,1,2.66,6.28v19.79a8.53,8.53,0,0,1-.19,2.09l-.19.57-9.51-2.85v-9.52c0-5.9,0-9.13-3-12.56" transform="translate(-758.3 -54.81)"/><path class="cls-9" d="M905.12,204.72a26,26,0,0,0-3,8.37l-.57,4-.57-.38-7-3.43a2.42,2.42,0,0,1-1.33-2.09l.19-1.14,8.75-15c1.14-1.71,2.28-2.47,5.52-2.47h5.71" transform="translate(-758.3 -54.81)"/><path class="cls-9" d="M892.94,216.33l1,.57,30.83,14.84-22.46,6.85a9.56,9.56,0,0,0-5.9,6.47l-3,13.7-2.85-10.47a28.28,28.28,0,0,1-.38-9.9l2.28-21.69.19-.76" transform="translate(-758.3 -54.81)"/><path class="cls-9" d="M901.69,247a6.8,6.8,0,0,1,3.62-4l38.44-11.8a13.12,13.12,0,0,1,6.66.19h.19l15,4.19-.19.19-8.75,12H932.14a18.46,18.46,0,0,0-8.75,2.47l-25.5,14.46" transform="translate(-758.3 -54.81)"/><path class="cls-9" d="M926.43,314.33a3.48,3.48,0,0,1-3.81,1s-42.82-21.88-50.81-26.07A15.53,15.53,0,0,1,868,285l-14.65-33.11a5.88,5.88,0,0,1-.38-1.52c0-1,.57-1.52,1.33-2.28.38-.19,14.27-7,18.65-9.32l11,6.47v-.19l.57,2.85c0,.19,4.95,17.32,5.71,20.36v.57l-6.09,3.43a7,7,0,0,0-3.43,5.9c0,1.52.76,4.38,4.95,6.47a9.89,9.89,0,0,1,1,.57l1.14.57s31.59,16.18,42.82,21.88" transform="translate(-758.3 -54.81)"/><path class="cls-9" d="M1010.36,241.07l-14.08,4.57a17.89,17.89,0,0,0-7.61,5.33l-17.13,23a17,17,0,0,1-5.52,4.19l-24.36,8.94a9.5,9.5,0,0,1-6.09-.38s-22.46-12-23.41-12.56c-1.33-.76-2.28-.57-2.28.57s0,1.71,2.28,3,23.79,13.51,23.79,13.51a13.13,13.13,0,0,0,9.32.57l24.55-8.94a21.06,21.06,0,0,0,7.42-5.52l16.18-21.69L997,270a9.66,9.66,0,0,1-1,6.09l-13.89,19.41c-2.47,3.24-3.62,3.81-8,4.76-.19,0-38.82,4.57-40,4.57-1.33-.57-38.25-19.41-45.48-23-1.14-.76-1.71-1.52-1.71-2.47a2.58,2.58,0,0,1,1.33-2.09l39-22.27a17.61,17.61,0,0,1,7-1.9h38.44a12.3,12.3,0,0,0,8.37-4.19s9.13-12,16-21.31l13.32,12.75c.38.38.38.57.38.57,0-.19-.19,0-.57.19" transform="translate(-758.3 -54.81)"/></svg>