<?xml version="1.0" encoding="UTF-8" standalone="no"?><!DOCTYPE svg PUBLIC "-//W3C//DTD SVG 1.1//EN" "http://www.w3.org/Graphics/SVG/1.1/DTD/svg11.dtd"><svg width="100%" height="100%" viewBox="0 0 205 210" version="1.1" xmlns="http://www.w3.org/2000/svg" xmlns:xlink="http://www.w3.org/1999/xlink" xml:space="preserve" style="fill-rule:evenodd;clip-rule:evenodd;stroke-linecap:round;stroke-linejoin:round;stroke-miterlimit:10;"><g><path d="M99.162,10.506c-23.296,0 -56.413,-9.65 -56.413,-9.65c0,0 -2.227,42.425 -29.234,37.742c0,141.833 85.647,170.039 85.647,170.039c0,0 85.648,-28.206 85.648,-170.039c-27.008,4.683 -29.234,-37.742 -29.234,-37.742c0,0 -33.117,9.65 -56.414,9.65" style="fill:#666;stroke:#4d4d4d;stroke-width:1.71px;"/><path d="M99.162,33.345c-30.433,0 -42.823,-5.024 -42.823,-5.024c0,0 -5.368,25.808 -30.833,29.52c0,111.284 73.656,127.043 73.656,127.043c0,0 73.657,-15.816 73.657,-127.043c-25.466,-3.712 -30.833,-29.52 -30.833,-29.52c0,0 -12.39,5.024 -42.824,5.024" style="fill:#262626;"/><g><g><clipPath id="_clip1"><path d="M99.162,33.974c-30.433,0 -42.823,-5.025 -42.823,-5.025c0,0 -5.368,25.808 -30.833,29.52c0,111.284 73.656,127.043 73.656,127.043c0,0 73.657,-15.816 73.657,-127.043c-25.466,-3.712 -30.833,-29.52 -30.833,-29.52c0,0 -12.39,5.025 -42.824,5.025Z"/></clipPath><g clip-path="url(#_clip1)"><g><path d="M1.068,23.068c-1.942,11.476 10.163,15.416 9.649,0.114" style="fill:none;stroke:#404040;stroke-width:1.71px;"/><path d="M10.946,23.068c-1.942,11.476 10.163,15.416 9.649,0.114" style="fill:none;stroke:#404040;stroke-width:1.71px;"/><path d="M20.881,23.068c-1.942,11.476 10.163,15.416 9.649,0.114" style="fill:none;stroke:#404040;stroke-width:1.71px;"/><path d="M30.759,23.068c-1.942,11.476 10.163,15.416 9.649,0.114" style="fill:none;stroke:#404040;stroke-width:1.71px;"/><path d="M40.637,23.068c-1.942,11.476 10.163,15.416 9.649,0.114" style="fill:none;stroke:#404040;stroke-width:1.71px;"/><path d="M50.572,23.068c-1.942,11.476 10.163,15.416 9.649,0.114" style="fill:none;stroke:#404040;stroke-width:1.71px;"/><path d="M60.45,23.068c-1.942,11.476 10.163,15.416 9.649,0.114" style="fill:none;stroke:#404040;stroke-width:1.71px;"/><path d="M70.385,23.068c-1.941,11.476 10.163,15.416 9.649,0.114" style="fill:none;stroke:#404040;stroke-width:1.71px;"/><path d="M80.263,23.068c-1.941,11.476 10.163,15.416 9.649,0.114" style="fill:none;stroke:#404040;stroke-width:1.71px;"/><path d="M90.198,23.068c-1.941,11.476 10.163,15.416 9.65,0.114" style="fill:none;stroke:#404040;stroke-width:1.71px;"/><path d="M1.068,43.338c-1.942,11.476 10.163,15.416 9.649,0.114" style="fill:none;stroke:#404040;stroke-width:1.71px;"/><path d="M10.946,43.338c-1.942,11.476 10.163,15.416 9.649,0.114" style="fill:none;stroke:#404040;stroke-width:1.71px;"/><path d="M20.881,43.338c-1.942,11.476 10.163,15.416 9.649,0.114" style="fill:none;stroke:#404040;stroke-width:1.71px;"/><path d="M30.759,43.338c-1.942,11.476 10.163,15.416 9.649,0.114" style="fill:none;stroke:#404040;stroke-width:1.71px;"/><path d="M40.637,43.338c-1.942,11.476 10.163,15.416 9.649,0.114" style="fill:none;stroke:#404040;stroke-width:1.71px;"/><path d="M50.572,43.338c-1.942,11.476 10.163,15.416 9.649,0.114" style="fill:none;stroke:#404040;stroke-width:1.71px;"/><path d="M60.45,43.338c-1.942,11.476 10.163,15.416 9.649,0.114" style="fill:none;stroke:#404040;stroke-width:1.71px;"/><path d="M70.385,43.338c-1.941,11.476 10.163,15.416 9.649,0.114" style="fill:none;stroke:#404040;stroke-width:1.71px;"/><path d="M80.263,43.338c-1.941,11.476 10.163,15.416 9.649,0.114" style="fill:none;stroke:#404040;stroke-width:1.71px;"/><path d="M90.198,43.338c-1.941,11.476 10.163,15.416 9.65,0.114" style="fill:none;stroke:#404040;stroke-width:1.71px;"/><path d="M1.068,63.665c-1.942,11.476 10.163,15.416 9.649,0.114" style="fill:none;stroke:#404040;stroke-width:1.71px;"/><path d="M10.946,63.665c-1.942,11.476 10.163,15.416 9.649,0.114" style="fill:none;stroke:#404040;stroke-width:1.71px;"/><path d="M20.881,63.665c-1.942,11.476 10.163,15.416 9.649,0.114" style="fill:none;stroke:#404040;stroke-width:1.71px;"/><path d="M30.759,63.665c-1.942,11.476 10.163,15.416 9.649,0.114" style="fill:none;stroke:#404040;stroke-width:1.71px;"/><path d="M40.637,63.665c-1.942,11.476 10.163,15.416 9.649,0.114" style="fill:none;stroke:#404040;stroke-width:1.71px;"/><path d="M50.572,63.665c-1.942,11.476 10.163,15.416 9.649,0.114" style="fill:none;stroke:#404040;stroke-width:1.71px;"/><path d="M60.45,63.665c-1.942,11.476 10.163,15.416 9.649,0.114" style="fill:none;stroke:#404040;stroke-width:1.71px;"/><path d="M70.385,63.665c-1.941,11.476 10.163,15.416 9.649,0.114" style="fill:none;stroke:#404040;stroke-width:1.71px;"/><path d="M80.263,63.665c-1.941,11.476 10.163,15.416 9.649,0.114" style="fill:none;stroke:#404040;stroke-width:1.71px;"/><path d="M90.198,63.665c-1.941,11.476 10.163,15.416 9.65,0.114" style="fill:none;stroke:#404040;stroke-width:1.71px;"/><path d="M1.068,83.992c-1.942,11.476 10.163,15.416 9.649,0.114" style="fill:none;stroke:#404040;stroke-width:1.71px;"/><path d="M10.946,83.992c-1.942,11.476 10.163,15.416 9.649,0.114" style="fill:none;stroke:#404040;stroke-width:1.71px;"/><path d="M20.881,83.992c-1.942,11.476 10.163,15.416 9.649,0.114" style="fill:none;stroke:#404040;stroke-width:1.71px;"/><path d="M30.759,83.992c-1.942,11.476 10.163,15.416 9.649,0.114" style="fill:none;stroke:#404040;stroke-width:1.71px;"/><path d="M40.637,83.992c-1.942,11.476 10.163,15.416 9.649,0.114" style="fill:none;stroke:#404040;stroke-width:1.71px;"/><path d="M50.572,83.992c-1.942,11.476 10.163,15.416 9.649,0.114" style="fill:none;stroke:#404040;stroke-width:1.71px;"/><path d="M60.45,83.992c-1.942,11.476 10.163,15.416 9.649,0.114" style="fill:none;stroke:#404040;stroke-width:1.71px;"/><path d="M70.385,83.992c-1.941,11.476 10.163,15.416 9.649,0.114" style="fill:none;stroke:#404040;stroke-width:1.71px;"/><path d="M80.263,83.992c-1.941,11.476 10.163,15.416 9.649,0.114" style="fill:none;stroke:#404040;stroke-width:1.71px;"/><path d="M90.198,83.992c-1.941,11.476 10.163,15.416 9.65,0.114" style="fill:none;stroke:#404040;stroke-width:1.71px;"/><path d="M1.068,104.262c-1.942,11.476 10.163,15.416 9.649,0.114" style="fill:none;stroke:#404040;stroke-width:1.71px;"/><path d="M10.946,104.262c-1.942,11.476 10.163,15.416 9.649,0.114" style="fill:none;stroke:#404040;stroke-width:1.71px;"/><path d="M20.881,104.262c-1.942,11.476 10.163,15.416 9.649,0.114" style="fill:none;stroke:#404040;stroke-width:1.71px;"/><path d="M30.759,104.262c-1.942,11.476 10.163,15.416 9.649,0.114" style="fill:none;stroke:#404040;stroke-width:1.71px;"/><path d="M40.637,104.262c-1.942,11.476 10.163,15.416 9.649,0.114" style="fill:none;stroke:#404040;stroke-width:1.71px;"/><path d="M50.572,104.262c-1.942,11.476 10.163,15.416 9.649,0.114" style="fill:none;stroke:#404040;stroke-width:1.71px;"/><path d="M60.45,104.262c-1.942,11.476 10.163,15.416 9.649,0.114" style="fill:none;stroke:#404040;stroke-width:1.71px;"/><path d="M70.385,104.262c-1.941,11.476 10.163,15.416 9.649,0.114" style="fill:none;stroke:#404040;stroke-width:1.71px;"/><path d="M80.263,104.262c-1.941,11.476 10.163,15.416 9.649,0.114" style="fill:none;stroke:#404040;stroke-width:1.71px;"/><path d="M90.198,104.262c-1.941,11.476 10.163,15.416 9.65,0.114" style="fill:none;stroke:#404040;stroke-width:1.71px;"/><path d="M1.068,124.589c-1.942,11.476 10.163,15.416 9.649,0.114" style="fill:none;stroke:#404040;stroke-width:1.71px;"/><path d="M10.946,124.589c-1.942,11.476 10.163,15.416 9.649,0.114" style="fill:none;stroke:#404040;stroke-width:1.71px;"/><path d="M20.881,124.589c-1.942,11.476 10.163,15.416 9.649,0.114" style="fill:none;stroke:#404040;stroke-width:1.71px;"/><path d="M30.759,124.589c-1.942,11.476 10.163,15.416 9.649,0.114" style="fill:none;stroke:#404040;stroke-width:1.71px;"/><path d="M40.637,124.589c-1.942,11.476 10.163,15.416 9.649,0.114" style="fill:none;stroke:#404040;stroke-width:1.71px;"/><path d="M50.572,124.589c-1.942,11.476 10.163,15.416 9.649,0.114" style="fill:none;stroke:#404040;stroke-width:1.71px;"/><path d="M60.45,124.589c-1.942,11.476 10.163,15.416 9.649,0.114" style="fill:none;stroke:#404040;stroke-width:1.71px;"/><path d="M70.385,124.589c-1.941,11.476 10.163,15.416 9.649,0.114" style="fill:none;stroke:#404040;stroke-width:1.71px;"/><path d="M80.263,124.589c-1.941,11.476 10.163,15.416 9.649,0.114" style="fill:none;stroke:#404040;stroke-width:1.71px;"/><path d="M90.198,124.589c-1.941,11.476 10.163,15.416 9.65,0.114" style="fill:none;stroke:#404040;stroke-width:1.71px;"/><path d="M1.068,144.858c-1.942,11.477 10.163,15.417 9.649,0.115" style="fill:none;stroke:#404040;stroke-width:1.71px;"/><path d="M10.946,144.858c-1.942,11.477 10.163,15.417 9.649,0.115" style="fill:none;stroke:#404040;stroke-width:1.71px;"/><path d="M20.881,144.858c-1.942,11.477 10.163,15.417 9.649,0.115" style="fill:none;stroke:#404040;stroke-width:1.71px;"/><path d="M30.759,144.858c-1.942,11.477 10.163,15.417 9.649,0.115" style="fill:none;stroke:#404040;stroke-width:1.71px;"/><path d="M40.637,144.858c-1.942,11.477 10.163,15.417 9.649,0.115" style="fill:none;stroke:#404040;stroke-width:1.71px;"/><path d="M50.572,144.858c-1.942,11.477 10.163,15.417 9.649,0.115" style="fill:none;stroke:#404040;stroke-width:1.71px;"/><path d="M60.45,144.858c-1.942,11.477 10.163,15.417 9.649,0.115" style="fill:none;stroke:#404040;stroke-width:1.71px;"/><path d="M70.385,144.858c-1.941,11.477 10.163,15.417 9.649,0.115" style="fill:none;stroke:#404040;stroke-width:1.71px;"/><path d="M80.263,144.858c-1.941,11.477 10.163,15.417 9.649,0.115" style="fill:none;stroke:#404040;stroke-width:1.71px;"/><path d="M90.198,144.858c-1.941,11.477 10.163,15.417 9.65,0.115" style="fill:none;stroke:#404040;stroke-width:1.71px;"/><path d="M1.068,165.185c-1.942,11.477 10.163,15.417 9.649,0.115" style="fill:none;stroke:#404040;stroke-width:1.71px;"/><path d="M10.946,165.185c-1.942,11.477 10.163,15.417 9.649,0.115" style="fill:none;stroke:#404040;stroke-width:1.71px;"/><path d="M20.881,165.185c-1.942,11.477 10.163,15.417 9.649,0.115" style="fill:none;stroke:#404040;stroke-width:1.71px;"/><path d="M30.759,165.185c-1.942,11.477 10.163,15.417 9.649,0.115" style="fill:none;stroke:#404040;stroke-width:1.71px;"/><path d="M40.637,165.185c-1.942,11.477 10.163,15.417 9.649,0.115" style="fill:none;stroke:#404040;stroke-width:1.71px;"/><path d="M50.572,165.185c-1.942,11.477 10.163,15.417 9.649,0.115" style="fill:none;stroke:#404040;stroke-width:1.71px;"/><path d="M60.45,165.185c-1.942,11.477 10.163,15.417 9.649,0.115" style="fill:none;stroke:#404040;stroke-width:1.71px;"/><path d="M70.385,165.185c-1.941,11.477 10.163,15.417 9.649,0.115" style="fill:none;stroke:#404040;stroke-width:1.71px;"/><path d="M80.263,165.185c-1.941,11.477 10.163,15.417 9.649,0.115" style="fill:none;stroke:#404040;stroke-width:1.71px;"/><path d="M90.198,165.185c-1.941,11.477 10.163,15.417 9.65,0.115" style="fill:none;stroke:#404040;stroke-width:1.71px;"/><path d="M5.864,33.174c-1.942,11.477 10.163,15.417 9.649,0.114" style="fill:none;stroke:#404040;stroke-width:1.71px;"/><path d="M15.799,33.174c-1.941,11.477 10.163,15.417 9.649,0.114" style="fill:none;stroke:#404040;stroke-width:1.71px;"/><path d="M25.677,33.174c-1.941,11.477 10.163,15.417 9.65,0.114" style="fill:none;stroke:#404040;stroke-width:1.71px;"/><path d="M35.612,33.174c-1.941,11.477 10.163,15.417 9.65,0.114" style="fill:none;stroke:#404040;stroke-width:1.71px;"/><path d="M45.49,33.174c-1.941,11.477 10.164,15.417 9.65,0.114" style="fill:none;stroke:#404040;stroke-width:1.71px;"/><path d="M55.368,33.174c-1.941,11.477 10.164,15.417 9.65,0.114" style="fill:none;stroke:#404040;stroke-width:1.71px;"/><path d="M65.303,33.174c-1.941,11.477 10.164,15.417 9.65,0.114" style="fill:none;stroke:#404040;stroke-width:1.71px;"/><path d="M75.181,33.174c-1.941,11.477 10.164,15.417 9.65,0.114" style="fill:none;stroke:#404040;stroke-width:1.71px;"/><path d="M85.116,33.174c-1.941,11.477 10.164,15.417 9.65,0.114" style="fill:none;stroke:#404040;stroke-width:1.71px;"/><path d="M94.994,33.174c-1.941,11.477 10.164,15.417 9.65,0.114" style="fill:none;stroke:#404040;stroke-width:1.71px;"/><path d="M5.864,53.501c-1.942,11.477 10.163,15.417 9.649,0.114" style="fill:none;stroke:#404040;stroke-width:1.71px;"/><path d="M15.799,53.501c-1.941,11.477 10.163,15.417 9.649,0.114" style="fill:none;stroke:#404040;stroke-width:1.71px;"/><path d="M25.677,53.501c-1.941,11.477 10.163,15.417 9.65,0.114" style="fill:none;stroke:#404040;stroke-width:1.71px;"/><path d="M35.612,53.501c-1.941,11.477 10.163,15.417 9.65,0.114" style="fill:none;stroke:#404040;stroke-width:1.71px;"/><path d="M45.49,53.501c-1.941,11.477 10.164,15.417 9.65,0.114" style="fill:none;stroke:#404040;stroke-width:1.71px;"/><path d="M55.368,53.501c-1.941,11.477 10.164,15.417 9.65,0.114" style="fill:none;stroke:#404040;stroke-width:1.71px;"/><path d="M65.303,53.501c-1.941,11.477 10.164,15.417 9.65,0.114" style="fill:none;stroke:#404040;stroke-width:1.71px;"/><path d="M75.181,53.501c-1.941,11.477 10.164,15.417 9.65,0.114" style="fill:none;stroke:#404040;stroke-width:1.71px;"/><path d="M85.116,53.501c-1.941,11.477 10.164,15.417 9.65,0.114" style="fill:none;stroke:#404040;stroke-width:1.71px;"/><path d="M94.994,53.501c-1.941,11.477 10.164,15.417 9.65,0.114" style="fill:none;stroke:#404040;stroke-width:1.71px;"/><path d="M5.864,73.828c-1.942,11.477 10.163,15.417 9.649,0.114" style="fill:none;stroke:#404040;stroke-width:1.71px;"/><path d="M15.799,73.828c-1.941,11.477 10.163,15.417 9.649,0.114" style="fill:none;stroke:#404040;stroke-width:1.71px;"/><path d="M25.677,73.828c-1.941,11.477 10.163,15.417 9.65,0.114" style="fill:none;stroke:#404040;stroke-width:1.71px;"/><path d="M35.612,73.828c-1.941,11.477 10.163,15.417 9.65,0.114" style="fill:none;stroke:#404040;stroke-width:1.71px;"/><path d="M45.49,73.828c-1.941,11.477 10.164,15.417 9.65,0.114" style="fill:none;stroke:#404040;stroke-width:1.71px;"/><path d="M55.368,73.828c-1.941,11.477 10.164,15.417 9.65,0.114" style="fill:none;stroke:#404040;stroke-width:1.71px;"/><path d="M65.303,73.828c-1.941,11.477 10.164,15.417 9.65,0.114" style="fill:none;stroke:#404040;stroke-width:1.71px;"/><path d="M75.181,73.828c-1.941,11.477 10.164,15.417 9.65,0.114" style="fill:none;stroke:#404040;stroke-width:1.71px;"/><path d="M85.116,73.828c-1.941,11.477 10.164,15.417 9.65,0.114" style="fill:none;stroke:#404040;stroke-width:1.71px;"/><path d="M94.994,73.828c-1.941,11.477 10.164,15.417 9.65,0.114" style="fill:none;stroke:#404040;stroke-width:1.71px;"/><path d="M5.864,94.098c-1.942,11.477 10.163,15.417 9.649,0.114" style="fill:none;stroke:#404040;stroke-width:1.71px;"/><path d="M15.799,94.098c-1.941,11.477 10.163,15.417 9.649,0.114" style="fill:none;stroke:#404040;stroke-width:1.71px;"/><path d="M25.677,94.098c-1.941,11.477 10.163,15.417 9.65,0.114" style="fill:none;stroke:#404040;stroke-width:1.71px;"/><path d="M35.612,94.098c-1.941,11.477 10.163,15.417 9.65,0.114" style="fill:none;stroke:#404040;stroke-width:1.71px;"/><path d="M45.49,94.098c-1.941,11.477 10.164,15.417 9.65,0.114" style="fill:none;stroke:#404040;stroke-width:1.71px;"/><path d="M55.368,94.098c-1.941,11.477 10.164,15.417 9.65,0.114" style="fill:none;stroke:#404040;stroke-width:1.71px;"/><path d="M65.303,94.098c-1.941,11.477 10.164,15.417 9.65,0.114" style="fill:none;stroke:#404040;stroke-width:1.71px;"/><path d="M75.181,94.098c-1.941,11.477 10.164,15.417 9.65,0.114" style="fill:none;stroke:#404040;stroke-width:1.71px;"/><path d="M85.116,94.098c-1.941,11.477 10.164,15.417 9.65,0.114" style="fill:none;stroke:#404040;stroke-width:1.71px;"/><path d="M94.994,94.098c-1.941,11.477 10.164,15.417 9.65,0.114" style="fill:none;stroke:#404040;stroke-width:1.71px;"/><path d="M5.864,114.425c-1.942,11.477 10.163,15.417 9.649,0.114" style="fill:none;stroke:#404040;stroke-width:1.71px;"/><path d="M15.799,114.425c-1.941,11.477 10.163,15.417 9.649,0.114" style="fill:none;stroke:#404040;stroke-width:1.71px;"/><path d="M25.677,114.425c-1.941,11.477 10.163,15.417 9.65,0.114" style="fill:none;stroke:#404040;stroke-width:1.71px;"/><path d="M35.612,114.425c-1.941,11.477 10.163,15.417 9.65,0.114" style="fill:none;stroke:#404040;stroke-width:1.71px;"/><path d="M45.49,114.425c-1.941,11.477 10.164,15.417 9.65,0.114" style="fill:none;stroke:#404040;stroke-width:1.71px;"/><path d="M55.368,114.425c-1.941,11.477 10.164,15.417 9.65,0.114" style="fill:none;stroke:#404040;stroke-width:1.71px;"/><path d="M65.303,114.425c-1.941,11.477 10.164,15.417 9.65,0.114" style="fill:none;stroke:#404040;stroke-width:1.71px;"/><path d="M75.181,114.425c-1.941,11.477 10.164,15.417 9.65,0.114" style="fill:none;stroke:#404040;stroke-width:1.71px;"/><path d="M85.116,114.425c-1.941,11.477 10.164,15.417 9.65,0.114" style="fill:none;stroke:#404040;stroke-width:1.71px;"/><path d="M94.994,114.425c-1.941,11.477 10.164,15.417 9.65,0.114" style="fill:none;stroke:#404040;stroke-width:1.71px;"/><path d="M5.864,134.752c-1.942,11.477 10.163,15.417 9.649,0.114" style="fill:none;stroke:#404040;stroke-width:1.71px;"/><path d="M15.799,134.752c-1.941,11.477 10.163,15.417 9.649,0.114" style="fill:none;stroke:#404040;stroke-width:1.71px;"/><path d="M25.677,134.752c-1.941,11.477 10.163,15.417 9.65,0.114" style="fill:none;stroke:#404040;stroke-width:1.71px;"/><path d="M35.612,134.752c-1.941,11.477 10.163,15.417 9.65,0.114" style="fill:none;stroke:#404040;stroke-width:1.71px;"/><path d="M45.49,134.752c-1.941,11.477 10.164,15.417 9.65,0.114" style="fill:none;stroke:#404040;stroke-width:1.71px;"/><path d="M55.368,134.752c-1.941,11.477 10.164,15.417 9.65,0.114" style="fill:none;stroke:#404040;stroke-width:1.71px;"/><path d="M65.303,134.752c-1.941,11.477 10.164,15.417 9.65,0.114" style="fill:none;stroke:#404040;stroke-width:1.71px;"/><path d="M75.181,134.752c-1.941,11.477 10.164,15.417 9.65,0.114" style="fill:none;stroke:#404040;stroke-width:1.71px;"/><path d="M85.116,134.752c-1.941,11.477 10.164,15.417 9.65,0.114" style="fill:none;stroke:#404040;stroke-width:1.71px;"/><path d="M94.994,134.752c-1.941,11.477 10.164,15.417 9.65,0.114" style="fill:none;stroke:#404040;stroke-width:1.71px;"/><path d="M5.864,155.022c-1.942,11.477 10.163,15.416 9.649,0.114" style="fill:none;stroke:#404040;stroke-width:1.71px;"/><path d="M15.799,155.022c-1.941,11.477 10.163,15.416 9.649,0.114" style="fill:none;stroke:#404040;stroke-width:1.71px;"/><path d="M25.677,155.022c-1.941,11.477 10.163,15.416 9.65,0.114" style="fill:none;stroke:#404040;stroke-width:1.71px;"/><path d="M35.612,155.022c-1.941,11.477 10.163,15.416 9.65,0.114" style="fill:none;stroke:#404040;stroke-width:1.71px;"/><path d="M45.49,155.022c-1.941,11.477 10.164,15.416 9.65,0.114" style="fill:none;stroke:#404040;stroke-width:1.71px;"/><path d="M55.368,155.022c-1.941,11.477 10.164,15.416 9.65,0.114" style="fill:none;stroke:#404040;stroke-width:1.71px;"/><path d="M65.303,155.022c-1.941,11.477 10.164,15.416 9.65,0.114" style="fill:none;stroke:#404040;stroke-width:1.71px;"/><path d="M75.181,155.022c-1.941,11.477 10.164,15.416 9.65,0.114" style="fill:none;stroke:#404040;stroke-width:1.71px;"/><path d="M85.116,155.022c-1.941,11.477 10.164,15.416 9.65,0.114" style="fill:none;stroke:#404040;stroke-width:1.71px;"/><path d="M94.994,155.022c-1.941,11.477 10.164,15.416 9.65,0.114" style="fill:none;stroke:#404040;stroke-width:1.71px;"/><path d="M5.864,175.349c-1.942,11.477 10.163,15.416 9.649,0.114" style="fill:none;stroke:#404040;stroke-width:1.71px;"/><path d="M15.799,175.349c-1.941,11.477 10.163,15.416 9.649,0.114" style="fill:none;stroke:#404040;stroke-width:1.71px;"/><path d="M25.677,175.349c-1.941,11.477 10.163,15.416 9.65,0.114" style="fill:none;stroke:#404040;stroke-width:1.71px;"/><path d="M35.612,175.349c-1.941,11.477 10.163,15.416 9.65,0.114" style="fill:none;stroke:#404040;stroke-width:1.71px;"/><path d="M45.49,175.349c-1.941,11.477 10.164,15.416 9.65,0.114" style="fill:none;stroke:#404040;stroke-width:1.71px;"/><path d="M55.368,175.349c-1.941,11.477 10.164,15.416 9.65,0.114" style="fill:none;stroke:#404040;stroke-width:1.71px;"/><path d="M65.303,175.349c-1.941,11.477 10.164,15.416 9.65,0.114" style="fill:none;stroke:#404040;stroke-width:1.71px;"/><path d="M75.181,175.349c-1.941,11.477 10.164,15.416 9.65,0.114" style="fill:none;stroke:#404040;stroke-width:1.71px;"/><path d="M85.116,175.349c-1.941,11.477 10.164,15.416 9.65,0.114" style="fill:none;stroke:#404040;stroke-width:1.71px;"/><path d="M94.994,175.349c-1.941,11.477 10.164,15.416 9.65,0.114" style="fill:none;stroke:#404040;stroke-width:1.71px;"/></g><g><path d="M100.076,23.068c-1.941,11.476 10.164,15.416 9.65,0.114" style="fill:none;stroke:#404040;stroke-width:1.71px;"/><path d="M110.011,23.068c-1.941,11.476 10.164,15.416 9.65,0.114" style="fill:none;stroke:#404040;stroke-width:1.71px;"/><path d="M119.889,23.068c-1.941,11.476 10.164,15.416 9.65,0.114" style="fill:none;stroke:#404040;stroke-width:1.71px;"/><path d="M129.767,23.068c-1.941,11.476 10.164,15.416 9.65,0.114" style="fill:none;stroke:#404040;stroke-width:1.71px;"/><path d="M139.702,23.068c-1.941,11.476 10.164,15.416 9.65,0.114" style="fill:none;stroke:#404040;stroke-width:1.71px;"/><path d="M149.58,23.068c-1.941,11.476 10.164,15.416 9.65,0.114" style="fill:none;stroke:#404040;stroke-width:1.71px;"/><path d="M159.515,23.068c-1.941,11.476 10.164,15.416 9.65,0.114" style="fill:none;stroke:#404040;stroke-width:1.71px;"/><path d="M169.393,23.068c-1.941,11.476 10.164,15.416 9.65,0.114" style="fill:none;stroke:#404040;stroke-width:1.71px;"/><path d="M179.328,23.068c-1.941,11.476 10.164,15.416 9.65,0.114" style="fill:none;stroke:#404040;stroke-width:1.71px;"/><path d="M189.206,23.068c-1.941,11.476 10.164,15.416 9.65,0.114" style="fill:none;stroke:#404040;stroke-width:1.71px;"/><path d="M100.076,43.338c-1.941,11.476 10.164,15.416 9.65,0.114" style="fill:none;stroke:#404040;stroke-width:1.71px;"/><path d="M110.011,43.338c-1.941,11.476 10.164,15.416 9.65,0.114" style="fill:none;stroke:#404040;stroke-width:1.71px;"/><path d="M119.889,43.338c-1.941,11.476 10.164,15.416 9.65,0.114" style="fill:none;stroke:#404040;stroke-width:1.71px;"/><path d="M129.767,43.338c-1.941,11.476 10.164,15.416 9.65,0.114" style="fill:none;stroke:#404040;stroke-width:1.71px;"/><path d="M139.702,43.338c-1.941,11.476 10.164,15.416 9.65,0.114" style="fill:none;stroke:#404040;stroke-width:1.71px;"/><path d="M149.58,43.338c-1.941,11.476 10.164,15.416 9.65,0.114" style="fill:none;stroke:#404040;stroke-width:1.71px;"/><path d="M159.515,43.338c-1.941,11.476 10.164,15.416 9.65,0.114" style="fill:none;stroke:#404040;stroke-width:1.71px;"/><path d="M169.393,43.338c-1.941,11.476 10.164,15.416 9.65,0.114" style="fill:none;stroke:#404040;stroke-width:1.71px;"/><path d="M179.328,43.338c-1.941,11.476 10.164,15.416 9.65,0.114" style="fill:none;stroke:#404040;stroke-width:1.71px;"/><path d="M189.206,43.338c-1.941,11.476 10.164,15.416 9.65,0.114" style="fill:none;stroke:#404040;stroke-width:1.71px;"/><path d="M100.076,63.665c-1.941,11.476 10.164,15.416 9.65,0.114" style="fill:none;stroke:#404040;stroke-width:1.71px;"/><path d="M110.011,63.665c-1.941,11.476 10.164,15.416 9.65,0.114" style="fill:none;stroke:#404040;stroke-width:1.71px;"/><path d="M119.889,63.665c-1.941,11.476 10.164,15.416 9.65,0.114" style="fill:none;stroke:#404040;stroke-width:1.71px;"/><path d="M129.767,63.665c-1.941,11.476 10.164,15.416 9.65,0.114" style="fill:none;stroke:#404040;stroke-width:1.71px;"/><path d="M139.702,63.665c-1.941,11.476 10.164,15.416 9.65,0.114" style="fill:none;stroke:#404040;stroke-width:1.71px;"/><path d="M149.58,63.665c-1.941,11.476 10.164,15.416 9.65,0.114" style="fill:none;stroke:#404040;stroke-width:1.71px;"/><path d="M159.515,63.665c-1.941,11.476 10.164,15.416 9.65,0.114" style="fill:none;stroke:#404040;stroke-width:1.71px;"/><path d="M169.393,63.665c-1.941,11.476 10.164,15.416 9.65,0.114" style="fill:none;stroke:#404040;stroke-width:1.71px;"/><path d="M179.328,63.665c-1.941,11.476 10.164,15.416 9.65,0.114" style="fill:none;stroke:#404040;stroke-width:1.71px;"/><path d="M189.206,63.665c-1.941,11.476 10.164,15.416 9.65,0.114" style="fill:none;stroke:#404040;stroke-width:1.71px;"/><path d="M100.076,83.992c-1.941,11.476 10.164,15.416 9.65,0.114" style="fill:none;stroke:#404040;stroke-width:1.71px;"/><path d="M110.011,83.992c-1.941,11.476 10.164,15.416 9.65,0.114" style="fill:none;stroke:#404040;stroke-width:1.71px;"/><path d="M119.889,83.992c-1.941,11.476 10.164,15.416 9.65,0.114" style="fill:none;stroke:#404040;stroke-width:1.71px;"/><path d="M129.767,83.992c-1.941,11.476 10.164,15.416 9.65,0.114" style="fill:none;stroke:#404040;stroke-width:1.71px;"/><path d="M139.702,83.992c-1.941,11.476 10.164,15.416 9.65,0.114" style="fill:none;stroke:#404040;stroke-width:1.71px;"/><path d="M149.58,83.992c-1.941,11.476 10.164,15.416 9.65,0.114" style="fill:none;stroke:#404040;stroke-width:1.71px;"/><path d="M159.515,83.992c-1.941,11.476 10.164,15.416 9.65,0.114" style="fill:none;stroke:#404040;stroke-width:1.71px;"/><path d="M169.393,83.992c-1.941,11.476 10.164,15.416 9.65,0.114" style="fill:none;stroke:#404040;stroke-width:1.71px;"/><path d="M179.328,83.992c-1.941,11.476 10.164,15.416 9.65,0.114" style="fill:none;stroke:#404040;stroke-width:1.71px;"/><path d="M189.206,83.992c-1.941,11.476 10.164,15.416 9.65,0.114" style="fill:none;stroke:#404040;stroke-width:1.71px;"/><path d="M100.076,104.262c-1.941,11.476 10.164,15.416 9.65,0.114" style="fill:none;stroke:#404040;stroke-width:1.71px;"/><path d="M110.011,104.262c-1.941,11.476 10.164,15.416 9.65,0.114" style="fill:none;stroke:#404040;stroke-width:1.71px;"/><path d="M119.889,104.262c-1.941,11.476 10.164,15.416 9.65,0.114" style="fill:none;stroke:#404040;stroke-width:1.71px;"/><path d="M129.767,104.262c-1.941,11.476 10.164,15.416 9.65,0.114" style="fill:none;stroke:#404040;stroke-width:1.71px;"/><path d="M139.702,104.262c-1.941,11.476 10.164,15.416 9.65,0.114" style="fill:none;stroke:#404040;stroke-width:1.71px;"/><path d="M149.58,104.262c-1.941,11.476 10.164,15.416 9.65,0.114" style="fill:none;stroke:#404040;stroke-width:1.71px;"/><path d="M159.515,104.262c-1.941,11.476 10.164,15.416 9.65,0.114" style="fill:none;stroke:#404040;stroke-width:1.71px;"/><path d="M169.393,104.262c-1.941,11.476 10.164,15.416 9.65,0.114" style="fill:none;stroke:#404040;stroke-width:1.71px;"/><path d="M179.328,104.262c-1.941,11.476 10.164,15.416 9.65,0.114" style="fill:none;stroke:#404040;stroke-width:1.71px;"/><path d="M189.206,104.262c-1.941,11.476 10.164,15.416 9.65,0.114" style="fill:none;stroke:#404040;stroke-width:1.71px;"/><path d="M100.076,124.589c-1.941,11.476 10.164,15.416 9.65,0.114" style="fill:none;stroke:#404040;stroke-width:1.71px;"/><path d="M110.011,124.589c-1.941,11.476 10.164,15.416 9.65,0.114" style="fill:none;stroke:#404040;stroke-width:1.71px;"/><path d="M119.889,124.589c-1.941,11.476 10.164,15.416 9.65,0.114" style="fill:none;stroke:#404040;stroke-width:1.71px;"/><path d="M129.767,124.589c-1.941,11.476 10.164,15.416 9.65,0.114" style="fill:none;stroke:#404040;stroke-width:1.71px;"/><path d="M139.702,124.589c-1.941,11.476 10.164,15.416 9.65,0.114" style="fill:none;stroke:#404040;stroke-width:1.71px;"/><path d="M149.58,124.589c-1.941,11.476 10.164,15.416 9.65,0.114" style="fill:none;stroke:#404040;stroke-width:1.71px;"/><path d="M159.515,124.589c-1.941,11.476 10.164,15.416 9.65,0.114" style="fill:none;stroke:#404040;stroke-width:1.71px;"/><path d="M169.393,124.589c-1.941,11.476 10.164,15.416 9.65,0.114" style="fill:none;stroke:#404040;stroke-width:1.71px;"/><path d="M179.328,124.589c-1.941,11.476 10.164,15.416 9.65,0.114" style="fill:none;stroke:#404040;stroke-width:1.71px;"/><path d="M189.206,124.589c-1.941,11.476 10.164,15.416 9.65,0.114" style="fill:none;stroke:#404040;stroke-width:1.71px;"/><path d="M100.076,144.858c-1.941,11.477 10.164,15.417 9.65,0.115" style="fill:none;stroke:#404040;stroke-width:1.71px;"/><path d="M110.011,144.858c-1.941,11.477 10.164,15.417 9.65,0.115" style="fill:none;stroke:#404040;stroke-width:1.71px;"/><path d="M119.889,144.858c-1.941,11.477 10.164,15.417 9.65,0.115" style="fill:none;stroke:#404040;stroke-width:1.71px;"/><path d="M129.767,144.858c-1.941,11.477 10.164,15.417 9.65,0.115" style="fill:none;stroke:#404040;stroke-width:1.71px;"/><path d="M139.702,144.858c-1.941,11.477 10.164,15.417 9.65,0.115" style="fill:none;stroke:#404040;stroke-width:1.71px;"/><path d="M149.58,144.858c-1.941,11.477 10.164,15.417 9.65,0.115" style="fill:none;stroke:#404040;stroke-width:1.71px;"/><path d="M159.515,144.858c-1.941,11.477 10.164,15.417 9.65,0.115" style="fill:none;stroke:#404040;stroke-width:1.71px;"/><path d="M169.393,144.858c-1.941,11.477 10.164,15.417 9.65,0.115" style="fill:none;stroke:#404040;stroke-width:1.71px;"/><path d="M179.328,144.858c-1.941,11.477 10.164,15.417 9.65,0.115" style="fill:none;stroke:#404040;stroke-width:1.71px;"/><path d="M189.206,144.858c-1.941,11.477 10.164,15.417 9.65,0.115" style="fill:none;stroke:#404040;stroke-width:1.71px;"/><path d="M100.076,165.185c-1.941,11.477 10.164,15.417 9.65,0.115" style="fill:none;stroke:#404040;stroke-width:1.71px;"/><path d="M110.011,165.185c-1.941,11.477 10.164,15.417 9.65,0.115" style="fill:none;stroke:#404040;stroke-width:1.71px;"/><path d="M119.889,165.185c-1.941,11.477 10.164,15.417 9.65,0.115" style="fill:none;stroke:#404040;stroke-width:1.71px;"/><path d="M129.767,165.185c-1.941,11.477 10.164,15.417 9.65,0.115" style="fill:none;stroke:#404040;stroke-width:1.71px;"/><path d="M139.702,165.185c-1.941,11.477 10.164,15.417 9.65,0.115" style="fill:none;stroke:#404040;stroke-width:1.71px;"/><path d="M149.58,165.185c-1.941,11.477 10.164,15.417 9.65,0.115" style="fill:none;stroke:#404040;stroke-width:1.71px;"/><path d="M159.515,165.185c-1.941,11.477 10.164,15.417 9.65,0.115" style="fill:none;stroke:#404040;stroke-width:1.71px;"/><path d="M169.393,165.185c-1.941,11.477 10.164,15.417 9.65,0.115" style="fill:none;stroke:#404040;stroke-width:1.71px;"/><path d="M179.328,165.185c-1.941,11.477 10.164,15.417 9.65,0.115" style="fill:none;stroke:#404040;stroke-width:1.71px;"/><path d="M189.206,165.185c-1.941,11.477 10.164,15.417 9.65,0.115" style="fill:none;stroke:#404040;stroke-width:1.71px;"/><path d="M104.929,33.174c-1.941,11.477 10.164,15.417 9.65,0.114" style="fill:none;stroke:#404040;stroke-width:1.71px;"/><path d="M114.807,33.174c-1.941,11.477 10.164,15.417 9.65,0.114" style="fill:none;stroke:#404040;stroke-width:1.71px;"/><path d="M124.742,33.174c-1.941,11.477 10.164,15.417 9.65,0.114" style="fill:none;stroke:#404040;stroke-width:1.71px;"/><path d="M134.62,33.174c-1.941,11.477 10.164,15.417 9.65,0.114" style="fill:none;stroke:#404040;stroke-width:1.71px;"/><path d="M144.498,33.174c-1.941,11.477 10.164,15.417 9.65,0.114" style="fill:none;stroke:#404040;stroke-width:1.71px;"/><path d="M154.434,33.174c-1.942,11.477 10.163,15.417 9.649,0.114" style="fill:none;stroke:#404040;stroke-width:1.71px;"/><path d="M164.312,33.174c-1.942,11.477 10.163,15.417 9.649,0.114" style="fill:none;stroke:#404040;stroke-width:1.71px;"/><path d="M174.247,33.174c-1.942,11.477 10.163,15.417 9.649,0.114" style="fill:none;stroke:#404040;stroke-width:1.71px;"/><path d="M184.125,33.174c-1.942,11.477 10.163,15.417 9.649,0.114" style="fill:none;stroke:#404040;stroke-width:1.71px;"/><path d="M194.06,33.174c-1.942,11.477 10.163,15.417 9.649,0.114" style="fill:none;stroke:#404040;stroke-width:1.71px;"/><path d="M104.929,53.501c-1.941,11.477 10.164,15.417 9.65,0.114" style="fill:none;stroke:#404040;stroke-width:1.71px;"/><path d="M114.807,53.501c-1.941,11.477 10.164,15.417 9.65,0.114" style="fill:none;stroke:#404040;stroke-width:1.71px;"/><path d="M124.742,53.501c-1.941,11.477 10.164,15.417 9.65,0.114" style="fill:none;stroke:#404040;stroke-width:1.71px;"/><path d="M134.62,53.501c-1.941,11.477 10.164,15.417 9.65,0.114" style="fill:none;stroke:#404040;stroke-width:1.71px;"/><path d="M144.498,53.501c-1.941,11.477 10.164,15.417 9.65,0.114" style="fill:none;stroke:#404040;stroke-width:1.71px;"/><path d="M154.434,53.501c-1.942,11.477 10.163,15.417 9.649,0.114" style="fill:none;stroke:#404040;stroke-width:1.71px;"/><path d="M164.312,53.501c-1.942,11.477 10.163,15.417 9.649,0.114" style="fill:none;stroke:#404040;stroke-width:1.71px;"/><path d="M174.247,53.501c-1.942,11.477 10.163,15.417 9.649,0.114" style="fill:none;stroke:#404040;stroke-width:1.71px;"/><path d="M184.125,53.501c-1.942,11.477 10.163,15.417 9.649,0.114" style="fill:none;stroke:#404040;stroke-width:1.71px;"/><path d="M194.06,53.501c-1.942,11.477 10.163,15.417 9.649,0.114" style="fill:none;stroke:#404040;stroke-width:1.71px;"/><path d="M104.929,73.828c-1.941,11.477 10.164,15.417 9.65,0.114" style="fill:none;stroke:#404040;stroke-width:1.71px;"/><path d="M114.807,73.828c-1.941,11.477 10.164,15.417 9.65,0.114" style="fill:none;stroke:#404040;stroke-width:1.71px;"/><path d="M124.742,73.828c-1.941,11.477 10.164,15.417 9.65,0.114" style="fill:none;stroke:#404040;stroke-width:1.71px;"/><path d="M134.62,73.828c-1.941,11.477 10.164,15.417 9.65,0.114" style="fill:none;stroke:#404040;stroke-width:1.71px;"/><path d="M144.498,73.828c-1.941,11.477 10.164,15.417 9.65,0.114" style="fill:none;stroke:#404040;stroke-width:1.71px;"/><path d="M154.434,73.828c-1.942,11.477 10.163,15.417 9.649,0.114" style="fill:none;stroke:#404040;stroke-width:1.71px;"/><path d="M164.312,73.828c-1.942,11.477 10.163,15.417 9.649,0.114" style="fill:none;stroke:#404040;stroke-width:1.71px;"/><path d="M174.247,73.828c-1.942,11.477 10.163,15.417 9.649,0.114" style="fill:none;stroke:#404040;stroke-width:1.71px;"/><path d="M184.125,73.828c-1.942,11.477 10.163,15.417 9.649,0.114" style="fill:none;stroke:#404040;stroke-width:1.71px;"/><path d="M194.06,73.828c-1.942,11.477 10.163,15.417 9.649,0.114" style="fill:none;stroke:#404040;stroke-width:1.71px;"/><path d="M104.929,94.098c-1.941,11.477 10.164,15.417 9.65,0.114" style="fill:none;stroke:#404040;stroke-width:1.71px;"/><path d="M114.807,94.098c-1.941,11.477 10.164,15.417 9.65,0.114" style="fill:none;stroke:#404040;stroke-width:1.71px;"/><path d="M124.742,94.098c-1.941,11.477 10.164,15.417 9.65,0.114" style="fill:none;stroke:#404040;stroke-width:1.71px;"/><path d="M134.62,94.098c-1.941,11.477 10.164,15.417 9.65,0.114" style="fill:none;stroke:#404040;stroke-width:1.71px;"/><path d="M144.498,94.098c-1.941,11.477 10.164,15.417 9.65,0.114" style="fill:none;stroke:#404040;stroke-width:1.71px;"/><path d="M154.434,94.098c-1.942,11.477 10.163,15.417 9.649,0.114" style="fill:none;stroke:#404040;stroke-width:1.71px;"/><path d="M164.312,94.098c-1.942,11.477 10.163,15.417 9.649,0.114" style="fill:none;stroke:#404040;stroke-width:1.71px;"/><path d="M174.247,94.098c-1.942,11.477 10.163,15.417 9.649,0.114" style="fill:none;stroke:#404040;stroke-width:1.71px;"/><path d="M184.125,94.098c-1.942,11.477 10.163,15.417 9.649,0.114" style="fill:none;stroke:#404040;stroke-width:1.71px;"/><path d="M194.06,94.098c-1.942,11.477 10.163,15.417 9.649,0.114" style="fill:none;stroke:#404040;stroke-width:1.71px;"/><path d="M104.929,114.425c-1.941,11.477 10.164,15.417 9.65,0.114" style="fill:none;stroke:#404040;stroke-width:1.71px;"/><path d="M114.807,114.425c-1.941,11.477 10.164,15.417 9.65,0.114" style="fill:none;stroke:#404040;stroke-width:1.71px;"/><path d="M124.742,114.425c-1.941,11.477 10.164,15.417 9.65,0.114" style="fill:none;stroke:#404040;stroke-width:1.71px;"/><path d="M134.62,114.425c-1.941,11.477 10.164,15.417 9.65,0.114" style="fill:none;stroke:#404040;stroke-width:1.71px;"/><path d="M144.498,114.425c-1.941,11.477 10.164,15.417 9.65,0.114" style="fill:none;stroke:#404040;stroke-width:1.71px;"/><path d="M154.434,114.425c-1.942,11.477 10.163,15.417 9.649,0.114" style="fill:none;stroke:#404040;stroke-width:1.71px;"/><path d="M164.312,114.425c-1.942,11.477 10.163,15.417 9.649,0.114" style="fill:none;stroke:#404040;stroke-width:1.71px;"/><path d="M174.247,114.425c-1.942,11.477 10.163,15.417 9.649,0.114" style="fill:none;stroke:#404040;stroke-width:1.71px;"/><path d="M184.125,114.425c-1.942,11.477 10.163,15.417 9.649,0.114" style="fill:none;stroke:#404040;stroke-width:1.71px;"/><path d="M194.06,114.425c-1.942,11.477 10.163,15.417 9.649,0.114" style="fill:none;stroke:#404040;stroke-width:1.71px;"/><path d="M104.929,134.752c-1.941,11.477 10.164,15.417 9.65,0.114" style="fill:none;stroke:#404040;stroke-width:1.71px;"/><path d="M114.807,134.752c-1.941,11.477 10.164,15.417 9.65,0.114" style="fill:none;stroke:#404040;stroke-width:1.71px;"/><path d="M124.742,134.752c-1.941,11.477 10.164,15.417 9.65,0.114" style="fill:none;stroke:#404040;stroke-width:1.71px;"/><path d="M134.62,134.752c-1.941,11.477 10.164,15.417 9.65,0.114" style="fill:none;stroke:#404040;stroke-width:1.71px;"/><path d="M144.498,134.752c-1.941,11.477 10.164,15.417 9.65,0.114" style="fill:none;stroke:#404040;stroke-width:1.71px;"/><path d="M154.434,134.752c-1.942,11.477 10.163,15.417 9.649,0.114" style="fill:none;stroke:#404040;stroke-width:1.71px;"/><path d="M164.312,134.752c-1.942,11.477 10.163,15.417 9.649,0.114" style="fill:none;stroke:#404040;stroke-width:1.71px;"/><path d="M174.247,134.752c-1.942,11.477 10.163,15.417 9.649,0.114" style="fill:none;stroke:#404040;stroke-width:1.71px;"/><path d="M184.125,134.752c-1.942,11.477 10.163,15.417 9.649,0.114" style="fill:none;stroke:#404040;stroke-width:1.71px;"/><path d="M194.06,134.752c-1.942,11.477 10.163,15.417 9.649,0.114" style="fill:none;stroke:#404040;stroke-width:1.71px;"/><path d="M104.929,155.022c-1.941,11.477 10.164,15.416 9.65,0.114" style="fill:none;stroke:#404040;stroke-width:1.71px;"/><path d="M114.807,155.022c-1.941,11.477 10.164,15.416 9.65,0.114" style="fill:none;stroke:#404040;stroke-width:1.71px;"/><path d="M124.742,155.022c-1.941,11.477 10.164,15.416 9.65,0.114" style="fill:none;stroke:#404040;stroke-width:1.71px;"/><path d="M134.62,155.022c-1.941,11.477 10.164,15.416 9.65,0.114" style="fill:none;stroke:#404040;stroke-width:1.71px;"/><path d="M144.498,155.022c-1.941,11.477 10.164,15.416 9.65,0.114" style="fill:none;stroke:#404040;stroke-width:1.71px;"/><path d="M154.434,155.022c-1.942,11.477 10.163,15.416 9.649,0.114" style="fill:none;stroke:#404040;stroke-width:1.71px;"/><path d="M164.312,155.022c-1.942,11.477 10.163,15.416 9.649,0.114" style="fill:none;stroke:#404040;stroke-width:1.71px;"/><path d="M174.247,155.022c-1.942,11.477 10.163,15.416 9.649,0.114" style="fill:none;stroke:#404040;stroke-width:1.71px;"/><path d="M184.125,155.022c-1.942,11.477 10.163,15.416 9.649,0.114" style="fill:none;stroke:#404040;stroke-width:1.71px;"/><path d="M194.06,155.022c-1.942,11.477 10.163,15.416 9.649,0.114" style="fill:none;stroke:#404040;stroke-width:1.71px;"/><path d="M104.929,175.349c-1.941,11.477 10.164,15.416 9.65,0.114" style="fill:none;stroke:#404040;stroke-width:1.71px;"/><path d="M114.807,175.349c-1.941,11.477 10.164,15.416 9.65,0.114" style="fill:none;stroke:#404040;stroke-width:1.71px;"/><path d="M124.742,175.349c-1.941,11.477 10.164,15.416 9.65,0.114" style="fill:none;stroke:#404040;stroke-width:1.71px;"/><path d="M134.62,175.349c-1.941,11.477 10.164,15.416 9.65,0.114" style="fill:none;stroke:#404040;stroke-width:1.71px;"/><path d="M144.498,175.349c-1.941,11.477 10.164,15.416 9.65,0.114" style="fill:none;stroke:#404040;stroke-width:1.71px;"/><path d="M154.434,175.349c-1.942,11.477 10.163,15.416 9.649,0.114" style="fill:none;stroke:#404040;stroke-width:1.71px;"/><path d="M164.312,175.349c-1.942,11.477 10.163,15.416 9.649,0.114" style="fill:none;stroke:#404040;stroke-width:1.71px;"/><path d="M174.247,175.349c-1.942,11.477 10.163,15.416 9.649,0.114" style="fill:none;stroke:#404040;stroke-width:1.71px;"/><path d="M184.125,175.349c-1.942,11.477 10.163,15.416 9.649,0.114" style="fill:none;stroke:#404040;stroke-width:1.71px;"/><path d="M194.06,175.349c-1.942,11.477 10.163,15.416 9.649,0.114" style="fill:none;stroke:#404040;stroke-width:1.71px;"/></g></g></g><path id="SVGID_1_" d="M99.162,33.974c-30.433,0 -42.823,-5.025 -42.823,-5.025c0,0 -5.368,25.808 -30.833,29.52c0,111.284 73.656,127.043 73.656,127.043c0,0 73.657,-15.816 73.657,-127.043c-25.466,-3.712 -30.833,-29.52 -30.833,-29.52c0,0 -12.39,5.025 -42.824,5.025Z" style="fill:none;stroke:#262626;stroke-width:1.71px;"/></g><g><path d="M19.567,43.281c2.17,-1.028 4.968,0.228 6.224,2.854c1.256,2.627 0.457,5.539 -1.713,6.624c-2.17,1.028 -4.967,-0.229 -6.224,-2.855c-1.256,-2.627 -0.456,-5.596 1.713,-6.623Z" style="fill:#404040;stroke:#595959;stroke-width:1.71px;"/><path d="M21.052,46.421c0.742,-0.343 1.656,0.057 2.055,0.914c0.4,0.856 0.172,1.827 -0.571,2.169c-0.742,0.343 -1.655,-0.057 -2.055,-0.913c-0.4,-0.857 -0.114,-1.827 0.571,-2.17Z" style="fill:#404040;stroke:#595959;stroke-width:1.71px;"/><path d="M178.7,43.281c-2.169,-1.028 -4.967,0.228 -6.223,2.854c-1.256,2.627 -0.457,5.539 1.713,6.624c2.169,1.028 4.967,-0.229 6.223,-2.855c1.256,-2.627 0.457,-5.596 -1.713,-6.623Z" style="fill:#404040;stroke:#595959;stroke-width:1.71px;"/><path d="M177.273,46.307c-0.742,-0.343 -1.713,0.057 -2.17,0.97c-0.457,0.914 -0.171,1.942 0.571,2.284c0.742,0.343 1.713,-0.057 2.17,-0.97c0.457,-0.857 0.171,-1.885 -0.571,-2.284Z" style="fill:#404040;stroke:#595959;stroke-width:1.71px;"/><path d="M51.714,8.108c3.711,0 6.737,3.026 6.737,6.738c0,3.711 -3.026,6.737 -6.737,6.737c-3.712,0 -6.738,-3.026 -6.738,-6.737c0,-3.712 3.026,-6.738 6.738,-6.738Z" style="fill:#404040;stroke:#595959;stroke-width:1.71px;"/><path d="M51.714,12.505c1.256,0 2.341,1.027 2.341,2.341c0,1.256 -1.028,2.341 -2.341,2.341c-1.256,0 -2.341,-1.028 -2.341,-2.341c0.057,-1.314 1.085,-2.341 2.341,-2.341Z" style="fill:#404040;stroke:#595959;stroke-width:1.71px;"/><path d="M146.554,8.108c-3.711,0 -6.738,3.026 -6.738,6.738c0,3.711 3.027,6.737 6.738,6.737c3.711,0 6.738,-3.026 6.738,-6.737c0,-3.712 -3.027,-6.738 -6.738,-6.738Z" style="fill:#404040;stroke:#595959;stroke-width:1.71px;"/><path d="M146.554,12.505c-1.256,0 -2.341,1.027 -2.341,2.341c0,1.256 1.028,2.341 2.341,2.341c1.256,0 2.341,-1.028 2.341,-2.341c-0.057,-1.314 -1.085,-2.341 -2.341,-2.341Z" style="fill:#404040;stroke:#595959;stroke-width:1.71px;"/><path d="M99.162,14.903c-3.711,0 -6.737,3.026 -6.737,6.737c0,3.712 3.026,6.738 6.737,6.738c3.712,0 6.738,-3.026 6.738,-6.738c-0.057,-3.768 -3.083,-6.737 -6.738,-6.737Z" style="fill:#404040;stroke:#595959;stroke-width:1.71px;"/><path d="M99.162,19.528c-1.142,0 -2.055,0.913 -2.055,2.055c0,1.142 0.913,2.056 2.055,2.056c1.142,0 2.056,-0.914 2.056,-2.056c0,-1.142 -0.914,-2.055 -2.056,-2.055Z" style="fill:#404040;stroke:#595959;stroke-width:1.71px;"/><path d="M99.162,189.452c-3.711,0 -6.737,3.026 -6.737,6.738c0,3.711 3.026,6.737 6.737,6.737c3.712,0 6.738,-3.026 6.738,-6.737c-0.057,-3.712 -3.083,-6.738 -6.738,-6.738Z" style="fill:#404040;stroke:#595959;stroke-width:1.71px;"/><path d="M99.162,193.678c-1.37,0 -2.455,1.084 -2.455,2.455c0,1.37 1.085,2.455 2.455,2.455c1.371,0 2.456,-1.085 2.456,-2.455c0,-1.314 -1.142,-2.455 -2.456,-2.455Z" style="fill:#404040;stroke:#595959;stroke-width:1.71px;"/></g></g></svg>