<svg id="Lag_8" data-name="Lag 8" xmlns="http://www.w3.org/2000/svg" xmlns:xlink="http://www.w3.org/1999/xlink" viewBox="0 0 204.58 209.49"><defs><style>.cls-1,.cls-3,.cls-7{fill:none;}.cls-1{clip-rule:evenodd;}.cls-2{fill:#a71933;}.cls-2,.cls-4,.cls-6{fill-rule:evenodd;}.cls-3{stroke:#540d1a;}.cls-3,.cls-7{stroke-linecap:round;stroke-linejoin:round;stroke-width:1.71px;}.cls-4{fill:#701122;}.cls-5{clip-path:url(#clip-path);}.cls-6,.cls-8{fill:#8f162c;}.cls-7{stroke:#701122;}.cls-9{fill:#b01a34;}</style><clipPath id="clip-path" transform="translate(-1009.79 -330.9)"><path class="cls-1" d="M1109,364.88c-30.43,0-42.82-5-42.82-5s-5.37,25.81-30.83,29.52c0,111.28,73.66,127,73.66,127s73.66-15.82,73.66-127c-25.47-3.71-30.83-29.52-30.83-29.52S1139.39,364.88,1109,364.88Z"/></clipPath></defs><title>socvåb</title><path class="cls-2" d="M1109,341.41c-23.3,0-56.41-9.65-56.41-9.65s-2.23,42.42-29.23,37.74c0,141.83,85.65,170,85.65,170s85.65-28.21,85.65-170c-27,4.68-29.23-37.74-29.23-37.74s-33.12,9.65-56.41,9.65" transform="translate(-1009.79 -330.9)"/><path class="cls-3" d="M1109,341.41c-23.3,0-56.41-9.65-56.41-9.65s-2.23,42.42-29.23,37.74c0,141.83,85.65,170,85.65,170s85.65-28.21,85.65-170c-27,4.68-29.23-37.74-29.23-37.74s-33.12,9.65-56.41,9.65" transform="translate(-1009.79 -330.9)"/><path class="cls-4" d="M1109,364.25c-30.43,0-42.82-5-42.82-5s-5.37,25.81-30.83,29.52c0,111.28,73.66,127,73.66,127s73.66-15.82,73.66-127c-25.47-3.71-30.83-29.52-30.83-29.52s-12.39,5-42.82,5" transform="translate(-1009.79 -330.9)"/><g class="cls-5"><path class="cls-3" d="M1010.86,354c-1.94,11.48,10.16,15.42,9.65.11" transform="translate(-1009.79 -330.9)"/><path class="cls-3" d="M1020.74,354c-1.94,11.48,10.16,15.42,9.65.11" transform="translate(-1009.79 -330.9)"/><path class="cls-3" d="M1030.67,354c-1.94,11.48,10.16,15.42,9.65.11" transform="translate(-1009.79 -330.9)"/><path class="cls-3" d="M1040.55,354c-1.94,11.48,10.16,15.42,9.65.11" transform="translate(-1009.79 -330.9)"/><path class="cls-3" d="M1050.43,354c-1.94,11.48,10.16,15.42,9.65.11" transform="translate(-1009.79 -330.9)"/><path class="cls-3" d="M1060.36,354c-1.94,11.48,10.16,15.42,9.65.11" transform="translate(-1009.79 -330.9)"/><path class="cls-3" d="M1070.24,354c-1.94,11.48,10.16,15.42,9.65.11" transform="translate(-1009.79 -330.9)"/><path class="cls-3" d="M1080.17,354c-1.94,11.48,10.16,15.42,9.65.11" transform="translate(-1009.79 -330.9)"/><path class="cls-3" d="M1090.05,354c-1.94,11.48,10.16,15.42,9.65.11" transform="translate(-1009.79 -330.9)"/><path class="cls-3" d="M1100,354c-1.94,11.48,10.16,15.42,9.65.11" transform="translate(-1009.79 -330.9)"/><path class="cls-3" d="M1010.86,374.24c-1.94,11.48,10.16,15.42,9.65.11" transform="translate(-1009.79 -330.9)"/><path class="cls-3" d="M1020.74,374.24c-1.94,11.48,10.16,15.42,9.65.11" transform="translate(-1009.79 -330.9)"/><path class="cls-3" d="M1030.67,374.24c-1.94,11.48,10.16,15.42,9.65.11" transform="translate(-1009.79 -330.9)"/><path class="cls-3" d="M1040.55,374.24c-1.94,11.48,10.16,15.42,9.65.11" transform="translate(-1009.79 -330.9)"/><path class="cls-3" d="M1050.43,374.24c-1.94,11.48,10.16,15.42,9.65.11" transform="translate(-1009.79 -330.9)"/><path class="cls-3" d="M1060.36,374.24c-1.94,11.48,10.16,15.42,9.65.11" transform="translate(-1009.79 -330.9)"/><path class="cls-3" d="M1070.24,374.24c-1.94,11.48,10.16,15.42,9.65.11" transform="translate(-1009.79 -330.9)"/><path class="cls-3" d="M1080.17,374.24c-1.94,11.48,10.16,15.42,9.65.11" transform="translate(-1009.79 -330.9)"/><path class="cls-3" d="M1090.05,374.24c-1.94,11.48,10.16,15.42,9.65.11" transform="translate(-1009.79 -330.9)"/><path class="cls-3" d="M1100,374.24c-1.94,11.48,10.16,15.42,9.65.11" transform="translate(-1009.79 -330.9)"/><path class="cls-3" d="M1010.86,394.57c-1.94,11.48,10.16,15.42,9.65.11" transform="translate(-1009.79 -330.9)"/><path class="cls-3" d="M1020.74,394.57c-1.94,11.48,10.16,15.42,9.65.11" transform="translate(-1009.79 -330.9)"/><path class="cls-3" d="M1030.67,394.57c-1.94,11.48,10.16,15.42,9.65.11" transform="translate(-1009.79 -330.9)"/><path class="cls-3" d="M1040.55,394.57c-1.94,11.48,10.16,15.42,9.65.11" transform="translate(-1009.79 -330.9)"/><path class="cls-3" d="M1050.43,394.57c-1.94,11.48,10.16,15.42,9.65.11" transform="translate(-1009.79 -330.9)"/><path class="cls-3" d="M1060.36,394.57c-1.94,11.48,10.16,15.42,9.65.11" transform="translate(-1009.79 -330.9)"/><path class="cls-3" d="M1070.24,394.57c-1.94,11.48,10.16,15.42,9.65.11" transform="translate(-1009.79 -330.9)"/><path class="cls-3" d="M1080.17,394.57c-1.94,11.48,10.16,15.42,9.65.11" transform="translate(-1009.79 -330.9)"/><path class="cls-3" d="M1090.05,394.57c-1.94,11.48,10.16,15.42,9.65.11" transform="translate(-1009.79 -330.9)"/><path class="cls-3" d="M1100,394.57c-1.94,11.48,10.16,15.42,9.65.11" transform="translate(-1009.79 -330.9)"/><path class="cls-3" d="M1010.86,414.9c-1.94,11.48,10.16,15.42,9.65.11" transform="translate(-1009.79 -330.9)"/><path class="cls-3" d="M1020.74,414.9c-1.94,11.48,10.16,15.42,9.65.11" transform="translate(-1009.79 -330.9)"/><path class="cls-3" d="M1030.67,414.9c-1.94,11.48,10.16,15.42,9.65.11" transform="translate(-1009.79 -330.9)"/><path class="cls-3" d="M1040.55,414.9c-1.94,11.48,10.16,15.42,9.65.11" transform="translate(-1009.79 -330.9)"/><path class="cls-3" d="M1050.43,414.9c-1.94,11.48,10.16,15.42,9.65.11" transform="translate(-1009.79 -330.9)"/><path class="cls-3" d="M1060.36,414.9c-1.94,11.48,10.16,15.42,9.65.11" transform="translate(-1009.79 -330.9)"/><path class="cls-3" d="M1070.24,414.9c-1.94,11.48,10.16,15.42,9.65.11" transform="translate(-1009.79 -330.9)"/><path class="cls-3" d="M1080.17,414.9c-1.94,11.48,10.16,15.42,9.65.11" transform="translate(-1009.79 -330.9)"/><path class="cls-3" d="M1090.05,414.9c-1.94,11.48,10.16,15.42,9.65.11" transform="translate(-1009.79 -330.9)"/><path class="cls-3" d="M1100,414.9c-1.94,11.48,10.16,15.42,9.65.11" transform="translate(-1009.79 -330.9)"/><path class="cls-3" d="M1010.86,435.17c-1.94,11.48,10.16,15.42,9.65.11" transform="translate(-1009.79 -330.9)"/><path class="cls-3" d="M1020.74,435.17c-1.94,11.48,10.16,15.42,9.65.11" transform="translate(-1009.79 -330.9)"/><path class="cls-3" d="M1030.67,435.17c-1.94,11.48,10.16,15.42,9.65.11" transform="translate(-1009.79 -330.9)"/><path class="cls-3" d="M1040.55,435.17c-1.94,11.48,10.16,15.42,9.65.11" transform="translate(-1009.79 -330.9)"/><path class="cls-3" d="M1050.43,435.17c-1.94,11.48,10.16,15.42,9.65.11" transform="translate(-1009.79 -330.9)"/><path class="cls-3" d="M1060.36,435.17c-1.94,11.48,10.16,15.42,9.65.11" transform="translate(-1009.79 -330.9)"/><path class="cls-3" d="M1070.24,435.17c-1.94,11.48,10.16,15.42,9.65.11" transform="translate(-1009.79 -330.9)"/><path class="cls-3" d="M1080.17,435.17c-1.94,11.48,10.16,15.42,9.65.11" transform="translate(-1009.79 -330.9)"/><path class="cls-3" d="M1090.05,435.17c-1.94,11.48,10.16,15.42,9.65.11" transform="translate(-1009.79 -330.9)"/><path class="cls-3" d="M1100,435.17c-1.94,11.48,10.16,15.42,9.65.11" transform="translate(-1009.79 -330.9)"/><path class="cls-3" d="M1010.86,455.49c-1.94,11.48,10.16,15.42,9.65.11" transform="translate(-1009.79 -330.9)"/><path class="cls-3" d="M1020.74,455.49c-1.94,11.48,10.16,15.42,9.65.11" transform="translate(-1009.79 -330.9)"/><path class="cls-3" d="M1030.67,455.49c-1.94,11.48,10.16,15.42,9.65.11" transform="translate(-1009.79 -330.9)"/><path class="cls-3" d="M1040.55,455.49c-1.94,11.48,10.16,15.42,9.65.11" transform="translate(-1009.79 -330.9)"/><path class="cls-3" d="M1050.43,455.49c-1.94,11.48,10.16,15.42,9.65.11" transform="translate(-1009.79 -330.9)"/><path class="cls-3" d="M1060.36,455.49c-1.94,11.48,10.16,15.42,9.65.11" transform="translate(-1009.79 -330.9)"/><path class="cls-3" d="M1070.24,455.49c-1.94,11.48,10.16,15.42,9.65.11" transform="translate(-1009.79 -330.9)"/><path class="cls-3" d="M1080.17,455.49c-1.94,11.48,10.16,15.42,9.65.11" transform="translate(-1009.79 -330.9)"/><path class="cls-3" d="M1090.05,455.49c-1.94,11.48,10.16,15.42,9.65.11" transform="translate(-1009.79 -330.9)"/><path class="cls-3" d="M1100,455.49c-1.94,11.48,10.16,15.42,9.65.11" transform="translate(-1009.79 -330.9)"/><path class="cls-3" d="M1010.86,475.76c-1.94,11.48,10.16,15.42,9.65.11" transform="translate(-1009.79 -330.9)"/><path class="cls-3" d="M1020.74,475.76c-1.94,11.48,10.16,15.42,9.65.11" transform="translate(-1009.79 -330.9)"/><path class="cls-3" d="M1030.67,475.76c-1.94,11.48,10.16,15.42,9.65.11" transform="translate(-1009.79 -330.9)"/><path class="cls-3" d="M1040.55,475.76c-1.94,11.48,10.16,15.42,9.65.11" transform="translate(-1009.79 -330.9)"/><path class="cls-3" d="M1050.43,475.76c-1.94,11.48,10.16,15.42,9.65.11" transform="translate(-1009.79 -330.9)"/><path class="cls-3" d="M1060.36,475.76c-1.94,11.48,10.16,15.42,9.65.11" transform="translate(-1009.79 -330.9)"/><path class="cls-3" d="M1070.24,475.76c-1.94,11.48,10.16,15.42,9.65.11" transform="translate(-1009.79 -330.9)"/><path class="cls-3" d="M1080.17,475.76c-1.94,11.48,10.16,15.42,9.65.11" transform="translate(-1009.79 -330.9)"/><path class="cls-3" d="M1090.05,475.76c-1.94,11.48,10.16,15.42,9.65.11" transform="translate(-1009.79 -330.9)"/><path class="cls-3" d="M1100,475.76c-1.94,11.48,10.16,15.42,9.65.11" transform="translate(-1009.79 -330.9)"/><path class="cls-3" d="M1010.86,496.09c-1.94,11.48,10.16,15.42,9.65.11" transform="translate(-1009.79 -330.9)"/><path class="cls-3" d="M1020.74,496.09c-1.94,11.48,10.16,15.42,9.65.11" transform="translate(-1009.79 -330.9)"/><path class="cls-3" d="M1030.67,496.09c-1.94,11.48,10.16,15.42,9.65.11" transform="translate(-1009.79 -330.9)"/><path class="cls-3" d="M1040.55,496.09c-1.94,11.48,10.16,15.42,9.65.11" transform="translate(-1009.79 -330.9)"/><path class="cls-3" d="M1050.43,496.09c-1.94,11.48,10.16,15.42,9.65.11" transform="translate(-1009.79 -330.9)"/><path class="cls-3" d="M1060.36,496.09c-1.94,11.48,10.16,15.42,9.65.11" transform="translate(-1009.79 -330.9)"/><path class="cls-3" d="M1070.24,496.09c-1.94,11.48,10.16,15.42,9.65.11" transform="translate(-1009.79 -330.9)"/><path class="cls-3" d="M1080.17,496.09c-1.94,11.48,10.16,15.42,9.65.11" transform="translate(-1009.79 -330.9)"/><path class="cls-3" d="M1090.05,496.09c-1.94,11.48,10.16,15.42,9.65.11" transform="translate(-1009.79 -330.9)"/><path class="cls-3" d="M1100,496.09c-1.94,11.48,10.16,15.42,9.65.11" transform="translate(-1009.79 -330.9)"/><path class="cls-3" d="M1015.65,364.08c-1.94,11.48,10.16,15.42,9.65.11" transform="translate(-1009.79 -330.9)"/><path class="cls-3" d="M1025.59,364.08c-1.94,11.48,10.16,15.42,9.65.11" transform="translate(-1009.79 -330.9)"/><path class="cls-3" d="M1035.47,364.08c-1.94,11.48,10.16,15.42,9.65.11" transform="translate(-1009.79 -330.9)"/><path class="cls-3" d="M1045.4,364.08c-1.94,11.48,10.16,15.42,9.65.11" transform="translate(-1009.79 -330.9)"/><path class="cls-3" d="M1055.28,364.08c-1.94,11.48,10.16,15.42,9.65.11" transform="translate(-1009.79 -330.9)"/><path class="cls-3" d="M1065.16,364.08c-1.94,11.48,10.16,15.42,9.65.11" transform="translate(-1009.79 -330.9)"/><path class="cls-3" d="M1075.09,364.08c-1.94,11.48,10.16,15.42,9.65.11" transform="translate(-1009.79 -330.9)"/><path class="cls-3" d="M1085,364.08c-1.94,11.48,10.16,15.42,9.65.11" transform="translate(-1009.79 -330.9)"/><path class="cls-3" d="M1094.91,364.08c-1.94,11.48,10.16,15.42,9.65.11" transform="translate(-1009.79 -330.9)"/><path class="cls-3" d="M1104.78,364.08c-1.94,11.48,10.16,15.42,9.65.11" transform="translate(-1009.79 -330.9)"/><path class="cls-3" d="M1015.65,384.41c-1.94,11.48,10.16,15.42,9.65.11" transform="translate(-1009.79 -330.9)"/><path class="cls-3" d="M1025.59,384.41c-1.94,11.48,10.16,15.42,9.65.11" transform="translate(-1009.79 -330.9)"/><path class="cls-3" d="M1035.47,384.41c-1.94,11.48,10.16,15.42,9.65.11" transform="translate(-1009.79 -330.9)"/><path class="cls-3" d="M1045.4,384.41c-1.94,11.48,10.16,15.42,9.65.11" transform="translate(-1009.79 -330.9)"/><path class="cls-3" d="M1055.28,384.41c-1.94,11.48,10.16,15.42,9.65.11" transform="translate(-1009.79 -330.9)"/><path class="cls-3" d="M1065.16,384.41c-1.94,11.48,10.16,15.42,9.65.11" transform="translate(-1009.79 -330.9)"/><path class="cls-3" d="M1075.09,384.41c-1.94,11.48,10.16,15.42,9.65.11" transform="translate(-1009.79 -330.9)"/><path class="cls-3" d="M1085,384.41c-1.94,11.48,10.16,15.42,9.65.11" transform="translate(-1009.79 -330.9)"/><path class="cls-3" d="M1094.91,384.41c-1.94,11.48,10.16,15.42,9.65.11" transform="translate(-1009.79 -330.9)"/><path class="cls-3" d="M1104.78,384.41c-1.94,11.48,10.16,15.42,9.65.11" transform="translate(-1009.79 -330.9)"/><path class="cls-3" d="M1015.65,404.73c-1.94,11.48,10.16,15.42,9.65.11" transform="translate(-1009.79 -330.9)"/><path class="cls-3" d="M1025.59,404.73c-1.94,11.48,10.16,15.42,9.65.11" transform="translate(-1009.79 -330.9)"/><path class="cls-3" d="M1035.47,404.73c-1.94,11.48,10.16,15.42,9.65.11" transform="translate(-1009.79 -330.9)"/><path class="cls-3" d="M1045.4,404.73c-1.94,11.48,10.16,15.42,9.65.11" transform="translate(-1009.79 -330.9)"/><path class="cls-3" d="M1055.28,404.73c-1.94,11.48,10.16,15.42,9.65.11" transform="translate(-1009.79 -330.9)"/><path class="cls-3" d="M1065.16,404.73c-1.94,11.48,10.16,15.42,9.65.11" transform="translate(-1009.79 -330.9)"/><path class="cls-3" d="M1075.09,404.73c-1.94,11.48,10.16,15.42,9.65.11" transform="translate(-1009.79 -330.9)"/><path class="cls-3" d="M1085,404.73c-1.94,11.48,10.16,15.42,9.65.11" transform="translate(-1009.79 -330.9)"/><path class="cls-3" d="M1094.91,404.73c-1.94,11.48,10.16,15.42,9.65.11" transform="translate(-1009.79 -330.9)"/><path class="cls-3" d="M1104.78,404.73c-1.94,11.48,10.16,15.42,9.65.11" transform="translate(-1009.79 -330.9)"/><path class="cls-3" d="M1015.65,425c-1.94,11.48,10.16,15.42,9.65.11" transform="translate(-1009.79 -330.9)"/><path class="cls-3" d="M1025.59,425c-1.94,11.48,10.16,15.42,9.65.11" transform="translate(-1009.79 -330.9)"/><path class="cls-3" d="M1035.47,425c-1.94,11.48,10.16,15.42,9.65.11" transform="translate(-1009.79 -330.9)"/><path class="cls-3" d="M1045.4,425c-1.94,11.48,10.16,15.42,9.65.11" transform="translate(-1009.79 -330.9)"/><path class="cls-3" d="M1055.28,425c-1.94,11.48,10.16,15.42,9.65.11" transform="translate(-1009.79 -330.9)"/><path class="cls-3" d="M1065.16,425c-1.94,11.48,10.16,15.42,9.65.11" transform="translate(-1009.79 -330.9)"/><path class="cls-3" d="M1075.09,425c-1.94,11.48,10.16,15.42,9.65.11" transform="translate(-1009.79 -330.9)"/><path class="cls-3" d="M1085,425c-1.94,11.48,10.16,15.42,9.65.11" transform="translate(-1009.79 -330.9)"/><path class="cls-3" d="M1094.91,425c-1.94,11.48,10.16,15.42,9.65.11" transform="translate(-1009.79 -330.9)"/><path class="cls-3" d="M1104.78,425c-1.94,11.48,10.16,15.42,9.65.11" transform="translate(-1009.79 -330.9)"/><path class="cls-3" d="M1015.65,445.33c-1.94,11.48,10.16,15.42,9.65.11" transform="translate(-1009.79 -330.9)"/><path class="cls-3" d="M1025.59,445.33c-1.94,11.48,10.16,15.42,9.65.11" transform="translate(-1009.79 -330.9)"/><path class="cls-3" d="M1035.47,445.33c-1.94,11.48,10.16,15.42,9.65.11" transform="translate(-1009.79 -330.9)"/><path class="cls-3" d="M1045.4,445.33c-1.94,11.48,10.16,15.42,9.65.11" transform="translate(-1009.79 -330.9)"/><path class="cls-3" d="M1055.28,445.33c-1.94,11.48,10.16,15.42,9.65.11" transform="translate(-1009.79 -330.9)"/><path class="cls-3" d="M1065.16,445.33c-1.94,11.48,10.16,15.42,9.65.11" transform="translate(-1009.79 -330.9)"/><path class="cls-3" d="M1075.09,445.33c-1.94,11.48,10.16,15.42,9.65.11" transform="translate(-1009.79 -330.9)"/><path class="cls-3" d="M1085,445.33c-1.94,11.48,10.16,15.42,9.65.11" transform="translate(-1009.79 -330.9)"/><path class="cls-3" d="M1094.91,445.33c-1.94,11.48,10.16,15.42,9.65.11" transform="translate(-1009.79 -330.9)"/><path class="cls-3" d="M1104.78,445.33c-1.94,11.48,10.16,15.42,9.65.11" transform="translate(-1009.79 -330.9)"/><path class="cls-3" d="M1015.65,465.66c-1.94,11.48,10.16,15.42,9.65.11" transform="translate(-1009.79 -330.9)"/><path class="cls-3" d="M1025.59,465.66c-1.94,11.48,10.16,15.42,9.65.11" transform="translate(-1009.79 -330.9)"/><path class="cls-3" d="M1035.47,465.66c-1.94,11.48,10.16,15.42,9.65.11" transform="translate(-1009.79 -330.9)"/><path class="cls-3" d="M1045.4,465.66c-1.94,11.48,10.16,15.42,9.65.11" transform="translate(-1009.79 -330.9)"/><path class="cls-3" d="M1055.28,465.66c-1.94,11.48,10.16,15.42,9.65.11" transform="translate(-1009.79 -330.9)"/><path class="cls-3" d="M1065.16,465.66c-1.94,11.48,10.16,15.42,9.65.11" transform="translate(-1009.79 -330.9)"/><path class="cls-3" d="M1075.09,465.66c-1.94,11.48,10.16,15.42,9.65.11" transform="translate(-1009.79 -330.9)"/><path class="cls-3" d="M1085,465.66c-1.94,11.48,10.16,15.42,9.65.11" transform="translate(-1009.79 -330.9)"/><path class="cls-3" d="M1094.91,465.66c-1.94,11.48,10.16,15.42,9.65.11" transform="translate(-1009.79 -330.9)"/><path class="cls-3" d="M1104.78,465.66c-1.94,11.48,10.16,15.42,9.65.11" transform="translate(-1009.79 -330.9)"/><path class="cls-3" d="M1015.65,485.93c-1.94,11.48,10.16,15.42,9.65.11" transform="translate(-1009.79 -330.9)"/><path class="cls-3" d="M1025.59,485.93c-1.94,11.48,10.16,15.42,9.65.11" transform="translate(-1009.79 -330.9)"/><path class="cls-3" d="M1035.47,485.93c-1.94,11.48,10.16,15.42,9.65.11" transform="translate(-1009.79 -330.9)"/><path class="cls-3" d="M1045.4,485.93c-1.94,11.48,10.16,15.42,9.65.11" transform="translate(-1009.79 -330.9)"/><path class="cls-3" d="M1055.28,485.93c-1.94,11.48,10.16,15.42,9.65.11" transform="translate(-1009.79 -330.9)"/><path class="cls-3" d="M1065.16,485.93c-1.94,11.48,10.16,15.42,9.65.11" transform="translate(-1009.79 -330.9)"/><path class="cls-3" d="M1075.09,485.93c-1.94,11.48,10.16,15.42,9.65.11" transform="translate(-1009.79 -330.9)"/><path class="cls-3" d="M1085,485.93c-1.94,11.48,10.16,15.42,9.65.11" transform="translate(-1009.79 -330.9)"/><path class="cls-3" d="M1094.91,485.93c-1.94,11.48,10.16,15.42,9.65.11" transform="translate(-1009.79 -330.9)"/><path class="cls-3" d="M1104.78,485.93c-1.94,11.48,10.16,15.42,9.65.11" transform="translate(-1009.79 -330.9)"/><path class="cls-3" d="M1015.65,506.25c-1.94,11.48,10.16,15.42,9.65.11" transform="translate(-1009.79 -330.9)"/><path class="cls-3" d="M1025.59,506.25c-1.94,11.48,10.16,15.42,9.65.11" transform="translate(-1009.79 -330.9)"/><path class="cls-3" d="M1035.47,506.25c-1.94,11.48,10.16,15.42,9.65.11" transform="translate(-1009.79 -330.9)"/><path class="cls-3" d="M1045.4,506.25c-1.94,11.48,10.16,15.42,9.65.11" transform="translate(-1009.79 -330.9)"/><path class="cls-3" d="M1055.28,506.25c-1.94,11.48,10.16,15.42,9.65.11" transform="translate(-1009.79 -330.9)"/><path class="cls-3" d="M1065.16,506.25c-1.94,11.48,10.16,15.42,9.65.11" transform="translate(-1009.79 -330.9)"/><path class="cls-3" d="M1075.09,506.25c-1.94,11.48,10.16,15.42,9.65.11" transform="translate(-1009.79 -330.9)"/><path class="cls-3" d="M1085,506.25c-1.94,11.48,10.16,15.42,9.65.11" transform="translate(-1009.79 -330.9)"/><path class="cls-3" d="M1094.91,506.25c-1.94,11.48,10.16,15.42,9.65.11" transform="translate(-1009.79 -330.9)"/><path class="cls-3" d="M1104.78,506.25c-1.94,11.48,10.16,15.42,9.65.11" transform="translate(-1009.79 -330.9)"/><path class="cls-3" d="M1109.87,354c-1.94,11.48,10.16,15.42,9.65.11" transform="translate(-1009.79 -330.9)"/><path class="cls-3" d="M1119.8,354c-1.94,11.48,10.16,15.42,9.65.11" transform="translate(-1009.79 -330.9)"/><path class="cls-3" d="M1129.68,354c-1.94,11.48,10.16,15.42,9.65.11" transform="translate(-1009.79 -330.9)"/><path class="cls-3" d="M1139.56,354c-1.94,11.48,10.16,15.42,9.65.11" transform="translate(-1009.79 -330.9)"/><path class="cls-3" d="M1149.49,354c-1.94,11.48,10.16,15.42,9.65.11" transform="translate(-1009.79 -330.9)"/><path class="cls-3" d="M1159.37,354c-1.94,11.48,10.16,15.42,9.65.11" transform="translate(-1009.79 -330.9)"/><path class="cls-3" d="M1169.31,354c-1.94,11.48,10.16,15.42,9.65.11" transform="translate(-1009.79 -330.9)"/><path class="cls-3" d="M1179.18,354c-1.94,11.48,10.16,15.42,9.65.11" transform="translate(-1009.79 -330.9)"/><path class="cls-3" d="M1189.12,354c-1.94,11.48,10.16,15.42,9.65.11" transform="translate(-1009.79 -330.9)"/><path class="cls-3" d="M1199,354c-1.94,11.48,10.16,15.42,9.65.11" transform="translate(-1009.79 -330.9)"/><path class="cls-3" d="M1109.87,374.24c-1.94,11.48,10.16,15.42,9.65.11" transform="translate(-1009.79 -330.9)"/><path class="cls-3" d="M1119.8,374.24c-1.94,11.48,10.16,15.42,9.65.11" transform="translate(-1009.79 -330.9)"/><path class="cls-3" d="M1129.68,374.24c-1.94,11.48,10.16,15.42,9.65.11" transform="translate(-1009.79 -330.9)"/><path class="cls-3" d="M1139.56,374.24c-1.94,11.48,10.16,15.42,9.65.11" transform="translate(-1009.79 -330.9)"/><path class="cls-3" d="M1149.49,374.24c-1.94,11.48,10.16,15.42,9.65.11" transform="translate(-1009.79 -330.9)"/><path class="cls-3" d="M1159.37,374.24c-1.94,11.48,10.16,15.42,9.65.11" transform="translate(-1009.79 -330.9)"/><path class="cls-3" d="M1169.31,374.24c-1.94,11.48,10.16,15.42,9.65.11" transform="translate(-1009.79 -330.9)"/><path class="cls-3" d="M1179.18,374.24c-1.94,11.48,10.16,15.42,9.65.11" transform="translate(-1009.79 -330.9)"/><path class="cls-3" d="M1189.12,374.24c-1.94,11.48,10.16,15.42,9.65.11" transform="translate(-1009.79 -330.9)"/><path class="cls-3" d="M1199,374.24c-1.94,11.48,10.16,15.42,9.65.11" transform="translate(-1009.79 -330.9)"/><path class="cls-3" d="M1109.87,394.57c-1.94,11.48,10.16,15.42,9.65.11" transform="translate(-1009.79 -330.9)"/><path class="cls-3" d="M1119.8,394.57c-1.94,11.48,10.16,15.42,9.65.11" transform="translate(-1009.79 -330.9)"/><path class="cls-3" d="M1129.68,394.57c-1.94,11.48,10.16,15.42,9.65.11" transform="translate(-1009.79 -330.9)"/><path class="cls-3" d="M1139.56,394.57c-1.94,11.48,10.16,15.42,9.65.11" transform="translate(-1009.79 -330.9)"/><path class="cls-3" d="M1149.49,394.57c-1.94,11.48,10.16,15.42,9.65.11" transform="translate(-1009.79 -330.9)"/><path class="cls-3" d="M1159.37,394.57c-1.94,11.48,10.16,15.42,9.65.11" transform="translate(-1009.79 -330.9)"/><path class="cls-3" d="M1169.31,394.57c-1.94,11.48,10.16,15.42,9.65.11" transform="translate(-1009.79 -330.9)"/><path class="cls-3" d="M1179.18,394.57c-1.94,11.48,10.16,15.42,9.65.11" transform="translate(-1009.79 -330.9)"/><path class="cls-3" d="M1189.12,394.57c-1.94,11.48,10.16,15.42,9.65.11" transform="translate(-1009.79 -330.9)"/><path class="cls-3" d="M1199,394.57c-1.94,11.48,10.16,15.42,9.65.11" transform="translate(-1009.79 -330.9)"/><path class="cls-3" d="M1109.87,414.9c-1.94,11.48,10.16,15.42,9.65.11" transform="translate(-1009.79 -330.9)"/><path class="cls-3" d="M1119.8,414.9c-1.94,11.48,10.16,15.42,9.65.11" transform="translate(-1009.79 -330.9)"/><path class="cls-3" d="M1129.68,414.9c-1.94,11.48,10.16,15.42,9.65.11" transform="translate(-1009.79 -330.9)"/><path class="cls-3" d="M1139.56,414.9c-1.94,11.48,10.16,15.42,9.65.11" transform="translate(-1009.79 -330.9)"/><path class="cls-3" d="M1149.49,414.9c-1.94,11.48,10.16,15.42,9.65.11" transform="translate(-1009.79 -330.9)"/><path class="cls-3" d="M1159.37,414.9c-1.94,11.48,10.16,15.42,9.65.11" transform="translate(-1009.79 -330.9)"/><path class="cls-3" d="M1169.31,414.9c-1.94,11.48,10.16,15.42,9.65.11" transform="translate(-1009.79 -330.9)"/><path class="cls-3" d="M1179.18,414.9c-1.94,11.48,10.16,15.42,9.65.11" transform="translate(-1009.79 -330.9)"/><path class="cls-3" d="M1189.12,414.9c-1.94,11.48,10.16,15.42,9.65.11" transform="translate(-1009.79 -330.9)"/><path class="cls-3" d="M1199,414.9c-1.94,11.48,10.16,15.42,9.65.11" transform="translate(-1009.79 -330.9)"/><path class="cls-3" d="M1109.87,435.17c-1.94,11.48,10.16,15.42,9.65.11" transform="translate(-1009.79 -330.9)"/><path class="cls-3" d="M1119.8,435.17c-1.94,11.48,10.16,15.42,9.65.11" transform="translate(-1009.79 -330.9)"/><path class="cls-3" d="M1129.68,435.17c-1.94,11.48,10.16,15.42,9.65.11" transform="translate(-1009.79 -330.9)"/><path class="cls-3" d="M1139.56,435.17c-1.94,11.48,10.16,15.42,9.65.11" transform="translate(-1009.79 -330.9)"/><path class="cls-3" d="M1149.49,435.17c-1.94,11.48,10.16,15.42,9.65.11" transform="translate(-1009.79 -330.9)"/><path class="cls-3" d="M1159.37,435.17c-1.94,11.48,10.16,15.42,9.65.11" transform="translate(-1009.79 -330.9)"/><path class="cls-3" d="M1169.31,435.17c-1.94,11.48,10.16,15.42,9.65.11" transform="translate(-1009.79 -330.9)"/><path class="cls-3" d="M1179.18,435.17c-1.94,11.48,10.16,15.42,9.65.11" transform="translate(-1009.79 -330.9)"/><path class="cls-3" d="M1189.12,435.17c-1.94,11.48,10.16,15.42,9.65.11" transform="translate(-1009.79 -330.9)"/><path class="cls-3" d="M1199,435.17c-1.94,11.48,10.16,15.42,9.65.11" transform="translate(-1009.79 -330.9)"/><path class="cls-3" d="M1109.87,455.49c-1.94,11.48,10.16,15.42,9.65.11" transform="translate(-1009.79 -330.9)"/><path class="cls-3" d="M1119.8,455.49c-1.94,11.48,10.16,15.42,9.65.11" transform="translate(-1009.79 -330.9)"/><path class="cls-3" d="M1129.68,455.49c-1.94,11.48,10.16,15.42,9.65.11" transform="translate(-1009.79 -330.9)"/><path class="cls-3" d="M1139.56,455.49c-1.94,11.48,10.16,15.42,9.65.11" transform="translate(-1009.79 -330.9)"/><path class="cls-3" d="M1149.49,455.49c-1.94,11.48,10.16,15.42,9.65.11" transform="translate(-1009.79 -330.9)"/><path class="cls-3" d="M1159.37,455.49c-1.94,11.48,10.16,15.42,9.65.11" transform="translate(-1009.79 -330.9)"/><path class="cls-3" d="M1169.31,455.49c-1.94,11.48,10.16,15.42,9.65.11" transform="translate(-1009.79 -330.9)"/><path class="cls-3" d="M1179.18,455.49c-1.94,11.48,10.16,15.42,9.65.11" transform="translate(-1009.79 -330.9)"/><path class="cls-3" d="M1189.12,455.49c-1.94,11.48,10.16,15.42,9.65.11" transform="translate(-1009.79 -330.9)"/><path class="cls-3" d="M1199,455.49c-1.94,11.48,10.16,15.42,9.65.11" transform="translate(-1009.79 -330.9)"/><path class="cls-3" d="M1109.87,475.76c-1.94,11.48,10.16,15.42,9.65.11" transform="translate(-1009.79 -330.9)"/><path class="cls-3" d="M1119.8,475.76c-1.94,11.48,10.16,15.42,9.65.11" transform="translate(-1009.79 -330.9)"/><path class="cls-3" d="M1129.68,475.76c-1.94,11.48,10.16,15.42,9.65.11" transform="translate(-1009.79 -330.9)"/><path class="cls-3" d="M1139.56,475.76c-1.94,11.48,10.16,15.42,9.65.11" transform="translate(-1009.79 -330.9)"/><path class="cls-3" d="M1149.49,475.76c-1.94,11.48,10.16,15.42,9.65.11" transform="translate(-1009.79 -330.9)"/><path class="cls-3" d="M1159.37,475.76c-1.94,11.48,10.16,15.42,9.65.11" transform="translate(-1009.79 -330.9)"/><path class="cls-3" d="M1169.31,475.76c-1.94,11.48,10.16,15.42,9.65.11" transform="translate(-1009.79 -330.9)"/><path class="cls-3" d="M1179.18,475.76c-1.94,11.48,10.16,15.42,9.65.11" transform="translate(-1009.79 -330.9)"/><path class="cls-3" d="M1189.12,475.76c-1.94,11.48,10.16,15.42,9.65.11" transform="translate(-1009.79 -330.9)"/><path class="cls-3" d="M1199,475.76c-1.94,11.48,10.16,15.42,9.65.11" transform="translate(-1009.79 -330.9)"/><path class="cls-3" d="M1109.87,496.09c-1.94,11.48,10.16,15.42,9.65.11" transform="translate(-1009.79 -330.9)"/><path class="cls-3" d="M1119.8,496.09c-1.94,11.48,10.16,15.42,9.65.11" transform="translate(-1009.79 -330.9)"/><path class="cls-3" d="M1129.68,496.09c-1.94,11.48,10.16,15.42,9.65.11" transform="translate(-1009.79 -330.9)"/><path class="cls-3" d="M1139.56,496.09c-1.94,11.48,10.16,15.42,9.65.11" transform="translate(-1009.79 -330.9)"/><path class="cls-3" d="M1149.49,496.09c-1.94,11.48,10.16,15.42,9.65.11" transform="translate(-1009.79 -330.9)"/><path class="cls-3" d="M1159.37,496.09c-1.94,11.48,10.16,15.42,9.65.11" transform="translate(-1009.79 -330.9)"/><path class="cls-3" d="M1169.31,496.09c-1.94,11.48,10.16,15.42,9.65.11" transform="translate(-1009.79 -330.9)"/><path class="cls-3" d="M1179.18,496.09c-1.94,11.48,10.16,15.42,9.65.11" transform="translate(-1009.79 -330.9)"/><path class="cls-3" d="M1189.12,496.09c-1.94,11.48,10.16,15.42,9.65.11" transform="translate(-1009.79 -330.9)"/><path class="cls-3" d="M1199,496.09c-1.94,11.48,10.16,15.42,9.65.11" transform="translate(-1009.79 -330.9)"/><path class="cls-3" d="M1114.72,364.08c-1.94,11.48,10.16,15.42,9.65.11" transform="translate(-1009.79 -330.9)"/><path class="cls-3" d="M1124.6,364.08c-1.94,11.48,10.16,15.42,9.65.11" transform="translate(-1009.79 -330.9)"/><path class="cls-3" d="M1134.53,364.08c-1.94,11.48,10.16,15.42,9.65.11" transform="translate(-1009.79 -330.9)"/><path class="cls-3" d="M1144.41,364.08c-1.94,11.48,10.16,15.42,9.65.11" transform="translate(-1009.79 -330.9)"/><path class="cls-3" d="M1154.29,364.08c-1.94,11.48,10.16,15.42,9.65.11" transform="translate(-1009.79 -330.9)"/><path class="cls-3" d="M1164.22,364.08c-1.94,11.48,10.16,15.42,9.65.11" transform="translate(-1009.79 -330.9)"/><path class="cls-3" d="M1174.1,364.08c-1.94,11.48,10.16,15.42,9.65.11" transform="translate(-1009.79 -330.9)"/><path class="cls-3" d="M1184,364.08c-1.94,11.48,10.16,15.42,9.65.11" transform="translate(-1009.79 -330.9)"/><path class="cls-3" d="M1193.91,364.08c-1.94,11.48,10.16,15.42,9.65.11" transform="translate(-1009.79 -330.9)"/><path class="cls-3" d="M1203.85,364.08c-1.94,11.48,10.16,15.42,9.65.11" transform="translate(-1009.79 -330.9)"/><path class="cls-3" d="M1114.72,384.41c-1.94,11.48,10.16,15.42,9.65.11" transform="translate(-1009.79 -330.9)"/><path class="cls-3" d="M1124.6,384.41c-1.94,11.48,10.16,15.42,9.65.11" transform="translate(-1009.79 -330.9)"/><path class="cls-3" d="M1134.53,384.41c-1.94,11.48,10.16,15.42,9.65.11" transform="translate(-1009.79 -330.9)"/><path class="cls-3" d="M1144.41,384.41c-1.94,11.48,10.16,15.42,9.65.11" transform="translate(-1009.79 -330.9)"/><path class="cls-3" d="M1154.29,384.41c-1.94,11.48,10.16,15.42,9.65.11" transform="translate(-1009.79 -330.9)"/><path class="cls-3" d="M1164.22,384.41c-1.94,11.48,10.16,15.42,9.65.11" transform="translate(-1009.79 -330.9)"/><path class="cls-3" d="M1174.1,384.41c-1.94,11.48,10.16,15.42,9.65.11" transform="translate(-1009.79 -330.9)"/><path class="cls-3" d="M1184,384.41c-1.94,11.48,10.16,15.42,9.65.11" transform="translate(-1009.79 -330.9)"/><path class="cls-3" d="M1193.91,384.41c-1.94,11.48,10.16,15.42,9.65.11" transform="translate(-1009.79 -330.9)"/><path class="cls-3" d="M1203.85,384.41c-1.94,11.48,10.16,15.42,9.65.11" transform="translate(-1009.79 -330.9)"/><path class="cls-3" d="M1114.72,404.73c-1.94,11.48,10.16,15.42,9.65.11" transform="translate(-1009.79 -330.9)"/><path class="cls-3" d="M1124.6,404.73c-1.94,11.48,10.16,15.42,9.65.11" transform="translate(-1009.79 -330.9)"/><path class="cls-3" d="M1134.53,404.73c-1.94,11.48,10.16,15.42,9.65.11" transform="translate(-1009.79 -330.9)"/><path class="cls-3" d="M1144.41,404.73c-1.94,11.48,10.16,15.42,9.65.11" transform="translate(-1009.79 -330.9)"/><path class="cls-3" d="M1154.29,404.73c-1.94,11.48,10.16,15.42,9.65.11" transform="translate(-1009.79 -330.9)"/><path class="cls-3" d="M1164.22,404.73c-1.94,11.48,10.16,15.42,9.65.11" transform="translate(-1009.79 -330.9)"/><path class="cls-3" d="M1174.1,404.73c-1.94,11.48,10.16,15.42,9.65.11" transform="translate(-1009.79 -330.9)"/><path class="cls-3" d="M1184,404.73c-1.94,11.48,10.16,15.42,9.65.11" transform="translate(-1009.79 -330.9)"/><path class="cls-3" d="M1193.91,404.73c-1.94,11.48,10.16,15.42,9.65.11" transform="translate(-1009.79 -330.9)"/><path class="cls-3" d="M1203.85,404.73c-1.94,11.48,10.16,15.42,9.65.11" transform="translate(-1009.79 -330.9)"/><path class="cls-3" d="M1114.72,425c-1.94,11.48,10.16,15.42,9.65.11" transform="translate(-1009.79 -330.9)"/><path class="cls-3" d="M1124.6,425c-1.94,11.48,10.16,15.42,9.65.11" transform="translate(-1009.79 -330.9)"/><path class="cls-3" d="M1134.53,425c-1.94,11.48,10.16,15.42,9.65.11" transform="translate(-1009.79 -330.9)"/><path class="cls-3" d="M1144.41,425c-1.94,11.48,10.16,15.42,9.65.11" transform="translate(-1009.79 -330.9)"/><path class="cls-3" d="M1154.29,425c-1.94,11.48,10.16,15.42,9.65.11" transform="translate(-1009.79 -330.9)"/><path class="cls-3" d="M1164.22,425c-1.94,11.48,10.16,15.42,9.65.11" transform="translate(-1009.79 -330.9)"/><path class="cls-3" d="M1174.1,425c-1.94,11.48,10.16,15.42,9.65.11" transform="translate(-1009.79 -330.9)"/><path class="cls-3" d="M1184,425c-1.94,11.48,10.16,15.42,9.65.11" transform="translate(-1009.79 -330.9)"/><path class="cls-3" d="M1193.91,425c-1.94,11.48,10.16,15.42,9.65.11" transform="translate(-1009.79 -330.9)"/><path class="cls-3" d="M1203.85,425c-1.94,11.48,10.16,15.42,9.65.11" transform="translate(-1009.79 -330.9)"/><path class="cls-3" d="M1114.72,445.33c-1.94,11.48,10.16,15.42,9.65.11" transform="translate(-1009.79 -330.9)"/><path class="cls-3" d="M1124.6,445.33c-1.94,11.48,10.16,15.42,9.65.11" transform="translate(-1009.79 -330.9)"/><path class="cls-3" d="M1134.53,445.33c-1.94,11.48,10.16,15.42,9.65.11" transform="translate(-1009.79 -330.9)"/><path class="cls-3" d="M1144.41,445.33c-1.94,11.48,10.16,15.42,9.65.11" transform="translate(-1009.79 -330.9)"/><path class="cls-3" d="M1154.29,445.33c-1.94,11.48,10.16,15.42,9.65.11" transform="translate(-1009.79 -330.9)"/><path class="cls-3" d="M1164.22,445.33c-1.94,11.48,10.16,15.42,9.65.11" transform="translate(-1009.79 -330.9)"/><path class="cls-3" d="M1174.1,445.33c-1.94,11.48,10.16,15.42,9.65.11" transform="translate(-1009.79 -330.9)"/><path class="cls-3" d="M1184,445.33c-1.94,11.48,10.16,15.42,9.65.11" transform="translate(-1009.79 -330.9)"/><path class="cls-3" d="M1193.91,445.33c-1.94,11.48,10.16,15.42,9.65.11" transform="translate(-1009.79 -330.9)"/><path class="cls-3" d="M1203.85,445.33c-1.94,11.48,10.16,15.42,9.65.11" transform="translate(-1009.79 -330.9)"/><path class="cls-3" d="M1114.72,465.66c-1.94,11.48,10.16,15.42,9.65.11" transform="translate(-1009.79 -330.9)"/><path class="cls-3" d="M1124.6,465.66c-1.94,11.48,10.16,15.42,9.65.11" transform="translate(-1009.79 -330.9)"/><path class="cls-3" d="M1134.53,465.66c-1.94,11.48,10.16,15.42,9.65.11" transform="translate(-1009.79 -330.9)"/><path class="cls-3" d="M1144.41,465.66c-1.94,11.48,10.16,15.42,9.65.11" transform="translate(-1009.79 -330.9)"/><path class="cls-3" d="M1154.29,465.66c-1.94,11.48,10.16,15.42,9.65.11" transform="translate(-1009.79 -330.9)"/><path class="cls-3" d="M1164.22,465.66c-1.94,11.48,10.16,15.42,9.65.11" transform="translate(-1009.79 -330.9)"/><path class="cls-3" d="M1174.1,465.66c-1.94,11.48,10.16,15.42,9.65.11" transform="translate(-1009.79 -330.9)"/><path class="cls-3" d="M1184,465.66c-1.94,11.48,10.16,15.42,9.65.11" transform="translate(-1009.79 -330.9)"/><path class="cls-3" d="M1193.91,465.66c-1.94,11.48,10.16,15.42,9.65.11" transform="translate(-1009.79 -330.9)"/><path class="cls-3" d="M1203.85,465.66c-1.94,11.48,10.16,15.42,9.65.11" transform="translate(-1009.79 -330.9)"/><path class="cls-3" d="M1114.72,485.93c-1.94,11.48,10.16,15.42,9.65.11" transform="translate(-1009.79 -330.9)"/><path class="cls-3" d="M1124.6,485.93c-1.94,11.48,10.16,15.42,9.65.11" transform="translate(-1009.79 -330.9)"/><path class="cls-3" d="M1134.53,485.93c-1.94,11.48,10.16,15.42,9.65.11" transform="translate(-1009.79 -330.9)"/><path class="cls-3" d="M1144.41,485.93c-1.94,11.48,10.16,15.42,9.65.11" transform="translate(-1009.79 -330.9)"/><path class="cls-3" d="M1154.29,485.93c-1.94,11.48,10.16,15.42,9.65.11" transform="translate(-1009.79 -330.9)"/><path class="cls-3" d="M1164.22,485.93c-1.94,11.48,10.16,15.42,9.65.11" transform="translate(-1009.79 -330.9)"/><path class="cls-3" d="M1174.1,485.93c-1.94,11.48,10.16,15.42,9.65.11" transform="translate(-1009.79 -330.9)"/><path class="cls-3" d="M1184,485.93c-1.94,11.48,10.16,15.42,9.65.11" transform="translate(-1009.79 -330.9)"/><path class="cls-3" d="M1193.91,485.93c-1.94,11.48,10.16,15.42,9.65.11" transform="translate(-1009.79 -330.9)"/><path class="cls-3" d="M1203.85,485.93c-1.94,11.48,10.16,15.42,9.65.11" transform="translate(-1009.79 -330.9)"/><path class="cls-3" d="M1114.72,506.25c-1.94,11.48,10.16,15.42,9.65.11" transform="translate(-1009.79 -330.9)"/><path class="cls-3" d="M1124.6,506.25c-1.94,11.48,10.16,15.42,9.65.11" transform="translate(-1009.79 -330.9)"/><path class="cls-3" d="M1134.53,506.25c-1.94,11.48,10.16,15.42,9.65.11" transform="translate(-1009.79 -330.9)"/><path class="cls-3" d="M1144.41,506.25c-1.94,11.48,10.16,15.42,9.65.11" transform="translate(-1009.79 -330.9)"/><path class="cls-3" d="M1154.29,506.25c-1.94,11.48,10.16,15.42,9.65.11" transform="translate(-1009.79 -330.9)"/><path class="cls-3" d="M1164.22,506.25c-1.94,11.48,10.16,15.42,9.65.11" transform="translate(-1009.79 -330.9)"/><path class="cls-3" d="M1174.1,506.25c-1.94,11.48,10.16,15.42,9.65.11" transform="translate(-1009.79 -330.9)"/><path class="cls-3" d="M1184,506.25c-1.94,11.48,10.16,15.42,9.65.11" transform="translate(-1009.79 -330.9)"/><path class="cls-3" d="M1193.91,506.25c-1.94,11.48,10.16,15.42,9.65.11" transform="translate(-1009.79 -330.9)"/><path class="cls-3" d="M1203.85,506.25c-1.94,11.48,10.16,15.42,9.65.11" transform="translate(-1009.79 -330.9)"/></g><path class="cls-3" d="M1109,364.88c-30.43,0-42.82-5-42.82-5s-5.37,25.81-30.83,29.52c0,111.28,73.66,127,73.66,127s73.66-15.82,73.66-127c-25.47-3.71-30.83-29.52-30.83-29.52S1139.39,364.88,1109,364.88Z" transform="translate(-1009.79 -330.9)"/><path class="cls-6" d="M1029.36,374.18c2.17-1,5,.23,6.22,2.85s.46,5.54-1.71,6.62-5-.23-6.22-2.86S1027.19,375.21,1029.36,374.18Z" transform="translate(-1009.79 -330.9)"/><path class="cls-7" d="M1029.36,374.18c2.17-1,5,.23,6.22,2.85s.46,5.54-1.71,6.62-5-.23-6.22-2.86S1027.19,375.21,1029.36,374.18Z" transform="translate(-1009.79 -330.9)"/><path class="cls-6" d="M1030.84,377.33a1.73,1.73,0,1,1-.57,2.17A1.64,1.64,0,0,1,1030.84,377.33Z" transform="translate(-1009.79 -330.9)"/><path class="cls-7" d="M1030.84,377.33a1.73,1.73,0,1,1-.57,2.17A1.64,1.64,0,0,1,1030.84,377.33Z" transform="translate(-1009.79 -330.9)"/><path class="cls-6" d="M1188.49,374.18c-2.17-1-5,.23-6.22,2.85s-.46,5.54,1.71,6.62,5-.23,6.22-2.86S1190.66,375.21,1188.49,374.18Z" transform="translate(-1009.79 -330.9)"/><path class="cls-7" d="M1188.49,374.18c-2.17-1-5,.23-6.22,2.85s-.46,5.54,1.71,6.62,5-.23,6.22-2.86S1190.66,375.21,1188.49,374.18Z" transform="translate(-1009.79 -330.9)"/><path class="cls-6" d="M1187.06,377.21a1.72,1.72,0,0,0-2.17,1,1.66,1.66,0,0,0,.57,2.28,1.72,1.72,0,0,0,2.17-1A1.69,1.69,0,0,0,1187.06,377.21Z" transform="translate(-1009.79 -330.9)"/><path class="cls-7" d="M1187.06,377.21a1.72,1.72,0,0,0-2.17,1,1.66,1.66,0,0,0,.57,2.28,1.72,1.72,0,0,0,2.17-1A1.69,1.69,0,0,0,1187.06,377.21Z" transform="translate(-1009.79 -330.9)"/><path class="cls-6" d="M1061.5,339a6.74,6.74,0,1,1-6.74,6.74A6.75,6.75,0,0,1,1061.5,339Z" transform="translate(-1009.79 -330.9)"/><path class="cls-7" d="M1061.5,339a6.74,6.74,0,1,1-6.74,6.74A6.75,6.75,0,0,1,1061.5,339Z" transform="translate(-1009.79 -330.9)"/><path class="cls-6" d="M1061.5,343.41a2.34,2.34,0,1,1-2.34,2.34A2.39,2.39,0,0,1,1061.5,343.41Z" transform="translate(-1009.79 -330.9)"/><path class="cls-7" d="M1061.5,343.41a2.34,2.34,0,1,1-2.34,2.34A2.39,2.39,0,0,1,1061.5,343.41Z" transform="translate(-1009.79 -330.9)"/><path class="cls-6" d="M1156.34,339a6.74,6.74,0,1,0,6.74,6.74A6.75,6.75,0,0,0,1156.34,339Z" transform="translate(-1009.79 -330.9)"/><path class="cls-7" d="M1156.34,339a6.74,6.74,0,1,0,6.74,6.74A6.75,6.75,0,0,0,1156.34,339Z" transform="translate(-1009.79 -330.9)"/><path class="cls-6" d="M1156.34,343.41a2.34,2.34,0,1,0,2.34,2.34A2.39,2.39,0,0,0,1156.34,343.41Z" transform="translate(-1009.79 -330.9)"/><path class="cls-7" d="M1156.34,343.41a2.34,2.34,0,1,0,2.34,2.34A2.39,2.39,0,0,0,1156.34,343.41Z" transform="translate(-1009.79 -330.9)"/><path class="cls-6" d="M1109,345.81a6.74,6.74,0,1,0,6.74,6.74A6.75,6.75,0,0,0,1109,345.81Z" transform="translate(-1009.79 -330.9)"/><path class="cls-7" d="M1109,345.81a6.74,6.74,0,1,0,6.74,6.74A6.75,6.75,0,0,0,1109,345.81Z" transform="translate(-1009.79 -330.9)"/><circle class="cls-8" cx="99.16" cy="21.58" r="2.06"/><circle class="cls-7" cx="99.16" cy="21.58" r="2.06"/><path class="cls-6" d="M1109,520.36a6.74,6.74,0,1,0,6.74,6.74A6.82,6.82,0,0,0,1109,520.36Z" transform="translate(-1009.79 -330.9)"/><path class="cls-7" d="M1109,520.36a6.74,6.74,0,1,0,6.74,6.74A6.82,6.82,0,0,0,1109,520.36Z" transform="translate(-1009.79 -330.9)"/><path class="cls-6" d="M1109,524.58a2.46,2.46,0,1,0,2.46,2.45A2.51,2.51,0,0,0,1109,524.58Z" transform="translate(-1009.79 -330.9)"/><path class="cls-7" d="M1109,524.58a2.46,2.46,0,1,0,2.46,2.45A2.51,2.51,0,0,0,1109,524.58Z" transform="translate(-1009.79 -330.9)"/><path class="cls-9" d="M1076,410.78a1.75,1.75,0,0,1-1.2-1.88v-7.59a3.6,3.6,0,0,1,1.09-2.34l5.14-4.4a4.61,4.61,0,0,1,2.63-1h6.51a2.68,2.68,0,0,0,2.68-2.68V387.6a1.47,1.47,0,0,1,1.09-1.37l11.13-2.68a7.12,7.12,0,0,1,2.91.17l7.65,2.86a.9.9,0,0,0,.23.06,8.4,8.4,0,0,1,1.48,1.14l4.17,4.63a2.58,2.58,0,0,0,3.43.63l1.09-.51c.51-.23,1,0,1.48.57l9.59,10.79a1.45,1.45,0,0,1,.06,1.71l-10.28,13.76a3,3,0,0,1-2.17,1.14h-2.46l2.63-3.65a8.14,8.14,0,0,0,1.2-3.77v-8.45a5.44,5.44,0,0,0-1.54-3.65l-6.79-6.68c-1.37-1.48-1.89-2.05-4.62-2.05h-8.22a4.53,4.53,0,0,0-3.48,1.94l-.51.8h-4.34a3.62,3.62,0,0,0-3.65,1.77v.06l-3.77,6.51-.06.06a3.08,3.08,0,0,0-.17.57l-1.31,11.88c-.06.57-.17,1.08-.17,1.54" transform="translate(-1009.79 -330.9)"/><path class="cls-9" d="M1118.09,403.3c-1.31-1.48-3-3.26-2.91-3.2a4.26,4.26,0,0,0-3.08-1.54h-4.8a2.32,2.32,0,0,0-2.11,1.14s-2.34,3.88-2.34,4a2.19,2.19,0,0,0,1.08,3.31c1,.4,3.26,1.48,4.45,1.88,1.71.63,2.91.91,3.88-.51l1.31-1.77c1.08-1.37.57-2.06-.17-2.74a9.64,9.64,0,0,0-1.2-1.2c-.23-.23-.34-.23-.91-.23h-.63c-.34,0-.51.23-.06.63,0,0,.91,1.09,1.31,1.48s.4.74,0,1.31l-1,1.48c-.51.63-.74.74-1.71.23l-4.4-1.88c-.57-.34-.57-.63-.23-1.37.06-.06,2.06-3.43,2.11-3.48.17-.34.34-.4.8-.4h4.74a2.67,2.67,0,0,1,1.94,1s2.51,2.74,2.68,2.91c.63.63.8,1.14.8,3.88v3.88c-1-.23-2.06-.57-2.11-.57a6.7,6.7,0,0,0-3.83-.06l-4.85,1.6-9.59-4.57.34-2.06a6.54,6.54,0,0,1,1.14-3l5-7.88a3.1,3.1,0,0,1,2.17-1.2h8.28a2.33,2.33,0,0,1,1.71.63l6.68,6.68a4.24,4.24,0,0,1,1.14,2.68v8.45a5.58,5.58,0,0,1-.06.91l-.06.23-4.05-1.2v-4.05c-.23-2.51-.23-3.88-1.48-5.37" transform="translate(-1009.79 -330.9)"/><path class="cls-9" d="M1096.51,402.16a11.32,11.32,0,0,0-1.31,3.6l-.23,1.71-.23-.17-3-1.48a1,1,0,0,1-.57-.91l.06-.51,3.77-6.45a2.31,2.31,0,0,1,2.34-1.08h2.46" transform="translate(-1009.79 -330.9)"/><path class="cls-9" d="M1091.31,407.13l.4.23,13.19,6.34-9.59,2.91a4,4,0,0,0-2.51,2.74l-1.31,5.88-1.2-4.45a11.48,11.48,0,0,1-.17-4.22l1-9.25.06-.34" transform="translate(-1009.79 -330.9)"/><path class="cls-9" d="M1095,420.26a3,3,0,0,1,1.54-1.71l16.45-5a6,6,0,0,1,2.85.06h.06l6.45,1.77-.06.06-3.77,5.14H1108a7.72,7.72,0,0,0-3.77,1.09l-10.91,6.17" transform="translate(-1009.79 -330.9)"/><path class="cls-9" d="M1105.64,449a1.51,1.51,0,0,1-1.6.4s-18.33-9.36-21.7-11.13a6.53,6.53,0,0,1-1.6-1.77l-6.28-14.16a5.53,5.53,0,0,1-.17-.63c0-.4.23-.63.57-1,.17-.06,6.11-3,8-4l4.74,2.74v-.11c.06.4.17.8.23,1.2,0,.06,2.11,7.42,2.46,8.68v.23l-2.63,1.48a3,3,0,0,0-1.49,2.51,3.2,3.2,0,0,0,2.11,2.74,1.62,1.62,0,0,1,.4.23c.17.06.34.17.51.23l18.33,9.36" transform="translate(-1009.79 -330.9)"/><path class="cls-9" d="M1141.5,417.69l-6,1.94a7.68,7.68,0,0,0-3.25,2.28l-7.31,9.82a7.07,7.07,0,0,1-2.34,1.77l-10.39,3.83a4.13,4.13,0,0,1-2.63-.17s-9.59-5.14-10-5.37c-.57-.34-1-.23-1,.23s0,.74,1,1.31,10.16,5.77,10.16,5.77a5.68,5.68,0,0,0,4,.23l10.51-3.83a9.28,9.28,0,0,0,3.2-2.34l6.79-9.19,1.54,6.11a4.21,4.21,0,0,1-.4,2.63l-5.94,8.28c-1.08,1.37-1.54,1.6-3.43,2.05-.06,0-16.62,1.94-17.07,1.94-.57-.23-16.33-8.28-19.47-9.82-.51-.34-.74-.63-.74-1.09a1.08,1.08,0,0,1,.57-.91l16.67-9.53a7.66,7.66,0,0,1,3-.8h16.44a5.43,5.43,0,0,0,3.6-1.77s3.88-5.14,6.85-9.14l5.71,5.42c.17.17.17.23.17.23s-.11.06-.28.11" transform="translate(-1009.79 -330.9)"/></svg>